<?xml version='1.0' encoding='ASCII' standalone='yes'?>
<svg xmlns="http://www.w3.org/2000/svg" version="1.1" width="125mm" height="25mm">
  <g>
    <g transform="translate(0, 0.0) scale(1)"><g id="surface56">
<path style=" stroke:none;fill-rule:nonzero;fill:rgb(100%,100%,100%);fill-opacity:1;" d="M 0 0 L 70.867188 0 L 70.867188 70.867188 L 0 70.867188 Z "/>
<path style="fill:none;stroke-width:0.02;stroke-linecap:round;stroke-linejoin:round;stroke:rgb(0%,0%,0%);stroke-opacity:1;stroke-miterlimit:10;" d="M 0.916671 0 L 0.916671 0.500007 L 1.000015 0.500007 M 0.0833437 0 L 0.0833437 0.214312 L 1.000015 0.214312 M 0.249976 0 L 0.249976 0.357132 L 1.000015 0.357132 M 0.416664 0 L 0.416664 0.642882 L 1.000015 0.642882 M 0.583351 0 L 0.583351 0.785702 L 1.000015 0.785702 M 0.749984 0 L 0.749984 0.928577 L 1.000015 0.928577 " transform="matrix(70.866142,0,0,70.866142,0,0)"/>
</g>
</g>
  </g>
  <g>
    <g transform="translate(283.464566929, 0.0) scale(1)"><g id="surface36">
<path style=" stroke:none;fill-rule:nonzero;fill:rgb(100%,100%,100%);fill-opacity:1;" d="M 0 0 L 70.867188 0 L 70.867188 70.867188 L 0 70.867188 Z "/>
<path style="fill:none;stroke-width:0.02;stroke-linecap:round;stroke-linejoin:round;stroke:rgb(0%,0%,0%);stroke-opacity:1;stroke-miterlimit:10;" d="M 0 0.500007 L 0.125016 0.500007 L 0.125016 0.928577 L 0 0.928577 " transform="matrix(70.866142,0,0,70.866142,0,0)"/>
</g>
</g>
  </g>
  <g>
    <g transform="translate(70.8661417323, 0.0) scale(1)"><g id="surface16">
<path style=" stroke:none;fill-rule:nonzero;fill:rgb(100%,100%,100%);fill-opacity:1;" d="M 0 0 L 70.867188 0 L 70.867188 70.867188 L 0 70.867188 Z "/>
<path style="fill:none;stroke-width:0.02;stroke-linecap:round;stroke-linejoin:round;stroke:rgb(0%,0%,0%);stroke-opacity:1;stroke-miterlimit:10;" d="M 0 0.214312 L 0.166743 0.275001 M 1.000015 0.214312 L 0.833272 0.275001 M 0 0.357132 L 0.166743 0.424987 M 1.000015 0.357132 L 0.833272 0.424987 M 0 0.500007 L 0.166743 0.574973 L 0.550003 0.574973 L 0.699988 0.725013 L 0.833272 0.725013 M 1.000015 0.500007 L 0.833272 0.574973 M 0 0.642882 L 0.166743 0.725013 L 0.300026 0.725013 L 0.400017 0.642882 L 1.000015 0.642882 M 0 0.785702 L 0.166743 0.839776 L 0.833272 0.839776 L 1.000015 0.785702 M 0 0.928577 L 1.000015 0.928577 " transform="matrix(70.866142,0,0,70.866142,0,0)"/>
</g>
</g>
  </g>
  <g>
    <g transform="translate(141.732283465, 0.0) scale(1)"><g id="surface16">
<path style=" stroke:none;fill-rule:nonzero;fill:rgb(100%,100%,100%);fill-opacity:1;" d="M 0 0 L 70.867188 0 L 70.867188 70.867188 L 0 70.867188 Z "/>
<path style="fill:none;stroke-width:0.02;stroke-linecap:round;stroke-linejoin:round;stroke:rgb(0%,0%,0%);stroke-opacity:1;stroke-miterlimit:10;" d="M 0 0.214312 L 0.166743 0.275001 M 1.000015 0.214312 L 0.833272 0.275001 M 0 0.357132 L 0.166743 0.424987 M 1.000015 0.357132 L 0.833272 0.424987 M 0 0.500007 L 0.166743 0.574973 L 0.550003 0.574973 L 0.699988 0.725013 L 0.833272 0.725013 M 1.000015 0.500007 L 0.833272 0.574973 M 0 0.642882 L 0.166743 0.725013 L 0.300026 0.725013 L 0.400017 0.642882 L 1.000015 0.642882 M 0 0.785702 L 0.166743 0.839776 L 0.833272 0.839776 L 1.000015 0.785702 M 0 0.928577 L 1.000015 0.928577 " transform="matrix(70.866142,0,0,70.866142,0,0)"/>
</g>
</g>
  </g>
  <g>
    <g transform="translate(212.598425197, 0.0) scale(1)"><g id="surface16">
<path style=" stroke:none;fill-rule:nonzero;fill:rgb(100%,100%,100%);fill-opacity:1;" d="M 0 0 L 70.867188 0 L 70.867188 70.867188 L 0 70.867188 Z "/>
<path style="fill:none;stroke-width:0.02;stroke-linecap:round;stroke-linejoin:round;stroke:rgb(0%,0%,0%);stroke-opacity:1;stroke-miterlimit:10;" d="M 0 0.214312 L 0.166743 0.275001 M 1.000015 0.214312 L 0.833272 0.275001 M 0 0.357132 L 0.166743 0.424987 M 1.000015 0.357132 L 0.833272 0.424987 M 0 0.500007 L 0.166743 0.574973 L 0.550003 0.574973 L 0.699988 0.725013 L 0.833272 0.725013 M 1.000015 0.500007 L 0.833272 0.574973 M 0 0.642882 L 0.166743 0.725013 L 0.300026 0.725013 L 0.400017 0.642882 L 1.000015 0.642882 M 0 0.785702 L 0.166743 0.839776 L 0.833272 0.839776 L 1.000015 0.785702 M 0 0.928577 L 1.000015 0.928577 " transform="matrix(70.866142,0,0,70.866142,0,0)"/>
</g>
</g>
  </g>
</svg>
