G75*
G70*
%OFA0B0*%
%FSLAX24Y24*%
%IPPOS*%
%LPD*%
%AMOC8*
5,1,8,0,0,1.08239X$1,22.5*
%
%ADD10C,0.0030*%
%ADD11C,0.0040*%
D10*
X001556Y001811D02*
X001556Y002058D01*
X001433Y001934D02*
X001680Y001934D01*
X001696Y003344D02*
X001449Y003344D01*
X001512Y004715D02*
X001512Y005005D01*
X001608Y005005D02*
X001415Y005005D01*
X001710Y004908D02*
X001903Y004715D01*
X002004Y004715D02*
X002101Y004715D01*
X002053Y004715D02*
X002053Y005005D01*
X002101Y005005D02*
X002004Y005005D01*
X001903Y004908D02*
X001710Y004715D01*
X001710Y006115D02*
X001903Y006308D01*
X002004Y006405D02*
X002101Y006405D01*
X002053Y006405D02*
X002053Y006115D01*
X002101Y006115D02*
X002004Y006115D01*
X001903Y006115D02*
X001710Y006308D01*
X001608Y006260D02*
X001560Y006212D01*
X001415Y006212D01*
X001512Y006212D02*
X001608Y006115D01*
X001608Y006260D02*
X001608Y006357D01*
X001560Y006405D01*
X001415Y006405D01*
X001415Y006115D01*
X006203Y006071D02*
X006203Y005781D01*
X006203Y005878D02*
X006348Y005878D01*
X006397Y005926D01*
X006397Y006023D01*
X006348Y006071D01*
X006203Y006071D01*
X006300Y005878D02*
X006397Y005781D01*
X006498Y005781D02*
X006691Y005975D01*
X006792Y006023D02*
X006792Y005829D01*
X006841Y005781D01*
X006937Y005781D01*
X006986Y005829D01*
X006986Y006023D01*
X006937Y006071D01*
X006841Y006071D01*
X006792Y006023D01*
X006691Y005781D02*
X006498Y005975D01*
X006375Y004888D02*
X006181Y004888D01*
X006278Y004888D02*
X006278Y004598D01*
X006476Y004598D02*
X006669Y004792D01*
X006770Y004840D02*
X006770Y004646D01*
X006819Y004598D01*
X006915Y004598D01*
X006964Y004646D01*
X006964Y004840D01*
X006915Y004888D01*
X006819Y004888D01*
X006770Y004840D01*
X006669Y004598D02*
X006476Y004792D01*
X006599Y003466D02*
X006846Y003466D01*
X006722Y002008D02*
X006722Y001761D01*
X006599Y001884D02*
X006846Y001884D01*
D11*
X002477Y001851D02*
X002170Y001851D01*
X002017Y001697D01*
X002170Y001544D01*
X002477Y001544D01*
X002247Y001544D02*
X002247Y001851D01*
X002017Y002004D02*
X002477Y002004D01*
X002477Y002234D01*
X002400Y002311D01*
X002093Y002311D01*
X002017Y002234D01*
X002017Y002004D01*
X002170Y002464D02*
X002017Y002618D01*
X002477Y002618D01*
X002477Y002771D02*
X002477Y002464D01*
X002247Y001390D02*
X002093Y001390D01*
X002017Y001314D01*
X002017Y001083D01*
X002477Y001083D01*
X002323Y001083D02*
X002323Y001314D01*
X002247Y001390D01*
X001343Y002475D02*
X000883Y002475D01*
X000883Y002705D01*
X000959Y002782D01*
X001113Y002782D01*
X001190Y002705D01*
X001190Y002475D01*
X001113Y002936D02*
X001113Y003242D01*
X001036Y003242D02*
X001343Y003242D01*
X001343Y003396D02*
X001343Y003626D01*
X001266Y003703D01*
X000959Y003703D01*
X000883Y003626D01*
X000883Y003396D01*
X001343Y003396D01*
X001036Y003242D02*
X000883Y003089D01*
X001036Y002936D01*
X001343Y002936D01*
X001343Y003856D02*
X001036Y004163D01*
X000959Y004163D01*
X000883Y004086D01*
X000883Y003933D01*
X000959Y003856D01*
X001343Y003856D02*
X001343Y004163D01*
X002015Y004212D02*
X002015Y003981D01*
X002475Y003981D01*
X002321Y003981D02*
X002321Y004212D01*
X002245Y004288D01*
X002091Y004288D01*
X002015Y004212D01*
X002168Y004442D02*
X002015Y004595D01*
X002168Y004749D01*
X002475Y004749D01*
X002475Y004902D02*
X002475Y005132D01*
X002398Y005209D01*
X002091Y005209D01*
X002015Y005132D01*
X002015Y004902D01*
X002475Y004902D01*
X002245Y004749D02*
X002245Y004442D01*
X002168Y004442D02*
X002475Y004442D01*
X002245Y005362D02*
X002245Y005669D01*
X002247Y005710D02*
X002323Y005634D01*
X002323Y005403D01*
X002245Y005362D02*
X002015Y005593D01*
X002475Y005593D01*
X002477Y005403D02*
X002017Y005403D01*
X002017Y005634D01*
X002093Y005710D01*
X002247Y005710D01*
X002247Y005864D02*
X002247Y006171D01*
X002170Y006171D02*
X002477Y006171D01*
X002477Y006324D02*
X002477Y006554D01*
X002400Y006631D01*
X002093Y006631D01*
X002017Y006554D01*
X002017Y006324D01*
X002477Y006324D01*
X002588Y006385D02*
X002665Y006462D01*
X002665Y006769D01*
X002588Y006845D01*
X002358Y006845D01*
X002358Y006385D01*
X002588Y006385D01*
X002818Y006462D02*
X002895Y006385D01*
X003049Y006385D01*
X003125Y006462D01*
X003125Y006539D01*
X003049Y006615D01*
X002818Y006615D01*
X002818Y006462D01*
X002818Y006615D02*
X002972Y006769D01*
X003125Y006845D01*
X002477Y006861D02*
X002400Y006784D01*
X002477Y006861D02*
X002477Y007015D01*
X002400Y007091D01*
X002247Y007091D01*
X002170Y007015D01*
X002170Y006938D01*
X002247Y006784D01*
X002017Y006784D01*
X002017Y007091D01*
X002051Y006845D02*
X002205Y006692D01*
X002205Y006385D01*
X002205Y006615D02*
X001898Y006615D01*
X001898Y006692D02*
X002051Y006845D01*
X001898Y006692D02*
X001898Y006385D01*
X001744Y006615D02*
X001668Y006539D01*
X001437Y006539D01*
X001437Y006385D02*
X001437Y006845D01*
X001668Y006845D01*
X001744Y006769D01*
X001744Y006615D01*
X002170Y006171D02*
X002017Y006017D01*
X002170Y005864D01*
X002477Y005864D01*
X006317Y006413D02*
X006317Y006873D01*
X006548Y006873D01*
X006624Y006797D01*
X006624Y006643D01*
X006548Y006567D01*
X006317Y006567D01*
X006778Y006643D02*
X007085Y006643D01*
X007085Y006720D02*
X007085Y006413D01*
X007238Y006413D02*
X007468Y006413D01*
X007545Y006490D01*
X007545Y006797D01*
X007468Y006873D01*
X007238Y006873D01*
X007238Y006413D01*
X007085Y006720D02*
X006931Y006873D01*
X006778Y006720D01*
X006778Y006413D01*
X007698Y006490D02*
X007775Y006413D01*
X007929Y006413D01*
X008005Y006490D01*
X008005Y006567D01*
X007929Y006643D01*
X007852Y006643D01*
X007929Y006643D02*
X008005Y006720D01*
X008005Y006797D01*
X007929Y006873D01*
X007775Y006873D01*
X007698Y006797D01*
M02*
