<?xml version="1.0" encoding="UTF-8"?>
<svg xmlns="http://www.w3.org/2000/svg" xmlns:xlink="http://www.w3.org/1999/xlink" width="70.866142pt" height="70.866142pt" viewBox="0 0 70.866142 70.866142" version="1.1">
<g id="surface9">
<path style=" stroke:none;fill-rule:nonzero;fill:rgb(100%,100%,100%);fill-opacity:1;" d="M 0 0 L 70.867188 0 L 70.867188 70.867188 L 0 70.867188 Z "/>
<path style="fill:none;stroke-width:0.05;stroke-linecap:round;stroke-linejoin:round;stroke:rgb(0%,0%,0%);stroke-opacity:1;stroke-miterlimit:10;" d="M 0.749984 0 L 0.749984 0.249976 M 0.66664 0.249976 L 1.000015 0.249976 M 0.749984 0.249976 L 0.749984 1.000015 M 0.583351 0 L 0.583351 0.416664 M 0.500007 0.416664 L 1.000015 0.416664 M 0.583351 0.416664 L 0.583351 1.000015 " transform="matrix(70.866142,0,0,70.866142,0,0)"/>
<path style="fill:none;stroke-width:0.02;stroke-linecap:round;stroke-linejoin:round;stroke:rgb(0%,0%,0%);stroke-opacity:1;stroke-miterlimit:10;" d="M 1.000015 0.0833437 L 0.916671 0.0833437 L 0.916671 0 M 0.416664 0 L 0.416664 1.000015 M 1.000015 0.583351 L 0.916671 0.583351 L 0.916671 1.000015 M 0.249976 0 L 0.249976 0.749984 M 0.166687 0.749984 L 1.000015 0.749984 M 0.249976 0.749984 L 0.249976 1.000015 M 0.0833437 0 L 0.0833437 0.916671 M 0 0.916671 L 1.000015 0.916671 M 0.0833437 0.916671 L 0.0833437 1.000015 " transform="matrix(70.866142,0,0,70.866142,0,0)"/>
</g>
</svg>
