<?xml version='1.0' encoding='ASCII' standalone='yes'?>
<svg xmlns="http://www.w3.org/2000/svg" version="1.1" width="175mm" height="125mm">
  <g>
    <g transform="translate(0, 0.0) scale(1)"><g id="surface9">
<path style=" stroke:none;fill-rule:nonzero;fill:rgb(100%,100%,100%);fill-opacity:1;" d="M 0 0 L 70.867188 0 L 70.867188 70.867188 L 0 70.867188 Z "/>
<path style="fill:none;stroke-width:0.02;stroke-linecap:round;stroke-linejoin:round;stroke:rgb(0%,0%,0%);stroke-opacity:1;stroke-miterlimit:10;" d="M 0.66664 0 L 0.66664 0.275001 L 1.000015 0.275001 M 0.66664 0.275001 L 0.66664 1.000015 M 0.33332 0 L 0.33332 0.424987 L 1.000015 0.424987 M 0.33332 0.424987 L 0.33332 1.000015 M 1.000015 0.0833437 L 0.916671 0.0833437 L 0.916671 0 M 0.0833437 0 L 0.0833437 1.000015 M 1.000015 0.574973 L 0.916671 0.574973 L 0.916671 1.000015 " transform="matrix(70.866142,0,0,70.866142,0,0)"/>
</g>
</g>
  </g>
  <g>
    <g transform="translate(70.8661417323, 0.0) scale(1)"><g id="surface1">
<path style=" stroke:none;fill-rule:nonzero;fill:rgb(100%,100%,100%);fill-opacity:1;" d="M 0 0 L 70.867188 0 L 70.867188 70.867188 L 0 70.867188 Z "/>
<path style="fill:none;stroke-width:0.02;stroke-linecap:round;stroke-linejoin:round;stroke:rgb(0%,0%,0%);stroke-opacity:1;stroke-miterlimit:10;" d="M 0 0.275001 L 0.166743 0.275001 M 1.000015 0.275001 L 0.833272 0.275001 M 0 0.424987 L 0.166743 0.424987 M 1.000015 0.424987 L 0.833272 0.424987 M 0 0.0833437 L 1.000015 0.0833437 M 0 0.574973 L 0.833272 0.574973 M 1.000015 0.574973 L 0.833272 0.725013 M 0.199981 0.699988 L 0.400017 0.799979 " transform="matrix(70.866142,0,0,70.866142,0,0)"/>
</g>
</g>
  </g>
  <g>
    <g transform="translate(141.732283465, 0.0) scale(1)"><g id="surface1">
<path style=" stroke:none;fill-rule:nonzero;fill:rgb(100%,100%,100%);fill-opacity:1;" d="M 0 0 L 70.867188 0 L 70.867188 70.867188 L 0 70.867188 Z "/>
<path style="fill:none;stroke-width:0.02;stroke-linecap:round;stroke-linejoin:round;stroke:rgb(0%,0%,0%);stroke-opacity:1;stroke-miterlimit:10;" d="M 0 0.275001 L 0.166743 0.275001 M 1.000015 0.275001 L 0.833272 0.275001 M 0 0.424987 L 0.166743 0.424987 M 1.000015 0.424987 L 0.833272 0.424987 M 0 0.0833437 L 1.000015 0.0833437 M 0 0.574973 L 0.833272 0.574973 M 1.000015 0.574973 L 0.833272 0.725013 M 0.199981 0.699988 L 0.400017 0.799979 " transform="matrix(70.866142,0,0,70.866142,0,0)"/>
</g>
</g>
  </g>
  <g>
    <g transform="translate(212.598425197, 0.0) scale(1)"><g id="surface1">
<path style=" stroke:none;fill-rule:nonzero;fill:rgb(100%,100%,100%);fill-opacity:1;" d="M 0 0 L 70.867188 0 L 70.867188 70.867188 L 0 70.867188 Z "/>
<path style="fill:none;stroke-width:0.02;stroke-linecap:round;stroke-linejoin:round;stroke:rgb(0%,0%,0%);stroke-opacity:1;stroke-miterlimit:10;" d="M 0 0.275001 L 0.166743 0.275001 M 1.000015 0.275001 L 0.833272 0.275001 M 0 0.424987 L 0.166743 0.424987 M 1.000015 0.424987 L 0.833272 0.424987 M 0 0.0833437 L 1.000015 0.0833437 M 0 0.574973 L 0.833272 0.574973 M 1.000015 0.574973 L 0.833272 0.725013 M 0.199981 0.699988 L 0.400017 0.799979 " transform="matrix(70.866142,0,0,70.866142,0,0)"/>
</g>
</g>
  </g>
  <g>
    <g transform="translate(283.464566929, 0.0) scale(1)"><g id="surface1">
<path style=" stroke:none;fill-rule:nonzero;fill:rgb(100%,100%,100%);fill-opacity:1;" d="M 0 0 L 70.867188 0 L 70.867188 70.867188 L 0 70.867188 Z "/>
<path style="fill:none;stroke-width:0.02;stroke-linecap:round;stroke-linejoin:round;stroke:rgb(0%,0%,0%);stroke-opacity:1;stroke-miterlimit:10;" d="M 0 0.275001 L 0.166743 0.275001 M 1.000015 0.275001 L 0.833272 0.275001 M 0 0.424987 L 0.166743 0.424987 M 1.000015 0.424987 L 0.833272 0.424987 M 0 0.0833437 L 1.000015 0.0833437 M 0 0.574973 L 0.833272 0.574973 M 1.000015 0.574973 L 0.833272 0.725013 M 0.199981 0.699988 L 0.400017 0.799979 " transform="matrix(70.866142,0,0,70.866142,0,0)"/>
</g>
</g>
  </g>
  <g>
    <g transform="translate(354.330708661, 0.0) scale(1)"><g id="surface5">
<path style=" stroke:none;fill-rule:nonzero;fill:rgb(100%,100%,100%);fill-opacity:1;" d="M 0 0 L 70.867188 0 L 70.867188 70.867188 L 0 70.867188 Z "/>
<path style="fill:none;stroke-width:0.02;stroke-linecap:round;stroke-linejoin:round;stroke:rgb(0%,0%,0%);stroke-opacity:1;stroke-miterlimit:10;" d="M 0 0.275001 L 0.166743 0.275001 M 0 0.424987 L 0.166743 0.424987 M 0.833272 0.275001 L 0.833272 0.424987 M 0 0.0833437 L 1.000015 0.0833437 L 1.000015 0.574973 M 0 0.574973 L 0.833272 0.574973 M 1.000015 0.574973 L 0.833272 0.725013 M 0.199981 0.699988 L 0.400017 0.799979 " transform="matrix(70.866142,0,0,70.866142,0,0)"/>
</g>
</g>
  </g>
  <g>
    <g transform="translate(0, 70.8661417323) scale(1)"><g id="surface9">
<path style=" stroke:none;fill-rule:nonzero;fill:rgb(100%,100%,100%);fill-opacity:1;" d="M 0 0 L 70.867188 0 L 70.867188 70.867188 L 0 70.867188 Z "/>
<path style="fill:none;stroke-width:0.02;stroke-linecap:round;stroke-linejoin:round;stroke:rgb(0%,0%,0%);stroke-opacity:1;stroke-miterlimit:10;" d="M 0.66664 0 L 0.66664 0.275001 L 1.000015 0.275001 M 0.66664 0.275001 L 0.66664 1.000015 M 0.33332 0 L 0.33332 0.424987 L 1.000015 0.424987 M 0.33332 0.424987 L 0.33332 1.000015 M 1.000015 0.0833437 L 0.916671 0.0833437 L 0.916671 0 M 0.0833437 0 L 0.0833437 1.000015 M 1.000015 0.574973 L 0.916671 0.574973 L 0.916671 1.000015 " transform="matrix(70.866142,0,0,70.866142,0,0)"/>
</g>
</g>
  </g>
  <g>
    <g transform="translate(70.8661417323, 70.8661417323) scale(1)"><g id="surface1">
<path style=" stroke:none;fill-rule:nonzero;fill:rgb(100%,100%,100%);fill-opacity:1;" d="M 0 0 L 70.867188 0 L 70.867188 70.867188 L 0 70.867188 Z "/>
<path style="fill:none;stroke-width:0.02;stroke-linecap:round;stroke-linejoin:round;stroke:rgb(0%,0%,0%);stroke-opacity:1;stroke-miterlimit:10;" d="M 0 0.275001 L 0.166743 0.275001 M 1.000015 0.275001 L 0.833272 0.275001 M 0 0.424987 L 0.166743 0.424987 M 1.000015 0.424987 L 0.833272 0.424987 M 0 0.0833437 L 1.000015 0.0833437 M 0 0.574973 L 0.833272 0.574973 M 1.000015 0.574973 L 0.833272 0.725013 M 0.199981 0.699988 L 0.400017 0.799979 " transform="matrix(70.866142,0,0,70.866142,0,0)"/>
</g>
</g>
  </g>
  <g>
    <g transform="translate(141.732283465, 70.8661417323) scale(1)"><g id="surface1">
<path style=" stroke:none;fill-rule:nonzero;fill:rgb(100%,100%,100%);fill-opacity:1;" d="M 0 0 L 70.867188 0 L 70.867188 70.867188 L 0 70.867188 Z "/>
<path style="fill:none;stroke-width:0.02;stroke-linecap:round;stroke-linejoin:round;stroke:rgb(0%,0%,0%);stroke-opacity:1;stroke-miterlimit:10;" d="M 0 0.275001 L 0.166743 0.275001 M 1.000015 0.275001 L 0.833272 0.275001 M 0 0.424987 L 0.166743 0.424987 M 1.000015 0.424987 L 0.833272 0.424987 M 0 0.0833437 L 1.000015 0.0833437 M 0 0.574973 L 0.833272 0.574973 M 1.000015 0.574973 L 0.833272 0.725013 M 0.199981 0.699988 L 0.400017 0.799979 " transform="matrix(70.866142,0,0,70.866142,0,0)"/>
</g>
</g>
  </g>
  <g>
    <g transform="translate(212.598425197, 70.8661417323) scale(1)"><g id="surface1">
<path style=" stroke:none;fill-rule:nonzero;fill:rgb(100%,100%,100%);fill-opacity:1;" d="M 0 0 L 70.867188 0 L 70.867188 70.867188 L 0 70.867188 Z "/>
<path style="fill:none;stroke-width:0.02;stroke-linecap:round;stroke-linejoin:round;stroke:rgb(0%,0%,0%);stroke-opacity:1;stroke-miterlimit:10;" d="M 0 0.275001 L 0.166743 0.275001 M 1.000015 0.275001 L 0.833272 0.275001 M 0 0.424987 L 0.166743 0.424987 M 1.000015 0.424987 L 0.833272 0.424987 M 0 0.0833437 L 1.000015 0.0833437 M 0 0.574973 L 0.833272 0.574973 M 1.000015 0.574973 L 0.833272 0.725013 M 0.199981 0.699988 L 0.400017 0.799979 " transform="matrix(70.866142,0,0,70.866142,0,0)"/>
</g>
</g>
  </g>
  <g>
    <g transform="translate(283.464566929, 70.8661417323) scale(1)"><g id="surface1">
<path style=" stroke:none;fill-rule:nonzero;fill:rgb(100%,100%,100%);fill-opacity:1;" d="M 0 0 L 70.867188 0 L 70.867188 70.867188 L 0 70.867188 Z "/>
<path style="fill:none;stroke-width:0.02;stroke-linecap:round;stroke-linejoin:round;stroke:rgb(0%,0%,0%);stroke-opacity:1;stroke-miterlimit:10;" d="M 0 0.275001 L 0.166743 0.275001 M 1.000015 0.275001 L 0.833272 0.275001 M 0 0.424987 L 0.166743 0.424987 M 1.000015 0.424987 L 0.833272 0.424987 M 0 0.0833437 L 1.000015 0.0833437 M 0 0.574973 L 0.833272 0.574973 M 1.000015 0.574973 L 0.833272 0.725013 M 0.199981 0.699988 L 0.400017 0.799979 " transform="matrix(70.866142,0,0,70.866142,0,0)"/>
</g>
</g>
  </g>
  <g>
    <g transform="translate(354.330708661, 70.8661417323) scale(1)"><g id="surface5">
<path style=" stroke:none;fill-rule:nonzero;fill:rgb(100%,100%,100%);fill-opacity:1;" d="M 0 0 L 70.867188 0 L 70.867188 70.867188 L 0 70.867188 Z "/>
<path style="fill:none;stroke-width:0.02;stroke-linecap:round;stroke-linejoin:round;stroke:rgb(0%,0%,0%);stroke-opacity:1;stroke-miterlimit:10;" d="M 0 0.275001 L 0.166743 0.275001 M 0 0.424987 L 0.166743 0.424987 M 0.833272 0.275001 L 0.833272 0.424987 M 0 0.0833437 L 1.000015 0.0833437 L 1.000015 0.574973 M 0 0.574973 L 0.833272 0.574973 M 1.000015 0.574973 L 0.833272 0.725013 M 0.199981 0.699988 L 0.400017 0.799979 " transform="matrix(70.866142,0,0,70.866142,0,0)"/>
</g>
</g>
  </g>
  <g>
    <g transform="translate(0, 141.732283465) scale(1)"><g id="surface9">
<path style=" stroke:none;fill-rule:nonzero;fill:rgb(100%,100%,100%);fill-opacity:1;" d="M 0 0 L 70.867188 0 L 70.867188 70.867188 L 0 70.867188 Z "/>
<path style="fill:none;stroke-width:0.02;stroke-linecap:round;stroke-linejoin:round;stroke:rgb(0%,0%,0%);stroke-opacity:1;stroke-miterlimit:10;" d="M 0.66664 0 L 0.66664 0.275001 L 1.000015 0.275001 M 0.66664 0.275001 L 0.66664 1.000015 M 0.33332 0 L 0.33332 0.424987 L 1.000015 0.424987 M 0.33332 0.424987 L 0.33332 1.000015 M 1.000015 0.0833437 L 0.916671 0.0833437 L 0.916671 0 M 0.0833437 0 L 0.0833437 1.000015 M 1.000015 0.574973 L 0.916671 0.574973 L 0.916671 1.000015 " transform="matrix(70.866142,0,0,70.866142,0,0)"/>
</g>
</g>
  </g>
  <g>
    <g transform="translate(70.8661417323, 141.732283465) scale(1)"><g id="surface1">
<path style=" stroke:none;fill-rule:nonzero;fill:rgb(100%,100%,100%);fill-opacity:1;" d="M 0 0 L 70.867188 0 L 70.867188 70.867188 L 0 70.867188 Z "/>
<path style="fill:none;stroke-width:0.02;stroke-linecap:round;stroke-linejoin:round;stroke:rgb(0%,0%,0%);stroke-opacity:1;stroke-miterlimit:10;" d="M 0 0.275001 L 0.166743 0.275001 M 1.000015 0.275001 L 0.833272 0.275001 M 0 0.424987 L 0.166743 0.424987 M 1.000015 0.424987 L 0.833272 0.424987 M 0 0.0833437 L 1.000015 0.0833437 M 0 0.574973 L 0.833272 0.574973 M 1.000015 0.574973 L 0.833272 0.725013 M 0.199981 0.699988 L 0.400017 0.799979 " transform="matrix(70.866142,0,0,70.866142,0,0)"/>
</g>
</g>
  </g>
  <g>
    <g transform="translate(141.732283465, 141.732283465) scale(1)"><g id="surface1">
<path style=" stroke:none;fill-rule:nonzero;fill:rgb(100%,100%,100%);fill-opacity:1;" d="M 0 0 L 70.867188 0 L 70.867188 70.867188 L 0 70.867188 Z "/>
<path style="fill:none;stroke-width:0.02;stroke-linecap:round;stroke-linejoin:round;stroke:rgb(0%,0%,0%);stroke-opacity:1;stroke-miterlimit:10;" d="M 0 0.275001 L 0.166743 0.275001 M 1.000015 0.275001 L 0.833272 0.275001 M 0 0.424987 L 0.166743 0.424987 M 1.000015 0.424987 L 0.833272 0.424987 M 0 0.0833437 L 1.000015 0.0833437 M 0 0.574973 L 0.833272 0.574973 M 1.000015 0.574973 L 0.833272 0.725013 M 0.199981 0.699988 L 0.400017 0.799979 " transform="matrix(70.866142,0,0,70.866142,0,0)"/>
</g>
</g>
  </g>
  <g>
    <g transform="translate(212.598425197, 141.732283465) scale(1)"><g id="surface1">
<path style=" stroke:none;fill-rule:nonzero;fill:rgb(100%,100%,100%);fill-opacity:1;" d="M 0 0 L 70.867188 0 L 70.867188 70.867188 L 0 70.867188 Z "/>
<path style="fill:none;stroke-width:0.02;stroke-linecap:round;stroke-linejoin:round;stroke:rgb(0%,0%,0%);stroke-opacity:1;stroke-miterlimit:10;" d="M 0 0.275001 L 0.166743 0.275001 M 1.000015 0.275001 L 0.833272 0.275001 M 0 0.424987 L 0.166743 0.424987 M 1.000015 0.424987 L 0.833272 0.424987 M 0 0.0833437 L 1.000015 0.0833437 M 0 0.574973 L 0.833272 0.574973 M 1.000015 0.574973 L 0.833272 0.725013 M 0.199981 0.699988 L 0.400017 0.799979 " transform="matrix(70.866142,0,0,70.866142,0,0)"/>
</g>
</g>
  </g>
  <g>
    <g transform="translate(283.464566929, 141.732283465) scale(1)"><g id="surface1">
<path style=" stroke:none;fill-rule:nonzero;fill:rgb(100%,100%,100%);fill-opacity:1;" d="M 0 0 L 70.867188 0 L 70.867188 70.867188 L 0 70.867188 Z "/>
<path style="fill:none;stroke-width:0.02;stroke-linecap:round;stroke-linejoin:round;stroke:rgb(0%,0%,0%);stroke-opacity:1;stroke-miterlimit:10;" d="M 0 0.275001 L 0.166743 0.275001 M 1.000015 0.275001 L 0.833272 0.275001 M 0 0.424987 L 0.166743 0.424987 M 1.000015 0.424987 L 0.833272 0.424987 M 0 0.0833437 L 1.000015 0.0833437 M 0 0.574973 L 0.833272 0.574973 M 1.000015 0.574973 L 0.833272 0.725013 M 0.199981 0.699988 L 0.400017 0.799979 " transform="matrix(70.866142,0,0,70.866142,0,0)"/>
</g>
</g>
  </g>
  <g>
    <g transform="translate(354.330708661, 141.732283465) scale(1)"><g id="surface5">
<path style=" stroke:none;fill-rule:nonzero;fill:rgb(100%,100%,100%);fill-opacity:1;" d="M 0 0 L 70.867188 0 L 70.867188 70.867188 L 0 70.867188 Z "/>
<path style="fill:none;stroke-width:0.02;stroke-linecap:round;stroke-linejoin:round;stroke:rgb(0%,0%,0%);stroke-opacity:1;stroke-miterlimit:10;" d="M 0 0.275001 L 0.166743 0.275001 M 0 0.424987 L 0.166743 0.424987 M 0.833272 0.275001 L 0.833272 0.424987 M 0 0.0833437 L 1.000015 0.0833437 L 1.000015 0.574973 M 0 0.574973 L 0.833272 0.574973 M 1.000015 0.574973 L 0.833272 0.725013 M 0.199981 0.699988 L 0.400017 0.799979 " transform="matrix(70.866142,0,0,70.866142,0,0)"/>
</g>
</g>
  </g>
  <g>
    <g transform="translate(0, 212.598425197) scale(1)"><g id="surface9">
<path style=" stroke:none;fill-rule:nonzero;fill:rgb(100%,100%,100%);fill-opacity:1;" d="M 0 0 L 70.867188 0 L 70.867188 70.867188 L 0 70.867188 Z "/>
<path style="fill:none;stroke-width:0.02;stroke-linecap:round;stroke-linejoin:round;stroke:rgb(0%,0%,0%);stroke-opacity:1;stroke-miterlimit:10;" d="M 0.66664 0 L 0.66664 0.275001 L 1.000015 0.275001 M 0.66664 0.275001 L 0.66664 1.000015 M 0.33332 0 L 0.33332 0.424987 L 1.000015 0.424987 M 0.33332 0.424987 L 0.33332 1.000015 M 1.000015 0.0833437 L 0.916671 0.0833437 L 0.916671 0 M 0.0833437 0 L 0.0833437 1.000015 M 1.000015 0.574973 L 0.916671 0.574973 L 0.916671 1.000015 " transform="matrix(70.866142,0,0,70.866142,0,0)"/>
</g>
</g>
  </g>
  <g>
    <g transform="translate(70.8661417323, 212.598425197) scale(1)"><g id="surface1">
<path style=" stroke:none;fill-rule:nonzero;fill:rgb(100%,100%,100%);fill-opacity:1;" d="M 0 0 L 70.867188 0 L 70.867188 70.867188 L 0 70.867188 Z "/>
<path style="fill:none;stroke-width:0.02;stroke-linecap:round;stroke-linejoin:round;stroke:rgb(0%,0%,0%);stroke-opacity:1;stroke-miterlimit:10;" d="M 0 0.275001 L 0.166743 0.275001 M 1.000015 0.275001 L 0.833272 0.275001 M 0 0.424987 L 0.166743 0.424987 M 1.000015 0.424987 L 0.833272 0.424987 M 0 0.0833437 L 1.000015 0.0833437 M 0 0.574973 L 0.833272 0.574973 M 1.000015 0.574973 L 0.833272 0.725013 M 0.199981 0.699988 L 0.400017 0.799979 " transform="matrix(70.866142,0,0,70.866142,0,0)"/>
</g>
</g>
  </g>
  <g>
    <g transform="translate(141.732283465, 212.598425197) scale(1)"><g id="surface1">
<path style=" stroke:none;fill-rule:nonzero;fill:rgb(100%,100%,100%);fill-opacity:1;" d="M 0 0 L 70.867188 0 L 70.867188 70.867188 L 0 70.867188 Z "/>
<path style="fill:none;stroke-width:0.02;stroke-linecap:round;stroke-linejoin:round;stroke:rgb(0%,0%,0%);stroke-opacity:1;stroke-miterlimit:10;" d="M 0 0.275001 L 0.166743 0.275001 M 1.000015 0.275001 L 0.833272 0.275001 M 0 0.424987 L 0.166743 0.424987 M 1.000015 0.424987 L 0.833272 0.424987 M 0 0.0833437 L 1.000015 0.0833437 M 0 0.574973 L 0.833272 0.574973 M 1.000015 0.574973 L 0.833272 0.725013 M 0.199981 0.699988 L 0.400017 0.799979 " transform="matrix(70.866142,0,0,70.866142,0,0)"/>
</g>
</g>
  </g>
  <g>
    <g transform="translate(212.598425197, 212.598425197) scale(1)"><g id="surface1">
<path style=" stroke:none;fill-rule:nonzero;fill:rgb(100%,100%,100%);fill-opacity:1;" d="M 0 0 L 70.867188 0 L 70.867188 70.867188 L 0 70.867188 Z "/>
<path style="fill:none;stroke-width:0.02;stroke-linecap:round;stroke-linejoin:round;stroke:rgb(0%,0%,0%);stroke-opacity:1;stroke-miterlimit:10;" d="M 0 0.275001 L 0.166743 0.275001 M 1.000015 0.275001 L 0.833272 0.275001 M 0 0.424987 L 0.166743 0.424987 M 1.000015 0.424987 L 0.833272 0.424987 M 0 0.0833437 L 1.000015 0.0833437 M 0 0.574973 L 0.833272 0.574973 M 1.000015 0.574973 L 0.833272 0.725013 M 0.199981 0.699988 L 0.400017 0.799979 " transform="matrix(70.866142,0,0,70.866142,0,0)"/>
</g>
</g>
  </g>
  <g>
    <g transform="translate(283.464566929, 212.598425197) scale(1)"><g id="surface1">
<path style=" stroke:none;fill-rule:nonzero;fill:rgb(100%,100%,100%);fill-opacity:1;" d="M 0 0 L 70.867188 0 L 70.867188 70.867188 L 0 70.867188 Z "/>
<path style="fill:none;stroke-width:0.02;stroke-linecap:round;stroke-linejoin:round;stroke:rgb(0%,0%,0%);stroke-opacity:1;stroke-miterlimit:10;" d="M 0 0.275001 L 0.166743 0.275001 M 1.000015 0.275001 L 0.833272 0.275001 M 0 0.424987 L 0.166743 0.424987 M 1.000015 0.424987 L 0.833272 0.424987 M 0 0.0833437 L 1.000015 0.0833437 M 0 0.574973 L 0.833272 0.574973 M 1.000015 0.574973 L 0.833272 0.725013 M 0.199981 0.699988 L 0.400017 0.799979 " transform="matrix(70.866142,0,0,70.866142,0,0)"/>
</g>
</g>
  </g>
  <g>
    <g transform="translate(354.330708661, 212.598425197) scale(1)"><g id="surface5">
<path style=" stroke:none;fill-rule:nonzero;fill:rgb(100%,100%,100%);fill-opacity:1;" d="M 0 0 L 70.867188 0 L 70.867188 70.867188 L 0 70.867188 Z "/>
<path style="fill:none;stroke-width:0.02;stroke-linecap:round;stroke-linejoin:round;stroke:rgb(0%,0%,0%);stroke-opacity:1;stroke-miterlimit:10;" d="M 0 0.275001 L 0.166743 0.275001 M 0 0.424987 L 0.166743 0.424987 M 0.833272 0.275001 L 0.833272 0.424987 M 0 0.0833437 L 1.000015 0.0833437 L 1.000015 0.574973 M 0 0.574973 L 0.833272 0.574973 M 1.000015 0.574973 L 0.833272 0.725013 M 0.199981 0.699988 L 0.400017 0.799979 " transform="matrix(70.866142,0,0,70.866142,0,0)"/>
</g>
</g>
  </g>
  <g>
    <g transform="translate(0, 283.464566929) scale(1)"><g id="surface13">
<path style=" stroke:none;fill-rule:nonzero;fill:rgb(100%,100%,100%);fill-opacity:1;" d="M 0 0 L 70.867188 0 L 70.867188 70.867188 L 0 70.867188 Z "/>
<path style="fill:none;stroke-width:0.02;stroke-linecap:round;stroke-linejoin:round;stroke:rgb(0%,0%,0%);stroke-opacity:1;stroke-miterlimit:10;" d="M 0.66664 0 L 0.66664 0.275001 L 1.000015 0.275001 M 0.33332 0 L 0.33332 0.424987 L 1.000015 0.424987 M 1.000015 0.0833437 L 0.916671 0.0833437 L 0.916671 0 M 0.0833437 0 L 0.0833437 0.574973 L 1.000015 0.574973 " transform="matrix(70.866142,0,0,70.866142,0,0)"/>
</g>
</g>
  </g>
  <g>
    <g transform="translate(70.8661417323, 283.464566929) scale(1)"><g id="surface1">
<path style=" stroke:none;fill-rule:nonzero;fill:rgb(100%,100%,100%);fill-opacity:1;" d="M 0 0 L 70.867188 0 L 70.867188 70.867188 L 0 70.867188 Z "/>
<path style="fill:none;stroke-width:0.02;stroke-linecap:round;stroke-linejoin:round;stroke:rgb(0%,0%,0%);stroke-opacity:1;stroke-miterlimit:10;" d="M 0 0.275001 L 0.166743 0.275001 M 1.000015 0.275001 L 0.833272 0.275001 M 0 0.424987 L 0.166743 0.424987 M 1.000015 0.424987 L 0.833272 0.424987 M 0 0.0833437 L 1.000015 0.0833437 M 0 0.574973 L 0.833272 0.574973 M 1.000015 0.574973 L 0.833272 0.725013 M 0.199981 0.699988 L 0.400017 0.799979 " transform="matrix(70.866142,0,0,70.866142,0,0)"/>
</g>
</g>
  </g>
  <g>
    <g transform="translate(141.732283465, 283.464566929) scale(1)"><g id="surface1">
<path style=" stroke:none;fill-rule:nonzero;fill:rgb(100%,100%,100%);fill-opacity:1;" d="M 0 0 L 70.867188 0 L 70.867188 70.867188 L 0 70.867188 Z "/>
<path style="fill:none;stroke-width:0.02;stroke-linecap:round;stroke-linejoin:round;stroke:rgb(0%,0%,0%);stroke-opacity:1;stroke-miterlimit:10;" d="M 0 0.275001 L 0.166743 0.275001 M 1.000015 0.275001 L 0.833272 0.275001 M 0 0.424987 L 0.166743 0.424987 M 1.000015 0.424987 L 0.833272 0.424987 M 0 0.0833437 L 1.000015 0.0833437 M 0 0.574973 L 0.833272 0.574973 M 1.000015 0.574973 L 0.833272 0.725013 M 0.199981 0.699988 L 0.400017 0.799979 " transform="matrix(70.866142,0,0,70.866142,0,0)"/>
</g>
</g>
  </g>
  <g>
    <g transform="translate(212.598425197, 283.464566929) scale(1)"><g id="surface1">
<path style=" stroke:none;fill-rule:nonzero;fill:rgb(100%,100%,100%);fill-opacity:1;" d="M 0 0 L 70.867188 0 L 70.867188 70.867188 L 0 70.867188 Z "/>
<path style="fill:none;stroke-width:0.02;stroke-linecap:round;stroke-linejoin:round;stroke:rgb(0%,0%,0%);stroke-opacity:1;stroke-miterlimit:10;" d="M 0 0.275001 L 0.166743 0.275001 M 1.000015 0.275001 L 0.833272 0.275001 M 0 0.424987 L 0.166743 0.424987 M 1.000015 0.424987 L 0.833272 0.424987 M 0 0.0833437 L 1.000015 0.0833437 M 0 0.574973 L 0.833272 0.574973 M 1.000015 0.574973 L 0.833272 0.725013 M 0.199981 0.699988 L 0.400017 0.799979 " transform="matrix(70.866142,0,0,70.866142,0,0)"/>
</g>
</g>
  </g>
  <g>
    <g transform="translate(283.464566929, 283.464566929) scale(1)"><g id="surface1">
<path style=" stroke:none;fill-rule:nonzero;fill:rgb(100%,100%,100%);fill-opacity:1;" d="M 0 0 L 70.867188 0 L 70.867188 70.867188 L 0 70.867188 Z "/>
<path style="fill:none;stroke-width:0.02;stroke-linecap:round;stroke-linejoin:round;stroke:rgb(0%,0%,0%);stroke-opacity:1;stroke-miterlimit:10;" d="M 0 0.275001 L 0.166743 0.275001 M 1.000015 0.275001 L 0.833272 0.275001 M 0 0.424987 L 0.166743 0.424987 M 1.000015 0.424987 L 0.833272 0.424987 M 0 0.0833437 L 1.000015 0.0833437 M 0 0.574973 L 0.833272 0.574973 M 1.000015 0.574973 L 0.833272 0.725013 M 0.199981 0.699988 L 0.400017 0.799979 " transform="matrix(70.866142,0,0,70.866142,0,0)"/>
</g>
</g>
  </g>
  <g>
    <g transform="translate(354.330708661, 283.464566929) scale(1)"><g id="surface5">
<path style=" stroke:none;fill-rule:nonzero;fill:rgb(100%,100%,100%);fill-opacity:1;" d="M 0 0 L 70.867188 0 L 70.867188 70.867188 L 0 70.867188 Z "/>
<path style="fill:none;stroke-width:0.02;stroke-linecap:round;stroke-linejoin:round;stroke:rgb(0%,0%,0%);stroke-opacity:1;stroke-miterlimit:10;" d="M 0 0.275001 L 0.166743 0.275001 M 0 0.424987 L 0.166743 0.424987 M 0.833272 0.275001 L 0.833272 0.424987 M 0 0.0833437 L 1.000015 0.0833437 L 1.000015 0.574973 M 0 0.574973 L 0.833272 0.574973 M 1.000015 0.574973 L 0.833272 0.725013 M 0.199981 0.699988 L 0.400017 0.799979 " transform="matrix(70.866142,0,0,70.866142,0,0)"/>
</g>
</g>
  </g>
</svg>
