  0
SECTION
  2
HEADER
  9
$ACADVER
  1
AC1009
  9
$EXTMIN
 10
0.0
 20
0.0
 30
0.0
  9
$EXTMAX
 10
1000.0
 20
1000.0
 30
0.0
  9
$FILLMODE
 70
 0
  9
$SPLFRAME
 70
 1
  0
ENDSEC
  0
SECTION
  2
TABLES
  0
TABLE
  2
LAYER
 70
1
  0
LAYER
  2
0
 70
     0
 62
     7
  6
CONTINUOUS
  0
ENDTAB
  0
ENDSEC
  0
SECTION
  2
ENTITIES
  0
LINE
  8
0
 62
     7
 10
0
 20
75.001
 30
0.0
 11
25.001
 21
75.001
 31
0.0
  0
LINE
  8
0
 62
     7
 10
25.001
 20
75.001
 30
0.0
 11
25.001
 21
50
 31
0.0
  0
LINE
  8
0
 62
     7
 10
25.001
 20
50
 30
0.0
 11
0
 21
50
 31
0.0
  0
LINE
  8
0
 62
     7
 10
0
 20
50
 30
0.0
 11
0
 21
75.001
 31
0.0
  0
LINE
  8
0
 62
     0
 10
16.6657
 20
75.001
 30
0.0
 11
16.6657
 21
68.1249
 31
0.0
  0
LINE
  8
0
 62
     0
 10
16.6657
 20
68.1249
 30
0.0
 11
25.001
 21
68.1249
 31
0.0
  0
LINE
  8
0
 62
     0
 10
16.6657
 20
68.1249
 30
0.0
 11
16.6657
 21
50
 31
0.0
  0
LINE
  8
0
 62
     0
 10
8.3335
 20
75.001
 30
0.0
 11
8.3335
 21
64.3765
 31
0.0
  0
LINE
  8
0
 62
     0
 10
8.3335
 20
64.3765
 30
0.0
 11
25.001
 21
64.3765
 31
0.0
  0
LINE
  8
0
 62
     0
 10
8.3335
 20
64.3765
 30
0.0
 11
8.3335
 21
50
 31
0.0
  0
LINE
  8
0
 62
     0
 10
25.001
 20
72.9169
 30
0.0
 11
22.9169
 21
72.9169
 31
0.0
  0
LINE
  8
0
 62
     0
 10
22.9169
 20
72.9169
 30
0.0
 11
22.9169
 21
75.001
 31
0.0
  0
LINE
  8
0
 62
     0
 10
2.08447
 20
75.001
 30
0.0
 11
2.08447
 21
50
 31
0.0
  0
LINE
  8
0
 62
     0
 10
25.001
 20
60.6265
 30
0.0
 11
22.9169
 21
60.6265
 31
0.0
  0
LINE
  8
0
 62
     0
 10
22.9169
 20
60.6265
 30
0.0
 11
22.9169
 21
50
 31
0.0
  0
LINE
  8
0
 62
     7
 10
24.9992
 20
75.001
 30
0.0
 11
50
 21
75.001
 31
0.0
  0
LINE
  8
0
 62
     7
 10
50
 20
75.001
 30
0.0
 11
50
 21
50
 31
0.0
  0
LINE
  8
0
 62
     7
 10
50
 20
50
 30
0.0
 11
24.9992
 21
50
 31
0.0
  0
LINE
  8
0
 62
     7
 10
24.9992
 20
50
 30
0.0
 11
24.9992
 21
75.001
 31
0.0
  0
LINE
  8
0
 62
     0
 10
24.9992
 20
68.1249
 30
0.0
 11
29.1682
 21
68.1249
 31
0.0
  0
LINE
  8
0
 62
     0
 10
50.0006
 20
68.1249
 30
0.0
 11
45.8321
 21
68.1249
 31
0.0
  0
LINE
  8
0
 62
     0
 10
24.9992
 20
64.3765
 30
0.0
 11
29.1682
 21
64.3765
 31
0.0
  0
LINE
  8
0
 62
     0
 10
50.0006
 20
64.3765
 30
0.0
 11
45.8321
 21
64.3765
 31
0.0
  0
LINE
  8
0
 62
     0
 10
24.9992
 20
72.9169
 30
0.0
 11
50.0006
 21
72.9169
 31
0.0
  0
LINE
  8
0
 62
     0
 10
24.9992
 20
60.6265
 30
0.0
 11
45.8321
 21
60.6265
 31
0.0
  0
LINE
  8
0
 62
     0
 10
50.0006
 20
60.6265
 30
0.0
 11
45.8321
 21
56.8747
 31
0.0
  0
LINE
  8
0
 62
     0
 10
29.9997
 20
57.5
 30
0.0
 11
35.0004
 21
55.0006
 31
0.0
  0
LINE
  8
0
 62
     7
 10
50.0006
 20
75.001
 30
0.0
 11
74.9997
 21
75.001
 31
0.0
  0
LINE
  8
0
 62
     7
 10
74.9997
 20
75.001
 30
0.0
 11
74.9997
 21
50
 31
0.0
  0
LINE
  8
0
 62
     7
 10
74.9997
 20
50
 30
0.0
 11
50.0006
 21
50
 31
0.0
  0
LINE
  8
0
 62
     7
 10
50.0006
 20
50
 30
0.0
 11
50.0006
 21
75.001
 31
0.0
  0
LINE
  8
0
 62
     0
 10
50.0006
 20
68.1249
 30
0.0
 11
54.169
 21
68.1249
 31
0.0
  0
LINE
  8
0
 62
     0
 10
74.9997
 20
68.1249
 30
0.0
 11
70.8311
 21
68.1249
 31
0.0
  0
LINE
  8
0
 62
     0
 10
50.0006
 20
64.3765
 30
0.0
 11
54.169
 21
64.3765
 31
0.0
  0
LINE
  8
0
 62
     0
 10
74.9997
 20
64.3765
 30
0.0
 11
70.8311
 21
64.3765
 31
0.0
  0
LINE
  8
0
 62
     0
 10
50.0006
 20
72.9169
 30
0.0
 11
74.9997
 21
72.9169
 31
0.0
  0
LINE
  8
0
 62
     0
 10
50.0006
 20
60.6265
 30
0.0
 11
70.8311
 21
60.6265
 31
0.0
  0
LINE
  8
0
 62
     0
 10
74.9997
 20
60.6265
 30
0.0
 11
70.8311
 21
56.8747
 31
0.0
  0
LINE
  8
0
 62
     0
 10
54.9994
 20
57.5
 30
0.0
 11
59.9996
 21
55.0006
 31
0.0
  0
LINE
  8
0
 62
     7
 10
74.9997
 20
75.001
 30
0.0
 11
100.001
 21
75.001
 31
0.0
  0
LINE
  8
0
 62
     7
 10
100.001
 20
75.001
 30
0.0
 11
100.001
 21
50
 31
0.0
  0
LINE
  8
0
 62
     7
 10
100.001
 20
50
 30
0.0
 11
74.9997
 21
50
 31
0.0
  0
LINE
  8
0
 62
     7
 10
74.9997
 20
50
 30
0.0
 11
74.9997
 21
75.001
 31
0.0
  0
LINE
  8
0
 62
     0
 10
74.9997
 20
68.1249
 30
0.0
 11
79.1682
 21
68.1249
 31
0.0
  0
LINE
  8
0
 62
     0
 10
74.9997
 20
64.3765
 30
0.0
 11
79.1682
 21
64.3765
 31
0.0
  0
LINE
  8
0
 62
     0
 10
95.8321
 20
68.1249
 30
0.0
 11
95.8321
 21
64.3765
 31
0.0
  0
LINE
  8
0
 62
     0
 10
74.9997
 20
72.9169
 30
0.0
 11
100.001
 21
72.9169
 31
0.0
  0
LINE
  8
0
 62
     0
 10
100.001
 20
72.9169
 30
0.0
 11
100.001
 21
60.6265
 31
0.0
  0
LINE
  8
0
 62
     0
 10
74.9997
 20
60.6265
 30
0.0
 11
95.8321
 21
60.6265
 31
0.0
  0
LINE
  8
0
 62
     0
 10
100.001
 20
60.6265
 30
0.0
 11
95.8321
 21
56.8747
 31
0.0
  0
LINE
  8
0
 62
     0
 10
80.0003
 20
57.5
 30
0.0
 11
85.001
 21
55.0006
 31
0.0
  0
LINE
  8
0
 62
     7
 10
0
 20
50
 30
0.0
 11
25.001
 21
50
 31
0.0
  0
LINE
  8
0
 62
     7
 10
25.001
 20
50
 30
0.0
 11
25.001
 21
25.001
 31
0.0
  0
LINE
  8
0
 62
     7
 10
25.001
 20
25.001
 30
0.0
 11
0
 21
25.001
 31
0.0
  0
LINE
  8
0
 62
     7
 10
0
 20
25.001
 30
0.0
 11
0
 21
50
 31
0.0
  0
LINE
  8
0
 62
     0
 10
16.6657
 20
50
 30
0.0
 11
16.6657
 21
43.1253
 31
0.0
  0
LINE
  8
0
 62
     0
 10
16.6657
 20
43.1253
 30
0.0
 11
25.001
 21
43.1253
 31
0.0
  0
LINE
  8
0
 62
     0
 10
16.6657
 20
43.1253
 30
0.0
 11
16.6657
 21
25.0008
 31
0.0
  0
LINE
  8
0
 62
     0
 10
8.3335
 20
50
 30
0.0
 11
8.3335
 21
39.3753
 31
0.0
  0
LINE
  8
0
 62
     0
 10
8.3335
 20
39.3753
 30
0.0
 11
25.001
 21
39.3753
 31
0.0
  0
LINE
  8
0
 62
     0
 10
8.3335
 20
39.3753
 30
0.0
 11
8.3335
 21
25.0008
 31
0.0
  0
LINE
  8
0
 62
     0
 10
25.001
 20
47.9172
 30
0.0
 11
22.9169
 21
47.9172
 31
0.0
  0
LINE
  8
0
 62
     0
 10
22.9169
 20
47.9172
 30
0.0
 11
22.9169
 21
50
 31
0.0
  0
LINE
  8
0
 62
     0
 10
2.08447
 20
50
 30
0.0
 11
2.08447
 21
25.0008
 31
0.0
  0
LINE
  8
0
 62
     0
 10
25.001
 20
35.6251
 30
0.0
 11
22.9169
 21
35.6251
 31
0.0
  0
LINE
  8
0
 62
     0
 10
22.9169
 20
35.6251
 30
0.0
 11
22.9169
 21
25.0008
 31
0.0
  0
LINE
  8
0
 62
     7
 10
24.9992
 20
50
 30
0.0
 11
50
 21
50
 31
0.0
  0
LINE
  8
0
 62
     7
 10
50
 20
50
 30
0.0
 11
50
 21
25.001
 31
0.0
  0
LINE
  8
0
 62
     7
 10
50
 20
25.001
 30
0.0
 11
24.9992
 21
25.001
 31
0.0
  0
LINE
  8
0
 62
     7
 10
24.9992
 20
25.001
 30
0.0
 11
24.9992
 21
50
 31
0.0
  0
LINE
  8
0
 62
     0
 10
24.9992
 20
43.1253
 30
0.0
 11
29.1682
 21
43.1253
 31
0.0
  0
LINE
  8
0
 62
     0
 10
50.0006
 20
43.1253
 30
0.0
 11
45.8321
 21
43.1253
 31
0.0
  0
LINE
  8
0
 62
     0
 10
24.9992
 20
39.3753
 30
0.0
 11
29.1682
 21
39.3753
 31
0.0
  0
LINE
  8
0
 62
     0
 10
50.0006
 20
39.3753
 30
0.0
 11
45.8321
 21
39.3753
 31
0.0
  0
LINE
  8
0
 62
     0
 10
24.9992
 20
47.9172
 30
0.0
 11
50.0006
 21
47.9172
 31
0.0
  0
LINE
  8
0
 62
     0
 10
24.9992
 20
35.6251
 30
0.0
 11
45.8321
 21
35.6251
 31
0.0
  0
LINE
  8
0
 62
     0
 10
50.0006
 20
35.6251
 30
0.0
 11
45.8321
 21
31.8756
 31
0.0
  0
LINE
  8
0
 62
     0
 10
29.9997
 20
32.501
 30
0.0
 11
35.0004
 21
30.0015
 31
0.0
  0
LINE
  8
0
 62
     7
 10
50.0006
 20
50
 30
0.0
 11
74.9997
 21
50
 31
0.0
  0
LINE
  8
0
 62
     7
 10
74.9997
 20
50
 30
0.0
 11
74.9997
 21
25.001
 31
0.0
  0
LINE
  8
0
 62
     7
 10
74.9997
 20
25.001
 30
0.0
 11
50.0006
 21
25.001
 31
0.0
  0
LINE
  8
0
 62
     7
 10
50.0006
 20
25.001
 30
0.0
 11
50.0006
 21
50
 31
0.0
  0
LINE
  8
0
 62
     0
 10
50.0006
 20
43.1253
 30
0.0
 11
54.169
 21
43.1253
 31
0.0
  0
LINE
  8
0
 62
     0
 10
74.9997
 20
43.1253
 30
0.0
 11
70.8311
 21
43.1253
 31
0.0
  0
LINE
  8
0
 62
     0
 10
50.0006
 20
39.3753
 30
0.0
 11
54.169
 21
39.3753
 31
0.0
  0
LINE
  8
0
 62
     0
 10
74.9997
 20
39.3753
 30
0.0
 11
70.8311
 21
39.3753
 31
0.0
  0
LINE
  8
0
 62
     0
 10
50.0006
 20
47.9172
 30
0.0
 11
74.9997
 21
47.9172
 31
0.0
  0
LINE
  8
0
 62
     0
 10
50.0006
 20
35.6251
 30
0.0
 11
70.8311
 21
35.6251
 31
0.0
  0
LINE
  8
0
 62
     0
 10
74.9997
 20
35.6251
 30
0.0
 11
70.8311
 21
31.8756
 31
0.0
  0
LINE
  8
0
 62
     0
 10
54.9994
 20
32.501
 30
0.0
 11
59.9996
 21
30.0015
 31
0.0
  0
LINE
  8
0
 62
     7
 10
74.9997
 20
50
 30
0.0
 11
100.001
 21
50
 31
0.0
  0
LINE
  8
0
 62
     7
 10
100.001
 20
50
 30
0.0
 11
100.001
 21
25.001
 31
0.0
  0
LINE
  8
0
 62
     7
 10
100.001
 20
25.001
 30
0.0
 11
74.9997
 21
25.001
 31
0.0
  0
LINE
  8
0
 62
     7
 10
74.9997
 20
25.001
 30
0.0
 11
74.9997
 21
50
 31
0.0
  0
LINE
  8
0
 62
     0
 10
74.9997
 20
43.1253
 30
0.0
 11
79.1682
 21
43.1253
 31
0.0
  0
LINE
  8
0
 62
     0
 10
74.9997
 20
39.3753
 30
0.0
 11
79.1682
 21
39.3753
 31
0.0
  0
LINE
  8
0
 62
     0
 10
95.8321
 20
43.1253
 30
0.0
 11
95.8321
 21
39.3753
 31
0.0
  0
LINE
  8
0
 62
     0
 10
74.9997
 20
47.9172
 30
0.0
 11
100.001
 21
47.9172
 31
0.0
  0
LINE
  8
0
 62
     0
 10
100.001
 20
47.9172
 30
0.0
 11
100.001
 21
35.6251
 31
0.0
  0
LINE
  8
0
 62
     0
 10
74.9997
 20
35.6251
 30
0.0
 11
95.8321
 21
35.6251
 31
0.0
  0
LINE
  8
0
 62
     0
 10
100.001
 20
35.6251
 30
0.0
 11
95.8321
 21
31.8756
 31
0.0
  0
LINE
  8
0
 62
     0
 10
80.0003
 20
32.501
 30
0.0
 11
85.001
 21
30.0015
 31
0.0
  0
LINE
  8
0
 62
     7
 10
0
 20
25.001
 30
0.0
 11
25.001
 21
25.001
 31
0.0
  0
LINE
  8
0
 62
     7
 10
25.001
 20
25.001
 30
0.0
 11
25.001
 21
-0
 31
0.0
  0
LINE
  8
0
 62
     7
 10
25.001
 20
-0
 30
0.0
 11
0
 21
-0
 31
0.0
  0
LINE
  8
0
 62
     7
 10
0
 20
-0
 30
0.0
 11
0
 21
25.001
 31
0.0
  0
LINE
  8
0
 62
     0
 10
16.6657
 20
25.0008
 30
0.0
 11
16.6657
 21
18.1261
 31
0.0
  0
LINE
  8
0
 62
     0
 10
16.6657
 20
18.1261
 30
0.0
 11
25.001
 21
18.1261
 31
0.0
  0
LINE
  8
0
 62
     0
 10
8.3335
 20
25.0008
 30
0.0
 11
8.3335
 21
14.376
 31
0.0
  0
LINE
  8
0
 62
     0
 10
8.3335
 20
14.376
 30
0.0
 11
25.001
 21
14.376
 31
0.0
  0
LINE
  8
0
 62
     0
 10
25.001
 20
22.9164
 30
0.0
 11
22.9169
 21
22.9164
 31
0.0
  0
LINE
  8
0
 62
     0
 10
22.9169
 20
22.9164
 30
0.0
 11
22.9169
 21
25.0008
 31
0.0
  0
LINE
  8
0
 62
     0
 10
2.08447
 20
25.0008
 30
0.0
 11
2.08447
 21
10.626
 31
0.0
  0
LINE
  8
0
 62
     0
 10
2.08447
 20
10.626
 30
0.0
 11
25.001
 21
10.626
 31
0.0
  0
LINE
  8
0
 62
     7
 10
24.9992
 20
25.001
 30
0.0
 11
50
 21
25.001
 31
0.0
  0
LINE
  8
0
 62
     7
 10
50
 20
25.001
 30
0.0
 11
50
 21
-0
 31
0.0
  0
LINE
  8
0
 62
     7
 10
50
 20
-0
 30
0.0
 11
24.9992
 21
-0
 31
0.0
  0
LINE
  8
0
 62
     7
 10
24.9992
 20
-0
 30
0.0
 11
24.9992
 21
25.001
 31
0.0
  0
LINE
  8
0
 62
     0
 10
24.9992
 20
18.1261
 30
0.0
 11
29.1682
 21
18.1261
 31
0.0
  0
LINE
  8
0
 62
     0
 10
50.0006
 20
18.1261
 30
0.0
 11
45.8321
 21
18.1261
 31
0.0
  0
LINE
  8
0
 62
     0
 10
24.9992
 20
14.376
 30
0.0
 11
29.1682
 21
14.376
 31
0.0
  0
LINE
  8
0
 62
     0
 10
50.0006
 20
14.376
 30
0.0
 11
45.8321
 21
14.376
 31
0.0
  0
LINE
  8
0
 62
     0
 10
24.9992
 20
22.9164
 30
0.0
 11
50.0006
 21
22.9164
 31
0.0
  0
LINE
  8
0
 62
     0
 10
24.9992
 20
10.626
 30
0.0
 11
45.8321
 21
10.626
 31
0.0
  0
LINE
  8
0
 62
     0
 10
50.0006
 20
10.626
 30
0.0
 11
45.8321
 21
6.87424
 31
0.0
  0
LINE
  8
0
 62
     0
 10
29.9997
 20
7.50131
 30
0.0
 11
35.0004
 21
5.00011
 31
0.0
  0
LINE
  8
0
 62
     7
 10
50.0006
 20
25.001
 30
0.0
 11
74.9997
 21
25.001
 31
0.0
  0
LINE
  8
0
 62
     7
 10
74.9997
 20
25.001
 30
0.0
 11
74.9997
 21
-0
 31
0.0
  0
LINE
  8
0
 62
     7
 10
74.9997
 20
-0
 30
0.0
 11
50.0006
 21
-0
 31
0.0
  0
LINE
  8
0
 62
     7
 10
50.0006
 20
-0
 30
0.0
 11
50.0006
 21
25.001
 31
0.0
  0
LINE
  8
0
 62
     0
 10
50.0006
 20
18.1261
 30
0.0
 11
54.169
 21
18.1261
 31
0.0
  0
LINE
  8
0
 62
     0
 10
74.9997
 20
18.1261
 30
0.0
 11
70.8311
 21
18.1261
 31
0.0
  0
LINE
  8
0
 62
     0
 10
50.0006
 20
14.376
 30
0.0
 11
54.169
 21
14.376
 31
0.0
  0
LINE
  8
0
 62
     0
 10
74.9997
 20
14.376
 30
0.0
 11
70.8311
 21
14.376
 31
0.0
  0
LINE
  8
0
 62
     0
 10
50.0006
 20
22.9164
 30
0.0
 11
74.9997
 21
22.9164
 31
0.0
  0
LINE
  8
0
 62
     0
 10
50.0006
 20
10.626
 30
0.0
 11
70.8311
 21
10.626
 31
0.0
  0
LINE
  8
0
 62
     0
 10
74.9997
 20
10.626
 30
0.0
 11
70.8311
 21
6.87424
 31
0.0
  0
LINE
  8
0
 62
     0
 10
54.9994
 20
7.50131
 30
0.0
 11
59.9996
 21
5.00011
 31
0.0
  0
LINE
  8
0
 62
     7
 10
74.9997
 20
25.001
 30
0.0
 11
100.001
 21
25.001
 31
0.0
  0
LINE
  8
0
 62
     7
 10
100.001
 20
25.001
 30
0.0
 11
100.001
 21
-0
 31
0.0
  0
LINE
  8
0
 62
     7
 10
100.001
 20
-0
 30
0.0
 11
74.9997
 21
-0
 31
0.0
  0
LINE
  8
0
 62
     7
 10
74.9997
 20
-0
 30
0.0
 11
74.9997
 21
25.001
 31
0.0
  0
LINE
  8
0
 62
     0
 10
74.9997
 20
18.1261
 30
0.0
 11
79.1682
 21
18.1261
 31
0.0
  0
LINE
  8
0
 62
     0
 10
74.9997
 20
14.376
 30
0.0
 11
79.1682
 21
14.376
 31
0.0
  0
LINE
  8
0
 62
     0
 10
95.8321
 20
18.1261
 30
0.0
 11
95.8321
 21
14.376
 31
0.0
  0
LINE
  8
0
 62
     0
 10
74.9997
 20
22.9164
 30
0.0
 11
100.001
 21
22.9164
 31
0.0
  0
LINE
  8
0
 62
     0
 10
100.001
 20
22.9164
 30
0.0
 11
100.001
 21
10.626
 31
0.0
  0
LINE
  8
0
 62
     0
 10
74.9997
 20
10.626
 30
0.0
 11
95.8321
 21
10.626
 31
0.0
  0
LINE
  8
0
 62
     0
 10
100.001
 20
10.626
 30
0.0
 11
95.8321
 21
6.87424
 31
0.0
  0
LINE
  8
0
 62
     0
 10
80.0003
 20
7.50131
 30
0.0
 11
85.001
 21
5.00011
 31
0.0
  0
ENDSEC
  0
EOF
