  0
SECTION
  2
HEADER
  9
$ACADVER
  1
AC1009
  9
$EXTMIN
 10
0.0
 20
0.0
 30
0.0
  9
$EXTMAX
 10
1000.0
 20
1000.0
 30
0.0
  9
$FILLMODE
 70
 0
  9
$SPLFRAME
 70
 1
  0
ENDSEC
  0
SECTION
  2
TABLES
  0
TABLE
  2
LAYER
 70
1
  0
LAYER
  2
0
 70
     0
 62
     7
  6
CONTINUOUS
  0
ENDTAB
  0
ENDSEC
  0
SECTION
  2
ENTITIES
  0
LINE
  8
0
 62
     7
 10
0
 20
150.001
 30
0.0
 11
25.001
 21
150.001
 31
0.0
  0
LINE
  8
0
 62
     7
 10
25.001
 20
150.001
 30
0.0
 11
25.001
 21
125
 31
0.0
  0
LINE
  8
0
 62
     7
 10
25.001
 20
125
 30
0.0
 11
0
 21
125
 31
0.0
  0
LINE
  8
0
 62
     7
 10
0
 20
125
 30
0.0
 11
0
 21
150.001
 31
0.0
  0
LINE
  8
0
 62
     0
 10
16.6657
 20
150.001
 30
0.0
 11
16.6657
 21
143.125
 31
0.0
  0
LINE
  8
0
 62
     0
 10
16.6657
 20
143.125
 30
0.0
 11
25.001
 21
143.125
 31
0.0
  0
LINE
  8
0
 62
     0
 10
16.6657
 20
143.125
 30
0.0
 11
16.6657
 21
125
 31
0.0
  0
LINE
  8
0
 62
     0
 10
8.3335
 20
150.001
 30
0.0
 11
8.3335
 21
139.376
 31
0.0
  0
LINE
  8
0
 62
     0
 10
8.3335
 20
139.376
 30
0.0
 11
25.001
 21
139.376
 31
0.0
  0
LINE
  8
0
 62
     0
 10
8.3335
 20
139.376
 30
0.0
 11
8.3335
 21
125
 31
0.0
  0
LINE
  8
0
 62
     0
 10
25.001
 20
147.917
 30
0.0
 11
22.9169
 21
147.917
 31
0.0
  0
LINE
  8
0
 62
     0
 10
22.9169
 20
147.917
 30
0.0
 11
22.9169
 21
150.001
 31
0.0
  0
LINE
  8
0
 62
     0
 10
2.08447
 20
150.001
 30
0.0
 11
2.08447
 21
125
 31
0.0
  0
LINE
  8
0
 62
     0
 10
25.001
 20
135.627
 30
0.0
 11
22.9169
 21
135.627
 31
0.0
  0
LINE
  8
0
 62
     0
 10
22.9169
 20
135.627
 30
0.0
 11
22.9169
 21
125
 31
0.0
  0
LINE
  8
0
 62
     7
 10
24.9992
 20
150.001
 30
0.0
 11
50
 21
150.001
 31
0.0
  0
LINE
  8
0
 62
     7
 10
50
 20
150.001
 30
0.0
 11
50
 21
125
 31
0.0
  0
LINE
  8
0
 62
     7
 10
50
 20
125
 30
0.0
 11
24.9992
 21
125
 31
0.0
  0
LINE
  8
0
 62
     7
 10
24.9992
 20
125
 30
0.0
 11
24.9992
 21
150.001
 31
0.0
  0
LINE
  8
0
 62
     0
 10
24.9992
 20
143.125
 30
0.0
 11
29.1682
 21
143.125
 31
0.0
  0
LINE
  8
0
 62
     0
 10
50.0006
 20
143.125
 30
0.0
 11
45.8321
 21
143.125
 31
0.0
  0
LINE
  8
0
 62
     0
 10
24.9992
 20
139.376
 30
0.0
 11
29.1682
 21
139.376
 31
0.0
  0
LINE
  8
0
 62
     0
 10
50.0006
 20
139.376
 30
0.0
 11
45.8321
 21
139.376
 31
0.0
  0
LINE
  8
0
 62
     0
 10
24.9992
 20
147.917
 30
0.0
 11
50.0006
 21
147.917
 31
0.0
  0
LINE
  8
0
 62
     0
 10
24.9992
 20
135.627
 30
0.0
 11
45.8321
 21
135.627
 31
0.0
  0
LINE
  8
0
 62
     0
 10
50.0006
 20
135.627
 30
0.0
 11
45.8321
 21
131.875
 31
0.0
  0
LINE
  8
0
 62
     0
 10
29.9997
 20
132.5
 30
0.0
 11
35.0004
 21
130.001
 31
0.0
  0
LINE
  8
0
 62
     7
 10
50.0006
 20
150.001
 30
0.0
 11
74.9997
 21
150.001
 31
0.0
  0
LINE
  8
0
 62
     7
 10
74.9997
 20
150.001
 30
0.0
 11
74.9997
 21
125
 31
0.0
  0
LINE
  8
0
 62
     7
 10
74.9997
 20
125
 30
0.0
 11
50.0006
 21
125
 31
0.0
  0
LINE
  8
0
 62
     7
 10
50.0006
 20
125
 30
0.0
 11
50.0006
 21
150.001
 31
0.0
  0
LINE
  8
0
 62
     0
 10
50.0006
 20
143.125
 30
0.0
 11
54.169
 21
143.125
 31
0.0
  0
LINE
  8
0
 62
     0
 10
74.9997
 20
143.125
 30
0.0
 11
70.8311
 21
143.125
 31
0.0
  0
LINE
  8
0
 62
     0
 10
50.0006
 20
139.376
 30
0.0
 11
54.169
 21
139.376
 31
0.0
  0
LINE
  8
0
 62
     0
 10
74.9997
 20
139.376
 30
0.0
 11
70.8311
 21
139.376
 31
0.0
  0
LINE
  8
0
 62
     0
 10
50.0006
 20
147.917
 30
0.0
 11
74.9997
 21
147.917
 31
0.0
  0
LINE
  8
0
 62
     0
 10
50.0006
 20
135.627
 30
0.0
 11
70.8311
 21
135.627
 31
0.0
  0
LINE
  8
0
 62
     0
 10
74.9997
 20
135.627
 30
0.0
 11
70.8311
 21
131.875
 31
0.0
  0
LINE
  8
0
 62
     0
 10
54.9994
 20
132.5
 30
0.0
 11
59.9996
 21
130.001
 31
0.0
  0
LINE
  8
0
 62
     7
 10
74.9997
 20
150.001
 30
0.0
 11
100.001
 21
150.001
 31
0.0
  0
LINE
  8
0
 62
     7
 10
100.001
 20
150.001
 30
0.0
 11
100.001
 21
125
 31
0.0
  0
LINE
  8
0
 62
     7
 10
100.001
 20
125
 30
0.0
 11
74.9997
 21
125
 31
0.0
  0
LINE
  8
0
 62
     7
 10
74.9997
 20
125
 30
0.0
 11
74.9997
 21
150.001
 31
0.0
  0
LINE
  8
0
 62
     0
 10
74.9997
 20
143.125
 30
0.0
 11
79.1682
 21
143.125
 31
0.0
  0
LINE
  8
0
 62
     0
 10
100.001
 20
143.125
 30
0.0
 11
95.8321
 21
143.125
 31
0.0
  0
LINE
  8
0
 62
     0
 10
74.9997
 20
139.376
 30
0.0
 11
79.1682
 21
139.376
 31
0.0
  0
LINE
  8
0
 62
     0
 10
100.001
 20
139.376
 30
0.0
 11
95.8321
 21
139.376
 31
0.0
  0
LINE
  8
0
 62
     0
 10
74.9997
 20
147.917
 30
0.0
 11
100.001
 21
147.917
 31
0.0
  0
LINE
  8
0
 62
     0
 10
74.9997
 20
135.627
 30
0.0
 11
95.8321
 21
135.627
 31
0.0
  0
LINE
  8
0
 62
     0
 10
100.001
 20
135.627
 30
0.0
 11
95.8321
 21
131.875
 31
0.0
  0
LINE
  8
0
 62
     0
 10
80.0003
 20
132.5
 30
0.0
 11
85.001
 21
130.001
 31
0.0
  0
LINE
  8
0
 62
     7
 10
100.001
 20
150.001
 30
0.0
 11
125
 21
150.001
 31
0.0
  0
LINE
  8
0
 62
     7
 10
125
 20
150.001
 30
0.0
 11
125
 21
125
 31
0.0
  0
LINE
  8
0
 62
     7
 10
125
 20
125
 30
0.0
 11
100.001
 21
125
 31
0.0
  0
LINE
  8
0
 62
     7
 10
100.001
 20
125
 30
0.0
 11
100.001
 21
150.001
 31
0.0
  0
LINE
  8
0
 62
     0
 10
100.001
 20
143.125
 30
0.0
 11
104.17
 21
143.125
 31
0.0
  0
LINE
  8
0
 62
     0
 10
125
 20
143.125
 30
0.0
 11
120.832
 21
143.125
 31
0.0
  0
LINE
  8
0
 62
     0
 10
100.001
 20
139.376
 30
0.0
 11
104.17
 21
139.376
 31
0.0
  0
LINE
  8
0
 62
     0
 10
125
 20
139.376
 30
0.0
 11
120.832
 21
139.376
 31
0.0
  0
LINE
  8
0
 62
     0
 10
100.001
 20
147.917
 30
0.0
 11
125
 21
147.917
 31
0.0
  0
LINE
  8
0
 62
     0
 10
100.001
 20
135.627
 30
0.0
 11
120.832
 21
135.627
 31
0.0
  0
LINE
  8
0
 62
     0
 10
125
 20
135.627
 30
0.0
 11
120.832
 21
131.875
 31
0.0
  0
LINE
  8
0
 62
     0
 10
104.999
 20
132.5
 30
0.0
 11
110
 21
130.001
 31
0.0
  0
LINE
  8
0
 62
     7
 10
125
 20
150.001
 30
0.0
 11
150.001
 21
150.001
 31
0.0
  0
LINE
  8
0
 62
     7
 10
150.001
 20
150.001
 30
0.0
 11
150.001
 21
125
 31
0.0
  0
LINE
  8
0
 62
     7
 10
150.001
 20
125
 30
0.0
 11
125
 21
125
 31
0.0
  0
LINE
  8
0
 62
     7
 10
125
 20
125
 30
0.0
 11
125
 21
150.001
 31
0.0
  0
LINE
  8
0
 62
     0
 10
125
 20
143.125
 30
0.0
 11
129.169
 21
143.125
 31
0.0
  0
LINE
  8
0
 62
     0
 10
150.001
 20
143.125
 30
0.0
 11
145.832
 21
143.125
 31
0.0
  0
LINE
  8
0
 62
     0
 10
125
 20
139.376
 30
0.0
 11
129.169
 21
139.376
 31
0.0
  0
LINE
  8
0
 62
     0
 10
150.001
 20
139.376
 30
0.0
 11
145.832
 21
139.376
 31
0.0
  0
LINE
  8
0
 62
     0
 10
125
 20
147.917
 30
0.0
 11
150.001
 21
147.917
 31
0.0
  0
LINE
  8
0
 62
     0
 10
125
 20
135.627
 30
0.0
 11
145.832
 21
135.627
 31
0.0
  0
LINE
  8
0
 62
     0
 10
150.001
 20
135.627
 30
0.0
 11
145.832
 21
131.875
 31
0.0
  0
LINE
  8
0
 62
     0
 10
129.999
 20
132.5
 30
0.0
 11
135.002
 21
130.001
 31
0.0
  0
LINE
  8
0
 62
     7
 10
150
 20
150.001
 30
0.0
 11
175
 21
150.001
 31
0.0
  0
LINE
  8
0
 62
     7
 10
175
 20
150.001
 30
0.0
 11
175
 21
125
 31
0.0
  0
LINE
  8
0
 62
     7
 10
175
 20
125
 30
0.0
 11
150
 21
125
 31
0.0
  0
LINE
  8
0
 62
     7
 10
150
 20
125
 30
0.0
 11
150
 21
150.001
 31
0.0
  0
LINE
  8
0
 62
     0
 10
150
 20
143.125
 30
0.0
 11
154.168
 21
143.125
 31
0.0
  0
LINE
  8
0
 62
     0
 10
150
 20
139.376
 30
0.0
 11
154.168
 21
139.376
 31
0.0
  0
LINE
  8
0
 62
     0
 10
170.832
 20
143.125
 30
0.0
 11
170.832
 21
139.376
 31
0.0
  0
LINE
  8
0
 62
     0
 10
150
 20
147.917
 30
0.0
 11
175.001
 21
147.917
 31
0.0
  0
LINE
  8
0
 62
     0
 10
175.001
 20
147.917
 30
0.0
 11
175.001
 21
135.627
 31
0.0
  0
LINE
  8
0
 62
     0
 10
150
 20
135.627
 30
0.0
 11
170.832
 21
135.627
 31
0.0
  0
LINE
  8
0
 62
     0
 10
175.001
 20
135.627
 30
0.0
 11
170.832
 21
131.875
 31
0.0
  0
LINE
  8
0
 62
     0
 10
155
 20
132.5
 30
0.0
 11
160
 21
130.001
 31
0.0
  0
LINE
  8
0
 62
     7
 10
0
 20
125
 30
0.0
 11
25.001
 21
125
 31
0.0
  0
LINE
  8
0
 62
     7
 10
25.001
 20
125
 30
0.0
 11
25.001
 21
100.001
 31
0.0
  0
LINE
  8
0
 62
     7
 10
25.001
 20
100.001
 30
0.0
 11
0
 21
100.001
 31
0.0
  0
LINE
  8
0
 62
     7
 10
0
 20
100.001
 30
0.0
 11
0
 21
125
 31
0.0
  0
LINE
  8
0
 62
     0
 10
16.6657
 20
125
 30
0.0
 11
16.6657
 21
118.125
 31
0.0
  0
LINE
  8
0
 62
     0
 10
16.6657
 20
118.125
 30
0.0
 11
25.001
 21
118.125
 31
0.0
  0
LINE
  8
0
 62
     0
 10
16.6657
 20
118.125
 30
0.0
 11
16.6657
 21
100.001
 31
0.0
  0
LINE
  8
0
 62
     0
 10
8.3335
 20
125
 30
0.0
 11
8.3335
 21
114.375
 31
0.0
  0
LINE
  8
0
 62
     0
 10
8.3335
 20
114.375
 30
0.0
 11
25.001
 21
114.375
 31
0.0
  0
LINE
  8
0
 62
     0
 10
8.3335
 20
114.375
 30
0.0
 11
8.3335
 21
100.001
 31
0.0
  0
LINE
  8
0
 62
     0
 10
25.001
 20
122.917
 30
0.0
 11
22.9169
 21
122.917
 31
0.0
  0
LINE
  8
0
 62
     0
 10
22.9169
 20
122.917
 30
0.0
 11
22.9169
 21
125
 31
0.0
  0
LINE
  8
0
 62
     0
 10
2.08447
 20
125
 30
0.0
 11
2.08447
 21
100.001
 31
0.0
  0
LINE
  8
0
 62
     0
 10
25.001
 20
110.625
 30
0.0
 11
22.9169
 21
110.625
 31
0.0
  0
LINE
  8
0
 62
     0
 10
22.9169
 20
110.625
 30
0.0
 11
22.9169
 21
100.001
 31
0.0
  0
LINE
  8
0
 62
     7
 10
24.9992
 20
125
 30
0.0
 11
50
 21
125
 31
0.0
  0
LINE
  8
0
 62
     7
 10
50
 20
125
 30
0.0
 11
50
 21
100.001
 31
0.0
  0
LINE
  8
0
 62
     7
 10
50
 20
100.001
 30
0.0
 11
24.9992
 21
100.001
 31
0.0
  0
LINE
  8
0
 62
     7
 10
24.9992
 20
100.001
 30
0.0
 11
24.9992
 21
125
 31
0.0
  0
LINE
  8
0
 62
     0
 10
24.9992
 20
118.125
 30
0.0
 11
29.1682
 21
118.125
 31
0.0
  0
LINE
  8
0
 62
     0
 10
50.0006
 20
118.125
 30
0.0
 11
45.8321
 21
118.125
 31
0.0
  0
LINE
  8
0
 62
     0
 10
24.9992
 20
114.375
 30
0.0
 11
29.1682
 21
114.375
 31
0.0
  0
LINE
  8
0
 62
     0
 10
50.0006
 20
114.375
 30
0.0
 11
45.8321
 21
114.375
 31
0.0
  0
LINE
  8
0
 62
     0
 10
24.9992
 20
122.917
 30
0.0
 11
50.0006
 21
122.917
 31
0.0
  0
LINE
  8
0
 62
     0
 10
24.9992
 20
110.625
 30
0.0
 11
45.8321
 21
110.625
 31
0.0
  0
LINE
  8
0
 62
     0
 10
50.0006
 20
110.625
 30
0.0
 11
45.8321
 21
106.876
 31
0.0
  0
LINE
  8
0
 62
     0
 10
29.9997
 20
107.501
 30
0.0
 11
35.0004
 21
105.002
 31
0.0
  0
LINE
  8
0
 62
     7
 10
50.0006
 20
125
 30
0.0
 11
74.9997
 21
125
 31
0.0
  0
LINE
  8
0
 62
     7
 10
74.9997
 20
125
 30
0.0
 11
74.9997
 21
100.001
 31
0.0
  0
LINE
  8
0
 62
     7
 10
74.9997
 20
100.001
 30
0.0
 11
50.0006
 21
100.001
 31
0.0
  0
LINE
  8
0
 62
     7
 10
50.0006
 20
100.001
 30
0.0
 11
50.0006
 21
125
 31
0.0
  0
LINE
  8
0
 62
     0
 10
50.0006
 20
118.125
 30
0.0
 11
54.169
 21
118.125
 31
0.0
  0
LINE
  8
0
 62
     0
 10
74.9997
 20
118.125
 30
0.0
 11
70.8311
 21
118.125
 31
0.0
  0
LINE
  8
0
 62
     0
 10
50.0006
 20
114.375
 30
0.0
 11
54.169
 21
114.375
 31
0.0
  0
LINE
  8
0
 62
     0
 10
74.9997
 20
114.375
 30
0.0
 11
70.8311
 21
114.375
 31
0.0
  0
LINE
  8
0
 62
     0
 10
50.0006
 20
122.917
 30
0.0
 11
74.9997
 21
122.917
 31
0.0
  0
LINE
  8
0
 62
     0
 10
50.0006
 20
110.625
 30
0.0
 11
70.8311
 21
110.625
 31
0.0
  0
LINE
  8
0
 62
     0
 10
74.9997
 20
110.625
 30
0.0
 11
70.8311
 21
106.876
 31
0.0
  0
LINE
  8
0
 62
     0
 10
54.9994
 20
107.501
 30
0.0
 11
59.9996
 21
105.002
 31
0.0
  0
LINE
  8
0
 62
     7
 10
74.9997
 20
125
 30
0.0
 11
100.001
 21
125
 31
0.0
  0
LINE
  8
0
 62
     7
 10
100.001
 20
125
 30
0.0
 11
100.001
 21
100.001
 31
0.0
  0
LINE
  8
0
 62
     7
 10
100.001
 20
100.001
 30
0.0
 11
74.9997
 21
100.001
 31
0.0
  0
LINE
  8
0
 62
     7
 10
74.9997
 20
100.001
 30
0.0
 11
74.9997
 21
125
 31
0.0
  0
LINE
  8
0
 62
     0
 10
74.9997
 20
118.125
 30
0.0
 11
79.1682
 21
118.125
 31
0.0
  0
LINE
  8
0
 62
     0
 10
100.001
 20
118.125
 30
0.0
 11
95.8321
 21
118.125
 31
0.0
  0
LINE
  8
0
 62
     0
 10
74.9997
 20
114.375
 30
0.0
 11
79.1682
 21
114.375
 31
0.0
  0
LINE
  8
0
 62
     0
 10
100.001
 20
114.375
 30
0.0
 11
95.8321
 21
114.375
 31
0.0
  0
LINE
  8
0
 62
     0
 10
74.9997
 20
122.917
 30
0.0
 11
100.001
 21
122.917
 31
0.0
  0
LINE
  8
0
 62
     0
 10
74.9997
 20
110.625
 30
0.0
 11
95.8321
 21
110.625
 31
0.0
  0
LINE
  8
0
 62
     0
 10
100.001
 20
110.625
 30
0.0
 11
95.8321
 21
106.876
 31
0.0
  0
LINE
  8
0
 62
     0
 10
80.0003
 20
107.501
 30
0.0
 11
85.001
 21
105.002
 31
0.0
  0
LINE
  8
0
 62
     7
 10
100.001
 20
125
 30
0.0
 11
125
 21
125
 31
0.0
  0
LINE
  8
0
 62
     7
 10
125
 20
125
 30
0.0
 11
125
 21
100.001
 31
0.0
  0
LINE
  8
0
 62
     7
 10
125
 20
100.001
 30
0.0
 11
100.001
 21
100.001
 31
0.0
  0
LINE
  8
0
 62
     7
 10
100.001
 20
100.001
 30
0.0
 11
100.001
 21
125
 31
0.0
  0
LINE
  8
0
 62
     0
 10
100.001
 20
118.125
 30
0.0
 11
104.17
 21
118.125
 31
0.0
  0
LINE
  8
0
 62
     0
 10
125
 20
118.125
 30
0.0
 11
120.832
 21
118.125
 31
0.0
  0
LINE
  8
0
 62
     0
 10
100.001
 20
114.375
 30
0.0
 11
104.17
 21
114.375
 31
0.0
  0
LINE
  8
0
 62
     0
 10
125
 20
114.375
 30
0.0
 11
120.832
 21
114.375
 31
0.0
  0
LINE
  8
0
 62
     0
 10
100.001
 20
122.917
 30
0.0
 11
125
 21
122.917
 31
0.0
  0
LINE
  8
0
 62
     0
 10
100.001
 20
110.625
 30
0.0
 11
120.832
 21
110.625
 31
0.0
  0
LINE
  8
0
 62
     0
 10
125
 20
110.625
 30
0.0
 11
120.832
 21
106.876
 31
0.0
  0
LINE
  8
0
 62
     0
 10
104.999
 20
107.501
 30
0.0
 11
110
 21
105.002
 31
0.0
  0
LINE
  8
0
 62
     7
 10
125
 20
125
 30
0.0
 11
150.001
 21
125
 31
0.0
  0
LINE
  8
0
 62
     7
 10
150.001
 20
125
 30
0.0
 11
150.001
 21
100.001
 31
0.0
  0
LINE
  8
0
 62
     7
 10
150.001
 20
100.001
 30
0.0
 11
125
 21
100.001
 31
0.0
  0
LINE
  8
0
 62
     7
 10
125
 20
100.001
 30
0.0
 11
125
 21
125
 31
0.0
  0
LINE
  8
0
 62
     0
 10
125
 20
118.125
 30
0.0
 11
129.169
 21
118.125
 31
0.0
  0
LINE
  8
0
 62
     0
 10
150.001
 20
118.125
 30
0.0
 11
145.832
 21
118.125
 31
0.0
  0
LINE
  8
0
 62
     0
 10
125
 20
114.375
 30
0.0
 11
129.169
 21
114.375
 31
0.0
  0
LINE
  8
0
 62
     0
 10
150.001
 20
114.375
 30
0.0
 11
145.832
 21
114.375
 31
0.0
  0
LINE
  8
0
 62
     0
 10
125
 20
122.917
 30
0.0
 11
150.001
 21
122.917
 31
0.0
  0
LINE
  8
0
 62
     0
 10
125
 20
110.625
 30
0.0
 11
145.832
 21
110.625
 31
0.0
  0
LINE
  8
0
 62
     0
 10
150.001
 20
110.625
 30
0.0
 11
145.832
 21
106.876
 31
0.0
  0
LINE
  8
0
 62
     0
 10
129.999
 20
107.501
 30
0.0
 11
135.002
 21
105.002
 31
0.0
  0
LINE
  8
0
 62
     7
 10
150
 20
125
 30
0.0
 11
175
 21
125
 31
0.0
  0
LINE
  8
0
 62
     7
 10
175
 20
125
 30
0.0
 11
175
 21
100.001
 31
0.0
  0
LINE
  8
0
 62
     7
 10
175
 20
100.001
 30
0.0
 11
150
 21
100.001
 31
0.0
  0
LINE
  8
0
 62
     7
 10
150
 20
100.001
 30
0.0
 11
150
 21
125
 31
0.0
  0
LINE
  8
0
 62
     0
 10
150
 20
118.125
 30
0.0
 11
154.168
 21
118.125
 31
0.0
  0
LINE
  8
0
 62
     0
 10
150
 20
114.375
 30
0.0
 11
154.168
 21
114.375
 31
0.0
  0
LINE
  8
0
 62
     0
 10
170.832
 20
118.125
 30
0.0
 11
170.832
 21
114.375
 31
0.0
  0
LINE
  8
0
 62
     0
 10
150
 20
122.917
 30
0.0
 11
175.001
 21
122.917
 31
0.0
  0
LINE
  8
0
 62
     0
 10
175.001
 20
122.917
 30
0.0
 11
175.001
 21
110.625
 31
0.0
  0
LINE
  8
0
 62
     0
 10
150
 20
110.625
 30
0.0
 11
170.832
 21
110.625
 31
0.0
  0
LINE
  8
0
 62
     0
 10
175.001
 20
110.625
 30
0.0
 11
170.832
 21
106.876
 31
0.0
  0
LINE
  8
0
 62
     0
 10
155
 20
107.501
 30
0.0
 11
160
 21
105.002
 31
0.0
  0
LINE
  8
0
 62
     7
 10
0
 20
100.001
 30
0.0
 11
25.001
 21
100.001
 31
0.0
  0
LINE
  8
0
 62
     7
 10
25.001
 20
100.001
 30
0.0
 11
25.001
 21
74.9997
 31
0.0
  0
LINE
  8
0
 62
     7
 10
25.001
 20
74.9997
 30
0.0
 11
0
 21
74.9997
 31
0.0
  0
LINE
  8
0
 62
     7
 10
0
 20
74.9997
 30
0.0
 11
0
 21
100.001
 31
0.0
  0
LINE
  8
0
 62
     0
 10
16.6657
 20
100.001
 30
0.0
 11
16.6657
 21
93.1261
 31
0.0
  0
LINE
  8
0
 62
     0
 10
16.6657
 20
93.1261
 30
0.0
 11
25.001
 21
93.1261
 31
0.0
  0
LINE
  8
0
 62
     0
 10
16.6657
 20
93.1261
 30
0.0
 11
16.6657
 21
74.9994
 31
0.0
  0
LINE
  8
0
 62
     0
 10
8.3335
 20
100.001
 30
0.0
 11
8.3335
 21
89.376
 31
0.0
  0
LINE
  8
0
 62
     0
 10
8.3335
 20
89.376
 30
0.0
 11
25.001
 21
89.376
 31
0.0
  0
LINE
  8
0
 62
     0
 10
8.3335
 20
89.376
 30
0.0
 11
8.3335
 21
74.9994
 31
0.0
  0
LINE
  8
0
 62
     0
 10
25.001
 20
97.9164
 30
0.0
 11
22.9169
 21
97.9164
 31
0.0
  0
LINE
  8
0
 62
     0
 10
22.9169
 20
97.9164
 30
0.0
 11
22.9169
 21
100.001
 31
0.0
  0
LINE
  8
0
 62
     0
 10
2.08447
 20
100.001
 30
0.0
 11
2.08447
 21
74.9994
 31
0.0
  0
LINE
  8
0
 62
     0
 10
25.001
 20
85.626
 30
0.0
 11
22.9169
 21
85.626
 31
0.0
  0
LINE
  8
0
 62
     0
 10
22.9169
 20
85.626
 30
0.0
 11
22.9169
 21
74.9994
 31
0.0
  0
LINE
  8
0
 62
     7
 10
24.9992
 20
100.001
 30
0.0
 11
50
 21
100.001
 31
0.0
  0
LINE
  8
0
 62
     7
 10
50
 20
100.001
 30
0.0
 11
50
 21
74.9997
 31
0.0
  0
LINE
  8
0
 62
     7
 10
50
 20
74.9997
 30
0.0
 11
24.9992
 21
74.9997
 31
0.0
  0
LINE
  8
0
 62
     7
 10
24.9992
 20
74.9997
 30
0.0
 11
24.9992
 21
100.001
 31
0.0
  0
LINE
  8
0
 62
     0
 10
24.9992
 20
93.1261
 30
0.0
 11
29.1682
 21
93.1261
 31
0.0
  0
LINE
  8
0
 62
     0
 10
50.0006
 20
93.1261
 30
0.0
 11
45.8321
 21
93.1261
 31
0.0
  0
LINE
  8
0
 62
     0
 10
24.9992
 20
89.376
 30
0.0
 11
29.1682
 21
89.376
 31
0.0
  0
LINE
  8
0
 62
     0
 10
50.0006
 20
89.376
 30
0.0
 11
45.8321
 21
89.376
 31
0.0
  0
LINE
  8
0
 62
     0
 10
24.9992
 20
97.9164
 30
0.0
 11
50.0006
 21
97.9164
 31
0.0
  0
LINE
  8
0
 62
     0
 10
24.9992
 20
85.626
 30
0.0
 11
45.8321
 21
85.626
 31
0.0
  0
LINE
  8
0
 62
     0
 10
50.0006
 20
85.626
 30
0.0
 11
45.8321
 21
81.8743
 31
0.0
  0
LINE
  8
0
 62
     0
 10
29.9997
 20
82.5012
 30
0.0
 11
35.0004
 21
80.0001
 31
0.0
  0
LINE
  8
0
 62
     7
 10
50.0006
 20
100.001
 30
0.0
 11
74.9997
 21
100.001
 31
0.0
  0
LINE
  8
0
 62
     7
 10
74.9997
 20
100.001
 30
0.0
 11
74.9997
 21
74.9997
 31
0.0
  0
LINE
  8
0
 62
     7
 10
74.9997
 20
74.9997
 30
0.0
 11
50.0006
 21
74.9997
 31
0.0
  0
LINE
  8
0
 62
     7
 10
50.0006
 20
74.9997
 30
0.0
 11
50.0006
 21
100.001
 31
0.0
  0
LINE
  8
0
 62
     0
 10
50.0006
 20
93.1261
 30
0.0
 11
54.169
 21
93.1261
 31
0.0
  0
LINE
  8
0
 62
     0
 10
74.9997
 20
93.1261
 30
0.0
 11
70.8311
 21
93.1261
 31
0.0
  0
LINE
  8
0
 62
     0
 10
50.0006
 20
89.376
 30
0.0
 11
54.169
 21
89.376
 31
0.0
  0
LINE
  8
0
 62
     0
 10
74.9997
 20
89.376
 30
0.0
 11
70.8311
 21
89.376
 31
0.0
  0
LINE
  8
0
 62
     0
 10
50.0006
 20
97.9164
 30
0.0
 11
74.9997
 21
97.9164
 31
0.0
  0
LINE
  8
0
 62
     0
 10
50.0006
 20
85.626
 30
0.0
 11
70.8311
 21
85.626
 31
0.0
  0
LINE
  8
0
 62
     0
 10
74.9997
 20
85.626
 30
0.0
 11
70.8311
 21
81.8743
 31
0.0
  0
LINE
  8
0
 62
     0
 10
54.9994
 20
82.5012
 30
0.0
 11
59.9996
 21
80.0001
 31
0.0
  0
LINE
  8
0
 62
     7
 10
74.9997
 20
100.001
 30
0.0
 11
100.001
 21
100.001
 31
0.0
  0
LINE
  8
0
 62
     7
 10
100.001
 20
100.001
 30
0.0
 11
100.001
 21
74.9997
 31
0.0
  0
LINE
  8
0
 62
     7
 10
100.001
 20
74.9997
 30
0.0
 11
74.9997
 21
74.9997
 31
0.0
  0
LINE
  8
0
 62
     7
 10
74.9997
 20
74.9997
 30
0.0
 11
74.9997
 21
100.001
 31
0.0
  0
LINE
  8
0
 62
     0
 10
74.9997
 20
93.1261
 30
0.0
 11
79.1682
 21
93.1261
 31
0.0
  0
LINE
  8
0
 62
     0
 10
100.001
 20
93.1261
 30
0.0
 11
95.8321
 21
93.1261
 31
0.0
  0
LINE
  8
0
 62
     0
 10
74.9997
 20
89.376
 30
0.0
 11
79.1682
 21
89.376
 31
0.0
  0
LINE
  8
0
 62
     0
 10
100.001
 20
89.376
 30
0.0
 11
95.8321
 21
89.376
 31
0.0
  0
LINE
  8
0
 62
     0
 10
74.9997
 20
97.9164
 30
0.0
 11
100.001
 21
97.9164
 31
0.0
  0
LINE
  8
0
 62
     0
 10
74.9997
 20
85.626
 30
0.0
 11
95.8321
 21
85.626
 31
0.0
  0
LINE
  8
0
 62
     0
 10
100.001
 20
85.626
 30
0.0
 11
95.8321
 21
81.8743
 31
0.0
  0
LINE
  8
0
 62
     0
 10
80.0003
 20
82.5012
 30
0.0
 11
85.001
 21
80.0001
 31
0.0
  0
LINE
  8
0
 62
     7
 10
100.001
 20
100.001
 30
0.0
 11
125
 21
100.001
 31
0.0
  0
LINE
  8
0
 62
     7
 10
125
 20
100.001
 30
0.0
 11
125
 21
74.9997
 31
0.0
  0
LINE
  8
0
 62
     7
 10
125
 20
74.9997
 30
0.0
 11
100.001
 21
74.9997
 31
0.0
  0
LINE
  8
0
 62
     7
 10
100.001
 20
74.9997
 30
0.0
 11
100.001
 21
100.001
 31
0.0
  0
LINE
  8
0
 62
     0
 10
100.001
 20
93.1261
 30
0.0
 11
104.17
 21
93.1261
 31
0.0
  0
LINE
  8
0
 62
     0
 10
125
 20
93.1261
 30
0.0
 11
120.832
 21
93.1261
 31
0.0
  0
LINE
  8
0
 62
     0
 10
100.001
 20
89.376
 30
0.0
 11
104.17
 21
89.376
 31
0.0
  0
LINE
  8
0
 62
     0
 10
125
 20
89.376
 30
0.0
 11
120.832
 21
89.376
 31
0.0
  0
LINE
  8
0
 62
     0
 10
100.001
 20
97.9164
 30
0.0
 11
125
 21
97.9164
 31
0.0
  0
LINE
  8
0
 62
     0
 10
100.001
 20
85.626
 30
0.0
 11
120.832
 21
85.626
 31
0.0
  0
LINE
  8
0
 62
     0
 10
125
 20
85.626
 30
0.0
 11
120.832
 21
81.8743
 31
0.0
  0
LINE
  8
0
 62
     0
 10
104.999
 20
82.5012
 30
0.0
 11
110
 21
80.0001
 31
0.0
  0
LINE
  8
0
 62
     7
 10
125
 20
100.001
 30
0.0
 11
150.001
 21
100.001
 31
0.0
  0
LINE
  8
0
 62
     7
 10
150.001
 20
100.001
 30
0.0
 11
150.001
 21
74.9997
 31
0.0
  0
LINE
  8
0
 62
     7
 10
150.001
 20
74.9997
 30
0.0
 11
125
 21
74.9997
 31
0.0
  0
LINE
  8
0
 62
     7
 10
125
 20
74.9997
 30
0.0
 11
125
 21
100.001
 31
0.0
  0
LINE
  8
0
 62
     0
 10
125
 20
93.1261
 30
0.0
 11
129.169
 21
93.1261
 31
0.0
  0
LINE
  8
0
 62
     0
 10
150.001
 20
93.1261
 30
0.0
 11
145.832
 21
93.1261
 31
0.0
  0
LINE
  8
0
 62
     0
 10
125
 20
89.376
 30
0.0
 11
129.169
 21
89.376
 31
0.0
  0
LINE
  8
0
 62
     0
 10
150.001
 20
89.376
 30
0.0
 11
145.832
 21
89.376
 31
0.0
  0
LINE
  8
0
 62
     0
 10
125
 20
97.9164
 30
0.0
 11
150.001
 21
97.9164
 31
0.0
  0
LINE
  8
0
 62
     0
 10
125
 20
85.626
 30
0.0
 11
145.832
 21
85.626
 31
0.0
  0
LINE
  8
0
 62
     0
 10
150.001
 20
85.626
 30
0.0
 11
145.832
 21
81.8743
 31
0.0
  0
LINE
  8
0
 62
     0
 10
129.999
 20
82.5012
 30
0.0
 11
135.002
 21
80.0001
 31
0.0
  0
LINE
  8
0
 62
     7
 10
150
 20
100.001
 30
0.0
 11
175
 21
100.001
 31
0.0
  0
LINE
  8
0
 62
     7
 10
175
 20
100.001
 30
0.0
 11
175
 21
74.9997
 31
0.0
  0
LINE
  8
0
 62
     7
 10
175
 20
74.9997
 30
0.0
 11
150
 21
74.9997
 31
0.0
  0
LINE
  8
0
 62
     7
 10
150
 20
74.9997
 30
0.0
 11
150
 21
100.001
 31
0.0
  0
LINE
  8
0
 62
     0
 10
150
 20
93.1261
 30
0.0
 11
154.168
 21
93.1261
 31
0.0
  0
LINE
  8
0
 62
     0
 10
150
 20
89.376
 30
0.0
 11
154.168
 21
89.376
 31
0.0
  0
LINE
  8
0
 62
     0
 10
170.832
 20
93.1261
 30
0.0
 11
170.832
 21
89.376
 31
0.0
  0
LINE
  8
0
 62
     0
 10
150
 20
97.9164
 30
0.0
 11
175.001
 21
97.9164
 31
0.0
  0
LINE
  8
0
 62
     0
 10
175.001
 20
97.9164
 30
0.0
 11
175.001
 21
85.626
 31
0.0
  0
LINE
  8
0
 62
     0
 10
150
 20
85.626
 30
0.0
 11
170.832
 21
85.626
 31
0.0
  0
LINE
  8
0
 62
     0
 10
175.001
 20
85.626
 30
0.0
 11
170.832
 21
81.8743
 31
0.0
  0
LINE
  8
0
 62
     0
 10
155
 20
82.5012
 30
0.0
 11
160
 21
80.0001
 31
0.0
  0
LINE
  8
0
 62
     7
 10
0
 20
74.9997
 30
0.0
 11
25.001
 21
74.9997
 31
0.0
  0
LINE
  8
0
 62
     7
 10
25.001
 20
74.9997
 30
0.0
 11
25.001
 21
50.0006
 31
0.0
  0
LINE
  8
0
 62
     7
 10
25.001
 20
50.0006
 30
0.0
 11
0
 21
50.0006
 31
0.0
  0
LINE
  8
0
 62
     7
 10
0
 20
50.0006
 30
0.0
 11
0
 21
74.9997
 31
0.0
  0
LINE
  8
0
 62
     0
 10
16.6657
 20
74.9994
 30
0.0
 11
16.6657
 21
68.1251
 31
0.0
  0
LINE
  8
0
 62
     0
 10
16.6657
 20
68.1251
 30
0.0
 11
25.001
 21
68.1251
 31
0.0
  0
LINE
  8
0
 62
     0
 10
16.6657
 20
68.1251
 30
0.0
 11
16.6657
 21
50.0003
 31
0.0
  0
LINE
  8
0
 62
     0
 10
8.3335
 20
74.9994
 30
0.0
 11
8.3335
 21
64.3751
 31
0.0
  0
LINE
  8
0
 62
     0
 10
8.3335
 20
64.3751
 30
0.0
 11
25.001
 21
64.3751
 31
0.0
  0
LINE
  8
0
 62
     0
 10
8.3335
 20
64.3751
 30
0.0
 11
8.3335
 21
50.0003
 31
0.0
  0
LINE
  8
0
 62
     0
 10
25.001
 20
72.9172
 30
0.0
 11
22.9169
 21
72.9172
 31
0.0
  0
LINE
  8
0
 62
     0
 10
22.9169
 20
72.9172
 30
0.0
 11
22.9169
 21
74.9994
 31
0.0
  0
LINE
  8
0
 62
     0
 10
2.08447
 20
74.9994
 30
0.0
 11
2.08447
 21
50.0003
 31
0.0
  0
LINE
  8
0
 62
     0
 10
25.001
 20
60.6269
 30
0.0
 11
22.9169
 21
60.6269
 31
0.0
  0
LINE
  8
0
 62
     0
 10
22.9169
 20
60.6269
 30
0.0
 11
22.9169
 21
50.0003
 31
0.0
  0
LINE
  8
0
 62
     7
 10
24.9992
 20
74.9997
 30
0.0
 11
50
 21
74.9997
 31
0.0
  0
LINE
  8
0
 62
     7
 10
50
 20
74.9997
 30
0.0
 11
50
 21
50.0006
 31
0.0
  0
LINE
  8
0
 62
     7
 10
50
 20
50.0006
 30
0.0
 11
24.9992
 21
50.0006
 31
0.0
  0
LINE
  8
0
 62
     7
 10
24.9992
 20
50.0006
 30
0.0
 11
24.9992
 21
74.9997
 31
0.0
  0
LINE
  8
0
 62
     0
 10
24.9992
 20
68.1251
 30
0.0
 11
29.1682
 21
68.1251
 31
0.0
  0
LINE
  8
0
 62
     0
 10
50.0006
 20
68.1251
 30
0.0
 11
45.8321
 21
68.1251
 31
0.0
  0
LINE
  8
0
 62
     0
 10
24.9992
 20
64.3751
 30
0.0
 11
29.1682
 21
64.3751
 31
0.0
  0
LINE
  8
0
 62
     0
 10
50.0006
 20
64.3751
 30
0.0
 11
45.8321
 21
64.3751
 31
0.0
  0
LINE
  8
0
 62
     0
 10
24.9992
 20
72.9172
 30
0.0
 11
50.0006
 21
72.9172
 31
0.0
  0
LINE
  8
0
 62
     0
 10
24.9992
 20
60.6269
 30
0.0
 11
45.8321
 21
60.6269
 31
0.0
  0
LINE
  8
0
 62
     0
 10
50.0006
 20
60.6269
 30
0.0
 11
45.8321
 21
56.875
 31
0.0
  0
LINE
  8
0
 62
     0
 10
29.9997
 20
57.5004
 30
0.0
 11
35.0004
 21
55.001
 31
0.0
  0
LINE
  8
0
 62
     7
 10
50.0006
 20
74.9997
 30
0.0
 11
74.9997
 21
74.9997
 31
0.0
  0
LINE
  8
0
 62
     7
 10
74.9997
 20
74.9997
 30
0.0
 11
74.9997
 21
50.0006
 31
0.0
  0
LINE
  8
0
 62
     7
 10
74.9997
 20
50.0006
 30
0.0
 11
50.0006
 21
50.0006
 31
0.0
  0
LINE
  8
0
 62
     7
 10
50.0006
 20
50.0006
 30
0.0
 11
50.0006
 21
74.9997
 31
0.0
  0
LINE
  8
0
 62
     0
 10
50.0006
 20
68.1251
 30
0.0
 11
54.169
 21
68.1251
 31
0.0
  0
LINE
  8
0
 62
     0
 10
74.9997
 20
68.1251
 30
0.0
 11
70.8311
 21
68.1251
 31
0.0
  0
LINE
  8
0
 62
     0
 10
50.0006
 20
64.3751
 30
0.0
 11
54.169
 21
64.3751
 31
0.0
  0
LINE
  8
0
 62
     0
 10
74.9997
 20
64.3751
 30
0.0
 11
70.8311
 21
64.3751
 31
0.0
  0
LINE
  8
0
 62
     0
 10
50.0006
 20
72.9172
 30
0.0
 11
74.9997
 21
72.9172
 31
0.0
  0
LINE
  8
0
 62
     0
 10
50.0006
 20
60.6269
 30
0.0
 11
70.8311
 21
60.6269
 31
0.0
  0
LINE
  8
0
 62
     0
 10
74.9997
 20
60.6269
 30
0.0
 11
70.8311
 21
56.875
 31
0.0
  0
LINE
  8
0
 62
     0
 10
54.9994
 20
57.5004
 30
0.0
 11
59.9996
 21
55.001
 31
0.0
  0
LINE
  8
0
 62
     7
 10
74.9997
 20
74.9997
 30
0.0
 11
100.001
 21
74.9997
 31
0.0
  0
LINE
  8
0
 62
     7
 10
100.001
 20
74.9997
 30
0.0
 11
100.001
 21
50.0006
 31
0.0
  0
LINE
  8
0
 62
     7
 10
100.001
 20
50.0006
 30
0.0
 11
74.9997
 21
50.0006
 31
0.0
  0
LINE
  8
0
 62
     7
 10
74.9997
 20
50.0006
 30
0.0
 11
74.9997
 21
74.9997
 31
0.0
  0
LINE
  8
0
 62
     0
 10
74.9997
 20
68.1251
 30
0.0
 11
79.1682
 21
68.1251
 31
0.0
  0
LINE
  8
0
 62
     0
 10
100.001
 20
68.1251
 30
0.0
 11
95.8321
 21
68.1251
 31
0.0
  0
LINE
  8
0
 62
     0
 10
74.9997
 20
64.3751
 30
0.0
 11
79.1682
 21
64.3751
 31
0.0
  0
LINE
  8
0
 62
     0
 10
100.001
 20
64.3751
 30
0.0
 11
95.8321
 21
64.3751
 31
0.0
  0
LINE
  8
0
 62
     0
 10
74.9997
 20
72.9172
 30
0.0
 11
100.001
 21
72.9172
 31
0.0
  0
LINE
  8
0
 62
     0
 10
74.9997
 20
60.6269
 30
0.0
 11
95.8321
 21
60.6269
 31
0.0
  0
LINE
  8
0
 62
     0
 10
100.001
 20
60.6269
 30
0.0
 11
95.8321
 21
56.875
 31
0.0
  0
LINE
  8
0
 62
     0
 10
80.0003
 20
57.5004
 30
0.0
 11
85.001
 21
55.001
 31
0.0
  0
LINE
  8
0
 62
     7
 10
100.001
 20
74.9997
 30
0.0
 11
125
 21
74.9997
 31
0.0
  0
LINE
  8
0
 62
     7
 10
125
 20
74.9997
 30
0.0
 11
125
 21
50.0006
 31
0.0
  0
LINE
  8
0
 62
     7
 10
125
 20
50.0006
 30
0.0
 11
100.001
 21
50.0006
 31
0.0
  0
LINE
  8
0
 62
     7
 10
100.001
 20
50.0006
 30
0.0
 11
100.001
 21
74.9997
 31
0.0
  0
LINE
  8
0
 62
     0
 10
100.001
 20
68.1251
 30
0.0
 11
104.17
 21
68.1251
 31
0.0
  0
LINE
  8
0
 62
     0
 10
125
 20
68.1251
 30
0.0
 11
120.832
 21
68.1251
 31
0.0
  0
LINE
  8
0
 62
     0
 10
100.001
 20
64.3751
 30
0.0
 11
104.17
 21
64.3751
 31
0.0
  0
LINE
  8
0
 62
     0
 10
125
 20
64.3751
 30
0.0
 11
120.832
 21
64.3751
 31
0.0
  0
LINE
  8
0
 62
     0
 10
100.001
 20
72.9172
 30
0.0
 11
125
 21
72.9172
 31
0.0
  0
LINE
  8
0
 62
     0
 10
100.001
 20
60.6269
 30
0.0
 11
120.832
 21
60.6269
 31
0.0
  0
LINE
  8
0
 62
     0
 10
125
 20
60.6269
 30
0.0
 11
120.832
 21
56.875
 31
0.0
  0
LINE
  8
0
 62
     0
 10
104.999
 20
57.5004
 30
0.0
 11
110
 21
55.001
 31
0.0
  0
LINE
  8
0
 62
     7
 10
125
 20
74.9997
 30
0.0
 11
150.001
 21
74.9997
 31
0.0
  0
LINE
  8
0
 62
     7
 10
150.001
 20
74.9997
 30
0.0
 11
150.001
 21
50.0006
 31
0.0
  0
LINE
  8
0
 62
     7
 10
150.001
 20
50.0006
 30
0.0
 11
125
 21
50.0006
 31
0.0
  0
LINE
  8
0
 62
     7
 10
125
 20
50.0006
 30
0.0
 11
125
 21
74.9997
 31
0.0
  0
LINE
  8
0
 62
     0
 10
125
 20
68.1251
 30
0.0
 11
129.169
 21
68.1251
 31
0.0
  0
LINE
  8
0
 62
     0
 10
150.001
 20
68.1251
 30
0.0
 11
145.832
 21
68.1251
 31
0.0
  0
LINE
  8
0
 62
     0
 10
125
 20
64.3751
 30
0.0
 11
129.169
 21
64.3751
 31
0.0
  0
LINE
  8
0
 62
     0
 10
150.001
 20
64.3751
 30
0.0
 11
145.832
 21
64.3751
 31
0.0
  0
LINE
  8
0
 62
     0
 10
125
 20
72.9172
 30
0.0
 11
150.001
 21
72.9172
 31
0.0
  0
LINE
  8
0
 62
     0
 10
125
 20
60.6269
 30
0.0
 11
145.832
 21
60.6269
 31
0.0
  0
LINE
  8
0
 62
     0
 10
150.001
 20
60.6269
 30
0.0
 11
145.832
 21
56.875
 31
0.0
  0
LINE
  8
0
 62
     0
 10
129.999
 20
57.5004
 30
0.0
 11
135.002
 21
55.001
 31
0.0
  0
LINE
  8
0
 62
     7
 10
150
 20
74.9997
 30
0.0
 11
175
 21
74.9997
 31
0.0
  0
LINE
  8
0
 62
     7
 10
175
 20
74.9997
 30
0.0
 11
175
 21
50.0006
 31
0.0
  0
LINE
  8
0
 62
     7
 10
175
 20
50.0006
 30
0.0
 11
150
 21
50.0006
 31
0.0
  0
LINE
  8
0
 62
     7
 10
150
 20
50.0006
 30
0.0
 11
150
 21
74.9997
 31
0.0
  0
LINE
  8
0
 62
     0
 10
150
 20
68.1251
 30
0.0
 11
154.168
 21
68.1251
 31
0.0
  0
LINE
  8
0
 62
     0
 10
150
 20
64.3751
 30
0.0
 11
154.168
 21
64.3751
 31
0.0
  0
LINE
  8
0
 62
     0
 10
170.832
 20
68.1251
 30
0.0
 11
170.832
 21
64.3751
 31
0.0
  0
LINE
  8
0
 62
     0
 10
150
 20
72.9172
 30
0.0
 11
175.001
 21
72.9172
 31
0.0
  0
LINE
  8
0
 62
     0
 10
175.001
 20
72.9172
 30
0.0
 11
175.001
 21
60.6269
 31
0.0
  0
LINE
  8
0
 62
     0
 10
150
 20
60.6269
 30
0.0
 11
170.832
 21
60.6269
 31
0.0
  0
LINE
  8
0
 62
     0
 10
175.001
 20
60.6269
 30
0.0
 11
170.832
 21
56.875
 31
0.0
  0
LINE
  8
0
 62
     0
 10
155
 20
57.5004
 30
0.0
 11
160
 21
55.001
 31
0.0
  0
LINE
  8
0
 62
     7
 10
0
 20
50.0006
 30
0.0
 11
25.001
 21
50.0006
 31
0.0
  0
LINE
  8
0
 62
     7
 10
25.001
 20
50.0006
 30
0.0
 11
25.001
 21
24.9996
 31
0.0
  0
LINE
  8
0
 62
     7
 10
25.001
 20
24.9996
 30
0.0
 11
0
 21
24.9996
 31
0.0
  0
LINE
  8
0
 62
     7
 10
0
 20
24.9996
 30
0.0
 11
0
 21
50.0006
 31
0.0
  0
LINE
  8
0
 62
     0
 10
16.6657
 20
50.0003
 30
0.0
 11
16.6657
 21
43.1256
 31
0.0
  0
LINE
  8
0
 62
     0
 10
16.6657
 20
43.1256
 30
0.0
 11
25.001
 21
43.1256
 31
0.0
  0
LINE
  8
0
 62
     0
 10
16.6657
 20
43.1256
 30
0.0
 11
16.6657
 21
24.9994
 31
0.0
  0
LINE
  8
0
 62
     0
 10
8.3335
 20
50.0003
 30
0.0
 11
8.3335
 21
39.3756
 31
0.0
  0
LINE
  8
0
 62
     0
 10
8.3335
 20
39.3756
 30
0.0
 11
25.001
 21
39.3756
 31
0.0
  0
LINE
  8
0
 62
     0
 10
8.3335
 20
39.3756
 30
0.0
 11
8.3335
 21
24.9994
 31
0.0
  0
LINE
  8
0
 62
     0
 10
25.001
 20
47.9158
 30
0.0
 11
22.9169
 21
47.9158
 31
0.0
  0
LINE
  8
0
 62
     0
 10
22.9169
 20
47.9158
 30
0.0
 11
22.9169
 21
50.0003
 31
0.0
  0
LINE
  8
0
 62
     0
 10
2.08447
 20
50.0003
 30
0.0
 11
2.08447
 21
24.9994
 31
0.0
  0
LINE
  8
0
 62
     0
 10
25.001
 20
35.6256
 30
0.0
 11
22.9169
 21
35.6256
 31
0.0
  0
LINE
  8
0
 62
     0
 10
22.9169
 20
35.6256
 30
0.0
 11
22.9169
 21
24.9994
 31
0.0
  0
LINE
  8
0
 62
     7
 10
24.9992
 20
50.0006
 30
0.0
 11
50
 21
50.0006
 31
0.0
  0
LINE
  8
0
 62
     7
 10
50
 20
50.0006
 30
0.0
 11
50
 21
24.9996
 31
0.0
  0
LINE
  8
0
 62
     7
 10
50
 20
24.9996
 30
0.0
 11
24.9992
 21
24.9996
 31
0.0
  0
LINE
  8
0
 62
     7
 10
24.9992
 20
24.9996
 30
0.0
 11
24.9992
 21
50.0006
 31
0.0
  0
LINE
  8
0
 62
     0
 10
24.9992
 20
43.1256
 30
0.0
 11
29.1682
 21
43.1256
 31
0.0
  0
LINE
  8
0
 62
     0
 10
50.0006
 20
43.1256
 30
0.0
 11
45.8321
 21
43.1256
 31
0.0
  0
LINE
  8
0
 62
     0
 10
24.9992
 20
39.3756
 30
0.0
 11
29.1682
 21
39.3756
 31
0.0
  0
LINE
  8
0
 62
     0
 10
50.0006
 20
39.3756
 30
0.0
 11
45.8321
 21
39.3756
 31
0.0
  0
LINE
  8
0
 62
     0
 10
24.9992
 20
47.9158
 30
0.0
 11
50.0006
 21
47.9158
 31
0.0
  0
LINE
  8
0
 62
     0
 10
24.9992
 20
35.6256
 30
0.0
 11
45.8321
 21
35.6256
 31
0.0
  0
LINE
  8
0
 62
     0
 10
50.0006
 20
35.6256
 30
0.0
 11
45.8321
 21
31.8756
 31
0.0
  0
LINE
  8
0
 62
     0
 10
29.9997
 20
32.5007
 30
0.0
 11
35.0004
 21
30.0014
 31
0.0
  0
LINE
  8
0
 62
     7
 10
50.0006
 20
50.0006
 30
0.0
 11
74.9997
 21
50.0006
 31
0.0
  0
LINE
  8
0
 62
     7
 10
74.9997
 20
50.0006
 30
0.0
 11
74.9997
 21
24.9996
 31
0.0
  0
LINE
  8
0
 62
     7
 10
74.9997
 20
24.9996
 30
0.0
 11
50.0006
 21
24.9996
 31
0.0
  0
LINE
  8
0
 62
     7
 10
50.0006
 20
24.9996
 30
0.0
 11
50.0006
 21
50.0006
 31
0.0
  0
LINE
  8
0
 62
     0
 10
50.0006
 20
43.1256
 30
0.0
 11
54.169
 21
43.1256
 31
0.0
  0
LINE
  8
0
 62
     0
 10
74.9997
 20
43.1256
 30
0.0
 11
70.8311
 21
43.1256
 31
0.0
  0
LINE
  8
0
 62
     0
 10
50.0006
 20
39.3756
 30
0.0
 11
54.169
 21
39.3756
 31
0.0
  0
LINE
  8
0
 62
     0
 10
74.9997
 20
39.3756
 30
0.0
 11
70.8311
 21
39.3756
 31
0.0
  0
LINE
  8
0
 62
     0
 10
50.0006
 20
47.9158
 30
0.0
 11
74.9997
 21
47.9158
 31
0.0
  0
LINE
  8
0
 62
     0
 10
50.0006
 20
35.6256
 30
0.0
 11
70.8311
 21
35.6256
 31
0.0
  0
LINE
  8
0
 62
     0
 10
74.9997
 20
35.6256
 30
0.0
 11
70.8311
 21
31.8756
 31
0.0
  0
LINE
  8
0
 62
     0
 10
54.9994
 20
32.5007
 30
0.0
 11
59.9996
 21
30.0014
 31
0.0
  0
LINE
  8
0
 62
     7
 10
74.9997
 20
50.0006
 30
0.0
 11
100.001
 21
50.0006
 31
0.0
  0
LINE
  8
0
 62
     7
 10
100.001
 20
50.0006
 30
0.0
 11
100.001
 21
24.9996
 31
0.0
  0
LINE
  8
0
 62
     7
 10
100.001
 20
24.9996
 30
0.0
 11
74.9997
 21
24.9996
 31
0.0
  0
LINE
  8
0
 62
     7
 10
74.9997
 20
24.9996
 30
0.0
 11
74.9997
 21
50.0006
 31
0.0
  0
LINE
  8
0
 62
     0
 10
74.9997
 20
43.1256
 30
0.0
 11
79.1682
 21
43.1256
 31
0.0
  0
LINE
  8
0
 62
     0
 10
100.001
 20
43.1256
 30
0.0
 11
95.8321
 21
43.1256
 31
0.0
  0
LINE
  8
0
 62
     0
 10
74.9997
 20
39.3756
 30
0.0
 11
79.1682
 21
39.3756
 31
0.0
  0
LINE
  8
0
 62
     0
 10
100.001
 20
39.3756
 30
0.0
 11
95.8321
 21
39.3756
 31
0.0
  0
LINE
  8
0
 62
     0
 10
74.9997
 20
47.9158
 30
0.0
 11
100.001
 21
47.9158
 31
0.0
  0
LINE
  8
0
 62
     0
 10
74.9997
 20
35.6256
 30
0.0
 11
95.8321
 21
35.6256
 31
0.0
  0
LINE
  8
0
 62
     0
 10
100.001
 20
35.6256
 30
0.0
 11
95.8321
 21
31.8756
 31
0.0
  0
LINE
  8
0
 62
     0
 10
80.0003
 20
32.5007
 30
0.0
 11
85.001
 21
30.0014
 31
0.0
  0
LINE
  8
0
 62
     7
 10
100.001
 20
50.0006
 30
0.0
 11
125
 21
50.0006
 31
0.0
  0
LINE
  8
0
 62
     7
 10
125
 20
50.0006
 30
0.0
 11
125
 21
24.9996
 31
0.0
  0
LINE
  8
0
 62
     7
 10
125
 20
24.9996
 30
0.0
 11
100.001
 21
24.9996
 31
0.0
  0
LINE
  8
0
 62
     7
 10
100.001
 20
24.9996
 30
0.0
 11
100.001
 21
50.0006
 31
0.0
  0
LINE
  8
0
 62
     0
 10
100.001
 20
43.1256
 30
0.0
 11
104.17
 21
43.1256
 31
0.0
  0
LINE
  8
0
 62
     0
 10
125
 20
43.1256
 30
0.0
 11
120.832
 21
43.1256
 31
0.0
  0
LINE
  8
0
 62
     0
 10
100.001
 20
39.3756
 30
0.0
 11
104.17
 21
39.3756
 31
0.0
  0
LINE
  8
0
 62
     0
 10
125
 20
39.3756
 30
0.0
 11
120.832
 21
39.3756
 31
0.0
  0
LINE
  8
0
 62
     0
 10
100.001
 20
47.9158
 30
0.0
 11
125
 21
47.9158
 31
0.0
  0
LINE
  8
0
 62
     0
 10
100.001
 20
35.6256
 30
0.0
 11
120.832
 21
35.6256
 31
0.0
  0
LINE
  8
0
 62
     0
 10
125
 20
35.6256
 30
0.0
 11
120.832
 21
31.8756
 31
0.0
  0
LINE
  8
0
 62
     0
 10
104.999
 20
32.5007
 30
0.0
 11
110
 21
30.0014
 31
0.0
  0
LINE
  8
0
 62
     7
 10
125
 20
50.0006
 30
0.0
 11
150.001
 21
50.0006
 31
0.0
  0
LINE
  8
0
 62
     7
 10
150.001
 20
50.0006
 30
0.0
 11
150.001
 21
24.9996
 31
0.0
  0
LINE
  8
0
 62
     7
 10
150.001
 20
24.9996
 30
0.0
 11
125
 21
24.9996
 31
0.0
  0
LINE
  8
0
 62
     7
 10
125
 20
24.9996
 30
0.0
 11
125
 21
50.0006
 31
0.0
  0
LINE
  8
0
 62
     0
 10
125
 20
43.1256
 30
0.0
 11
129.169
 21
43.1256
 31
0.0
  0
LINE
  8
0
 62
     0
 10
150.001
 20
43.1256
 30
0.0
 11
145.832
 21
43.1256
 31
0.0
  0
LINE
  8
0
 62
     0
 10
125
 20
39.3756
 30
0.0
 11
129.169
 21
39.3756
 31
0.0
  0
LINE
  8
0
 62
     0
 10
150.001
 20
39.3756
 30
0.0
 11
145.832
 21
39.3756
 31
0.0
  0
LINE
  8
0
 62
     0
 10
125
 20
47.9158
 30
0.0
 11
150.001
 21
47.9158
 31
0.0
  0
LINE
  8
0
 62
     0
 10
125
 20
35.6256
 30
0.0
 11
145.832
 21
35.6256
 31
0.0
  0
LINE
  8
0
 62
     0
 10
150.001
 20
35.6256
 30
0.0
 11
145.832
 21
31.8756
 31
0.0
  0
LINE
  8
0
 62
     0
 10
129.999
 20
32.5007
 30
0.0
 11
135.002
 21
30.0014
 31
0.0
  0
LINE
  8
0
 62
     7
 10
150
 20
50.0006
 30
0.0
 11
175
 21
50.0006
 31
0.0
  0
LINE
  8
0
 62
     7
 10
175
 20
50.0006
 30
0.0
 11
175
 21
24.9996
 31
0.0
  0
LINE
  8
0
 62
     7
 10
175
 20
24.9996
 30
0.0
 11
150
 21
24.9996
 31
0.0
  0
LINE
  8
0
 62
     7
 10
150
 20
24.9996
 30
0.0
 11
150
 21
50.0006
 31
0.0
  0
LINE
  8
0
 62
     0
 10
150
 20
43.1256
 30
0.0
 11
154.168
 21
43.1256
 31
0.0
  0
LINE
  8
0
 62
     0
 10
150
 20
39.3756
 30
0.0
 11
154.168
 21
39.3756
 31
0.0
  0
LINE
  8
0
 62
     0
 10
170.832
 20
43.1256
 30
0.0
 11
170.832
 21
39.3756
 31
0.0
  0
LINE
  8
0
 62
     0
 10
150
 20
47.9158
 30
0.0
 11
175.001
 21
47.9158
 31
0.0
  0
LINE
  8
0
 62
     0
 10
175.001
 20
47.9158
 30
0.0
 11
175.001
 21
35.6256
 31
0.0
  0
LINE
  8
0
 62
     0
 10
150
 20
35.6256
 30
0.0
 11
170.832
 21
35.6256
 31
0.0
  0
LINE
  8
0
 62
     0
 10
175.001
 20
35.6256
 30
0.0
 11
170.832
 21
31.8756
 31
0.0
  0
LINE
  8
0
 62
     0
 10
155
 20
32.5007
 30
0.0
 11
160
 21
30.0014
 31
0.0
  0
LINE
  8
0
 62
     7
 10
0
 20
25.001
 30
0.0
 11
25.001
 21
25.001
 31
0.0
  0
LINE
  8
0
 62
     7
 10
25.001
 20
25.001
 30
0.0
 11
25.001
 21
-0
 31
0.0
  0
LINE
  8
0
 62
     7
 10
25.001
 20
-0
 30
0.0
 11
0
 21
-0
 31
0.0
  0
LINE
  8
0
 62
     7
 10
0
 20
-0
 30
0.0
 11
0
 21
25.001
 31
0.0
  0
LINE
  8
0
 62
     0
 10
16.6657
 20
25.0011
 30
0.0
 11
16.6657
 21
18.1246
 31
0.0
  0
LINE
  8
0
 62
     0
 10
16.6657
 20
18.1246
 30
0.0
 11
25.001
 21
18.1246
 31
0.0
  0
LINE
  8
0
 62
     0
 10
8.3335
 20
25.0011
 30
0.0
 11
8.3335
 21
14.3764
 31
0.0
  0
LINE
  8
0
 62
     0
 10
8.3335
 20
14.3764
 30
0.0
 11
25.001
 21
14.3764
 31
0.0
  0
LINE
  8
0
 62
     0
 10
25.001
 20
22.9167
 30
0.0
 11
22.9169
 21
22.9167
 31
0.0
  0
LINE
  8
0
 62
     0
 10
22.9169
 20
22.9167
 30
0.0
 11
22.9169
 21
25.0011
 31
0.0
  0
LINE
  8
0
 62
     0
 10
2.08447
 20
25.0011
 30
0.0
 11
2.08447
 21
10.6264
 31
0.0
  0
LINE
  8
0
 62
     0
 10
2.08447
 20
10.6264
 30
0.0
 11
25.001
 21
10.6264
 31
0.0
  0
LINE
  8
0
 62
     7
 10
24.9992
 20
25.001
 30
0.0
 11
50
 21
25.001
 31
0.0
  0
LINE
  8
0
 62
     7
 10
50
 20
25.001
 30
0.0
 11
50
 21
-0
 31
0.0
  0
LINE
  8
0
 62
     7
 10
50
 20
-0
 30
0.0
 11
24.9992
 21
-0
 31
0.0
  0
LINE
  8
0
 62
     7
 10
24.9992
 20
-0
 30
0.0
 11
24.9992
 21
25.001
 31
0.0
  0
LINE
  8
0
 62
     0
 10
24.9992
 20
18.1246
 30
0.0
 11
29.1682
 21
18.1246
 31
0.0
  0
LINE
  8
0
 62
     0
 10
50.0006
 20
18.1246
 30
0.0
 11
45.8321
 21
18.1246
 31
0.0
  0
LINE
  8
0
 62
     0
 10
24.9992
 20
14.3764
 30
0.0
 11
29.1682
 21
14.3764
 31
0.0
  0
LINE
  8
0
 62
     0
 10
50.0006
 20
14.3764
 30
0.0
 11
45.8321
 21
14.3764
 31
0.0
  0
LINE
  8
0
 62
     0
 10
24.9992
 20
22.9167
 30
0.0
 11
50.0006
 21
22.9167
 31
0.0
  0
LINE
  8
0
 62
     0
 10
24.9992
 20
10.6264
 30
0.0
 11
45.8321
 21
10.6264
 31
0.0
  0
LINE
  8
0
 62
     0
 10
50.0006
 20
10.6264
 30
0.0
 11
45.8321
 21
6.87457
 31
0.0
  0
LINE
  8
0
 62
     0
 10
29.9997
 20
7.49983
 30
0.0
 11
35.0004
 21
5.00043
 31
0.0
  0
LINE
  8
0
 62
     7
 10
50.0006
 20
25.001
 30
0.0
 11
74.9997
 21
25.001
 31
0.0
  0
LINE
  8
0
 62
     7
 10
74.9997
 20
25.001
 30
0.0
 11
74.9997
 21
-0
 31
0.0
  0
LINE
  8
0
 62
     7
 10
74.9997
 20
-0
 30
0.0
 11
50.0006
 21
-0
 31
0.0
  0
LINE
  8
0
 62
     7
 10
50.0006
 20
-0
 30
0.0
 11
50.0006
 21
25.001
 31
0.0
  0
LINE
  8
0
 62
     0
 10
50.0006
 20
18.1246
 30
0.0
 11
54.169
 21
18.1246
 31
0.0
  0
LINE
  8
0
 62
     0
 10
74.9997
 20
18.1246
 30
0.0
 11
70.8311
 21
18.1246
 31
0.0
  0
LINE
  8
0
 62
     0
 10
50.0006
 20
14.3764
 30
0.0
 11
54.169
 21
14.3764
 31
0.0
  0
LINE
  8
0
 62
     0
 10
74.9997
 20
14.3764
 30
0.0
 11
70.8311
 21
14.3764
 31
0.0
  0
LINE
  8
0
 62
     0
 10
50.0006
 20
22.9167
 30
0.0
 11
74.9997
 21
22.9167
 31
0.0
  0
LINE
  8
0
 62
     0
 10
50.0006
 20
10.6264
 30
0.0
 11
70.8311
 21
10.6264
 31
0.0
  0
LINE
  8
0
 62
     0
 10
74.9997
 20
10.6264
 30
0.0
 11
70.8311
 21
6.87457
 31
0.0
  0
LINE
  8
0
 62
     0
 10
54.9994
 20
7.49983
 30
0.0
 11
59.9996
 21
5.00043
 31
0.0
  0
LINE
  8
0
 62
     7
 10
74.9997
 20
25.001
 30
0.0
 11
100.001
 21
25.001
 31
0.0
  0
LINE
  8
0
 62
     7
 10
100.001
 20
25.001
 30
0.0
 11
100.001
 21
-0
 31
0.0
  0
LINE
  8
0
 62
     7
 10
100.001
 20
-0
 30
0.0
 11
74.9997
 21
-0
 31
0.0
  0
LINE
  8
0
 62
     7
 10
74.9997
 20
-0
 30
0.0
 11
74.9997
 21
25.001
 31
0.0
  0
LINE
  8
0
 62
     0
 10
74.9997
 20
18.1246
 30
0.0
 11
79.1682
 21
18.1246
 31
0.0
  0
LINE
  8
0
 62
     0
 10
100.001
 20
18.1246
 30
0.0
 11
95.8321
 21
18.1246
 31
0.0
  0
LINE
  8
0
 62
     0
 10
74.9997
 20
14.3764
 30
0.0
 11
79.1682
 21
14.3764
 31
0.0
  0
LINE
  8
0
 62
     0
 10
100.001
 20
14.3764
 30
0.0
 11
95.8321
 21
14.3764
 31
0.0
  0
LINE
  8
0
 62
     0
 10
74.9997
 20
22.9167
 30
0.0
 11
100.001
 21
22.9167
 31
0.0
  0
LINE
  8
0
 62
     0
 10
74.9997
 20
10.6264
 30
0.0
 11
95.8321
 21
10.6264
 31
0.0
  0
LINE
  8
0
 62
     0
 10
100.001
 20
10.6264
 30
0.0
 11
95.8321
 21
6.87457
 31
0.0
  0
LINE
  8
0
 62
     0
 10
80.0003
 20
7.49983
 30
0.0
 11
85.001
 21
5.00043
 31
0.0
  0
LINE
  8
0
 62
     7
 10
100.001
 20
25.001
 30
0.0
 11
125
 21
25.001
 31
0.0
  0
LINE
  8
0
 62
     7
 10
125
 20
25.001
 30
0.0
 11
125
 21
-0
 31
0.0
  0
LINE
  8
0
 62
     7
 10
125
 20
-0
 30
0.0
 11
100.001
 21
-0
 31
0.0
  0
LINE
  8
0
 62
     7
 10
100.001
 20
-0
 30
0.0
 11
100.001
 21
25.001
 31
0.0
  0
LINE
  8
0
 62
     0
 10
100.001
 20
18.1246
 30
0.0
 11
104.17
 21
18.1246
 31
0.0
  0
LINE
  8
0
 62
     0
 10
125
 20
18.1246
 30
0.0
 11
120.832
 21
18.1246
 31
0.0
  0
LINE
  8
0
 62
     0
 10
100.001
 20
14.3764
 30
0.0
 11
104.17
 21
14.3764
 31
0.0
  0
LINE
  8
0
 62
     0
 10
125
 20
14.3764
 30
0.0
 11
120.832
 21
14.3764
 31
0.0
  0
LINE
  8
0
 62
     0
 10
100.001
 20
22.9167
 30
0.0
 11
125
 21
22.9167
 31
0.0
  0
LINE
  8
0
 62
     0
 10
100.001
 20
10.6264
 30
0.0
 11
120.832
 21
10.6264
 31
0.0
  0
LINE
  8
0
 62
     0
 10
125
 20
10.6264
 30
0.0
 11
120.832
 21
6.87457
 31
0.0
  0
LINE
  8
0
 62
     0
 10
104.999
 20
7.49983
 30
0.0
 11
110
 21
5.00043
 31
0.0
  0
LINE
  8
0
 62
     7
 10
125
 20
25.001
 30
0.0
 11
150.001
 21
25.001
 31
0.0
  0
LINE
  8
0
 62
     7
 10
150.001
 20
25.001
 30
0.0
 11
150.001
 21
-0
 31
0.0
  0
LINE
  8
0
 62
     7
 10
150.001
 20
-0
 30
0.0
 11
125
 21
-0
 31
0.0
  0
LINE
  8
0
 62
     7
 10
125
 20
-0
 30
0.0
 11
125
 21
25.001
 31
0.0
  0
LINE
  8
0
 62
     0
 10
125
 20
18.1246
 30
0.0
 11
129.169
 21
18.1246
 31
0.0
  0
LINE
  8
0
 62
     0
 10
150.001
 20
18.1246
 30
0.0
 11
145.832
 21
18.1246
 31
0.0
  0
LINE
  8
0
 62
     0
 10
125
 20
14.3764
 30
0.0
 11
129.169
 21
14.3764
 31
0.0
  0
LINE
  8
0
 62
     0
 10
150.001
 20
14.3764
 30
0.0
 11
145.832
 21
14.3764
 31
0.0
  0
LINE
  8
0
 62
     0
 10
125
 20
22.9167
 30
0.0
 11
150.001
 21
22.9167
 31
0.0
  0
LINE
  8
0
 62
     0
 10
125
 20
10.6264
 30
0.0
 11
145.832
 21
10.6264
 31
0.0
  0
LINE
  8
0
 62
     0
 10
150.001
 20
10.6264
 30
0.0
 11
145.832
 21
6.87457
 31
0.0
  0
LINE
  8
0
 62
     0
 10
129.999
 20
7.49983
 30
0.0
 11
135.002
 21
5.00043
 31
0.0
  0
LINE
  8
0
 62
     7
 10
150
 20
25.001
 30
0.0
 11
175
 21
25.001
 31
0.0
  0
LINE
  8
0
 62
     7
 10
175
 20
25.001
 30
0.0
 11
175
 21
-0
 31
0.0
  0
LINE
  8
0
 62
     7
 10
175
 20
-0
 30
0.0
 11
150
 21
-0
 31
0.0
  0
LINE
  8
0
 62
     7
 10
150
 20
-0
 30
0.0
 11
150
 21
25.001
 31
0.0
  0
LINE
  8
0
 62
     0
 10
150
 20
18.1246
 30
0.0
 11
154.168
 21
18.1246
 31
0.0
  0
LINE
  8
0
 62
     0
 10
150
 20
14.3764
 30
0.0
 11
154.168
 21
14.3764
 31
0.0
  0
LINE
  8
0
 62
     0
 10
170.832
 20
18.1246
 30
0.0
 11
170.832
 21
14.3764
 31
0.0
  0
LINE
  8
0
 62
     0
 10
150
 20
22.9167
 30
0.0
 11
175.001
 21
22.9167
 31
0.0
  0
LINE
  8
0
 62
     0
 10
175.001
 20
22.9167
 30
0.0
 11
175.001
 21
10.6264
 31
0.0
  0
LINE
  8
0
 62
     0
 10
150
 20
10.6264
 30
0.0
 11
170.832
 21
10.6264
 31
0.0
  0
LINE
  8
0
 62
     0
 10
175.001
 20
10.6264
 30
0.0
 11
170.832
 21
6.87457
 31
0.0
  0
LINE
  8
0
 62
     0
 10
155
 20
7.49983
 30
0.0
 11
160
 21
5.00043
 31
0.0
  0
ENDSEC
  0
EOF
