  0
SECTION
  2
HEADER
  9
$ACADVER
  1
AC1009
  9
$EXTMIN
 10
0.0
 20
0.0
 30
0.0
  9
$EXTMAX
 10
1000.0
 20
1000.0
 30
0.0
  9
$FILLMODE
 70
 0
  9
$SPLFRAME
 70
 1
  0
ENDSEC
  0
SECTION
  2
TABLES
  0
TABLE
  2
LAYER
 70
1
  0
LAYER
  2
0
 70
     0
 62
     7
  6
CONTINUOUS
  0
ENDTAB
  0
ENDSEC
  0
SECTION
  2
ENTITIES
  0
LINE
  8
0
 62
     7
 10
1.62457
 20
50.0632
 30
0.0
 11
26.6256
 21
50.0632
 31
0.0
  0
LINE
  8
0
 62
     7
 10
26.6256
 20
50.0632
 30
0.0
 11
26.6256
 21
25.0622
 31
0.0
  0
LINE
  8
0
 62
     7
 10
26.6256
 20
25.0622
 30
0.0
 11
1.62457
 21
25.0622
 31
0.0
  0
LINE
  8
0
 62
     7
 10
1.62457
 20
25.0622
 30
0.0
 11
1.62457
 21
50.0632
 31
0.0
  0
LINE
  8
0
 62
     0
 10
20.3743
 20
50.0632
 30
0.0
 11
20.3743
 21
43.8142
 31
0.0
  0
LINE
  8
0
 62
     0
 10
18.2915
 20
43.8142
 30
0.0
 11
26.6256
 21
43.8142
 31
0.0
  0
LINE
  8
0
 62
     0
 10
20.3743
 20
43.8142
 30
0.0
 11
20.3743
 21
25.0622
 31
0.0
  0
LINE
  8
0
 62
     0
 10
16.2093
 20
50.0632
 30
0.0
 11
16.2093
 21
39.6451
 31
0.0
  0
LINE
  8
0
 62
     0
 10
14.1247
 20
39.6451
 30
0.0
 11
26.6256
 21
39.6451
 31
0.0
  0
LINE
  8
0
 62
     0
 10
16.2093
 20
39.6451
 30
0.0
 11
16.2093
 21
25.0622
 31
0.0
  0
LINE
  8
0
 62
     0
 10
26.6256
 20
47.9792
 30
0.0
 11
24.541
 21
47.9792
 31
0.0
  0
LINE
  8
0
 62
     0
 10
24.541
 20
47.9792
 30
0.0
 11
24.541
 21
50.0632
 31
0.0
  0
LINE
  8
0
 62
     0
 10
12.0425
 20
50.0632
 30
0.0
 11
12.0425
 21
25.0622
 31
0.0
  0
LINE
  8
0
 62
     0
 10
26.6256
 20
35.4785
 30
0.0
 11
24.541
 21
35.4785
 31
0.0
  0
LINE
  8
0
 62
     0
 10
24.541
 20
35.4785
 30
0.0
 11
24.541
 21
25.0622
 31
0.0
  0
LINE
  8
0
 62
     0
 10
7.87354
 20
50.0632
 30
0.0
 11
7.87354
 21
31.3135
 31
0.0
  0
LINE
  8
0
 62
     0
 10
5.79308
 20
31.3135
 30
0.0
 11
26.6256
 21
31.3135
 31
0.0
  0
LINE
  8
0
 62
     0
 10
7.87354
 20
31.3135
 30
0.0
 11
7.87354
 21
25.0622
 31
0.0
  0
LINE
  8
0
 62
     0
 10
3.70856
 20
50.0632
 30
0.0
 11
3.70856
 21
27.1467
 31
0.0
  0
LINE
  8
0
 62
     0
 10
1.62457
 20
27.1467
 30
0.0
 11
26.6256
 21
27.1467
 31
0.0
  0
LINE
  8
0
 62
     0
 10
3.70856
 20
27.1467
 30
0.0
 11
3.70856
 21
25.0622
 31
0.0
  0
LINE
  8
0
 62
     7
 10
26.6256
 20
50.0632
 30
0.0
 11
51.6246
 21
50.0632
 31
0.0
  0
LINE
  8
0
 62
     7
 10
51.6246
 20
50.0632
 30
0.0
 11
51.6246
 21
25.0622
 31
0.0
  0
LINE
  8
0
 62
     7
 10
51.6246
 20
25.0622
 30
0.0
 11
26.6256
 21
25.0622
 31
0.0
  0
LINE
  8
0
 62
     7
 10
26.6256
 20
25.0622
 30
0.0
 11
26.6256
 21
50.0632
 31
0.0
  0
LINE
  8
0
 62
     0
 10
26.6256
 20
43.8142
 30
0.0
 11
30.794
 21
43.1871
 31
0.0
  0
LINE
  8
0
 62
     0
 10
51.6246
 20
43.8142
 30
0.0
 11
47.4561
 21
43.1871
 31
0.0
  0
LINE
  8
0
 62
     0
 10
26.6256
 20
39.6451
 30
0.0
 11
30.794
 21
39.4388
 31
0.0
  0
LINE
  8
0
 62
     0
 10
51.6246
 20
39.6451
 30
0.0
 11
47.4561
 21
39.4388
 31
0.0
  0
LINE
  8
0
 62
     0
 10
26.6256
 20
47.9792
 30
0.0
 11
51.6246
 21
47.9792
 31
0.0
  0
LINE
  8
0
 62
     0
 10
26.6256
 20
35.4785
 30
0.0
 11
30.794
 21
35.6888
 31
0.0
  0
LINE
  8
0
 62
     0
 10
30.794
 20
35.6888
 30
0.0
 11
47.4561
 21
35.6888
 31
0.0
  0
LINE
  8
0
 62
     0
 10
51.6246
 20
35.4785
 30
0.0
 11
47.4561
 21
31.9369
 31
0.0
  0
LINE
  8
0
 62
     0
 10
26.6256
 20
31.3135
 30
0.0
 11
30.794
 21
31.9369
 31
0.0
  0
LINE
  8
0
 62
     0
 10
30.794
 20
31.9369
 30
0.0
 11
28.7942
 21
34.4364
 31
0.0
  0
LINE
  8
0
 62
     0
 10
28.7942
 20
34.4364
 30
0.0
 11
32.7937
 21
34.4364
 31
0.0
  0
LINE
  8
0
 62
     0
 10
32.7937
 20
34.4364
 30
0.0
 11
30.794
 21
31.9369
 31
0.0
  0
LINE
  8
0
 62
     0
 10
30.794
 20
31.9369
 30
0.0
 11
39.1261
 21
31.3135
 31
0.0
  0
LINE
  8
0
 62
     0
 10
39.1261
 20
31.3135
 30
0.0
 11
47.4561
 21
30.5311
 31
0.0
  0
LINE
  8
0
 62
     0
 10
47.4561
 20
30.5311
 30
0.0
 11
51.6246
 21
31.3135
 31
0.0
  0
LINE
  8
0
 62
     0
 10
26.6256
 20
27.1467
 30
0.0
 11
39.1261
 21
27.1467
 31
0.0
  0
LINE
  8
0
 62
     0
 10
39.1261
 20
27.1467
 30
0.0
 11
44.2039
 21
29.0689
 31
0.0
  0
LINE
  8
0
 62
     0
 10
44.2039
 20
29.0689
 30
0.0
 11
42.2058
 21
26.5678
 31
0.0
  0
LINE
  8
0
 62
     0
 10
42.2058
 20
26.5678
 30
0.0
 11
46.2056
 21
26.5678
 31
0.0
  0
LINE
  8
0
 62
     0
 10
46.2056
 20
26.5678
 30
0.0
 11
44.2039
 21
29.0689
 31
0.0
  0
LINE
  8
0
 62
     0
 10
44.2039
 20
29.0689
 30
0.0
 11
51.6246
 21
27.1467
 31
0.0
  0
LINE
  8
0
 62
     7
 10
51.6246
 20
50.0632
 30
0.0
 11
76.6256
 21
50.0632
 31
0.0
  0
LINE
  8
0
 62
     7
 10
76.6256
 20
50.0632
 30
0.0
 11
76.6256
 21
25.0622
 31
0.0
  0
LINE
  8
0
 62
     7
 10
76.6256
 20
25.0622
 30
0.0
 11
51.6246
 21
25.0622
 31
0.0
  0
LINE
  8
0
 62
     7
 10
51.6246
 20
25.0622
 30
0.0
 11
51.6246
 21
50.0632
 31
0.0
  0
LINE
  8
0
 62
     0
 10
51.6246
 20
43.8142
 30
0.0
 11
55.7932
 21
43.1871
 31
0.0
  0
LINE
  8
0
 62
     0
 10
51.6246
 20
39.6451
 30
0.0
 11
55.7932
 21
39.4388
 31
0.0
  0
LINE
  8
0
 62
     0
 10
51.6246
 20
47.9792
 30
0.0
 11
76.626
 21
47.9792
 31
0.0
  0
LINE
  8
0
 62
     0
 10
76.626
 20
47.9792
 30
0.0
 11
76.626
 21
35.4785
 31
0.0
  0
LINE
  8
0
 62
     0
 10
51.6246
 20
35.4785
 30
0.0
 11
55.7932
 21
35.6888
 31
0.0
  0
LINE
  8
0
 62
     0
 10
55.7932
 20
35.6888
 30
0.0
 11
72.4571
 21
35.6888
 31
0.0
  0
LINE
  8
0
 62
     0
 10
76.626
 20
35.4785
 30
0.0
 11
72.4571
 21
31.9369
 31
0.0
  0
LINE
  8
0
 62
     0
 10
51.6246
 20
31.3135
 30
0.0
 11
55.7932
 21
31.9369
 31
0.0
  0
LINE
  8
0
 62
     0
 10
51.6246
 20
27.1467
 30
0.0
 11
64.1253
 21
27.1467
 31
0.0
  0
LINE
  8
0
 62
     0
 10
64.1253
 20
27.1467
 30
0.0
 11
69.2053
 21
29.0689
 31
0.0
  0
LINE
  8
0
 62
     7
 10
1.62457
 20
25.0622
 30
0.0
 11
26.6256
 21
25.0622
 31
0.0
  0
LINE
  8
0
 62
     7
 10
26.6256
 20
25.0622
 30
0.0
 11
26.6256
 21
0.0630425
 31
0.0
  0
LINE
  8
0
 62
     7
 10
26.6256
 20
0.0630425
 30
0.0
 11
1.62457
 21
0.0630425
 31
0.0
  0
LINE
  8
0
 62
     7
 10
1.62457
 20
0.0630425
 30
0.0
 11
1.62457
 21
25.0622
 31
0.0
  0
LINE
  8
0
 62
     0
 10
20.3743
 20
25.0622
 30
0.0
 11
20.3743
 21
18.8128
 31
0.0
  0
LINE
  8
0
 62
     0
 10
20.3743
 20
18.8128
 30
0.0
 11
26.6256
 21
18.8128
 31
0.0
  0
LINE
  8
0
 62
     0
 10
16.2093
 20
25.0622
 30
0.0
 11
16.2093
 21
14.6461
 31
0.0
  0
LINE
  8
0
 62
     0
 10
16.2093
 20
14.6461
 30
0.0
 11
26.6256
 21
14.6461
 31
0.0
  0
LINE
  8
0
 62
     0
 10
26.6256
 20
22.9794
 30
0.0
 11
24.541
 21
22.9794
 31
0.0
  0
LINE
  8
0
 62
     0
 10
24.541
 20
22.9794
 30
0.0
 11
24.541
 21
25.0622
 31
0.0
  0
LINE
  8
0
 62
     0
 10
12.0425
 20
25.0622
 30
0.0
 11
12.0425
 21
10.4793
 31
0.0
  0
LINE
  8
0
 62
     0
 10
12.0425
 20
10.4793
 30
0.0
 11
26.6256
 21
10.4793
 31
0.0
  0
LINE
  8
0
 62
     0
 10
7.87354
 20
25.0622
 30
0.0
 11
7.87354
 21
6.31256
 31
0.0
  0
LINE
  8
0
 62
     0
 10
7.87354
 20
6.31256
 30
0.0
 11
26.6256
 21
6.31256
 31
0.0
  0
LINE
  8
0
 62
     0
 10
3.70856
 20
25.0622
 30
0.0
 11
3.70856
 21
2.14535
 31
0.0
  0
LINE
  8
0
 62
     0
 10
3.70856
 20
2.14535
 30
0.0
 11
26.6256
 21
2.14535
 31
0.0
  0
LINE
  8
0
 62
     7
 10
26.6256
 20
25.0622
 30
0.0
 11
51.6246
 21
25.0622
 31
0.0
  0
LINE
  8
0
 62
     7
 10
51.6246
 20
25.0622
 30
0.0
 11
51.6246
 21
0.0630425
 31
0.0
  0
LINE
  8
0
 62
     7
 10
51.6246
 20
0.0630425
 30
0.0
 11
26.6256
 21
0.0630425
 31
0.0
  0
LINE
  8
0
 62
     7
 10
26.6256
 20
0.0630425
 30
0.0
 11
26.6256
 21
25.0622
 31
0.0
  0
LINE
  8
0
 62
     0
 10
26.6256
 20
18.8128
 30
0.0
 11
30.794
 21
18.1875
 31
0.0
  0
LINE
  8
0
 62
     0
 10
51.6246
 20
18.8128
 30
0.0
 11
47.4561
 21
18.1875
 31
0.0
  0
LINE
  8
0
 62
     0
 10
26.6256
 20
14.6461
 30
0.0
 11
30.794
 21
14.4375
 31
0.0
  0
LINE
  8
0
 62
     0
 10
51.6246
 20
14.6461
 30
0.0
 11
47.4561
 21
14.4375
 31
0.0
  0
LINE
  8
0
 62
     0
 10
26.6256
 20
22.9794
 30
0.0
 11
51.6246
 21
22.9794
 31
0.0
  0
LINE
  8
0
 62
     0
 10
26.6256
 20
10.4793
 30
0.0
 11
30.794
 21
10.6874
 31
0.0
  0
LINE
  8
0
 62
     0
 10
30.794
 20
10.6874
 30
0.0
 11
47.4561
 21
10.6874
 31
0.0
  0
LINE
  8
0
 62
     0
 10
51.6246
 20
10.4793
 30
0.0
 11
47.4561
 21
6.93782
 31
0.0
  0
LINE
  8
0
 62
     0
 10
26.6256
 20
6.31256
 30
0.0
 11
30.794
 21
6.93782
 31
0.0
  0
LINE
  8
0
 62
     0
 10
30.794
 20
6.93782
 30
0.0
 11
28.7942
 21
9.43728
 31
0.0
  0
LINE
  8
0
 62
     0
 10
28.7942
 20
9.43728
 30
0.0
 11
32.7937
 21
9.43728
 31
0.0
  0
LINE
  8
0
 62
     0
 10
32.7937
 20
9.43728
 30
0.0
 11
30.794
 21
6.93782
 31
0.0
  0
LINE
  8
0
 62
     0
 10
30.794
 20
6.93782
 30
0.0
 11
39.1261
 21
6.31256
 31
0.0
  0
LINE
  8
0
 62
     0
 10
39.1261
 20
6.31256
 30
0.0
 11
47.4561
 21
5.53201
 31
0.0
  0
LINE
  8
0
 62
     0
 10
47.4561
 20
5.53201
 30
0.0
 11
51.6246
 21
6.31256
 31
0.0
  0
LINE
  8
0
 62
     0
 10
26.6256
 20
2.14535
 30
0.0
 11
39.1261
 21
2.14535
 31
0.0
  0
LINE
  8
0
 62
     0
 10
39.1261
 20
2.14535
 30
0.0
 11
44.2039
 21
4.06799
 31
0.0
  0
LINE
  8
0
 62
     0
 10
44.2039
 20
4.06799
 30
0.0
 11
42.2058
 21
1.56858
 31
0.0
  0
LINE
  8
0
 62
     0
 10
42.2058
 20
1.56858
 30
0.0
 11
46.2056
 21
1.56858
 31
0.0
  0
LINE
  8
0
 62
     0
 10
46.2056
 20
1.56858
 30
0.0
 11
44.2039
 21
4.06799
 31
0.0
  0
LINE
  8
0
 62
     0
 10
44.2039
 20
4.06799
 30
0.0
 11
51.6246
 21
2.14535
 31
0.0
  0
LINE
  8
0
 62
     7
 10
51.6246
 20
25.0622
 30
0.0
 11
76.6256
 21
25.0622
 31
0.0
  0
LINE
  8
0
 62
     7
 10
76.6256
 20
25.0622
 30
0.0
 11
76.6256
 21
0.0630425
 31
0.0
  0
LINE
  8
0
 62
     7
 10
76.6256
 20
0.0630425
 30
0.0
 11
51.6246
 21
0.0630425
 31
0.0
  0
LINE
  8
0
 62
     7
 10
51.6246
 20
0.0630425
 30
0.0
 11
51.6246
 21
25.0622
 31
0.0
  0
LINE
  8
0
 62
     0
 10
51.6246
 20
18.8128
 30
0.0
 11
55.7932
 21
18.1875
 31
0.0
  0
LINE
  8
0
 62
     0
 10
51.6246
 20
14.6461
 30
0.0
 11
55.7932
 21
14.4375
 31
0.0
  0
LINE
  8
0
 62
     0
 10
51.6246
 20
22.9794
 30
0.0
 11
76.626
 21
22.9794
 31
0.0
  0
LINE
  8
0
 62
     0
 10
76.626
 20
22.9794
 30
0.0
 11
76.626
 21
10.4793
 31
0.0
  0
LINE
  8
0
 62
     0
 10
51.6246
 20
10.4793
 30
0.0
 11
55.7932
 21
10.6874
 31
0.0
  0
LINE
  8
0
 62
     0
 10
55.7932
 20
10.6874
 30
0.0
 11
72.4571
 21
10.6874
 31
0.0
  0
LINE
  8
0
 62
     0
 10
76.626
 20
10.4793
 30
0.0
 11
72.4571
 21
6.93782
 31
0.0
  0
LINE
  8
0
 62
     0
 10
51.6246
 20
6.31256
 30
0.0
 11
55.7932
 21
6.93782
 31
0.0
  0
LINE
  8
0
 62
     0
 10
51.6246
 20
2.14535
 30
0.0
 11
64.1253
 21
2.14535
 31
0.0
  0
LINE
  8
0
 62
     0
 10
64.1253
 20
2.14535
 30
0.0
 11
69.2053
 21
4.06799
 31
0.0
  0
ENDSEC
  0
EOF
