  0
SECTION
  2
HEADER
  9
$ACADVER
  1
AC1009
  9
$EXTMIN
 10
0.0
 20
0.0
 30
0.0
  9
$EXTMAX
 10
1000.0
 20
1000.0
 30
0.0
  9
$FILLMODE
 70
 0
  9
$SPLFRAME
 70
 1
  0
ENDSEC
  0
SECTION
  2
TABLES
  0
TABLE
  2
LAYER
 70
1
  0
LAYER
  2
0
 70
     0
 62
     7
  6
CONTINUOUS
  0
ENDTAB
  0
ENDSEC
  0
SECTION
  2
ENTITIES
  0
LINE
  8
0
 62
     7
 10
1.62457
 20
75.0632
 30
0.0
 11
26.6256
 21
75.0632
 31
0.0
  0
LINE
  8
0
 62
     7
 10
26.6256
 20
75.0632
 30
0.0
 11
26.6256
 21
50.0622
 31
0.0
  0
LINE
  8
0
 62
     7
 10
26.6256
 20
50.0622
 30
0.0
 11
1.62457
 21
50.0622
 31
0.0
  0
LINE
  8
0
 62
     7
 10
1.62457
 20
50.0622
 30
0.0
 11
1.62457
 21
75.0632
 31
0.0
  0
LINE
  8
0
 62
     0
 10
20.3743
 20
75.0632
 30
0.0
 11
20.3743
 21
68.8142
 31
0.0
  0
LINE
  8
0
 62
     0
 10
18.2915
 20
68.8142
 30
0.0
 11
26.6256
 21
68.8142
 31
0.0
  0
LINE
  8
0
 62
     0
 10
20.3743
 20
68.8142
 30
0.0
 11
20.3743
 21
50.0622
 31
0.0
  0
LINE
  8
0
 62
     0
 10
16.2093
 20
75.0632
 30
0.0
 11
16.2093
 21
64.6451
 31
0.0
  0
LINE
  8
0
 62
     0
 10
14.1247
 20
64.6451
 30
0.0
 11
26.6256
 21
64.6451
 31
0.0
  0
LINE
  8
0
 62
     0
 10
16.2093
 20
64.6451
 30
0.0
 11
16.2093
 21
50.0622
 31
0.0
  0
LINE
  8
0
 62
     0
 10
26.6256
 20
72.9792
 30
0.0
 11
24.541
 21
72.9792
 31
0.0
  0
LINE
  8
0
 62
     0
 10
24.541
 20
72.9792
 30
0.0
 11
24.541
 21
75.0632
 31
0.0
  0
LINE
  8
0
 62
     0
 10
12.0425
 20
75.0632
 30
0.0
 11
12.0425
 21
50.0622
 31
0.0
  0
LINE
  8
0
 62
     0
 10
26.6256
 20
60.4785
 30
0.0
 11
24.541
 21
60.4785
 31
0.0
  0
LINE
  8
0
 62
     0
 10
24.541
 20
60.4785
 30
0.0
 11
24.541
 21
50.0622
 31
0.0
  0
LINE
  8
0
 62
     0
 10
7.87354
 20
75.0632
 30
0.0
 11
7.87354
 21
56.3135
 31
0.0
  0
LINE
  8
0
 62
     0
 10
5.79308
 20
56.3135
 30
0.0
 11
26.6256
 21
56.3135
 31
0.0
  0
LINE
  8
0
 62
     0
 10
7.87354
 20
56.3135
 30
0.0
 11
7.87354
 21
50.0622
 31
0.0
  0
LINE
  8
0
 62
     0
 10
3.70856
 20
75.0632
 30
0.0
 11
3.70856
 21
52.1467
 31
0.0
  0
LINE
  8
0
 62
     0
 10
1.62457
 20
52.1467
 30
0.0
 11
26.6256
 21
52.1467
 31
0.0
  0
LINE
  8
0
 62
     0
 10
3.70856
 20
52.1467
 30
0.0
 11
3.70856
 21
50.0622
 31
0.0
  0
LINE
  8
0
 62
     7
 10
26.6256
 20
75.0632
 30
0.0
 11
51.6246
 21
75.0632
 31
0.0
  0
LINE
  8
0
 62
     7
 10
51.6246
 20
75.0632
 30
0.0
 11
51.6246
 21
50.0622
 31
0.0
  0
LINE
  8
0
 62
     7
 10
51.6246
 20
50.0622
 30
0.0
 11
26.6256
 21
50.0622
 31
0.0
  0
LINE
  8
0
 62
     7
 10
26.6256
 20
50.0622
 30
0.0
 11
26.6256
 21
75.0632
 31
0.0
  0
LINE
  8
0
 62
     0
 10
26.6256
 20
68.8142
 30
0.0
 11
30.794
 21
68.1871
 31
0.0
  0
LINE
  8
0
 62
     0
 10
51.6246
 20
68.8142
 30
0.0
 11
47.4561
 21
68.1871
 31
0.0
  0
LINE
  8
0
 62
     0
 10
26.6256
 20
64.6451
 30
0.0
 11
30.794
 21
64.4387
 31
0.0
  0
LINE
  8
0
 62
     0
 10
51.6246
 20
64.6451
 30
0.0
 11
47.4561
 21
64.4387
 31
0.0
  0
LINE
  8
0
 62
     0
 10
26.6256
 20
72.9792
 30
0.0
 11
51.6246
 21
72.9792
 31
0.0
  0
LINE
  8
0
 62
     0
 10
26.6256
 20
60.4785
 30
0.0
 11
30.794
 21
60.6887
 31
0.0
  0
LINE
  8
0
 62
     0
 10
30.794
 20
60.6887
 30
0.0
 11
47.4561
 21
60.6887
 31
0.0
  0
LINE
  8
0
 62
     0
 10
51.6246
 20
60.4785
 30
0.0
 11
47.4561
 21
56.9369
 31
0.0
  0
LINE
  8
0
 62
     0
 10
26.6256
 20
56.3135
 30
0.0
 11
30.794
 21
56.9369
 31
0.0
  0
LINE
  8
0
 62
     0
 10
30.794
 20
56.9369
 30
0.0
 11
28.7942
 21
59.4364
 31
0.0
  0
LINE
  8
0
 62
     0
 10
28.7942
 20
59.4364
 30
0.0
 11
32.7937
 21
59.4364
 31
0.0
  0
LINE
  8
0
 62
     0
 10
32.7937
 20
59.4364
 30
0.0
 11
30.794
 21
56.9369
 31
0.0
  0
LINE
  8
0
 62
     0
 10
30.794
 20
56.9369
 30
0.0
 11
39.1261
 21
56.3135
 31
0.0
  0
LINE
  8
0
 62
     0
 10
39.1261
 20
56.3135
 30
0.0
 11
47.4561
 21
55.5311
 31
0.0
  0
LINE
  8
0
 62
     0
 10
47.4561
 20
55.5311
 30
0.0
 11
51.6246
 21
56.3135
 31
0.0
  0
LINE
  8
0
 62
     0
 10
26.6256
 20
52.1467
 30
0.0
 11
39.1261
 21
52.1467
 31
0.0
  0
LINE
  8
0
 62
     0
 10
39.1261
 20
52.1467
 30
0.0
 11
44.2039
 21
54.0689
 31
0.0
  0
LINE
  8
0
 62
     0
 10
44.2039
 20
54.0689
 30
0.0
 11
42.2058
 21
51.5678
 31
0.0
  0
LINE
  8
0
 62
     0
 10
42.2058
 20
51.5678
 30
0.0
 11
46.2056
 21
51.5678
 31
0.0
  0
LINE
  8
0
 62
     0
 10
46.2056
 20
51.5678
 30
0.0
 11
44.2039
 21
54.0689
 31
0.0
  0
LINE
  8
0
 62
     0
 10
44.2039
 20
54.0689
 30
0.0
 11
51.6246
 21
52.1467
 31
0.0
  0
LINE
  8
0
 62
     7
 10
51.6246
 20
75.0632
 30
0.0
 11
76.6256
 21
75.0632
 31
0.0
  0
LINE
  8
0
 62
     7
 10
76.6256
 20
75.0632
 30
0.0
 11
76.6256
 21
50.0622
 31
0.0
  0
LINE
  8
0
 62
     7
 10
76.6256
 20
50.0622
 30
0.0
 11
51.6246
 21
50.0622
 31
0.0
  0
LINE
  8
0
 62
     7
 10
51.6246
 20
50.0622
 30
0.0
 11
51.6246
 21
75.0632
 31
0.0
  0
LINE
  8
0
 62
     0
 10
51.6246
 20
68.8142
 30
0.0
 11
55.7932
 21
68.1871
 31
0.0
  0
LINE
  8
0
 62
     0
 10
76.626
 20
68.8142
 30
0.0
 11
72.4571
 21
68.1871
 31
0.0
  0
LINE
  8
0
 62
     0
 10
51.6246
 20
64.6451
 30
0.0
 11
55.7932
 21
64.4387
 31
0.0
  0
LINE
  8
0
 62
     0
 10
76.626
 20
64.6451
 30
0.0
 11
72.4571
 21
64.4387
 31
0.0
  0
LINE
  8
0
 62
     0
 10
51.6246
 20
72.9792
 30
0.0
 11
76.626
 21
72.9792
 31
0.0
  0
LINE
  8
0
 62
     0
 10
51.6246
 20
60.4785
 30
0.0
 11
55.7932
 21
60.6887
 31
0.0
  0
LINE
  8
0
 62
     0
 10
55.7932
 20
60.6887
 30
0.0
 11
72.4571
 21
60.6887
 31
0.0
  0
LINE
  8
0
 62
     0
 10
76.626
 20
60.4785
 30
0.0
 11
72.4571
 21
56.9369
 31
0.0
  0
LINE
  8
0
 62
     0
 10
51.6246
 20
56.3135
 30
0.0
 11
55.7932
 21
56.9369
 31
0.0
  0
LINE
  8
0
 62
     0
 10
55.7932
 20
56.9369
 30
0.0
 11
53.7933
 21
59.4364
 31
0.0
  0
LINE
  8
0
 62
     0
 10
53.7933
 20
59.4364
 30
0.0
 11
57.7947
 21
59.4364
 31
0.0
  0
LINE
  8
0
 62
     0
 10
57.7947
 20
59.4364
 30
0.0
 11
55.7932
 21
56.9369
 31
0.0
  0
LINE
  8
0
 62
     0
 10
55.7932
 20
56.9369
 30
0.0
 11
64.1253
 21
56.3135
 31
0.0
  0
LINE
  8
0
 62
     0
 10
64.1253
 20
56.3135
 30
0.0
 11
72.4571
 21
55.5311
 31
0.0
  0
LINE
  8
0
 62
     0
 10
72.4571
 20
55.5311
 30
0.0
 11
76.626
 21
56.3135
 31
0.0
  0
LINE
  8
0
 62
     0
 10
51.6246
 20
52.1467
 30
0.0
 11
64.1253
 21
52.1467
 31
0.0
  0
LINE
  8
0
 62
     0
 10
64.1253
 20
52.1467
 30
0.0
 11
69.2053
 21
54.0689
 31
0.0
  0
LINE
  8
0
 62
     0
 10
69.2053
 20
54.0689
 30
0.0
 11
67.205
 21
51.5678
 31
0.0
  0
LINE
  8
0
 62
     0
 10
67.205
 20
51.5678
 30
0.0
 11
71.2051
 21
51.5678
 31
0.0
  0
LINE
  8
0
 62
     0
 10
71.2051
 20
51.5678
 30
0.0
 11
69.2053
 21
54.0689
 31
0.0
  0
LINE
  8
0
 62
     0
 10
69.2053
 20
54.0689
 30
0.0
 11
76.626
 21
52.1467
 31
0.0
  0
LINE
  8
0
 62
     7
 10
76.626
 20
75.0632
 30
0.0
 11
101.625
 21
75.0632
 31
0.0
  0
LINE
  8
0
 62
     7
 10
101.625
 20
75.0632
 30
0.0
 11
101.625
 21
50.0622
 31
0.0
  0
LINE
  8
0
 62
     7
 10
101.625
 20
50.0622
 30
0.0
 11
76.626
 21
50.0622
 31
0.0
  0
LINE
  8
0
 62
     7
 10
76.626
 20
50.0622
 30
0.0
 11
76.626
 21
75.0632
 31
0.0
  0
LINE
  8
0
 62
     0
 10
76.626
 20
68.8142
 30
0.0
 11
80.7944
 21
68.1871
 31
0.0
  0
LINE
  8
0
 62
     0
 10
76.626
 20
64.6451
 30
0.0
 11
80.7944
 21
64.4387
 31
0.0
  0
LINE
  8
0
 62
     0
 10
76.626
 20
72.9792
 30
0.0
 11
101.625
 21
72.9792
 31
0.0
  0
LINE
  8
0
 62
     0
 10
101.625
 20
72.9792
 30
0.0
 11
101.625
 21
60.4785
 31
0.0
  0
LINE
  8
0
 62
     0
 10
76.626
 20
60.4785
 30
0.0
 11
80.7944
 21
60.6887
 31
0.0
  0
LINE
  8
0
 62
     0
 10
80.7944
 20
60.6887
 30
0.0
 11
97.4567
 21
60.6887
 31
0.0
  0
LINE
  8
0
 62
     0
 10
101.625
 20
60.4785
 30
0.0
 11
97.4567
 21
56.9369
 31
0.0
  0
LINE
  8
0
 62
     0
 10
76.626
 20
56.3135
 30
0.0
 11
80.7944
 21
56.9369
 31
0.0
  0
LINE
  8
0
 62
     0
 10
76.626
 20
52.1467
 30
0.0
 11
89.1244
 21
52.1467
 31
0.0
  0
LINE
  8
0
 62
     0
 10
89.1244
 20
52.1467
 30
0.0
 11
94.2044
 21
54.0689
 31
0.0
  0
LINE
  8
0
 62
     7
 10
1.62457
 20
50.0622
 30
0.0
 11
26.6256
 21
50.0622
 31
0.0
  0
LINE
  8
0
 62
     7
 10
26.6256
 20
50.0622
 30
0.0
 11
26.6256
 21
25.0631
 31
0.0
  0
LINE
  8
0
 62
     7
 10
26.6256
 20
25.0631
 30
0.0
 11
1.62457
 21
25.0631
 31
0.0
  0
LINE
  8
0
 62
     7
 10
1.62457
 20
25.0631
 30
0.0
 11
1.62457
 21
50.0622
 31
0.0
  0
LINE
  8
0
 62
     0
 10
20.3743
 20
50.0622
 30
0.0
 11
20.3743
 21
43.8128
 31
0.0
  0
LINE
  8
0
 62
     0
 10
18.2915
 20
43.8128
 30
0.0
 11
26.6256
 21
43.8128
 31
0.0
  0
LINE
  8
0
 62
     0
 10
20.3743
 20
43.8128
 30
0.0
 11
20.3743
 21
25.0631
 31
0.0
  0
LINE
  8
0
 62
     0
 10
16.2093
 20
50.0622
 30
0.0
 11
16.2093
 21
39.646
 31
0.0
  0
LINE
  8
0
 62
     0
 10
14.1247
 20
39.646
 30
0.0
 11
26.6256
 21
39.646
 31
0.0
  0
LINE
  8
0
 62
     0
 10
16.2093
 20
39.646
 30
0.0
 11
16.2093
 21
25.0631
 31
0.0
  0
LINE
  8
0
 62
     0
 10
26.6256
 20
47.9794
 30
0.0
 11
24.541
 21
47.9794
 31
0.0
  0
LINE
  8
0
 62
     0
 10
24.541
 20
47.9794
 30
0.0
 11
24.541
 21
50.0622
 31
0.0
  0
LINE
  8
0
 62
     0
 10
12.0425
 20
50.0622
 30
0.0
 11
12.0425
 21
25.0631
 31
0.0
  0
LINE
  8
0
 62
     0
 10
26.6256
 20
35.4793
 30
0.0
 11
24.541
 21
35.4793
 31
0.0
  0
LINE
  8
0
 62
     0
 10
24.541
 20
35.4793
 30
0.0
 11
24.541
 21
25.0631
 31
0.0
  0
LINE
  8
0
 62
     0
 10
7.87354
 20
50.0622
 30
0.0
 11
7.87354
 21
31.3125
 31
0.0
  0
LINE
  8
0
 62
     0
 10
5.79308
 20
31.3125
 30
0.0
 11
26.6256
 21
31.3125
 31
0.0
  0
LINE
  8
0
 62
     0
 10
7.87354
 20
31.3125
 30
0.0
 11
7.87354
 21
25.0631
 31
0.0
  0
LINE
  8
0
 62
     0
 10
3.70856
 20
50.0622
 30
0.0
 11
3.70856
 21
27.1453
 31
0.0
  0
LINE
  8
0
 62
     0
 10
1.62457
 20
27.1453
 30
0.0
 11
26.6256
 21
27.1453
 31
0.0
  0
LINE
  8
0
 62
     0
 10
3.70856
 20
27.1453
 30
0.0
 11
3.70856
 21
25.0631
 31
0.0
  0
LINE
  8
0
 62
     7
 10
26.6256
 20
50.0622
 30
0.0
 11
51.6246
 21
50.0622
 31
0.0
  0
LINE
  8
0
 62
     7
 10
51.6246
 20
50.0622
 30
0.0
 11
51.6246
 21
25.0631
 31
0.0
  0
LINE
  8
0
 62
     7
 10
51.6246
 20
25.0631
 30
0.0
 11
26.6256
 21
25.0631
 31
0.0
  0
LINE
  8
0
 62
     7
 10
26.6256
 20
25.0631
 30
0.0
 11
26.6256
 21
50.0622
 31
0.0
  0
LINE
  8
0
 62
     0
 10
26.6256
 20
43.8128
 30
0.0
 11
30.794
 21
43.1875
 31
0.0
  0
LINE
  8
0
 62
     0
 10
51.6246
 20
43.8128
 30
0.0
 11
47.4561
 21
43.1875
 31
0.0
  0
LINE
  8
0
 62
     0
 10
26.6256
 20
39.646
 30
0.0
 11
30.794
 21
39.4375
 31
0.0
  0
LINE
  8
0
 62
     0
 10
51.6246
 20
39.646
 30
0.0
 11
47.4561
 21
39.4375
 31
0.0
  0
LINE
  8
0
 62
     0
 10
26.6256
 20
47.9794
 30
0.0
 11
51.6246
 21
47.9794
 31
0.0
  0
LINE
  8
0
 62
     0
 10
26.6256
 20
35.4793
 30
0.0
 11
30.794
 21
35.6874
 31
0.0
  0
LINE
  8
0
 62
     0
 10
30.794
 20
35.6874
 30
0.0
 11
47.4561
 21
35.6874
 31
0.0
  0
LINE
  8
0
 62
     0
 10
51.6246
 20
35.4793
 30
0.0
 11
47.4561
 21
31.9378
 31
0.0
  0
LINE
  8
0
 62
     0
 10
26.6256
 20
31.3125
 30
0.0
 11
30.794
 21
31.9378
 31
0.0
  0
LINE
  8
0
 62
     0
 10
30.794
 20
31.9378
 30
0.0
 11
28.7942
 21
34.4372
 31
0.0
  0
LINE
  8
0
 62
     0
 10
28.7942
 20
34.4372
 30
0.0
 11
32.7937
 21
34.4372
 31
0.0
  0
LINE
  8
0
 62
     0
 10
32.7937
 20
34.4372
 30
0.0
 11
30.794
 21
31.9378
 31
0.0
  0
LINE
  8
0
 62
     0
 10
30.794
 20
31.9378
 30
0.0
 11
39.1261
 21
31.3125
 31
0.0
  0
LINE
  8
0
 62
     0
 10
39.1261
 20
31.3125
 30
0.0
 11
47.4561
 21
30.5319
 31
0.0
  0
LINE
  8
0
 62
     0
 10
47.4561
 20
30.5319
 30
0.0
 11
51.6246
 21
31.3125
 31
0.0
  0
LINE
  8
0
 62
     0
 10
26.6256
 20
27.1453
 30
0.0
 11
39.1261
 21
27.1453
 31
0.0
  0
LINE
  8
0
 62
     0
 10
39.1261
 20
27.1453
 30
0.0
 11
44.2039
 21
29.0679
 31
0.0
  0
LINE
  8
0
 62
     0
 10
44.2039
 20
29.0679
 30
0.0
 11
42.2058
 21
26.5686
 31
0.0
  0
LINE
  8
0
 62
     0
 10
42.2058
 20
26.5686
 30
0.0
 11
46.2056
 21
26.5686
 31
0.0
  0
LINE
  8
0
 62
     0
 10
46.2056
 20
26.5686
 30
0.0
 11
44.2039
 21
29.0679
 31
0.0
  0
LINE
  8
0
 62
     0
 10
44.2039
 20
29.0679
 30
0.0
 11
51.6246
 21
27.1453
 31
0.0
  0
LINE
  8
0
 62
     7
 10
51.6246
 20
50.0622
 30
0.0
 11
76.6256
 21
50.0622
 31
0.0
  0
LINE
  8
0
 62
     7
 10
76.6256
 20
50.0622
 30
0.0
 11
76.6256
 21
25.0631
 31
0.0
  0
LINE
  8
0
 62
     7
 10
76.6256
 20
25.0631
 30
0.0
 11
51.6246
 21
25.0631
 31
0.0
  0
LINE
  8
0
 62
     7
 10
51.6246
 20
25.0631
 30
0.0
 11
51.6246
 21
50.0622
 31
0.0
  0
LINE
  8
0
 62
     0
 10
51.6246
 20
43.8128
 30
0.0
 11
55.7932
 21
43.1875
 31
0.0
  0
LINE
  8
0
 62
     0
 10
76.626
 20
43.8128
 30
0.0
 11
72.4571
 21
43.1875
 31
0.0
  0
LINE
  8
0
 62
     0
 10
51.6246
 20
39.646
 30
0.0
 11
55.7932
 21
39.4375
 31
0.0
  0
LINE
  8
0
 62
     0
 10
76.626
 20
39.646
 30
0.0
 11
72.4571
 21
39.4375
 31
0.0
  0
LINE
  8
0
 62
     0
 10
51.6246
 20
47.9794
 30
0.0
 11
76.626
 21
47.9794
 31
0.0
  0
LINE
  8
0
 62
     0
 10
51.6246
 20
35.4793
 30
0.0
 11
55.7932
 21
35.6874
 31
0.0
  0
LINE
  8
0
 62
     0
 10
55.7932
 20
35.6874
 30
0.0
 11
72.4571
 21
35.6874
 31
0.0
  0
LINE
  8
0
 62
     0
 10
76.626
 20
35.4793
 30
0.0
 11
72.4571
 21
31.9378
 31
0.0
  0
LINE
  8
0
 62
     0
 10
51.6246
 20
31.3125
 30
0.0
 11
55.7932
 21
31.9378
 31
0.0
  0
LINE
  8
0
 62
     0
 10
55.7932
 20
31.9378
 30
0.0
 11
53.7933
 21
34.4372
 31
0.0
  0
LINE
  8
0
 62
     0
 10
53.7933
 20
34.4372
 30
0.0
 11
57.7947
 21
34.4372
 31
0.0
  0
LINE
  8
0
 62
     0
 10
57.7947
 20
34.4372
 30
0.0
 11
55.7932
 21
31.9378
 31
0.0
  0
LINE
  8
0
 62
     0
 10
55.7932
 20
31.9378
 30
0.0
 11
64.1253
 21
31.3125
 31
0.0
  0
LINE
  8
0
 62
     0
 10
64.1253
 20
31.3125
 30
0.0
 11
72.4571
 21
30.5319
 31
0.0
  0
LINE
  8
0
 62
     0
 10
72.4571
 20
30.5319
 30
0.0
 11
76.626
 21
31.3125
 31
0.0
  0
LINE
  8
0
 62
     0
 10
51.6246
 20
27.1453
 30
0.0
 11
64.1253
 21
27.1453
 31
0.0
  0
LINE
  8
0
 62
     0
 10
64.1253
 20
27.1453
 30
0.0
 11
69.2053
 21
29.0679
 31
0.0
  0
LINE
  8
0
 62
     0
 10
69.2053
 20
29.0679
 30
0.0
 11
67.205
 21
26.5686
 31
0.0
  0
LINE
  8
0
 62
     0
 10
67.205
 20
26.5686
 30
0.0
 11
71.2051
 21
26.5686
 31
0.0
  0
LINE
  8
0
 62
     0
 10
71.2051
 20
26.5686
 30
0.0
 11
69.2053
 21
29.0679
 31
0.0
  0
LINE
  8
0
 62
     0
 10
69.2053
 20
29.0679
 30
0.0
 11
76.626
 21
27.1453
 31
0.0
  0
LINE
  8
0
 62
     7
 10
76.626
 20
50.0622
 30
0.0
 11
101.625
 21
50.0622
 31
0.0
  0
LINE
  8
0
 62
     7
 10
101.625
 20
50.0622
 30
0.0
 11
101.625
 21
25.0631
 31
0.0
  0
LINE
  8
0
 62
     7
 10
101.625
 20
25.0631
 30
0.0
 11
76.626
 21
25.0631
 31
0.0
  0
LINE
  8
0
 62
     7
 10
76.626
 20
25.0631
 30
0.0
 11
76.626
 21
50.0622
 31
0.0
  0
LINE
  8
0
 62
     0
 10
76.626
 20
43.8128
 30
0.0
 11
80.7944
 21
43.1875
 31
0.0
  0
LINE
  8
0
 62
     0
 10
76.626
 20
39.646
 30
0.0
 11
80.7944
 21
39.4375
 31
0.0
  0
LINE
  8
0
 62
     0
 10
76.626
 20
47.9794
 30
0.0
 11
101.625
 21
47.9794
 31
0.0
  0
LINE
  8
0
 62
     0
 10
101.625
 20
47.9794
 30
0.0
 11
101.625
 21
35.4793
 31
0.0
  0
LINE
  8
0
 62
     0
 10
76.626
 20
35.4793
 30
0.0
 11
80.7944
 21
35.6874
 31
0.0
  0
LINE
  8
0
 62
     0
 10
80.7944
 20
35.6874
 30
0.0
 11
97.4567
 21
35.6874
 31
0.0
  0
LINE
  8
0
 62
     0
 10
101.625
 20
35.4793
 30
0.0
 11
97.4567
 21
31.9378
 31
0.0
  0
LINE
  8
0
 62
     0
 10
76.626
 20
31.3125
 30
0.0
 11
80.7944
 21
31.9378
 31
0.0
  0
LINE
  8
0
 62
     0
 10
76.626
 20
27.1453
 30
0.0
 11
89.1244
 21
27.1453
 31
0.0
  0
LINE
  8
0
 62
     0
 10
89.1244
 20
27.1453
 30
0.0
 11
94.2044
 21
29.0679
 31
0.0
  0
LINE
  8
0
 62
     7
 10
1.62457
 20
25.0631
 30
0.0
 11
26.6256
 21
25.0631
 31
0.0
  0
LINE
  8
0
 62
     7
 10
26.6256
 20
25.0631
 30
0.0
 11
26.6256
 21
0.0621744
 31
0.0
  0
LINE
  8
0
 62
     7
 10
26.6256
 20
0.0621744
 30
0.0
 11
1.62457
 21
0.0621744
 31
0.0
  0
LINE
  8
0
 62
     7
 10
1.62457
 20
0.0621744
 30
0.0
 11
1.62457
 21
25.0631
 31
0.0
  0
LINE
  8
0
 62
     0
 10
20.3743
 20
25.0631
 30
0.0
 11
20.3743
 21
18.8136
 31
0.0
  0
LINE
  8
0
 62
     0
 10
20.3743
 20
18.8136
 30
0.0
 11
26.6256
 21
18.8136
 31
0.0
  0
LINE
  8
0
 62
     0
 10
16.2093
 20
25.0631
 30
0.0
 11
16.2093
 21
14.6468
 31
0.0
  0
LINE
  8
0
 62
     0
 10
16.2093
 20
14.6468
 30
0.0
 11
26.6256
 21
14.6468
 31
0.0
  0
LINE
  8
0
 62
     0
 10
26.6256
 20
22.9786
 30
0.0
 11
24.541
 21
22.9786
 31
0.0
  0
LINE
  8
0
 62
     0
 10
24.541
 20
22.9786
 30
0.0
 11
24.541
 21
25.0631
 31
0.0
  0
LINE
  8
0
 62
     0
 10
12.0425
 20
25.0631
 30
0.0
 11
12.0425
 21
10.4779
 31
0.0
  0
LINE
  8
0
 62
     0
 10
12.0425
 20
10.4779
 30
0.0
 11
26.6256
 21
10.4779
 31
0.0
  0
LINE
  8
0
 62
     0
 10
7.87354
 20
25.0631
 30
0.0
 11
7.87354
 21
6.31293
 31
0.0
  0
LINE
  8
0
 62
     0
 10
7.87354
 20
6.31293
 30
0.0
 11
26.6256
 21
6.31293
 31
0.0
  0
LINE
  8
0
 62
     0
 10
3.70856
 20
25.0631
 30
0.0
 11
3.70856
 21
2.14615
 31
0.0
  0
LINE
  8
0
 62
     0
 10
3.70856
 20
2.14615
 30
0.0
 11
26.6256
 21
2.14615
 31
0.0
  0
LINE
  8
0
 62
     7
 10
26.6256
 20
25.0631
 30
0.0
 11
51.6246
 21
25.0631
 31
0.0
  0
LINE
  8
0
 62
     7
 10
51.6246
 20
25.0631
 30
0.0
 11
51.6246
 21
0.0621744
 31
0.0
  0
LINE
  8
0
 62
     7
 10
51.6246
 20
0.0621744
 30
0.0
 11
26.6256
 21
0.0621744
 31
0.0
  0
LINE
  8
0
 62
     7
 10
26.6256
 20
0.0621744
 30
0.0
 11
26.6256
 21
25.0631
 31
0.0
  0
LINE
  8
0
 62
     0
 10
26.6256
 20
18.8136
 30
0.0
 11
30.794
 21
18.1883
 31
0.0
  0
LINE
  8
0
 62
     0
 10
51.6246
 20
18.8136
 30
0.0
 11
47.4561
 21
18.1883
 31
0.0
  0
LINE
  8
0
 62
     0
 10
26.6256
 20
14.6468
 30
0.0
 11
30.794
 21
14.4382
 31
0.0
  0
LINE
  8
0
 62
     0
 10
51.6246
 20
14.6468
 30
0.0
 11
47.4561
 21
14.4382
 31
0.0
  0
LINE
  8
0
 62
     0
 10
26.6256
 20
22.9786
 30
0.0
 11
51.6246
 21
22.9786
 31
0.0
  0
LINE
  8
0
 62
     0
 10
26.6256
 20
10.4779
 30
0.0
 11
30.794
 21
10.6883
 31
0.0
  0
LINE
  8
0
 62
     0
 10
30.794
 20
10.6883
 30
0.0
 11
47.4561
 21
10.6883
 31
0.0
  0
LINE
  8
0
 62
     0
 10
51.6246
 20
10.4779
 30
0.0
 11
47.4561
 21
6.93647
 31
0.0
  0
LINE
  8
0
 62
     0
 10
26.6256
 20
6.31293
 30
0.0
 11
30.794
 21
6.93647
 31
0.0
  0
LINE
  8
0
 62
     0
 10
30.794
 20
6.93647
 30
0.0
 11
28.7942
 21
9.43767
 31
0.0
  0
LINE
  8
0
 62
     0
 10
28.7942
 20
9.43767
 30
0.0
 11
32.7937
 21
9.43767
 31
0.0
  0
LINE
  8
0
 62
     0
 10
32.7937
 20
9.43767
 30
0.0
 11
30.794
 21
6.93647
 31
0.0
  0
LINE
  8
0
 62
     0
 10
30.794
 20
6.93647
 30
0.0
 11
39.1261
 21
6.31293
 31
0.0
  0
LINE
  8
0
 62
     0
 10
39.1261
 20
6.31293
 30
0.0
 11
47.4561
 21
5.53108
 31
0.0
  0
LINE
  8
0
 62
     0
 10
47.4561
 20
5.53108
 30
0.0
 11
51.6246
 21
6.31293
 31
0.0
  0
LINE
  8
0
 62
     0
 10
26.6256
 20
2.14615
 30
0.0
 11
39.1261
 21
2.14615
 31
0.0
  0
LINE
  8
0
 62
     0
 10
39.1261
 20
2.14615
 30
0.0
 11
44.2039
 21
4.06836
 31
0.0
  0
LINE
  8
0
 62
     0
 10
44.2039
 20
4.06836
 30
0.0
 11
42.2058
 21
1.56896
 31
0.0
  0
LINE
  8
0
 62
     0
 10
42.2058
 20
1.56896
 30
0.0
 11
46.2056
 21
1.56896
 31
0.0
  0
LINE
  8
0
 62
     0
 10
46.2056
 20
1.56896
 30
0.0
 11
44.2039
 21
4.06836
 31
0.0
  0
LINE
  8
0
 62
     0
 10
44.2039
 20
4.06836
 30
0.0
 11
51.6246
 21
2.14615
 31
0.0
  0
LINE
  8
0
 62
     7
 10
51.6246
 20
25.0631
 30
0.0
 11
76.6256
 21
25.0631
 31
0.0
  0
LINE
  8
0
 62
     7
 10
76.6256
 20
25.0631
 30
0.0
 11
76.6256
 21
0.0621744
 31
0.0
  0
LINE
  8
0
 62
     7
 10
76.6256
 20
0.0621744
 30
0.0
 11
51.6246
 21
0.0621744
 31
0.0
  0
LINE
  8
0
 62
     7
 10
51.6246
 20
0.0621744
 30
0.0
 11
51.6246
 21
25.0631
 31
0.0
  0
LINE
  8
0
 62
     0
 10
51.6246
 20
18.8136
 30
0.0
 11
55.7932
 21
18.1883
 31
0.0
  0
LINE
  8
0
 62
     0
 10
76.626
 20
18.8136
 30
0.0
 11
72.4571
 21
18.1883
 31
0.0
  0
LINE
  8
0
 62
     0
 10
51.6246
 20
14.6468
 30
0.0
 11
55.7932
 21
14.4382
 31
0.0
  0
LINE
  8
0
 62
     0
 10
76.626
 20
14.6468
 30
0.0
 11
72.4571
 21
14.4382
 31
0.0
  0
LINE
  8
0
 62
     0
 10
51.6246
 20
22.9786
 30
0.0
 11
76.626
 21
22.9786
 31
0.0
  0
LINE
  8
0
 62
     0
 10
51.6246
 20
10.4779
 30
0.0
 11
55.7932
 21
10.6883
 31
0.0
  0
LINE
  8
0
 62
     0
 10
55.7932
 20
10.6883
 30
0.0
 11
72.4571
 21
10.6883
 31
0.0
  0
LINE
  8
0
 62
     0
 10
76.626
 20
10.4779
 30
0.0
 11
72.4571
 21
6.93647
 31
0.0
  0
LINE
  8
0
 62
     0
 10
51.6246
 20
6.31293
 30
0.0
 11
55.7932
 21
6.93647
 31
0.0
  0
LINE
  8
0
 62
     0
 10
55.7932
 20
6.93647
 30
0.0
 11
53.7933
 21
9.43767
 31
0.0
  0
LINE
  8
0
 62
     0
 10
53.7933
 20
9.43767
 30
0.0
 11
57.7947
 21
9.43767
 31
0.0
  0
LINE
  8
0
 62
     0
 10
57.7947
 20
9.43767
 30
0.0
 11
55.7932
 21
6.93647
 31
0.0
  0
LINE
  8
0
 62
     0
 10
55.7932
 20
6.93647
 30
0.0
 11
64.1253
 21
6.31293
 31
0.0
  0
LINE
  8
0
 62
     0
 10
64.1253
 20
6.31293
 30
0.0
 11
72.4571
 21
5.53108
 31
0.0
  0
LINE
  8
0
 62
     0
 10
72.4571
 20
5.53108
 30
0.0
 11
76.626
 21
6.31293
 31
0.0
  0
LINE
  8
0
 62
     0
 10
51.6246
 20
2.14615
 30
0.0
 11
64.1253
 21
2.14615
 31
0.0
  0
LINE
  8
0
 62
     0
 10
64.1253
 20
2.14615
 30
0.0
 11
69.2053
 21
4.06836
 31
0.0
  0
LINE
  8
0
 62
     0
 10
69.2053
 20
4.06836
 30
0.0
 11
67.205
 21
1.56896
 31
0.0
  0
LINE
  8
0
 62
     0
 10
67.205
 20
1.56896
 30
0.0
 11
71.2051
 21
1.56896
 31
0.0
  0
LINE
  8
0
 62
     0
 10
71.2051
 20
1.56896
 30
0.0
 11
69.2053
 21
4.06836
 31
0.0
  0
LINE
  8
0
 62
     0
 10
69.2053
 20
4.06836
 30
0.0
 11
76.626
 21
2.14615
 31
0.0
  0
LINE
  8
0
 62
     7
 10
76.626
 20
25.0631
 30
0.0
 11
101.625
 21
25.0631
 31
0.0
  0
LINE
  8
0
 62
     7
 10
101.625
 20
25.0631
 30
0.0
 11
101.625
 21
0.0621744
 31
0.0
  0
LINE
  8
0
 62
     7
 10
101.625
 20
0.0621744
 30
0.0
 11
76.626
 21
0.0621744
 31
0.0
  0
LINE
  8
0
 62
     7
 10
76.626
 20
0.0621744
 30
0.0
 11
76.626
 21
25.0631
 31
0.0
  0
LINE
  8
0
 62
     0
 10
76.626
 20
18.8136
 30
0.0
 11
80.7944
 21
18.1883
 31
0.0
  0
LINE
  8
0
 62
     0
 10
76.626
 20
14.6468
 30
0.0
 11
80.7944
 21
14.4382
 31
0.0
  0
LINE
  8
0
 62
     0
 10
76.626
 20
22.9786
 30
0.0
 11
101.625
 21
22.9786
 31
0.0
  0
LINE
  8
0
 62
     0
 10
101.625
 20
22.9786
 30
0.0
 11
101.625
 21
10.4779
 31
0.0
  0
LINE
  8
0
 62
     0
 10
76.626
 20
10.4779
 30
0.0
 11
80.7944
 21
10.6883
 31
0.0
  0
LINE
  8
0
 62
     0
 10
80.7944
 20
10.6883
 30
0.0
 11
97.4567
 21
10.6883
 31
0.0
  0
LINE
  8
0
 62
     0
 10
101.625
 20
10.4779
 30
0.0
 11
97.4567
 21
6.93647
 31
0.0
  0
LINE
  8
0
 62
     0
 10
76.626
 20
6.31293
 30
0.0
 11
80.7944
 21
6.93647
 31
0.0
  0
LINE
  8
0
 62
     0
 10
76.626
 20
2.14615
 30
0.0
 11
89.1244
 21
2.14615
 31
0.0
  0
LINE
  8
0
 62
     0
 10
89.1244
 20
2.14615
 30
0.0
 11
94.2044
 21
4.06836
 31
0.0
  0
ENDSEC
  0
EOF
