  0
SECTION
  2
HEADER
  9
$ACADVER
  1
AC1009
  9
$EXTMIN
 10
0.0
 20
0.0
 30
0.0
  9
$EXTMAX
 10
1000.0
 20
1000.0
 30
0.0
  9
$FILLMODE
 70
 0
  9
$SPLFRAME
 70
 1
  0
ENDSEC
  0
SECTION
  2
TABLES
  0
TABLE
  2
LAYER
 70
1
  0
LAYER
  2
0
 70
     0
 62
     7
  6
CONTINUOUS
  0
ENDTAB
  0
ENDSEC
  0
SECTION
  2
ENTITIES
  0
LINE
  8
0
 62
     7
 10
0
 20
25.0635
 30
0.0
 11
25.001
 21
25.0635
 31
0.0
  0
LINE
  8
0
 62
     7
 10
25.001
 20
25.0635
 30
0.0
 11
25.001
 21
0.0626085
 31
0.0
  0
LINE
  8
0
 62
     7
 10
25.001
 20
0.0626085
 30
0.0
 11
0
 21
0.0626085
 31
0.0
  0
LINE
  8
0
 62
     7
 10
0
 20
0.0626085
 30
0.0
 11
0
 21
25.0635
 31
0.0
  0
LINE
  8
0
 62
     0
 10
18.7501
 20
25.0632
 30
0.0
 11
18.7501
 21
18.8142
 31
0.0
  0
LINE
  8
0
 62
     0
 10
18.7501
 20
18.8142
 30
0.0
 11
25.001
 21
18.8142
 31
0.0
  0
LINE
  8
0
 62
     0
 10
14.5829
 20
25.0632
 30
0.0
 11
14.5829
 21
14.6451
 31
0.0
  0
LINE
  8
0
 62
     0
 10
14.5829
 20
14.6451
 30
0.0
 11
25.001
 21
14.6451
 31
0.0
  0
LINE
  8
0
 62
     0
 10
25.001
 20
22.9792
 30
0.0
 11
22.9169
 21
22.9792
 31
0.0
  0
LINE
  8
0
 62
     0
 10
22.9169
 20
22.9792
 30
0.0
 11
22.9169
 21
25.0632
 31
0.0
  0
LINE
  8
0
 62
     0
 10
10.4162
 20
25.0632
 30
0.0
 11
10.4162
 21
10.4785
 31
0.0
  0
LINE
  8
0
 62
     0
 10
10.4162
 20
10.4785
 30
0.0
 11
25.001
 21
10.4785
 31
0.0
  0
LINE
  8
0
 62
     0
 10
6.24946
 20
25.0632
 30
0.0
 11
6.24946
 21
6.31347
 31
0.0
  0
LINE
  8
0
 62
     0
 10
6.24946
 20
6.31347
 30
0.0
 11
25.001
 21
6.31347
 31
0.0
  0
LINE
  8
0
 62
     0
 10
2.08447
 20
25.0632
 30
0.0
 11
2.08447
 21
2.14669
 31
0.0
  0
LINE
  8
0
 62
     0
 10
2.08447
 20
2.14669
 30
0.0
 11
25.001
 21
2.14669
 31
0.0
  0
LINE
  8
0
 62
     7
 10
24.9992
 20
25.0635
 30
0.0
 11
50
 21
25.0635
 31
0.0
  0
LINE
  8
0
 62
     7
 10
50
 20
25.0635
 30
0.0
 11
50
 21
0.0626085
 31
0.0
  0
LINE
  8
0
 62
     7
 10
50
 20
0.0626085
 30
0.0
 11
24.9992
 21
0.0626085
 31
0.0
  0
LINE
  8
0
 62
     7
 10
24.9992
 20
0.0626085
 30
0.0
 11
24.9992
 21
25.0635
 31
0.0
  0
LINE
  8
0
 62
     0
 10
24.9992
 20
18.8142
 30
0.0
 11
29.1682
 21
18.1871
 31
0.0
  0
LINE
  8
0
 62
     0
 10
50.0006
 20
18.8142
 30
0.0
 11
45.8321
 21
18.1871
 31
0.0
  0
LINE
  8
0
 62
     0
 10
24.9992
 20
14.6451
 30
0.0
 11
29.1682
 21
14.4387
 31
0.0
  0
LINE
  8
0
 62
     0
 10
50.0006
 20
14.6451
 30
0.0
 11
45.8321
 21
14.4387
 31
0.0
  0
LINE
  8
0
 62
     0
 10
24.9992
 20
22.9792
 30
0.0
 11
50.0006
 21
22.9792
 31
0.0
  0
LINE
  8
0
 62
     0
 10
24.9992
 20
10.4785
 30
0.0
 11
29.1682
 21
10.6888
 31
0.0
  0
LINE
  8
0
 62
     0
 10
29.1682
 20
10.6888
 30
0.0
 11
45.8321
 21
10.6888
 31
0.0
  0
LINE
  8
0
 62
     0
 10
50.0006
 20
10.4785
 30
0.0
 11
45.8321
 21
6.93701
 31
0.0
  0
LINE
  8
0
 62
     0
 10
24.9992
 20
6.31347
 30
0.0
 11
29.1682
 21
6.93701
 31
0.0
  0
LINE
  8
0
 62
     0
 10
29.1682
 20
6.93701
 30
0.0
 11
27.1696
 21
9.43642
 31
0.0
  0
LINE
  8
0
 62
     0
 10
27.1696
 20
9.43642
 30
0.0
 11
31.1697
 21
9.43642
 31
0.0
  0
LINE
  8
0
 62
     0
 10
31.1697
 20
9.43642
 30
0.0
 11
29.1682
 21
6.93701
 31
0.0
  0
LINE
  8
0
 62
     0
 10
29.1682
 20
6.93701
 30
0.0
 11
37.4999
 21
6.31347
 31
0.0
  0
LINE
  8
0
 62
     0
 10
37.4999
 20
6.31347
 30
0.0
 11
45.8321
 21
5.53114
 31
0.0
  0
LINE
  8
0
 62
     0
 10
45.8321
 20
5.53114
 30
0.0
 11
50.0006
 21
6.31347
 31
0.0
  0
LINE
  8
0
 62
     0
 10
24.9992
 20
2.14669
 30
0.0
 11
37.4999
 21
2.14669
 31
0.0
  0
LINE
  8
0
 62
     0
 10
37.4999
 20
2.14669
 30
0.0
 11
42.5799
 21
4.0689
 31
0.0
  0
LINE
  8
0
 62
     0
 10
42.5799
 20
4.0689
 30
0.0
 11
40.5796
 21
1.56771
 31
0.0
  0
LINE
  8
0
 62
     0
 10
40.5796
 20
1.56771
 30
0.0
 11
44.5814
 21
1.56771
 31
0.0
  0
LINE
  8
0
 62
     0
 10
44.5814
 20
1.56771
 30
0.0
 11
42.5799
 21
4.0689
 31
0.0
  0
LINE
  8
0
 62
     0
 10
42.5799
 20
4.0689
 30
0.0
 11
50.0006
 21
2.14669
 31
0.0
  0
LINE
  8
0
 62
     7
 10
50.0006
 20
25.0635
 30
0.0
 11
74.9997
 21
25.0635
 31
0.0
  0
LINE
  8
0
 62
     7
 10
74.9997
 20
25.0635
 30
0.0
 11
74.9997
 21
0.0626085
 31
0.0
  0
LINE
  8
0
 62
     7
 10
74.9997
 20
0.0626085
 30
0.0
 11
50.0006
 21
0.0626085
 31
0.0
  0
LINE
  8
0
 62
     7
 10
50.0006
 20
0.0626085
 30
0.0
 11
50.0006
 21
25.0635
 31
0.0
  0
LINE
  8
0
 62
     0
 10
50.0006
 20
18.8142
 30
0.0
 11
54.169
 21
18.1871
 31
0.0
  0
LINE
  8
0
 62
     0
 10
74.9997
 20
18.8142
 30
0.0
 11
70.8311
 21
18.1871
 31
0.0
  0
LINE
  8
0
 62
     0
 10
50.0006
 20
14.6451
 30
0.0
 11
54.169
 21
14.4387
 31
0.0
  0
LINE
  8
0
 62
     0
 10
74.9997
 20
14.6451
 30
0.0
 11
70.8311
 21
14.4387
 31
0.0
  0
LINE
  8
0
 62
     0
 10
50.0006
 20
22.9792
 30
0.0
 11
74.9997
 21
22.9792
 31
0.0
  0
LINE
  8
0
 62
     0
 10
50.0006
 20
10.4785
 30
0.0
 11
54.169
 21
10.6888
 31
0.0
  0
LINE
  8
0
 62
     0
 10
54.169
 20
10.6888
 30
0.0
 11
70.8311
 21
10.6888
 31
0.0
  0
LINE
  8
0
 62
     0
 10
74.9997
 20
10.4785
 30
0.0
 11
70.8311
 21
6.93701
 31
0.0
  0
LINE
  8
0
 62
     0
 10
50.0006
 20
6.31347
 30
0.0
 11
54.169
 21
6.93701
 31
0.0
  0
LINE
  8
0
 62
     0
 10
54.169
 20
6.93701
 30
0.0
 11
52.1692
 21
9.43642
 31
0.0
  0
LINE
  8
0
 62
     0
 10
52.1692
 20
9.43642
 30
0.0
 11
56.1689
 21
9.43642
 31
0.0
  0
LINE
  8
0
 62
     0
 10
56.1689
 20
9.43642
 30
0.0
 11
54.169
 21
6.93701
 31
0.0
  0
LINE
  8
0
 62
     0
 10
54.169
 20
6.93701
 30
0.0
 11
62.5007
 21
6.31347
 31
0.0
  0
LINE
  8
0
 62
     0
 10
62.5007
 20
6.31347
 30
0.0
 11
70.8311
 21
5.53114
 31
0.0
  0
LINE
  8
0
 62
     0
 10
70.8311
 20
5.53114
 30
0.0
 11
74.9997
 21
6.31347
 31
0.0
  0
LINE
  8
0
 62
     0
 10
50.0006
 20
2.14669
 30
0.0
 11
62.5007
 21
2.14669
 31
0.0
  0
LINE
  8
0
 62
     0
 10
62.5007
 20
2.14669
 30
0.0
 11
67.579
 21
4.0689
 31
0.0
  0
LINE
  8
0
 62
     0
 10
67.579
 20
4.0689
 30
0.0
 11
65.581
 21
1.56771
 31
0.0
  0
LINE
  8
0
 62
     0
 10
65.581
 20
1.56771
 30
0.0
 11
69.5806
 21
1.56771
 31
0.0
  0
LINE
  8
0
 62
     0
 10
69.5806
 20
1.56771
 30
0.0
 11
67.579
 21
4.0689
 31
0.0
  0
LINE
  8
0
 62
     0
 10
67.579
 20
4.0689
 30
0.0
 11
74.9997
 21
2.14669
 31
0.0
  0
LINE
  8
0
 62
     7
 10
74.9997
 20
25.0635
 30
0.0
 11
100.001
 21
25.0635
 31
0.0
  0
LINE
  8
0
 62
     7
 10
100.001
 20
25.0635
 30
0.0
 11
100.001
 21
0.0626085
 31
0.0
  0
LINE
  8
0
 62
     7
 10
100.001
 20
0.0626085
 30
0.0
 11
74.9997
 21
0.0626085
 31
0.0
  0
LINE
  8
0
 62
     7
 10
74.9997
 20
0.0626085
 30
0.0
 11
74.9997
 21
25.0635
 31
0.0
  0
LINE
  8
0
 62
     0
 10
74.9997
 20
18.8142
 30
0.0
 11
79.1682
 21
18.1871
 31
0.0
  0
LINE
  8
0
 62
     0
 10
100.001
 20
18.8142
 30
0.0
 11
95.8321
 21
18.1871
 31
0.0
  0
LINE
  8
0
 62
     0
 10
74.9997
 20
14.6451
 30
0.0
 11
79.1682
 21
14.4387
 31
0.0
  0
LINE
  8
0
 62
     0
 10
100.001
 20
14.6451
 30
0.0
 11
95.8321
 21
14.4387
 31
0.0
  0
LINE
  8
0
 62
     0
 10
74.9997
 20
22.9792
 30
0.0
 11
100.001
 21
22.9792
 31
0.0
  0
LINE
  8
0
 62
     0
 10
74.9997
 20
10.4785
 30
0.0
 11
79.1682
 21
10.6888
 31
0.0
  0
LINE
  8
0
 62
     0
 10
79.1682
 20
10.6888
 30
0.0
 11
95.8321
 21
10.6888
 31
0.0
  0
LINE
  8
0
 62
     0
 10
100.001
 20
10.4785
 30
0.0
 11
95.8321
 21
6.93701
 31
0.0
  0
LINE
  8
0
 62
     0
 10
74.9997
 20
6.31347
 30
0.0
 11
79.1682
 21
6.93701
 31
0.0
  0
LINE
  8
0
 62
     0
 10
79.1682
 20
6.93701
 30
0.0
 11
77.1683
 21
9.43642
 31
0.0
  0
LINE
  8
0
 62
     0
 10
77.1683
 20
9.43642
 30
0.0
 11
81.1697
 21
9.43642
 31
0.0
  0
LINE
  8
0
 62
     0
 10
81.1697
 20
9.43642
 30
0.0
 11
79.1682
 21
6.93701
 31
0.0
  0
LINE
  8
0
 62
     0
 10
79.1682
 20
6.93701
 30
0.0
 11
87.5004
 21
6.31347
 31
0.0
  0
LINE
  8
0
 62
     0
 10
87.5004
 20
6.31347
 30
0.0
 11
95.8321
 21
5.53114
 31
0.0
  0
LINE
  8
0
 62
     0
 10
95.8321
 20
5.53114
 30
0.0
 11
100.001
 21
6.31347
 31
0.0
  0
LINE
  8
0
 62
     0
 10
74.9997
 20
2.14669
 30
0.0
 11
87.5004
 21
2.14669
 31
0.0
  0
LINE
  8
0
 62
     0
 10
87.5004
 20
2.14669
 30
0.0
 11
92.5799
 21
4.0689
 31
0.0
  0
LINE
  8
0
 62
     0
 10
92.5799
 20
4.0689
 30
0.0
 11
90.5801
 21
1.56771
 31
0.0
  0
LINE
  8
0
 62
     0
 10
90.5801
 20
1.56771
 30
0.0
 11
94.5797
 21
1.56771
 31
0.0
  0
LINE
  8
0
 62
     0
 10
94.5797
 20
1.56771
 30
0.0
 11
92.5799
 21
4.0689
 31
0.0
  0
LINE
  8
0
 62
     0
 10
92.5799
 20
4.0689
 30
0.0
 11
100.001
 21
2.14669
 31
0.0
  0
LINE
  8
0
 62
     7
 10
100.001
 20
25.0635
 30
0.0
 11
125
 21
25.0635
 31
0.0
  0
LINE
  8
0
 62
     7
 10
125
 20
25.0635
 30
0.0
 11
125
 21
0.0626085
 31
0.0
  0
LINE
  8
0
 62
     7
 10
125
 20
0.0626085
 30
0.0
 11
100.001
 21
0.0626085
 31
0.0
  0
LINE
  8
0
 62
     7
 10
100.001
 20
0.0626085
 30
0.0
 11
100.001
 21
25.0635
 31
0.0
  0
LINE
  8
0
 62
     0
 10
100.001
 20
18.8142
 30
0.0
 11
104.17
 21
18.1871
 31
0.0
  0
LINE
  8
0
 62
     0
 10
125
 20
18.8142
 30
0.0
 11
120.832
 21
18.1871
 31
0.0
  0
LINE
  8
0
 62
     0
 10
100.001
 20
14.6451
 30
0.0
 11
104.17
 21
14.4387
 31
0.0
  0
LINE
  8
0
 62
     0
 10
125
 20
14.6451
 30
0.0
 11
120.832
 21
14.4387
 31
0.0
  0
LINE
  8
0
 62
     0
 10
100.001
 20
22.9792
 30
0.0
 11
125
 21
22.9792
 31
0.0
  0
LINE
  8
0
 62
     0
 10
100.001
 20
10.4785
 30
0.0
 11
104.17
 21
10.6888
 31
0.0
  0
LINE
  8
0
 62
     0
 10
104.17
 20
10.6888
 30
0.0
 11
120.832
 21
10.6888
 31
0.0
  0
LINE
  8
0
 62
     0
 10
125
 20
10.4785
 30
0.0
 11
120.832
 21
6.93701
 31
0.0
  0
LINE
  8
0
 62
     0
 10
100.001
 20
6.31347
 30
0.0
 11
104.17
 21
6.93701
 31
0.0
  0
LINE
  8
0
 62
     0
 10
104.17
 20
6.93701
 30
0.0
 11
102.169
 21
9.43642
 31
0.0
  0
LINE
  8
0
 62
     0
 10
102.169
 20
9.43642
 30
0.0
 11
106.169
 21
9.43642
 31
0.0
  0
LINE
  8
0
 62
     0
 10
106.169
 20
9.43642
 30
0.0
 11
104.17
 21
6.93701
 31
0.0
  0
LINE
  8
0
 62
     0
 10
104.17
 20
6.93701
 30
0.0
 11
112.499
 21
6.31347
 31
0.0
  0
LINE
  8
0
 62
     0
 10
112.499
 20
6.31347
 30
0.0
 11
120.832
 21
5.53114
 31
0.0
  0
LINE
  8
0
 62
     0
 10
120.832
 20
5.53114
 30
0.0
 11
125
 21
6.31347
 31
0.0
  0
LINE
  8
0
 62
     0
 10
100.001
 20
2.14669
 30
0.0
 11
112.499
 21
2.14669
 31
0.0
  0
LINE
  8
0
 62
     0
 10
112.499
 20
2.14669
 30
0.0
 11
117.58
 21
4.0689
 31
0.0
  0
LINE
  8
0
 62
     0
 10
117.58
 20
4.0689
 30
0.0
 11
115.58
 21
1.56771
 31
0.0
  0
LINE
  8
0
 62
     0
 10
115.58
 20
1.56771
 30
0.0
 11
119.581
 21
1.56771
 31
0.0
  0
LINE
  8
0
 62
     0
 10
119.581
 20
1.56771
 30
0.0
 11
117.58
 21
4.0689
 31
0.0
  0
LINE
  8
0
 62
     0
 10
117.58
 20
4.0689
 30
0.0
 11
125
 21
2.14669
 31
0.0
  0
LINE
  8
0
 62
     7
 10
125
 20
25.0635
 30
0.0
 11
150.001
 21
25.0635
 31
0.0
  0
LINE
  8
0
 62
     7
 10
150.001
 20
25.0635
 30
0.0
 11
150.001
 21
0.0626085
 31
0.0
  0
LINE
  8
0
 62
     7
 10
150.001
 20
0.0626085
 30
0.0
 11
125
 21
0.0626085
 31
0.0
  0
LINE
  8
0
 62
     7
 10
125
 20
0.0626085
 30
0.0
 11
125
 21
25.0635
 31
0.0
  0
LINE
  8
0
 62
     0
 10
125
 20
18.8142
 30
0.0
 11
129.169
 21
18.1871
 31
0.0
  0
LINE
  8
0
 62
     0
 10
150.001
 20
18.8142
 30
0.0
 11
145.832
 21
18.1871
 31
0.0
  0
LINE
  8
0
 62
     0
 10
125
 20
14.6451
 30
0.0
 11
129.169
 21
14.4387
 31
0.0
  0
LINE
  8
0
 62
     0
 10
150.001
 20
14.6451
 30
0.0
 11
145.832
 21
14.4387
 31
0.0
  0
LINE
  8
0
 62
     0
 10
125
 20
22.9792
 30
0.0
 11
150.001
 21
22.9792
 31
0.0
  0
LINE
  8
0
 62
     0
 10
125
 20
10.4785
 30
0.0
 11
129.169
 21
10.6888
 31
0.0
  0
LINE
  8
0
 62
     0
 10
129.169
 20
10.6888
 30
0.0
 11
145.832
 21
10.6888
 31
0.0
  0
LINE
  8
0
 62
     0
 10
150.001
 20
10.4785
 30
0.0
 11
145.832
 21
6.93701
 31
0.0
  0
LINE
  8
0
 62
     0
 10
125
 20
6.31347
 30
0.0
 11
129.169
 21
6.93701
 31
0.0
  0
LINE
  8
0
 62
     0
 10
129.169
 20
6.93701
 30
0.0
 11
127.169
 21
9.43642
 31
0.0
  0
LINE
  8
0
 62
     0
 10
127.169
 20
9.43642
 30
0.0
 11
131.17
 21
9.43642
 31
0.0
  0
LINE
  8
0
 62
     0
 10
131.17
 20
9.43642
 30
0.0
 11
129.169
 21
6.93701
 31
0.0
  0
LINE
  8
0
 62
     0
 10
129.169
 20
6.93701
 30
0.0
 11
137.5
 21
6.31347
 31
0.0
  0
LINE
  8
0
 62
     0
 10
137.5
 20
6.31347
 30
0.0
 11
145.832
 21
5.53114
 31
0.0
  0
LINE
  8
0
 62
     0
 10
145.832
 20
5.53114
 30
0.0
 11
150.001
 21
6.31347
 31
0.0
  0
LINE
  8
0
 62
     0
 10
125
 20
2.14669
 30
0.0
 11
137.5
 21
2.14669
 31
0.0
  0
LINE
  8
0
 62
     0
 10
137.5
 20
2.14669
 30
0.0
 11
142.581
 21
4.0689
 31
0.0
  0
LINE
  8
0
 62
     0
 10
142.581
 20
4.0689
 30
0.0
 11
140.581
 21
1.56771
 31
0.0
  0
LINE
  8
0
 62
     0
 10
140.581
 20
1.56771
 30
0.0
 11
144.581
 21
1.56771
 31
0.0
  0
LINE
  8
0
 62
     0
 10
144.581
 20
1.56771
 30
0.0
 11
142.581
 21
4.0689
 31
0.0
  0
LINE
  8
0
 62
     0
 10
142.581
 20
4.0689
 30
0.0
 11
150.001
 21
2.14669
 31
0.0
  0
LINE
  8
0
 62
     7
 10
150
 20
25.0635
 30
0.0
 11
175
 21
25.0635
 31
0.0
  0
LINE
  8
0
 62
     7
 10
175
 20
25.0635
 30
0.0
 11
175
 21
0.0626085
 31
0.0
  0
LINE
  8
0
 62
     7
 10
175
 20
0.0626085
 30
0.0
 11
150
 21
0.0626085
 31
0.0
  0
LINE
  8
0
 62
     7
 10
150
 20
0.0626085
 30
0.0
 11
150
 21
25.0635
 31
0.0
  0
LINE
  8
0
 62
     0
 10
150
 20
18.8142
 30
0.0
 11
154.168
 21
18.1871
 31
0.0
  0
LINE
  8
0
 62
     0
 10
175.001
 20
18.8142
 30
0.0
 11
170.832
 21
18.1871
 31
0.0
  0
LINE
  8
0
 62
     0
 10
150
 20
14.6451
 30
0.0
 11
154.168
 21
14.4387
 31
0.0
  0
LINE
  8
0
 62
     0
 10
175.001
 20
14.6451
 30
0.0
 11
170.832
 21
14.4387
 31
0.0
  0
LINE
  8
0
 62
     0
 10
150
 20
22.9792
 30
0.0
 11
175.001
 21
22.9792
 31
0.0
  0
LINE
  8
0
 62
     0
 10
150
 20
10.4785
 30
0.0
 11
154.168
 21
10.6888
 31
0.0
  0
LINE
  8
0
 62
     0
 10
154.168
 20
10.6888
 30
0.0
 11
170.832
 21
10.6888
 31
0.0
  0
LINE
  8
0
 62
     0
 10
175.001
 20
10.4785
 30
0.0
 11
170.832
 21
6.93701
 31
0.0
  0
LINE
  8
0
 62
     0
 10
150
 20
6.31347
 30
0.0
 11
154.168
 21
6.93701
 31
0.0
  0
LINE
  8
0
 62
     0
 10
154.168
 20
6.93701
 30
0.0
 11
152.169
 21
9.43642
 31
0.0
  0
LINE
  8
0
 62
     0
 10
152.169
 20
9.43642
 30
0.0
 11
156.169
 21
9.43642
 31
0.0
  0
LINE
  8
0
 62
     0
 10
156.169
 20
9.43642
 30
0.0
 11
154.168
 21
6.93701
 31
0.0
  0
LINE
  8
0
 62
     0
 10
154.168
 20
6.93701
 30
0.0
 11
162.5
 21
6.31347
 31
0.0
  0
LINE
  8
0
 62
     0
 10
162.5
 20
6.31347
 30
0.0
 11
170.832
 21
5.53114
 31
0.0
  0
LINE
  8
0
 62
     0
 10
170.832
 20
5.53114
 30
0.0
 11
175.001
 21
6.31347
 31
0.0
  0
LINE
  8
0
 62
     0
 10
150
 20
2.14669
 30
0.0
 11
162.5
 21
2.14669
 31
0.0
  0
LINE
  8
0
 62
     0
 10
162.5
 20
2.14669
 30
0.0
 11
167.579
 21
4.0689
 31
0.0
  0
LINE
  8
0
 62
     0
 10
167.579
 20
4.0689
 30
0.0
 11
165.579
 21
1.56771
 31
0.0
  0
LINE
  8
0
 62
     0
 10
165.579
 20
1.56771
 30
0.0
 11
169.581
 21
1.56771
 31
0.0
  0
LINE
  8
0
 62
     0
 10
169.581
 20
1.56771
 30
0.0
 11
167.579
 21
4.0689
 31
0.0
  0
LINE
  8
0
 62
     0
 10
167.579
 20
4.0689
 30
0.0
 11
175.001
 21
2.14669
 31
0.0
  0
LINE
  8
0
 62
     7
 10
175.001
 20
25.0635
 30
0.0
 11
200
 21
25.0635
 31
0.0
  0
LINE
  8
0
 62
     7
 10
200
 20
25.0635
 30
0.0
 11
200
 21
0.0626085
 31
0.0
  0
LINE
  8
0
 62
     7
 10
200
 20
0.0626085
 30
0.0
 11
175.001
 21
0.0626085
 31
0.0
  0
LINE
  8
0
 62
     7
 10
175.001
 20
0.0626085
 30
0.0
 11
175.001
 21
25.0635
 31
0.0
  0
LINE
  8
0
 62
     0
 10
175.001
 20
18.8142
 30
0.0
 11
179.169
 21
18.1871
 31
0.0
  0
LINE
  8
0
 62
     0
 10
200
 20
18.8142
 30
0.0
 11
195.832
 21
18.1871
 31
0.0
  0
LINE
  8
0
 62
     0
 10
175.001
 20
14.6451
 30
0.0
 11
179.169
 21
14.4387
 31
0.0
  0
LINE
  8
0
 62
     0
 10
200
 20
14.6451
 30
0.0
 11
195.832
 21
14.4387
 31
0.0
  0
LINE
  8
0
 62
     0
 10
175.001
 20
22.9792
 30
0.0
 11
200
 21
22.9792
 31
0.0
  0
LINE
  8
0
 62
     0
 10
175.001
 20
10.4785
 30
0.0
 11
179.169
 21
10.6888
 31
0.0
  0
LINE
  8
0
 62
     0
 10
179.169
 20
10.6888
 30
0.0
 11
195.832
 21
10.6888
 31
0.0
  0
LINE
  8
0
 62
     0
 10
200
 20
10.4785
 30
0.0
 11
195.832
 21
6.93701
 31
0.0
  0
LINE
  8
0
 62
     0
 10
175.001
 20
6.31347
 30
0.0
 11
179.169
 21
6.93701
 31
0.0
  0
LINE
  8
0
 62
     0
 10
179.169
 20
6.93701
 30
0.0
 11
177.169
 21
9.43642
 31
0.0
  0
LINE
  8
0
 62
     0
 10
177.169
 20
9.43642
 30
0.0
 11
181.169
 21
9.43642
 31
0.0
  0
LINE
  8
0
 62
     0
 10
181.169
 20
9.43642
 30
0.0
 11
179.169
 21
6.93701
 31
0.0
  0
LINE
  8
0
 62
     0
 10
179.169
 20
6.93701
 30
0.0
 11
187.499
 21
6.31347
 31
0.0
  0
LINE
  8
0
 62
     0
 10
187.499
 20
6.31347
 30
0.0
 11
195.832
 21
5.53114
 31
0.0
  0
LINE
  8
0
 62
     0
 10
195.832
 20
5.53114
 30
0.0
 11
200
 21
6.31347
 31
0.0
  0
LINE
  8
0
 62
     0
 10
175.001
 20
2.14669
 30
0.0
 11
187.499
 21
2.14669
 31
0.0
  0
LINE
  8
0
 62
     0
 10
187.499
 20
2.14669
 30
0.0
 11
192.579
 21
4.0689
 31
0.0
  0
LINE
  8
0
 62
     0
 10
192.579
 20
4.0689
 30
0.0
 11
190.581
 21
1.56771
 31
0.0
  0
LINE
  8
0
 62
     0
 10
190.581
 20
1.56771
 30
0.0
 11
194.581
 21
1.56771
 31
0.0
  0
LINE
  8
0
 62
     0
 10
194.581
 20
1.56771
 30
0.0
 11
192.579
 21
4.0689
 31
0.0
  0
LINE
  8
0
 62
     0
 10
192.579
 20
4.0689
 30
0.0
 11
200
 21
2.14669
 31
0.0
  0
LINE
  8
0
 62
     7
 10
200
 20
25.0635
 30
0.0
 11
225.001
 21
25.0635
 31
0.0
  0
LINE
  8
0
 62
     7
 10
225.001
 20
25.0635
 30
0.0
 11
225.001
 21
0.0626085
 31
0.0
  0
LINE
  8
0
 62
     7
 10
225.001
 20
0.0626085
 30
0.0
 11
200
 21
0.0626085
 31
0.0
  0
LINE
  8
0
 62
     7
 10
200
 20
0.0626085
 30
0.0
 11
200
 21
25.0635
 31
0.0
  0
LINE
  8
0
 62
     0
 10
200
 20
18.8142
 30
0.0
 11
204.168
 21
18.1871
 31
0.0
  0
LINE
  8
0
 62
     0
 10
200
 20
14.6451
 30
0.0
 11
204.168
 21
14.4387
 31
0.0
  0
LINE
  8
0
 62
     0
 10
200
 20
22.9792
 30
0.0
 11
225.001
 21
22.9792
 31
0.0
  0
LINE
  8
0
 62
     0
 10
225.001
 20
22.9792
 30
0.0
 11
225.001
 21
10.4785
 31
0.0
  0
LINE
  8
0
 62
     0
 10
200
 20
10.4785
 30
0.0
 11
204.168
 21
10.6888
 31
0.0
  0
LINE
  8
0
 62
     0
 10
204.168
 20
10.6888
 30
0.0
 11
220.832
 21
10.6888
 31
0.0
  0
LINE
  8
0
 62
     0
 10
225.001
 20
10.4785
 30
0.0
 11
220.832
 21
6.93701
 31
0.0
  0
LINE
  8
0
 62
     0
 10
200
 20
6.31347
 30
0.0
 11
204.168
 21
6.93701
 31
0.0
  0
LINE
  8
0
 62
     0
 10
200
 20
2.14669
 30
0.0
 11
212.5
 21
2.14669
 31
0.0
  0
LINE
  8
0
 62
     0
 10
212.5
 20
2.14669
 30
0.0
 11
217.581
 21
4.0689
 31
0.0
  0
ENDSEC
  0
EOF
