  0
SECTION
  2
HEADER
  9
$ACADVER
  1
AC1009
  9
$EXTMIN
 10
0.0
 20
0.0
 30
0.0
  9
$EXTMAX
 10
1000.0
 20
1000.0
 30
0.0
  9
$FILLMODE
 70
 0
  9
$SPLFRAME
 70
 1
  0
ENDSEC
  0
SECTION
  2
TABLES
  0
TABLE
  2
LAYER
 70
1
  0
LAYER
  2
0
 70
     0
 62
     7
  6
CONTINUOUS
  0
ENDTAB
  0
ENDSEC
  0
SECTION
  2
ENTITIES
  0
LINE
  8
0
 62
     7
 10
1.62457
 20
125.063
 30
0.0
 11
26.6256
 21
125.063
 31
0.0
  0
LINE
  8
0
 62
     7
 10
26.6256
 20
125.063
 30
0.0
 11
26.6256
 21
100.062
 31
0.0
  0
LINE
  8
0
 62
     7
 10
26.6256
 20
100.062
 30
0.0
 11
1.62457
 21
100.062
 31
0.0
  0
LINE
  8
0
 62
     7
 10
1.62457
 20
100.062
 30
0.0
 11
1.62457
 21
125.063
 31
0.0
  0
LINE
  8
0
 62
     0
 10
20.3743
 20
125.063
 30
0.0
 11
20.3743
 21
118.814
 31
0.0
  0
LINE
  8
0
 62
     0
 10
18.2915
 20
118.814
 30
0.0
 11
26.6256
 21
118.814
 31
0.0
  0
LINE
  8
0
 62
     0
 10
20.3743
 20
118.814
 30
0.0
 11
20.3743
 21
100.062
 31
0.0
  0
LINE
  8
0
 62
     0
 10
16.2093
 20
125.063
 30
0.0
 11
16.2093
 21
114.645
 31
0.0
  0
LINE
  8
0
 62
     0
 10
14.1247
 20
114.645
 30
0.0
 11
26.6256
 21
114.645
 31
0.0
  0
LINE
  8
0
 62
     0
 10
16.2093
 20
114.645
 30
0.0
 11
16.2093
 21
100.062
 31
0.0
  0
LINE
  8
0
 62
     0
 10
26.6256
 20
122.979
 30
0.0
 11
24.541
 21
122.979
 31
0.0
  0
LINE
  8
0
 62
     0
 10
24.541
 20
122.979
 30
0.0
 11
24.541
 21
125.063
 31
0.0
  0
LINE
  8
0
 62
     0
 10
12.0425
 20
125.063
 30
0.0
 11
12.0425
 21
100.062
 31
0.0
  0
LINE
  8
0
 62
     0
 10
26.6256
 20
110.478
 30
0.0
 11
24.541
 21
110.478
 31
0.0
  0
LINE
  8
0
 62
     0
 10
24.541
 20
110.478
 30
0.0
 11
24.541
 21
100.062
 31
0.0
  0
LINE
  8
0
 62
     0
 10
7.87354
 20
125.063
 30
0.0
 11
7.87354
 21
106.313
 31
0.0
  0
LINE
  8
0
 62
     0
 10
5.79308
 20
106.313
 30
0.0
 11
26.6256
 21
106.313
 31
0.0
  0
LINE
  8
0
 62
     0
 10
7.87354
 20
106.313
 30
0.0
 11
7.87354
 21
100.062
 31
0.0
  0
LINE
  8
0
 62
     0
 10
3.70856
 20
125.063
 30
0.0
 11
3.70856
 21
102.147
 31
0.0
  0
LINE
  8
0
 62
     0
 10
1.62457
 20
102.147
 30
0.0
 11
26.6256
 21
102.147
 31
0.0
  0
LINE
  8
0
 62
     0
 10
3.70856
 20
102.147
 30
0.0
 11
3.70856
 21
100.062
 31
0.0
  0
LINE
  8
0
 62
     7
 10
26.6256
 20
125.063
 30
0.0
 11
51.6246
 21
125.063
 31
0.0
  0
LINE
  8
0
 62
     7
 10
51.6246
 20
125.063
 30
0.0
 11
51.6246
 21
100.062
 31
0.0
  0
LINE
  8
0
 62
     7
 10
51.6246
 20
100.062
 30
0.0
 11
26.6256
 21
100.062
 31
0.0
  0
LINE
  8
0
 62
     7
 10
26.6256
 20
100.062
 30
0.0
 11
26.6256
 21
125.063
 31
0.0
  0
LINE
  8
0
 62
     0
 10
26.6256
 20
118.814
 30
0.0
 11
30.794
 21
118.187
 31
0.0
  0
LINE
  8
0
 62
     0
 10
51.6246
 20
118.814
 30
0.0
 11
47.4561
 21
118.187
 31
0.0
  0
LINE
  8
0
 62
     0
 10
26.6256
 20
114.645
 30
0.0
 11
30.794
 21
114.439
 31
0.0
  0
LINE
  8
0
 62
     0
 10
51.6246
 20
114.645
 30
0.0
 11
47.4561
 21
114.439
 31
0.0
  0
LINE
  8
0
 62
     0
 10
26.6256
 20
122.979
 30
0.0
 11
51.6246
 21
122.979
 31
0.0
  0
LINE
  8
0
 62
     0
 10
26.6256
 20
110.478
 30
0.0
 11
30.794
 21
110.689
 31
0.0
  0
LINE
  8
0
 62
     0
 10
30.794
 20
110.689
 30
0.0
 11
47.4561
 21
110.689
 31
0.0
  0
LINE
  8
0
 62
     0
 10
51.6246
 20
110.478
 30
0.0
 11
47.4561
 21
106.937
 31
0.0
  0
LINE
  8
0
 62
     0
 10
26.6256
 20
106.313
 30
0.0
 11
30.794
 21
106.937
 31
0.0
  0
LINE
  8
0
 62
     0
 10
30.794
 20
106.937
 30
0.0
 11
28.7942
 21
109.436
 31
0.0
  0
LINE
  8
0
 62
     0
 10
28.7942
 20
109.436
 30
0.0
 11
32.7937
 21
109.436
 31
0.0
  0
LINE
  8
0
 62
     0
 10
32.7937
 20
109.436
 30
0.0
 11
30.794
 21
106.937
 31
0.0
  0
LINE
  8
0
 62
     0
 10
30.794
 20
106.937
 30
0.0
 11
39.1261
 21
106.313
 31
0.0
  0
LINE
  8
0
 62
     0
 10
39.1261
 20
106.313
 30
0.0
 11
47.4561
 21
105.531
 31
0.0
  0
LINE
  8
0
 62
     0
 10
47.4561
 20
105.531
 30
0.0
 11
51.6246
 21
106.313
 31
0.0
  0
LINE
  8
0
 62
     0
 10
26.6256
 20
102.147
 30
0.0
 11
39.1261
 21
102.147
 31
0.0
  0
LINE
  8
0
 62
     0
 10
39.1261
 20
102.147
 30
0.0
 11
44.2039
 21
104.069
 31
0.0
  0
LINE
  8
0
 62
     0
 10
44.2039
 20
104.069
 30
0.0
 11
42.2058
 21
101.568
 31
0.0
  0
LINE
  8
0
 62
     0
 10
42.2058
 20
101.568
 30
0.0
 11
46.2056
 21
101.568
 31
0.0
  0
LINE
  8
0
 62
     0
 10
46.2056
 20
101.568
 30
0.0
 11
44.2039
 21
104.069
 31
0.0
  0
LINE
  8
0
 62
     0
 10
44.2039
 20
104.069
 30
0.0
 11
51.6246
 21
102.147
 31
0.0
  0
LINE
  8
0
 62
     7
 10
51.6246
 20
125.063
 30
0.0
 11
76.6256
 21
125.063
 31
0.0
  0
LINE
  8
0
 62
     7
 10
76.6256
 20
125.063
 30
0.0
 11
76.6256
 21
100.062
 31
0.0
  0
LINE
  8
0
 62
     7
 10
76.6256
 20
100.062
 30
0.0
 11
51.6246
 21
100.062
 31
0.0
  0
LINE
  8
0
 62
     7
 10
51.6246
 20
100.062
 30
0.0
 11
51.6246
 21
125.063
 31
0.0
  0
LINE
  8
0
 62
     0
 10
51.6246
 20
118.814
 30
0.0
 11
55.7932
 21
118.187
 31
0.0
  0
LINE
  8
0
 62
     0
 10
76.626
 20
118.814
 30
0.0
 11
72.4571
 21
118.187
 31
0.0
  0
LINE
  8
0
 62
     0
 10
51.6246
 20
114.645
 30
0.0
 11
55.7932
 21
114.439
 31
0.0
  0
LINE
  8
0
 62
     0
 10
76.626
 20
114.645
 30
0.0
 11
72.4571
 21
114.439
 31
0.0
  0
LINE
  8
0
 62
     0
 10
51.6246
 20
122.979
 30
0.0
 11
76.626
 21
122.979
 31
0.0
  0
LINE
  8
0
 62
     0
 10
51.6246
 20
110.478
 30
0.0
 11
55.7932
 21
110.689
 31
0.0
  0
LINE
  8
0
 62
     0
 10
55.7932
 20
110.689
 30
0.0
 11
72.4571
 21
110.689
 31
0.0
  0
LINE
  8
0
 62
     0
 10
76.626
 20
110.478
 30
0.0
 11
72.4571
 21
106.937
 31
0.0
  0
LINE
  8
0
 62
     0
 10
51.6246
 20
106.313
 30
0.0
 11
55.7932
 21
106.937
 31
0.0
  0
LINE
  8
0
 62
     0
 10
55.7932
 20
106.937
 30
0.0
 11
53.7933
 21
109.436
 31
0.0
  0
LINE
  8
0
 62
     0
 10
53.7933
 20
109.436
 30
0.0
 11
57.7947
 21
109.436
 31
0.0
  0
LINE
  8
0
 62
     0
 10
57.7947
 20
109.436
 30
0.0
 11
55.7932
 21
106.937
 31
0.0
  0
LINE
  8
0
 62
     0
 10
55.7932
 20
106.937
 30
0.0
 11
64.1253
 21
106.313
 31
0.0
  0
LINE
  8
0
 62
     0
 10
64.1253
 20
106.313
 30
0.0
 11
72.4571
 21
105.531
 31
0.0
  0
LINE
  8
0
 62
     0
 10
72.4571
 20
105.531
 30
0.0
 11
76.626
 21
106.313
 31
0.0
  0
LINE
  8
0
 62
     0
 10
51.6246
 20
102.147
 30
0.0
 11
64.1253
 21
102.147
 31
0.0
  0
LINE
  8
0
 62
     0
 10
64.1253
 20
102.147
 30
0.0
 11
69.2053
 21
104.069
 31
0.0
  0
LINE
  8
0
 62
     0
 10
69.2053
 20
104.069
 30
0.0
 11
67.205
 21
101.568
 31
0.0
  0
LINE
  8
0
 62
     0
 10
67.205
 20
101.568
 30
0.0
 11
71.2051
 21
101.568
 31
0.0
  0
LINE
  8
0
 62
     0
 10
71.2051
 20
101.568
 30
0.0
 11
69.2053
 21
104.069
 31
0.0
  0
LINE
  8
0
 62
     0
 10
69.2053
 20
104.069
 30
0.0
 11
76.626
 21
102.147
 31
0.0
  0
LINE
  8
0
 62
     7
 10
76.626
 20
125.063
 30
0.0
 11
101.625
 21
125.063
 31
0.0
  0
LINE
  8
0
 62
     7
 10
101.625
 20
125.063
 30
0.0
 11
101.625
 21
100.062
 31
0.0
  0
LINE
  8
0
 62
     7
 10
101.625
 20
100.062
 30
0.0
 11
76.626
 21
100.062
 31
0.0
  0
LINE
  8
0
 62
     7
 10
76.626
 20
100.062
 30
0.0
 11
76.626
 21
125.063
 31
0.0
  0
LINE
  8
0
 62
     0
 10
76.626
 20
118.814
 30
0.0
 11
80.7944
 21
118.187
 31
0.0
  0
LINE
  8
0
 62
     0
 10
101.625
 20
118.814
 30
0.0
 11
97.4567
 21
118.187
 31
0.0
  0
LINE
  8
0
 62
     0
 10
76.626
 20
114.645
 30
0.0
 11
80.7944
 21
114.439
 31
0.0
  0
LINE
  8
0
 62
     0
 10
101.625
 20
114.645
 30
0.0
 11
97.4567
 21
114.439
 31
0.0
  0
LINE
  8
0
 62
     0
 10
76.626
 20
122.979
 30
0.0
 11
101.625
 21
122.979
 31
0.0
  0
LINE
  8
0
 62
     0
 10
76.626
 20
110.478
 30
0.0
 11
80.7944
 21
110.689
 31
0.0
  0
LINE
  8
0
 62
     0
 10
80.7944
 20
110.689
 30
0.0
 11
97.4567
 21
110.689
 31
0.0
  0
LINE
  8
0
 62
     0
 10
101.625
 20
110.478
 30
0.0
 11
97.4567
 21
106.937
 31
0.0
  0
LINE
  8
0
 62
     0
 10
76.626
 20
106.313
 30
0.0
 11
80.7944
 21
106.937
 31
0.0
  0
LINE
  8
0
 62
     0
 10
80.7944
 20
106.937
 30
0.0
 11
78.7947
 21
109.436
 31
0.0
  0
LINE
  8
0
 62
     0
 10
78.7947
 20
109.436
 30
0.0
 11
82.7943
 21
109.436
 31
0.0
  0
LINE
  8
0
 62
     0
 10
82.7943
 20
109.436
 30
0.0
 11
80.7944
 21
106.937
 31
0.0
  0
LINE
  8
0
 62
     0
 10
80.7944
 20
106.937
 30
0.0
 11
89.1244
 21
106.313
 31
0.0
  0
LINE
  8
0
 62
     0
 10
89.1244
 20
106.313
 30
0.0
 11
97.4567
 21
105.531
 31
0.0
  0
LINE
  8
0
 62
     0
 10
97.4567
 20
105.531
 30
0.0
 11
101.625
 21
106.313
 31
0.0
  0
LINE
  8
0
 62
     0
 10
76.626
 20
102.147
 30
0.0
 11
89.1244
 21
102.147
 31
0.0
  0
LINE
  8
0
 62
     0
 10
89.1244
 20
102.147
 30
0.0
 11
94.2044
 21
104.069
 31
0.0
  0
LINE
  8
0
 62
     0
 10
94.2044
 20
104.069
 30
0.0
 11
92.2046
 21
101.568
 31
0.0
  0
LINE
  8
0
 62
     0
 10
92.2046
 20
101.568
 30
0.0
 11
96.2061
 21
101.568
 31
0.0
  0
LINE
  8
0
 62
     0
 10
96.2061
 20
101.568
 30
0.0
 11
94.2044
 21
104.069
 31
0.0
  0
LINE
  8
0
 62
     0
 10
94.2044
 20
104.069
 30
0.0
 11
101.625
 21
102.147
 31
0.0
  0
LINE
  8
0
 62
     7
 10
101.625
 20
125.063
 30
0.0
 11
126.626
 21
125.063
 31
0.0
  0
LINE
  8
0
 62
     7
 10
126.626
 20
125.063
 30
0.0
 11
126.626
 21
100.062
 31
0.0
  0
LINE
  8
0
 62
     7
 10
126.626
 20
100.062
 30
0.0
 11
101.625
 21
100.062
 31
0.0
  0
LINE
  8
0
 62
     7
 10
101.625
 20
100.062
 30
0.0
 11
101.625
 21
125.063
 31
0.0
  0
LINE
  8
0
 62
     0
 10
101.625
 20
118.814
 30
0.0
 11
105.794
 21
118.187
 31
0.0
  0
LINE
  8
0
 62
     0
 10
126.626
 20
118.814
 30
0.0
 11
122.458
 21
118.187
 31
0.0
  0
LINE
  8
0
 62
     0
 10
101.625
 20
114.645
 30
0.0
 11
105.794
 21
114.439
 31
0.0
  0
LINE
  8
0
 62
     0
 10
126.626
 20
114.645
 30
0.0
 11
122.458
 21
114.439
 31
0.0
  0
LINE
  8
0
 62
     0
 10
101.625
 20
122.979
 30
0.0
 11
126.626
 21
122.979
 31
0.0
  0
LINE
  8
0
 62
     0
 10
101.625
 20
110.478
 30
0.0
 11
105.794
 21
110.689
 31
0.0
  0
LINE
  8
0
 62
     0
 10
105.794
 20
110.689
 30
0.0
 11
122.458
 21
110.689
 31
0.0
  0
LINE
  8
0
 62
     0
 10
126.626
 20
110.478
 30
0.0
 11
122.458
 21
106.937
 31
0.0
  0
LINE
  8
0
 62
     0
 10
101.625
 20
106.313
 30
0.0
 11
105.794
 21
106.937
 31
0.0
  0
LINE
  8
0
 62
     0
 10
105.794
 20
106.937
 30
0.0
 11
103.794
 21
109.436
 31
0.0
  0
LINE
  8
0
 62
     0
 10
103.794
 20
109.436
 30
0.0
 11
107.795
 21
109.436
 31
0.0
  0
LINE
  8
0
 62
     0
 10
107.795
 20
109.436
 30
0.0
 11
105.794
 21
106.937
 31
0.0
  0
LINE
  8
0
 62
     0
 10
105.794
 20
106.937
 30
0.0
 11
114.126
 21
106.313
 31
0.0
  0
LINE
  8
0
 62
     0
 10
114.126
 20
106.313
 30
0.0
 11
122.458
 21
105.531
 31
0.0
  0
LINE
  8
0
 62
     0
 10
122.458
 20
105.531
 30
0.0
 11
126.626
 21
106.313
 31
0.0
  0
LINE
  8
0
 62
     0
 10
101.625
 20
102.147
 30
0.0
 11
114.126
 21
102.147
 31
0.0
  0
LINE
  8
0
 62
     0
 10
114.126
 20
102.147
 30
0.0
 11
119.205
 21
104.069
 31
0.0
  0
LINE
  8
0
 62
     0
 10
119.205
 20
104.069
 30
0.0
 11
117.206
 21
101.568
 31
0.0
  0
LINE
  8
0
 62
     0
 10
117.206
 20
101.568
 30
0.0
 11
121.205
 21
101.568
 31
0.0
  0
LINE
  8
0
 62
     0
 10
121.205
 20
101.568
 30
0.0
 11
119.205
 21
104.069
 31
0.0
  0
LINE
  8
0
 62
     0
 10
119.205
 20
104.069
 30
0.0
 11
126.626
 21
102.147
 31
0.0
  0
LINE
  8
0
 62
     7
 10
126.624
 20
125.063
 30
0.0
 11
151.625
 21
125.063
 31
0.0
  0
LINE
  8
0
 62
     7
 10
151.625
 20
125.063
 30
0.0
 11
151.625
 21
100.062
 31
0.0
  0
LINE
  8
0
 62
     7
 10
151.625
 20
100.062
 30
0.0
 11
126.624
 21
100.062
 31
0.0
  0
LINE
  8
0
 62
     7
 10
126.624
 20
100.062
 30
0.0
 11
126.624
 21
125.063
 31
0.0
  0
LINE
  8
0
 62
     0
 10
126.624
 20
118.814
 30
0.0
 11
130.793
 21
118.187
 31
0.0
  0
LINE
  8
0
 62
     0
 10
126.624
 20
114.645
 30
0.0
 11
130.793
 21
114.439
 31
0.0
  0
LINE
  8
0
 62
     0
 10
126.624
 20
122.979
 30
0.0
 11
151.625
 21
122.979
 31
0.0
  0
LINE
  8
0
 62
     0
 10
151.625
 20
122.979
 30
0.0
 11
151.625
 21
110.478
 31
0.0
  0
LINE
  8
0
 62
     0
 10
126.624
 20
110.478
 30
0.0
 11
130.793
 21
110.689
 31
0.0
  0
LINE
  8
0
 62
     0
 10
130.793
 20
110.689
 30
0.0
 11
147.457
 21
110.689
 31
0.0
  0
LINE
  8
0
 62
     0
 10
151.625
 20
110.478
 30
0.0
 11
147.457
 21
106.937
 31
0.0
  0
LINE
  8
0
 62
     0
 10
126.624
 20
106.313
 30
0.0
 11
130.793
 21
106.937
 31
0.0
  0
LINE
  8
0
 62
     0
 10
126.624
 20
102.147
 30
0.0
 11
139.125
 21
102.147
 31
0.0
  0
LINE
  8
0
 62
     0
 10
139.125
 20
102.147
 30
0.0
 11
144.206
 21
104.069
 31
0.0
  0
LINE
  8
0
 62
     7
 10
1.62457
 20
100.062
 30
0.0
 11
26.6256
 21
100.062
 31
0.0
  0
LINE
  8
0
 62
     7
 10
26.6256
 20
100.062
 30
0.0
 11
26.6256
 21
75.0632
 31
0.0
  0
LINE
  8
0
 62
     7
 10
26.6256
 20
75.0632
 30
0.0
 11
1.62457
 21
75.0632
 31
0.0
  0
LINE
  8
0
 62
     7
 10
1.62457
 20
75.0632
 30
0.0
 11
1.62457
 21
100.062
 31
0.0
  0
LINE
  8
0
 62
     0
 10
20.3743
 20
100.062
 30
0.0
 11
20.3743
 21
93.8128
 31
0.0
  0
LINE
  8
0
 62
     0
 10
18.2915
 20
93.8128
 30
0.0
 11
26.6256
 21
93.8128
 31
0.0
  0
LINE
  8
0
 62
     0
 10
20.3743
 20
93.8128
 30
0.0
 11
20.3743
 21
75.0631
 31
0.0
  0
LINE
  8
0
 62
     0
 10
16.2093
 20
100.062
 30
0.0
 11
16.2093
 21
89.646
 31
0.0
  0
LINE
  8
0
 62
     0
 10
14.1247
 20
89.646
 30
0.0
 11
26.6256
 21
89.646
 31
0.0
  0
LINE
  8
0
 62
     0
 10
16.2093
 20
89.646
 30
0.0
 11
16.2093
 21
75.0631
 31
0.0
  0
LINE
  8
0
 62
     0
 10
26.6256
 20
97.9794
 30
0.0
 11
24.541
 21
97.9794
 31
0.0
  0
LINE
  8
0
 62
     0
 10
24.541
 20
97.9794
 30
0.0
 11
24.541
 21
100.062
 31
0.0
  0
LINE
  8
0
 62
     0
 10
12.0425
 20
100.062
 30
0.0
 11
12.0425
 21
75.0631
 31
0.0
  0
LINE
  8
0
 62
     0
 10
26.6256
 20
85.4793
 30
0.0
 11
24.541
 21
85.4793
 31
0.0
  0
LINE
  8
0
 62
     0
 10
24.541
 20
85.4793
 30
0.0
 11
24.541
 21
75.0631
 31
0.0
  0
LINE
  8
0
 62
     0
 10
7.87354
 20
100.062
 30
0.0
 11
7.87354
 21
81.3125
 31
0.0
  0
LINE
  8
0
 62
     0
 10
5.79308
 20
81.3125
 30
0.0
 11
26.6256
 21
81.3125
 31
0.0
  0
LINE
  8
0
 62
     0
 10
7.87354
 20
81.3125
 30
0.0
 11
7.87354
 21
75.0631
 31
0.0
  0
LINE
  8
0
 62
     0
 10
3.70856
 20
100.062
 30
0.0
 11
3.70856
 21
77.1453
 31
0.0
  0
LINE
  8
0
 62
     0
 10
1.62457
 20
77.1453
 30
0.0
 11
26.6256
 21
77.1453
 31
0.0
  0
LINE
  8
0
 62
     0
 10
3.70856
 20
77.1453
 30
0.0
 11
3.70856
 21
75.0631
 31
0.0
  0
LINE
  8
0
 62
     7
 10
26.6256
 20
100.062
 30
0.0
 11
51.6246
 21
100.062
 31
0.0
  0
LINE
  8
0
 62
     7
 10
51.6246
 20
100.062
 30
0.0
 11
51.6246
 21
75.0632
 31
0.0
  0
LINE
  8
0
 62
     7
 10
51.6246
 20
75.0632
 30
0.0
 11
26.6256
 21
75.0632
 31
0.0
  0
LINE
  8
0
 62
     7
 10
26.6256
 20
75.0632
 30
0.0
 11
26.6256
 21
100.062
 31
0.0
  0
LINE
  8
0
 62
     0
 10
26.6256
 20
93.8128
 30
0.0
 11
30.794
 21
93.1875
 31
0.0
  0
LINE
  8
0
 62
     0
 10
51.6246
 20
93.8128
 30
0.0
 11
47.4561
 21
93.1875
 31
0.0
  0
LINE
  8
0
 62
     0
 10
26.6256
 20
89.646
 30
0.0
 11
30.794
 21
89.4375
 31
0.0
  0
LINE
  8
0
 62
     0
 10
51.6246
 20
89.646
 30
0.0
 11
47.4561
 21
89.4375
 31
0.0
  0
LINE
  8
0
 62
     0
 10
26.6256
 20
97.9794
 30
0.0
 11
51.6246
 21
97.9794
 31
0.0
  0
LINE
  8
0
 62
     0
 10
26.6256
 20
85.4793
 30
0.0
 11
30.794
 21
85.6874
 31
0.0
  0
LINE
  8
0
 62
     0
 10
30.794
 20
85.6874
 30
0.0
 11
47.4561
 21
85.6874
 31
0.0
  0
LINE
  8
0
 62
     0
 10
51.6246
 20
85.4793
 30
0.0
 11
47.4561
 21
81.9378
 31
0.0
  0
LINE
  8
0
 62
     0
 10
26.6256
 20
81.3125
 30
0.0
 11
30.794
 21
81.9378
 31
0.0
  0
LINE
  8
0
 62
     0
 10
30.794
 20
81.9378
 30
0.0
 11
28.7942
 21
84.4372
 31
0.0
  0
LINE
  8
0
 62
     0
 10
28.7942
 20
84.4372
 30
0.0
 11
32.7937
 21
84.4372
 31
0.0
  0
LINE
  8
0
 62
     0
 10
32.7937
 20
84.4372
 30
0.0
 11
30.794
 21
81.9378
 31
0.0
  0
LINE
  8
0
 62
     0
 10
30.794
 20
81.9378
 30
0.0
 11
39.1261
 21
81.3125
 31
0.0
  0
LINE
  8
0
 62
     0
 10
39.1261
 20
81.3125
 30
0.0
 11
47.4561
 21
80.5319
 31
0.0
  0
LINE
  8
0
 62
     0
 10
47.4561
 20
80.5319
 30
0.0
 11
51.6246
 21
81.3125
 31
0.0
  0
LINE
  8
0
 62
     0
 10
26.6256
 20
77.1453
 30
0.0
 11
39.1261
 21
77.1453
 31
0.0
  0
LINE
  8
0
 62
     0
 10
39.1261
 20
77.1453
 30
0.0
 11
44.2039
 21
79.0679
 31
0.0
  0
LINE
  8
0
 62
     0
 10
44.2039
 20
79.0679
 30
0.0
 11
42.2058
 21
76.5685
 31
0.0
  0
LINE
  8
0
 62
     0
 10
42.2058
 20
76.5685
 30
0.0
 11
46.2056
 21
76.5685
 31
0.0
  0
LINE
  8
0
 62
     0
 10
46.2056
 20
76.5685
 30
0.0
 11
44.2039
 21
79.0679
 31
0.0
  0
LINE
  8
0
 62
     0
 10
44.2039
 20
79.0679
 30
0.0
 11
51.6246
 21
77.1453
 31
0.0
  0
LINE
  8
0
 62
     7
 10
51.6246
 20
100.062
 30
0.0
 11
76.6256
 21
100.062
 31
0.0
  0
LINE
  8
0
 62
     7
 10
76.6256
 20
100.062
 30
0.0
 11
76.6256
 21
75.0632
 31
0.0
  0
LINE
  8
0
 62
     7
 10
76.6256
 20
75.0632
 30
0.0
 11
51.6246
 21
75.0632
 31
0.0
  0
LINE
  8
0
 62
     7
 10
51.6246
 20
75.0632
 30
0.0
 11
51.6246
 21
100.062
 31
0.0
  0
LINE
  8
0
 62
     0
 10
51.6246
 20
93.8128
 30
0.0
 11
55.7932
 21
93.1875
 31
0.0
  0
LINE
  8
0
 62
     0
 10
76.626
 20
93.8128
 30
0.0
 11
72.4571
 21
93.1875
 31
0.0
  0
LINE
  8
0
 62
     0
 10
51.6246
 20
89.646
 30
0.0
 11
55.7932
 21
89.4375
 31
0.0
  0
LINE
  8
0
 62
     0
 10
76.626
 20
89.646
 30
0.0
 11
72.4571
 21
89.4375
 31
0.0
  0
LINE
  8
0
 62
     0
 10
51.6246
 20
97.9794
 30
0.0
 11
76.626
 21
97.9794
 31
0.0
  0
LINE
  8
0
 62
     0
 10
51.6246
 20
85.4793
 30
0.0
 11
55.7932
 21
85.6874
 31
0.0
  0
LINE
  8
0
 62
     0
 10
55.7932
 20
85.6874
 30
0.0
 11
72.4571
 21
85.6874
 31
0.0
  0
LINE
  8
0
 62
     0
 10
76.626
 20
85.4793
 30
0.0
 11
72.4571
 21
81.9378
 31
0.0
  0
LINE
  8
0
 62
     0
 10
51.6246
 20
81.3125
 30
0.0
 11
55.7932
 21
81.9378
 31
0.0
  0
LINE
  8
0
 62
     0
 10
55.7932
 20
81.9378
 30
0.0
 11
53.7933
 21
84.4372
 31
0.0
  0
LINE
  8
0
 62
     0
 10
53.7933
 20
84.4372
 30
0.0
 11
57.7947
 21
84.4372
 31
0.0
  0
LINE
  8
0
 62
     0
 10
57.7947
 20
84.4372
 30
0.0
 11
55.7932
 21
81.9378
 31
0.0
  0
LINE
  8
0
 62
     0
 10
55.7932
 20
81.9378
 30
0.0
 11
64.1253
 21
81.3125
 31
0.0
  0
LINE
  8
0
 62
     0
 10
64.1253
 20
81.3125
 30
0.0
 11
72.4571
 21
80.5319
 31
0.0
  0
LINE
  8
0
 62
     0
 10
72.4571
 20
80.5319
 30
0.0
 11
76.626
 21
81.3125
 31
0.0
  0
LINE
  8
0
 62
     0
 10
51.6246
 20
77.1453
 30
0.0
 11
64.1253
 21
77.1453
 31
0.0
  0
LINE
  8
0
 62
     0
 10
64.1253
 20
77.1453
 30
0.0
 11
69.2053
 21
79.0679
 31
0.0
  0
LINE
  8
0
 62
     0
 10
69.2053
 20
79.0679
 30
0.0
 11
67.205
 21
76.5685
 31
0.0
  0
LINE
  8
0
 62
     0
 10
67.205
 20
76.5685
 30
0.0
 11
71.2051
 21
76.5685
 31
0.0
  0
LINE
  8
0
 62
     0
 10
71.2051
 20
76.5685
 30
0.0
 11
69.2053
 21
79.0679
 31
0.0
  0
LINE
  8
0
 62
     0
 10
69.2053
 20
79.0679
 30
0.0
 11
76.626
 21
77.1453
 31
0.0
  0
LINE
  8
0
 62
     7
 10
76.626
 20
100.062
 30
0.0
 11
101.625
 21
100.062
 31
0.0
  0
LINE
  8
0
 62
     7
 10
101.625
 20
100.062
 30
0.0
 11
101.625
 21
75.0632
 31
0.0
  0
LINE
  8
0
 62
     7
 10
101.625
 20
75.0632
 30
0.0
 11
76.626
 21
75.0632
 31
0.0
  0
LINE
  8
0
 62
     7
 10
76.626
 20
75.0632
 30
0.0
 11
76.626
 21
100.062
 31
0.0
  0
LINE
  8
0
 62
     0
 10
76.626
 20
93.8128
 30
0.0
 11
80.7944
 21
93.1875
 31
0.0
  0
LINE
  8
0
 62
     0
 10
101.625
 20
93.8128
 30
0.0
 11
97.4567
 21
93.1875
 31
0.0
  0
LINE
  8
0
 62
     0
 10
76.626
 20
89.646
 30
0.0
 11
80.7944
 21
89.4375
 31
0.0
  0
LINE
  8
0
 62
     0
 10
101.625
 20
89.646
 30
0.0
 11
97.4567
 21
89.4375
 31
0.0
  0
LINE
  8
0
 62
     0
 10
76.626
 20
97.9794
 30
0.0
 11
101.625
 21
97.9794
 31
0.0
  0
LINE
  8
0
 62
     0
 10
76.626
 20
85.4793
 30
0.0
 11
80.7944
 21
85.6874
 31
0.0
  0
LINE
  8
0
 62
     0
 10
80.7944
 20
85.6874
 30
0.0
 11
97.4567
 21
85.6874
 31
0.0
  0
LINE
  8
0
 62
     0
 10
101.625
 20
85.4793
 30
0.0
 11
97.4567
 21
81.9378
 31
0.0
  0
LINE
  8
0
 62
     0
 10
76.626
 20
81.3125
 30
0.0
 11
80.7944
 21
81.9378
 31
0.0
  0
LINE
  8
0
 62
     0
 10
80.7944
 20
81.9378
 30
0.0
 11
78.7947
 21
84.4372
 31
0.0
  0
LINE
  8
0
 62
     0
 10
78.7947
 20
84.4372
 30
0.0
 11
82.7943
 21
84.4372
 31
0.0
  0
LINE
  8
0
 62
     0
 10
82.7943
 20
84.4372
 30
0.0
 11
80.7944
 21
81.9378
 31
0.0
  0
LINE
  8
0
 62
     0
 10
80.7944
 20
81.9378
 30
0.0
 11
89.1244
 21
81.3125
 31
0.0
  0
LINE
  8
0
 62
     0
 10
89.1244
 20
81.3125
 30
0.0
 11
97.4567
 21
80.5319
 31
0.0
  0
LINE
  8
0
 62
     0
 10
97.4567
 20
80.5319
 30
0.0
 11
101.625
 21
81.3125
 31
0.0
  0
LINE
  8
0
 62
     0
 10
76.626
 20
77.1453
 30
0.0
 11
89.1244
 21
77.1453
 31
0.0
  0
LINE
  8
0
 62
     0
 10
89.1244
 20
77.1453
 30
0.0
 11
94.2044
 21
79.0679
 31
0.0
  0
LINE
  8
0
 62
     0
 10
94.2044
 20
79.0679
 30
0.0
 11
92.2046
 21
76.5685
 31
0.0
  0
LINE
  8
0
 62
     0
 10
92.2046
 20
76.5685
 30
0.0
 11
96.2061
 21
76.5685
 31
0.0
  0
LINE
  8
0
 62
     0
 10
96.2061
 20
76.5685
 30
0.0
 11
94.2044
 21
79.0679
 31
0.0
  0
LINE
  8
0
 62
     0
 10
94.2044
 20
79.0679
 30
0.0
 11
101.625
 21
77.1453
 31
0.0
  0
LINE
  8
0
 62
     7
 10
101.625
 20
100.062
 30
0.0
 11
126.626
 21
100.062
 31
0.0
  0
LINE
  8
0
 62
     7
 10
126.626
 20
100.062
 30
0.0
 11
126.626
 21
75.0632
 31
0.0
  0
LINE
  8
0
 62
     7
 10
126.626
 20
75.0632
 30
0.0
 11
101.625
 21
75.0632
 31
0.0
  0
LINE
  8
0
 62
     7
 10
101.625
 20
75.0632
 30
0.0
 11
101.625
 21
100.062
 31
0.0
  0
LINE
  8
0
 62
     0
 10
101.625
 20
93.8128
 30
0.0
 11
105.794
 21
93.1875
 31
0.0
  0
LINE
  8
0
 62
     0
 10
126.626
 20
93.8128
 30
0.0
 11
122.458
 21
93.1875
 31
0.0
  0
LINE
  8
0
 62
     0
 10
101.625
 20
89.646
 30
0.0
 11
105.794
 21
89.4375
 31
0.0
  0
LINE
  8
0
 62
     0
 10
126.626
 20
89.646
 30
0.0
 11
122.458
 21
89.4375
 31
0.0
  0
LINE
  8
0
 62
     0
 10
101.625
 20
97.9794
 30
0.0
 11
126.626
 21
97.9794
 31
0.0
  0
LINE
  8
0
 62
     0
 10
101.625
 20
85.4793
 30
0.0
 11
105.794
 21
85.6874
 31
0.0
  0
LINE
  8
0
 62
     0
 10
105.794
 20
85.6874
 30
0.0
 11
122.458
 21
85.6874
 31
0.0
  0
LINE
  8
0
 62
     0
 10
126.626
 20
85.4793
 30
0.0
 11
122.458
 21
81.9378
 31
0.0
  0
LINE
  8
0
 62
     0
 10
101.625
 20
81.3125
 30
0.0
 11
105.794
 21
81.9378
 31
0.0
  0
LINE
  8
0
 62
     0
 10
105.794
 20
81.9378
 30
0.0
 11
103.794
 21
84.4372
 31
0.0
  0
LINE
  8
0
 62
     0
 10
103.794
 20
84.4372
 30
0.0
 11
107.795
 21
84.4372
 31
0.0
  0
LINE
  8
0
 62
     0
 10
107.795
 20
84.4372
 30
0.0
 11
105.794
 21
81.9378
 31
0.0
  0
LINE
  8
0
 62
     0
 10
105.794
 20
81.9378
 30
0.0
 11
114.126
 21
81.3125
 31
0.0
  0
LINE
  8
0
 62
     0
 10
114.126
 20
81.3125
 30
0.0
 11
122.458
 21
80.5319
 31
0.0
  0
LINE
  8
0
 62
     0
 10
122.458
 20
80.5319
 30
0.0
 11
126.626
 21
81.3125
 31
0.0
  0
LINE
  8
0
 62
     0
 10
101.625
 20
77.1453
 30
0.0
 11
114.126
 21
77.1453
 31
0.0
  0
LINE
  8
0
 62
     0
 10
114.126
 20
77.1453
 30
0.0
 11
119.205
 21
79.0679
 31
0.0
  0
LINE
  8
0
 62
     0
 10
119.205
 20
79.0679
 30
0.0
 11
117.206
 21
76.5685
 31
0.0
  0
LINE
  8
0
 62
     0
 10
117.206
 20
76.5685
 30
0.0
 11
121.205
 21
76.5685
 31
0.0
  0
LINE
  8
0
 62
     0
 10
121.205
 20
76.5685
 30
0.0
 11
119.205
 21
79.0679
 31
0.0
  0
LINE
  8
0
 62
     0
 10
119.205
 20
79.0679
 30
0.0
 11
126.626
 21
77.1453
 31
0.0
  0
LINE
  8
0
 62
     7
 10
126.624
 20
100.062
 30
0.0
 11
151.625
 21
100.062
 31
0.0
  0
LINE
  8
0
 62
     7
 10
151.625
 20
100.062
 30
0.0
 11
151.625
 21
75.0632
 31
0.0
  0
LINE
  8
0
 62
     7
 10
151.625
 20
75.0632
 30
0.0
 11
126.624
 21
75.0632
 31
0.0
  0
LINE
  8
0
 62
     7
 10
126.624
 20
75.0632
 30
0.0
 11
126.624
 21
100.062
 31
0.0
  0
LINE
  8
0
 62
     0
 10
126.624
 20
93.8128
 30
0.0
 11
130.793
 21
93.1875
 31
0.0
  0
LINE
  8
0
 62
     0
 10
126.624
 20
89.646
 30
0.0
 11
130.793
 21
89.4375
 31
0.0
  0
LINE
  8
0
 62
     0
 10
126.624
 20
97.9794
 30
0.0
 11
151.625
 21
97.9794
 31
0.0
  0
LINE
  8
0
 62
     0
 10
151.625
 20
97.9794
 30
0.0
 11
151.625
 21
85.4793
 31
0.0
  0
LINE
  8
0
 62
     0
 10
126.624
 20
85.4793
 30
0.0
 11
130.793
 21
85.6874
 31
0.0
  0
LINE
  8
0
 62
     0
 10
130.793
 20
85.6874
 30
0.0
 11
147.457
 21
85.6874
 31
0.0
  0
LINE
  8
0
 62
     0
 10
151.625
 20
85.4793
 30
0.0
 11
147.457
 21
81.9378
 31
0.0
  0
LINE
  8
0
 62
     0
 10
126.624
 20
81.3125
 30
0.0
 11
130.793
 21
81.9378
 31
0.0
  0
LINE
  8
0
 62
     0
 10
126.624
 20
77.1453
 30
0.0
 11
139.125
 21
77.1453
 31
0.0
  0
LINE
  8
0
 62
     0
 10
139.125
 20
77.1453
 30
0.0
 11
144.206
 21
79.0679
 31
0.0
  0
LINE
  8
0
 62
     7
 10
1.62457
 20
75.0628
 30
0.0
 11
26.6256
 21
75.0628
 31
0.0
  0
LINE
  8
0
 62
     7
 10
26.6256
 20
75.0628
 30
0.0
 11
26.6256
 21
50.0618
 31
0.0
  0
LINE
  8
0
 62
     7
 10
26.6256
 20
50.0618
 30
0.0
 11
1.62457
 21
50.0618
 31
0.0
  0
LINE
  8
0
 62
     7
 10
1.62457
 20
50.0618
 30
0.0
 11
1.62457
 21
75.0628
 31
0.0
  0
LINE
  8
0
 62
     0
 10
20.3743
 20
75.0631
 30
0.0
 11
20.3743
 21
68.8136
 31
0.0
  0
LINE
  8
0
 62
     0
 10
18.2915
 20
68.8136
 30
0.0
 11
26.6256
 21
68.8136
 31
0.0
  0
LINE
  8
0
 62
     0
 10
20.3743
 20
68.8136
 30
0.0
 11
20.3743
 21
50.0617
 31
0.0
  0
LINE
  8
0
 62
     0
 10
16.2093
 20
75.0631
 30
0.0
 11
16.2093
 21
64.6468
 31
0.0
  0
LINE
  8
0
 62
     0
 10
14.1247
 20
64.6468
 30
0.0
 11
26.6256
 21
64.6468
 31
0.0
  0
LINE
  8
0
 62
     0
 10
16.2093
 20
64.6468
 30
0.0
 11
16.2093
 21
50.0617
 31
0.0
  0
LINE
  8
0
 62
     0
 10
26.6256
 20
72.9786
 30
0.0
 11
24.541
 21
72.9786
 31
0.0
  0
LINE
  8
0
 62
     0
 10
24.541
 20
72.9786
 30
0.0
 11
24.541
 21
75.0631
 31
0.0
  0
LINE
  8
0
 62
     0
 10
12.0425
 20
75.0631
 30
0.0
 11
12.0425
 21
50.0617
 31
0.0
  0
LINE
  8
0
 62
     0
 10
26.6256
 20
60.4779
 30
0.0
 11
24.541
 21
60.4779
 31
0.0
  0
LINE
  8
0
 62
     0
 10
24.541
 20
60.4779
 30
0.0
 11
24.541
 21
50.0617
 31
0.0
  0
LINE
  8
0
 62
     0
 10
7.87354
 20
75.0631
 30
0.0
 11
7.87354
 21
56.3129
 31
0.0
  0
LINE
  8
0
 62
     0
 10
5.79308
 20
56.3129
 30
0.0
 11
26.6256
 21
56.3129
 31
0.0
  0
LINE
  8
0
 62
     0
 10
7.87354
 20
56.3129
 30
0.0
 11
7.87354
 21
50.0617
 31
0.0
  0
LINE
  8
0
 62
     0
 10
3.70856
 20
75.0631
 30
0.0
 11
3.70856
 21
52.1461
 31
0.0
  0
LINE
  8
0
 62
     0
 10
1.62457
 20
52.1461
 30
0.0
 11
26.6256
 21
52.1461
 31
0.0
  0
LINE
  8
0
 62
     0
 10
3.70856
 20
52.1461
 30
0.0
 11
3.70856
 21
50.0617
 31
0.0
  0
LINE
  8
0
 62
     7
 10
26.6256
 20
75.0628
 30
0.0
 11
51.6246
 21
75.0628
 31
0.0
  0
LINE
  8
0
 62
     7
 10
51.6246
 20
75.0628
 30
0.0
 11
51.6246
 21
50.0618
 31
0.0
  0
LINE
  8
0
 62
     7
 10
51.6246
 20
50.0618
 30
0.0
 11
26.6256
 21
50.0618
 31
0.0
  0
LINE
  8
0
 62
     7
 10
26.6256
 20
50.0618
 30
0.0
 11
26.6256
 21
75.0628
 31
0.0
  0
LINE
  8
0
 62
     0
 10
26.6256
 20
68.8136
 30
0.0
 11
30.794
 21
68.1883
 31
0.0
  0
LINE
  8
0
 62
     0
 10
51.6246
 20
68.8136
 30
0.0
 11
47.4561
 21
68.1883
 31
0.0
  0
LINE
  8
0
 62
     0
 10
26.6256
 20
64.6468
 30
0.0
 11
30.794
 21
64.4382
 31
0.0
  0
LINE
  8
0
 62
     0
 10
51.6246
 20
64.6468
 30
0.0
 11
47.4561
 21
64.4382
 31
0.0
  0
LINE
  8
0
 62
     0
 10
26.6256
 20
72.9786
 30
0.0
 11
51.6246
 21
72.9786
 31
0.0
  0
LINE
  8
0
 62
     0
 10
26.6256
 20
60.4779
 30
0.0
 11
30.794
 21
60.6882
 31
0.0
  0
LINE
  8
0
 62
     0
 10
30.794
 20
60.6882
 30
0.0
 11
47.4561
 21
60.6882
 31
0.0
  0
LINE
  8
0
 62
     0
 10
51.6246
 20
60.4779
 30
0.0
 11
47.4561
 21
56.9365
 31
0.0
  0
LINE
  8
0
 62
     0
 10
26.6256
 20
56.3129
 30
0.0
 11
30.794
 21
56.9365
 31
0.0
  0
LINE
  8
0
 62
     0
 10
30.794
 20
56.9365
 30
0.0
 11
28.7942
 21
59.4376
 31
0.0
  0
LINE
  8
0
 62
     0
 10
28.7942
 20
59.4376
 30
0.0
 11
32.7937
 21
59.4376
 31
0.0
  0
LINE
  8
0
 62
     0
 10
32.7937
 20
59.4376
 30
0.0
 11
30.794
 21
56.9365
 31
0.0
  0
LINE
  8
0
 62
     0
 10
30.794
 20
56.9365
 30
0.0
 11
39.1261
 21
56.3129
 31
0.0
  0
LINE
  8
0
 62
     0
 10
39.1261
 20
56.3129
 30
0.0
 11
47.4561
 21
55.5311
 31
0.0
  0
LINE
  8
0
 62
     0
 10
47.4561
 20
55.5311
 30
0.0
 11
51.6246
 21
56.3129
 31
0.0
  0
LINE
  8
0
 62
     0
 10
26.6256
 20
52.1461
 30
0.0
 11
39.1261
 21
52.1461
 31
0.0
  0
LINE
  8
0
 62
     0
 10
39.1261
 20
52.1461
 30
0.0
 11
44.2039
 21
54.0683
 31
0.0
  0
LINE
  8
0
 62
     0
 10
44.2039
 20
54.0683
 30
0.0
 11
42.2058
 21
51.5689
 31
0.0
  0
LINE
  8
0
 62
     0
 10
42.2058
 20
51.5689
 30
0.0
 11
46.2056
 21
51.5689
 31
0.0
  0
LINE
  8
0
 62
     0
 10
46.2056
 20
51.5689
 30
0.0
 11
44.2039
 21
54.0683
 31
0.0
  0
LINE
  8
0
 62
     0
 10
44.2039
 20
54.0683
 30
0.0
 11
51.6246
 21
52.1461
 31
0.0
  0
LINE
  8
0
 62
     7
 10
51.6246
 20
75.0628
 30
0.0
 11
76.6256
 21
75.0628
 31
0.0
  0
LINE
  8
0
 62
     7
 10
76.6256
 20
75.0628
 30
0.0
 11
76.6256
 21
50.0618
 31
0.0
  0
LINE
  8
0
 62
     7
 10
76.6256
 20
50.0618
 30
0.0
 11
51.6246
 21
50.0618
 31
0.0
  0
LINE
  8
0
 62
     7
 10
51.6246
 20
50.0618
 30
0.0
 11
51.6246
 21
75.0628
 31
0.0
  0
LINE
  8
0
 62
     0
 10
51.6246
 20
68.8136
 30
0.0
 11
55.7932
 21
68.1883
 31
0.0
  0
LINE
  8
0
 62
     0
 10
76.626
 20
68.8136
 30
0.0
 11
72.4571
 21
68.1883
 31
0.0
  0
LINE
  8
0
 62
     0
 10
51.6246
 20
64.6468
 30
0.0
 11
55.7932
 21
64.4382
 31
0.0
  0
LINE
  8
0
 62
     0
 10
76.626
 20
64.6468
 30
0.0
 11
72.4571
 21
64.4382
 31
0.0
  0
LINE
  8
0
 62
     0
 10
51.6246
 20
72.9786
 30
0.0
 11
76.626
 21
72.9786
 31
0.0
  0
LINE
  8
0
 62
     0
 10
51.6246
 20
60.4779
 30
0.0
 11
55.7932
 21
60.6882
 31
0.0
  0
LINE
  8
0
 62
     0
 10
55.7932
 20
60.6882
 30
0.0
 11
72.4571
 21
60.6882
 31
0.0
  0
LINE
  8
0
 62
     0
 10
76.626
 20
60.4779
 30
0.0
 11
72.4571
 21
56.9365
 31
0.0
  0
LINE
  8
0
 62
     0
 10
51.6246
 20
56.3129
 30
0.0
 11
55.7932
 21
56.9365
 31
0.0
  0
LINE
  8
0
 62
     0
 10
55.7932
 20
56.9365
 30
0.0
 11
53.7933
 21
59.4376
 31
0.0
  0
LINE
  8
0
 62
     0
 10
53.7933
 20
59.4376
 30
0.0
 11
57.7947
 21
59.4376
 31
0.0
  0
LINE
  8
0
 62
     0
 10
57.7947
 20
59.4376
 30
0.0
 11
55.7932
 21
56.9365
 31
0.0
  0
LINE
  8
0
 62
     0
 10
55.7932
 20
56.9365
 30
0.0
 11
64.1253
 21
56.3129
 31
0.0
  0
LINE
  8
0
 62
     0
 10
64.1253
 20
56.3129
 30
0.0
 11
72.4571
 21
55.5311
 31
0.0
  0
LINE
  8
0
 62
     0
 10
72.4571
 20
55.5311
 30
0.0
 11
76.626
 21
56.3129
 31
0.0
  0
LINE
  8
0
 62
     0
 10
51.6246
 20
52.1461
 30
0.0
 11
64.1253
 21
52.1461
 31
0.0
  0
LINE
  8
0
 62
     0
 10
64.1253
 20
52.1461
 30
0.0
 11
69.2053
 21
54.0683
 31
0.0
  0
LINE
  8
0
 62
     0
 10
69.2053
 20
54.0683
 30
0.0
 11
67.205
 21
51.5689
 31
0.0
  0
LINE
  8
0
 62
     0
 10
67.205
 20
51.5689
 30
0.0
 11
71.2051
 21
51.5689
 31
0.0
  0
LINE
  8
0
 62
     0
 10
71.2051
 20
51.5689
 30
0.0
 11
69.2053
 21
54.0683
 31
0.0
  0
LINE
  8
0
 62
     0
 10
69.2053
 20
54.0683
 30
0.0
 11
76.626
 21
52.1461
 31
0.0
  0
LINE
  8
0
 62
     7
 10
76.626
 20
75.0628
 30
0.0
 11
101.625
 21
75.0628
 31
0.0
  0
LINE
  8
0
 62
     7
 10
101.625
 20
75.0628
 30
0.0
 11
101.625
 21
50.0618
 31
0.0
  0
LINE
  8
0
 62
     7
 10
101.625
 20
50.0618
 30
0.0
 11
76.626
 21
50.0618
 31
0.0
  0
LINE
  8
0
 62
     7
 10
76.626
 20
50.0618
 30
0.0
 11
76.626
 21
75.0628
 31
0.0
  0
LINE
  8
0
 62
     0
 10
76.626
 20
68.8136
 30
0.0
 11
80.7944
 21
68.1883
 31
0.0
  0
LINE
  8
0
 62
     0
 10
101.625
 20
68.8136
 30
0.0
 11
97.4567
 21
68.1883
 31
0.0
  0
LINE
  8
0
 62
     0
 10
76.626
 20
64.6468
 30
0.0
 11
80.7944
 21
64.4382
 31
0.0
  0
LINE
  8
0
 62
     0
 10
101.625
 20
64.6468
 30
0.0
 11
97.4567
 21
64.4382
 31
0.0
  0
LINE
  8
0
 62
     0
 10
76.626
 20
72.9786
 30
0.0
 11
101.625
 21
72.9786
 31
0.0
  0
LINE
  8
0
 62
     0
 10
76.626
 20
60.4779
 30
0.0
 11
80.7944
 21
60.6882
 31
0.0
  0
LINE
  8
0
 62
     0
 10
80.7944
 20
60.6882
 30
0.0
 11
97.4567
 21
60.6882
 31
0.0
  0
LINE
  8
0
 62
     0
 10
101.625
 20
60.4779
 30
0.0
 11
97.4567
 21
56.9365
 31
0.0
  0
LINE
  8
0
 62
     0
 10
76.626
 20
56.3129
 30
0.0
 11
80.7944
 21
56.9365
 31
0.0
  0
LINE
  8
0
 62
     0
 10
80.7944
 20
56.9365
 30
0.0
 11
78.7947
 21
59.4376
 31
0.0
  0
LINE
  8
0
 62
     0
 10
78.7947
 20
59.4376
 30
0.0
 11
82.7943
 21
59.4376
 31
0.0
  0
LINE
  8
0
 62
     0
 10
82.7943
 20
59.4376
 30
0.0
 11
80.7944
 21
56.9365
 31
0.0
  0
LINE
  8
0
 62
     0
 10
80.7944
 20
56.9365
 30
0.0
 11
89.1244
 21
56.3129
 31
0.0
  0
LINE
  8
0
 62
     0
 10
89.1244
 20
56.3129
 30
0.0
 11
97.4567
 21
55.5311
 31
0.0
  0
LINE
  8
0
 62
     0
 10
97.4567
 20
55.5311
 30
0.0
 11
101.625
 21
56.3129
 31
0.0
  0
LINE
  8
0
 62
     0
 10
76.626
 20
52.1461
 30
0.0
 11
89.1244
 21
52.1461
 31
0.0
  0
LINE
  8
0
 62
     0
 10
89.1244
 20
52.1461
 30
0.0
 11
94.2044
 21
54.0683
 31
0.0
  0
LINE
  8
0
 62
     0
 10
94.2044
 20
54.0683
 30
0.0
 11
92.2046
 21
51.5689
 31
0.0
  0
LINE
  8
0
 62
     0
 10
92.2046
 20
51.5689
 30
0.0
 11
96.2061
 21
51.5689
 31
0.0
  0
LINE
  8
0
 62
     0
 10
96.2061
 20
51.5689
 30
0.0
 11
94.2044
 21
54.0683
 31
0.0
  0
LINE
  8
0
 62
     0
 10
94.2044
 20
54.0683
 30
0.0
 11
101.625
 21
52.1461
 31
0.0
  0
LINE
  8
0
 62
     7
 10
101.625
 20
75.0628
 30
0.0
 11
126.626
 21
75.0628
 31
0.0
  0
LINE
  8
0
 62
     7
 10
126.626
 20
75.0628
 30
0.0
 11
126.626
 21
50.0618
 31
0.0
  0
LINE
  8
0
 62
     7
 10
126.626
 20
50.0618
 30
0.0
 11
101.625
 21
50.0618
 31
0.0
  0
LINE
  8
0
 62
     7
 10
101.625
 20
50.0618
 30
0.0
 11
101.625
 21
75.0628
 31
0.0
  0
LINE
  8
0
 62
     0
 10
101.625
 20
68.8136
 30
0.0
 11
105.794
 21
68.1883
 31
0.0
  0
LINE
  8
0
 62
     0
 10
126.626
 20
68.8136
 30
0.0
 11
122.458
 21
68.1883
 31
0.0
  0
LINE
  8
0
 62
     0
 10
101.625
 20
64.6468
 30
0.0
 11
105.794
 21
64.4382
 31
0.0
  0
LINE
  8
0
 62
     0
 10
126.626
 20
64.6468
 30
0.0
 11
122.458
 21
64.4382
 31
0.0
  0
LINE
  8
0
 62
     0
 10
101.625
 20
72.9786
 30
0.0
 11
126.626
 21
72.9786
 31
0.0
  0
LINE
  8
0
 62
     0
 10
101.625
 20
60.4779
 30
0.0
 11
105.794
 21
60.6882
 31
0.0
  0
LINE
  8
0
 62
     0
 10
105.794
 20
60.6882
 30
0.0
 11
122.458
 21
60.6882
 31
0.0
  0
LINE
  8
0
 62
     0
 10
126.626
 20
60.4779
 30
0.0
 11
122.458
 21
56.9365
 31
0.0
  0
LINE
  8
0
 62
     0
 10
101.625
 20
56.3129
 30
0.0
 11
105.794
 21
56.9365
 31
0.0
  0
LINE
  8
0
 62
     0
 10
105.794
 20
56.9365
 30
0.0
 11
103.794
 21
59.4376
 31
0.0
  0
LINE
  8
0
 62
     0
 10
103.794
 20
59.4376
 30
0.0
 11
107.795
 21
59.4376
 31
0.0
  0
LINE
  8
0
 62
     0
 10
107.795
 20
59.4376
 30
0.0
 11
105.794
 21
56.9365
 31
0.0
  0
LINE
  8
0
 62
     0
 10
105.794
 20
56.9365
 30
0.0
 11
114.126
 21
56.3129
 31
0.0
  0
LINE
  8
0
 62
     0
 10
114.126
 20
56.3129
 30
0.0
 11
122.458
 21
55.5311
 31
0.0
  0
LINE
  8
0
 62
     0
 10
122.458
 20
55.5311
 30
0.0
 11
126.626
 21
56.3129
 31
0.0
  0
LINE
  8
0
 62
     0
 10
101.625
 20
52.1461
 30
0.0
 11
114.126
 21
52.1461
 31
0.0
  0
LINE
  8
0
 62
     0
 10
114.126
 20
52.1461
 30
0.0
 11
119.205
 21
54.0683
 31
0.0
  0
LINE
  8
0
 62
     0
 10
119.205
 20
54.0683
 30
0.0
 11
117.206
 21
51.5689
 31
0.0
  0
LINE
  8
0
 62
     0
 10
117.206
 20
51.5689
 30
0.0
 11
121.205
 21
51.5689
 31
0.0
  0
LINE
  8
0
 62
     0
 10
121.205
 20
51.5689
 30
0.0
 11
119.205
 21
54.0683
 31
0.0
  0
LINE
  8
0
 62
     0
 10
119.205
 20
54.0683
 30
0.0
 11
126.626
 21
52.1461
 31
0.0
  0
LINE
  8
0
 62
     7
 10
126.624
 20
75.0628
 30
0.0
 11
151.625
 21
75.0628
 31
0.0
  0
LINE
  8
0
 62
     7
 10
151.625
 20
75.0628
 30
0.0
 11
151.625
 21
50.0618
 31
0.0
  0
LINE
  8
0
 62
     7
 10
151.625
 20
50.0618
 30
0.0
 11
126.624
 21
50.0618
 31
0.0
  0
LINE
  8
0
 62
     7
 10
126.624
 20
50.0618
 30
0.0
 11
126.624
 21
75.0628
 31
0.0
  0
LINE
  8
0
 62
     0
 10
126.624
 20
68.8136
 30
0.0
 11
130.793
 21
68.1883
 31
0.0
  0
LINE
  8
0
 62
     0
 10
126.624
 20
64.6468
 30
0.0
 11
130.793
 21
64.4382
 31
0.0
  0
LINE
  8
0
 62
     0
 10
126.624
 20
72.9786
 30
0.0
 11
151.625
 21
72.9786
 31
0.0
  0
LINE
  8
0
 62
     0
 10
151.625
 20
72.9786
 30
0.0
 11
151.625
 21
60.4779
 31
0.0
  0
LINE
  8
0
 62
     0
 10
126.624
 20
60.4779
 30
0.0
 11
130.793
 21
60.6882
 31
0.0
  0
LINE
  8
0
 62
     0
 10
130.793
 20
60.6882
 30
0.0
 11
147.457
 21
60.6882
 31
0.0
  0
LINE
  8
0
 62
     0
 10
151.625
 20
60.4779
 30
0.0
 11
147.457
 21
56.9365
 31
0.0
  0
LINE
  8
0
 62
     0
 10
126.624
 20
56.3129
 30
0.0
 11
130.793
 21
56.9365
 31
0.0
  0
LINE
  8
0
 62
     0
 10
126.624
 20
52.1461
 30
0.0
 11
139.125
 21
52.1461
 31
0.0
  0
LINE
  8
0
 62
     0
 10
139.125
 20
52.1461
 30
0.0
 11
144.206
 21
54.0683
 31
0.0
  0
LINE
  8
0
 62
     7
 10
1.62457
 20
50.0618
 30
0.0
 11
26.6256
 21
50.0618
 31
0.0
  0
LINE
  8
0
 62
     7
 10
26.6256
 20
50.0618
 30
0.0
 11
26.6256
 21
25.0626
 31
0.0
  0
LINE
  8
0
 62
     7
 10
26.6256
 20
25.0626
 30
0.0
 11
1.62457
 21
25.0626
 31
0.0
  0
LINE
  8
0
 62
     7
 10
1.62457
 20
25.0626
 30
0.0
 11
1.62457
 21
50.0618
 31
0.0
  0
LINE
  8
0
 62
     0
 10
20.3743
 20
50.0617
 30
0.0
 11
20.3743
 21
43.8122
 31
0.0
  0
LINE
  8
0
 62
     0
 10
18.2915
 20
43.8122
 30
0.0
 11
26.6256
 21
43.8122
 31
0.0
  0
LINE
  8
0
 62
     0
 10
20.3743
 20
43.8122
 30
0.0
 11
20.3743
 21
25.0625
 31
0.0
  0
LINE
  8
0
 62
     0
 10
16.2093
 20
50.0617
 30
0.0
 11
16.2093
 21
39.6456
 31
0.0
  0
LINE
  8
0
 62
     0
 10
14.1247
 20
39.6456
 30
0.0
 11
26.6256
 21
39.6456
 31
0.0
  0
LINE
  8
0
 62
     0
 10
16.2093
 20
39.6456
 30
0.0
 11
16.2093
 21
25.0625
 31
0.0
  0
LINE
  8
0
 62
     0
 10
26.6256
 20
47.9794
 30
0.0
 11
24.541
 21
47.9794
 31
0.0
  0
LINE
  8
0
 62
     0
 10
24.541
 20
47.9794
 30
0.0
 11
24.541
 21
50.0617
 31
0.0
  0
LINE
  8
0
 62
     0
 10
12.0425
 20
50.0617
 30
0.0
 11
12.0425
 21
25.0625
 31
0.0
  0
LINE
  8
0
 62
     0
 10
26.6256
 20
35.4787
 30
0.0
 11
24.541
 21
35.4787
 31
0.0
  0
LINE
  8
0
 62
     0
 10
24.541
 20
35.4787
 30
0.0
 11
24.541
 21
25.0625
 31
0.0
  0
LINE
  8
0
 62
     0
 10
7.87354
 20
50.0617
 30
0.0
 11
7.87354
 21
31.3138
 31
0.0
  0
LINE
  8
0
 62
     0
 10
5.79308
 20
31.3138
 30
0.0
 11
26.6256
 21
31.3138
 31
0.0
  0
LINE
  8
0
 62
     0
 10
7.87354
 20
31.3138
 30
0.0
 11
7.87354
 21
25.0625
 31
0.0
  0
LINE
  8
0
 62
     0
 10
3.70856
 20
50.0617
 30
0.0
 11
3.70856
 21
27.1453
 31
0.0
  0
LINE
  8
0
 62
     0
 10
1.62457
 20
27.1453
 30
0.0
 11
26.6256
 21
27.1453
 31
0.0
  0
LINE
  8
0
 62
     0
 10
3.70856
 20
27.1453
 30
0.0
 11
3.70856
 21
25.0625
 31
0.0
  0
LINE
  8
0
 62
     7
 10
26.6256
 20
50.0618
 30
0.0
 11
51.6246
 21
50.0618
 31
0.0
  0
LINE
  8
0
 62
     7
 10
51.6246
 20
50.0618
 30
0.0
 11
51.6246
 21
25.0626
 31
0.0
  0
LINE
  8
0
 62
     7
 10
51.6246
 20
25.0626
 30
0.0
 11
26.6256
 21
25.0626
 31
0.0
  0
LINE
  8
0
 62
     7
 10
26.6256
 20
25.0626
 30
0.0
 11
26.6256
 21
50.0618
 31
0.0
  0
LINE
  8
0
 62
     0
 10
26.6256
 20
43.8122
 30
0.0
 11
30.794
 21
43.1874
 31
0.0
  0
LINE
  8
0
 62
     0
 10
51.6246
 20
43.8122
 30
0.0
 11
47.4561
 21
43.1874
 31
0.0
  0
LINE
  8
0
 62
     0
 10
26.6256
 20
39.6456
 30
0.0
 11
30.794
 21
39.4374
 31
0.0
  0
LINE
  8
0
 62
     0
 10
51.6246
 20
39.6456
 30
0.0
 11
47.4561
 21
39.4374
 31
0.0
  0
LINE
  8
0
 62
     0
 10
26.6256
 20
47.9794
 30
0.0
 11
51.6246
 21
47.9794
 31
0.0
  0
LINE
  8
0
 62
     0
 10
26.6256
 20
35.4787
 30
0.0
 11
30.794
 21
35.6892
 31
0.0
  0
LINE
  8
0
 62
     0
 10
30.794
 20
35.6892
 30
0.0
 11
47.4561
 21
35.6892
 31
0.0
  0
LINE
  8
0
 62
     0
 10
51.6246
 20
35.4787
 30
0.0
 11
47.4561
 21
31.9372
 31
0.0
  0
LINE
  8
0
 62
     0
 10
26.6256
 20
31.3138
 30
0.0
 11
30.794
 21
31.9372
 31
0.0
  0
LINE
  8
0
 62
     0
 10
30.794
 20
31.9372
 30
0.0
 11
28.7942
 21
34.4368
 31
0.0
  0
LINE
  8
0
 62
     0
 10
28.7942
 20
34.4368
 30
0.0
 11
32.7937
 21
34.4368
 31
0.0
  0
LINE
  8
0
 62
     0
 10
32.7937
 20
34.4368
 30
0.0
 11
30.794
 21
31.9372
 31
0.0
  0
LINE
  8
0
 62
     0
 10
30.794
 20
31.9372
 30
0.0
 11
39.1261
 21
31.3138
 31
0.0
  0
LINE
  8
0
 62
     0
 10
39.1261
 20
31.3138
 30
0.0
 11
47.4561
 21
30.5315
 31
0.0
  0
LINE
  8
0
 62
     0
 10
47.4561
 20
30.5315
 30
0.0
 11
51.6246
 21
31.3138
 31
0.0
  0
LINE
  8
0
 62
     0
 10
26.6256
 20
27.1453
 30
0.0
 11
39.1261
 21
27.1453
 31
0.0
  0
LINE
  8
0
 62
     0
 10
39.1261
 20
27.1453
 30
0.0
 11
44.2039
 21
29.0675
 31
0.0
  0
LINE
  8
0
 62
     0
 10
44.2039
 20
29.0675
 30
0.0
 11
42.2058
 21
26.5681
 31
0.0
  0
LINE
  8
0
 62
     0
 10
42.2058
 20
26.5681
 30
0.0
 11
46.2056
 21
26.5681
 31
0.0
  0
LINE
  8
0
 62
     0
 10
46.2056
 20
26.5681
 30
0.0
 11
44.2039
 21
29.0675
 31
0.0
  0
LINE
  8
0
 62
     0
 10
44.2039
 20
29.0675
 30
0.0
 11
51.6246
 21
27.1453
 31
0.0
  0
LINE
  8
0
 62
     7
 10
51.6246
 20
50.0618
 30
0.0
 11
76.6256
 21
50.0618
 31
0.0
  0
LINE
  8
0
 62
     7
 10
76.6256
 20
50.0618
 30
0.0
 11
76.6256
 21
25.0626
 31
0.0
  0
LINE
  8
0
 62
     7
 10
76.6256
 20
25.0626
 30
0.0
 11
51.6246
 21
25.0626
 31
0.0
  0
LINE
  8
0
 62
     7
 10
51.6246
 20
25.0626
 30
0.0
 11
51.6246
 21
50.0618
 31
0.0
  0
LINE
  8
0
 62
     0
 10
51.6246
 20
43.8122
 30
0.0
 11
55.7932
 21
43.1874
 31
0.0
  0
LINE
  8
0
 62
     0
 10
76.626
 20
43.8122
 30
0.0
 11
72.4571
 21
43.1874
 31
0.0
  0
LINE
  8
0
 62
     0
 10
51.6246
 20
39.6456
 30
0.0
 11
55.7932
 21
39.4374
 31
0.0
  0
LINE
  8
0
 62
     0
 10
76.626
 20
39.6456
 30
0.0
 11
72.4571
 21
39.4374
 31
0.0
  0
LINE
  8
0
 62
     0
 10
51.6246
 20
47.9794
 30
0.0
 11
76.626
 21
47.9794
 31
0.0
  0
LINE
  8
0
 62
     0
 10
51.6246
 20
35.4787
 30
0.0
 11
55.7932
 21
35.6892
 31
0.0
  0
LINE
  8
0
 62
     0
 10
55.7932
 20
35.6892
 30
0.0
 11
72.4571
 21
35.6892
 31
0.0
  0
LINE
  8
0
 62
     0
 10
76.626
 20
35.4787
 30
0.0
 11
72.4571
 21
31.9372
 31
0.0
  0
LINE
  8
0
 62
     0
 10
51.6246
 20
31.3138
 30
0.0
 11
55.7932
 21
31.9372
 31
0.0
  0
LINE
  8
0
 62
     0
 10
55.7932
 20
31.9372
 30
0.0
 11
53.7933
 21
34.4368
 31
0.0
  0
LINE
  8
0
 62
     0
 10
53.7933
 20
34.4368
 30
0.0
 11
57.7947
 21
34.4368
 31
0.0
  0
LINE
  8
0
 62
     0
 10
57.7947
 20
34.4368
 30
0.0
 11
55.7932
 21
31.9372
 31
0.0
  0
LINE
  8
0
 62
     0
 10
55.7932
 20
31.9372
 30
0.0
 11
64.1253
 21
31.3138
 31
0.0
  0
LINE
  8
0
 62
     0
 10
64.1253
 20
31.3138
 30
0.0
 11
72.4571
 21
30.5315
 31
0.0
  0
LINE
  8
0
 62
     0
 10
72.4571
 20
30.5315
 30
0.0
 11
76.626
 21
31.3138
 31
0.0
  0
LINE
  8
0
 62
     0
 10
51.6246
 20
27.1453
 30
0.0
 11
64.1253
 21
27.1453
 31
0.0
  0
LINE
  8
0
 62
     0
 10
64.1253
 20
27.1453
 30
0.0
 11
69.2053
 21
29.0675
 31
0.0
  0
LINE
  8
0
 62
     0
 10
69.2053
 20
29.0675
 30
0.0
 11
67.205
 21
26.5681
 31
0.0
  0
LINE
  8
0
 62
     0
 10
67.205
 20
26.5681
 30
0.0
 11
71.2051
 21
26.5681
 31
0.0
  0
LINE
  8
0
 62
     0
 10
71.2051
 20
26.5681
 30
0.0
 11
69.2053
 21
29.0675
 31
0.0
  0
LINE
  8
0
 62
     0
 10
69.2053
 20
29.0675
 30
0.0
 11
76.626
 21
27.1453
 31
0.0
  0
LINE
  8
0
 62
     7
 10
76.626
 20
50.0618
 30
0.0
 11
101.625
 21
50.0618
 31
0.0
  0
LINE
  8
0
 62
     7
 10
101.625
 20
50.0618
 30
0.0
 11
101.625
 21
25.0626
 31
0.0
  0
LINE
  8
0
 62
     7
 10
101.625
 20
25.0626
 30
0.0
 11
76.626
 21
25.0626
 31
0.0
  0
LINE
  8
0
 62
     7
 10
76.626
 20
25.0626
 30
0.0
 11
76.626
 21
50.0618
 31
0.0
  0
LINE
  8
0
 62
     0
 10
76.626
 20
43.8122
 30
0.0
 11
80.7944
 21
43.1874
 31
0.0
  0
LINE
  8
0
 62
     0
 10
101.625
 20
43.8122
 30
0.0
 11
97.4567
 21
43.1874
 31
0.0
  0
LINE
  8
0
 62
     0
 10
76.626
 20
39.6456
 30
0.0
 11
80.7944
 21
39.4374
 31
0.0
  0
LINE
  8
0
 62
     0
 10
101.625
 20
39.6456
 30
0.0
 11
97.4567
 21
39.4374
 31
0.0
  0
LINE
  8
0
 62
     0
 10
76.626
 20
47.9794
 30
0.0
 11
101.625
 21
47.9794
 31
0.0
  0
LINE
  8
0
 62
     0
 10
76.626
 20
35.4787
 30
0.0
 11
80.7944
 21
35.6892
 31
0.0
  0
LINE
  8
0
 62
     0
 10
80.7944
 20
35.6892
 30
0.0
 11
97.4567
 21
35.6892
 31
0.0
  0
LINE
  8
0
 62
     0
 10
101.625
 20
35.4787
 30
0.0
 11
97.4567
 21
31.9372
 31
0.0
  0
LINE
  8
0
 62
     0
 10
76.626
 20
31.3138
 30
0.0
 11
80.7944
 21
31.9372
 31
0.0
  0
LINE
  8
0
 62
     0
 10
80.7944
 20
31.9372
 30
0.0
 11
78.7947
 21
34.4368
 31
0.0
  0
LINE
  8
0
 62
     0
 10
78.7947
 20
34.4368
 30
0.0
 11
82.7943
 21
34.4368
 31
0.0
  0
LINE
  8
0
 62
     0
 10
82.7943
 20
34.4368
 30
0.0
 11
80.7944
 21
31.9372
 31
0.0
  0
LINE
  8
0
 62
     0
 10
80.7944
 20
31.9372
 30
0.0
 11
89.1244
 21
31.3138
 31
0.0
  0
LINE
  8
0
 62
     0
 10
89.1244
 20
31.3138
 30
0.0
 11
97.4567
 21
30.5315
 31
0.0
  0
LINE
  8
0
 62
     0
 10
97.4567
 20
30.5315
 30
0.0
 11
101.625
 21
31.3138
 31
0.0
  0
LINE
  8
0
 62
     0
 10
76.626
 20
27.1453
 30
0.0
 11
89.1244
 21
27.1453
 31
0.0
  0
LINE
  8
0
 62
     0
 10
89.1244
 20
27.1453
 30
0.0
 11
94.2044
 21
29.0675
 31
0.0
  0
LINE
  8
0
 62
     0
 10
94.2044
 20
29.0675
 30
0.0
 11
92.2046
 21
26.5681
 31
0.0
  0
LINE
  8
0
 62
     0
 10
92.2046
 20
26.5681
 30
0.0
 11
96.2061
 21
26.5681
 31
0.0
  0
LINE
  8
0
 62
     0
 10
96.2061
 20
26.5681
 30
0.0
 11
94.2044
 21
29.0675
 31
0.0
  0
LINE
  8
0
 62
     0
 10
94.2044
 20
29.0675
 30
0.0
 11
101.625
 21
27.1453
 31
0.0
  0
LINE
  8
0
 62
     7
 10
101.625
 20
50.0618
 30
0.0
 11
126.626
 21
50.0618
 31
0.0
  0
LINE
  8
0
 62
     7
 10
126.626
 20
50.0618
 30
0.0
 11
126.626
 21
25.0626
 31
0.0
  0
LINE
  8
0
 62
     7
 10
126.626
 20
25.0626
 30
0.0
 11
101.625
 21
25.0626
 31
0.0
  0
LINE
  8
0
 62
     7
 10
101.625
 20
25.0626
 30
0.0
 11
101.625
 21
50.0618
 31
0.0
  0
LINE
  8
0
 62
     0
 10
101.625
 20
43.8122
 30
0.0
 11
105.794
 21
43.1874
 31
0.0
  0
LINE
  8
0
 62
     0
 10
126.626
 20
43.8122
 30
0.0
 11
122.458
 21
43.1874
 31
0.0
  0
LINE
  8
0
 62
     0
 10
101.625
 20
39.6456
 30
0.0
 11
105.794
 21
39.4374
 31
0.0
  0
LINE
  8
0
 62
     0
 10
126.626
 20
39.6456
 30
0.0
 11
122.458
 21
39.4374
 31
0.0
  0
LINE
  8
0
 62
     0
 10
101.625
 20
47.9794
 30
0.0
 11
126.626
 21
47.9794
 31
0.0
  0
LINE
  8
0
 62
     0
 10
101.625
 20
35.4787
 30
0.0
 11
105.794
 21
35.6892
 31
0.0
  0
LINE
  8
0
 62
     0
 10
105.794
 20
35.6892
 30
0.0
 11
122.458
 21
35.6892
 31
0.0
  0
LINE
  8
0
 62
     0
 10
126.626
 20
35.4787
 30
0.0
 11
122.458
 21
31.9372
 31
0.0
  0
LINE
  8
0
 62
     0
 10
101.625
 20
31.3138
 30
0.0
 11
105.794
 21
31.9372
 31
0.0
  0
LINE
  8
0
 62
     0
 10
105.794
 20
31.9372
 30
0.0
 11
103.794
 21
34.4368
 31
0.0
  0
LINE
  8
0
 62
     0
 10
103.794
 20
34.4368
 30
0.0
 11
107.795
 21
34.4368
 31
0.0
  0
LINE
  8
0
 62
     0
 10
107.795
 20
34.4368
 30
0.0
 11
105.794
 21
31.9372
 31
0.0
  0
LINE
  8
0
 62
     0
 10
105.794
 20
31.9372
 30
0.0
 11
114.126
 21
31.3138
 31
0.0
  0
LINE
  8
0
 62
     0
 10
114.126
 20
31.3138
 30
0.0
 11
122.458
 21
30.5315
 31
0.0
  0
LINE
  8
0
 62
     0
 10
122.458
 20
30.5315
 30
0.0
 11
126.626
 21
31.3138
 31
0.0
  0
LINE
  8
0
 62
     0
 10
101.625
 20
27.1453
 30
0.0
 11
114.126
 21
27.1453
 31
0.0
  0
LINE
  8
0
 62
     0
 10
114.126
 20
27.1453
 30
0.0
 11
119.205
 21
29.0675
 31
0.0
  0
LINE
  8
0
 62
     0
 10
119.205
 20
29.0675
 30
0.0
 11
117.206
 21
26.5681
 31
0.0
  0
LINE
  8
0
 62
     0
 10
117.206
 20
26.5681
 30
0.0
 11
121.205
 21
26.5681
 31
0.0
  0
LINE
  8
0
 62
     0
 10
121.205
 20
26.5681
 30
0.0
 11
119.205
 21
29.0675
 31
0.0
  0
LINE
  8
0
 62
     0
 10
119.205
 20
29.0675
 30
0.0
 11
126.626
 21
27.1453
 31
0.0
  0
LINE
  8
0
 62
     7
 10
126.624
 20
50.0618
 30
0.0
 11
151.625
 21
50.0618
 31
0.0
  0
LINE
  8
0
 62
     7
 10
151.625
 20
50.0618
 30
0.0
 11
151.625
 21
25.0626
 31
0.0
  0
LINE
  8
0
 62
     7
 10
151.625
 20
25.0626
 30
0.0
 11
126.624
 21
25.0626
 31
0.0
  0
LINE
  8
0
 62
     7
 10
126.624
 20
25.0626
 30
0.0
 11
126.624
 21
50.0618
 31
0.0
  0
LINE
  8
0
 62
     0
 10
126.624
 20
43.8122
 30
0.0
 11
130.793
 21
43.1874
 31
0.0
  0
LINE
  8
0
 62
     0
 10
126.624
 20
39.6456
 30
0.0
 11
130.793
 21
39.4374
 31
0.0
  0
LINE
  8
0
 62
     0
 10
126.624
 20
47.9794
 30
0.0
 11
151.625
 21
47.9794
 31
0.0
  0
LINE
  8
0
 62
     0
 10
151.625
 20
47.9794
 30
0.0
 11
151.625
 21
35.4787
 31
0.0
  0
LINE
  8
0
 62
     0
 10
126.624
 20
35.4787
 30
0.0
 11
130.793
 21
35.6892
 31
0.0
  0
LINE
  8
0
 62
     0
 10
130.793
 20
35.6892
 30
0.0
 11
147.457
 21
35.6892
 31
0.0
  0
LINE
  8
0
 62
     0
 10
151.625
 20
35.4787
 30
0.0
 11
147.457
 21
31.9372
 31
0.0
  0
LINE
  8
0
 62
     0
 10
126.624
 20
31.3138
 30
0.0
 11
130.793
 21
31.9372
 31
0.0
  0
LINE
  8
0
 62
     0
 10
126.624
 20
27.1453
 30
0.0
 11
139.125
 21
27.1453
 31
0.0
  0
LINE
  8
0
 62
     0
 10
139.125
 20
27.1453
 30
0.0
 11
144.206
 21
29.0675
 31
0.0
  0
LINE
  8
0
 62
     7
 10
1.62457
 20
25.0626
 30
0.0
 11
26.6256
 21
25.0626
 31
0.0
  0
LINE
  8
0
 62
     7
 10
26.6256
 20
25.0626
 30
0.0
 11
26.6256
 21
0.0617404
 31
0.0
  0
LINE
  8
0
 62
     7
 10
26.6256
 20
0.0617404
 30
0.0
 11
1.62457
 21
0.0617404
 31
0.0
  0
LINE
  8
0
 62
     7
 10
1.62457
 20
0.0617404
 30
0.0
 11
1.62457
 21
25.0626
 31
0.0
  0
LINE
  8
0
 62
     0
 10
20.3743
 20
25.0625
 30
0.0
 11
20.3743
 21
18.8131
 31
0.0
  0
LINE
  8
0
 62
     0
 10
20.3743
 20
18.8131
 30
0.0
 11
26.6256
 21
18.8131
 31
0.0
  0
LINE
  8
0
 62
     0
 10
16.2093
 20
25.0625
 30
0.0
 11
16.2093
 21
14.6464
 31
0.0
  0
LINE
  8
0
 62
     0
 10
16.2093
 20
14.6464
 30
0.0
 11
26.6256
 21
14.6464
 31
0.0
  0
LINE
  8
0
 62
     0
 10
26.6256
 20
22.9781
 30
0.0
 11
24.541
 21
22.9781
 31
0.0
  0
LINE
  8
0
 62
     0
 10
24.541
 20
22.9781
 30
0.0
 11
24.541
 21
25.0625
 31
0.0
  0
LINE
  8
0
 62
     0
 10
12.0425
 20
25.0625
 30
0.0
 11
12.0425
 21
10.4796
 31
0.0
  0
LINE
  8
0
 62
     0
 10
12.0425
 20
10.4796
 30
0.0
 11
26.6256
 21
10.4796
 31
0.0
  0
LINE
  8
0
 62
     0
 10
7.87354
 20
25.0625
 30
0.0
 11
7.87354
 21
6.31239
 31
0.0
  0
LINE
  8
0
 62
     0
 10
7.87354
 20
6.31239
 30
0.0
 11
26.6256
 21
6.31239
 31
0.0
  0
LINE
  8
0
 62
     0
 10
3.70856
 20
25.0625
 30
0.0
 11
3.70856
 21
2.14567
 31
0.0
  0
LINE
  8
0
 62
     0
 10
3.70856
 20
2.14567
 30
0.0
 11
26.6256
 21
2.14567
 31
0.0
  0
LINE
  8
0
 62
     7
 10
26.6256
 20
25.0626
 30
0.0
 11
51.6246
 21
25.0626
 31
0.0
  0
LINE
  8
0
 62
     7
 10
51.6246
 20
25.0626
 30
0.0
 11
51.6246
 21
0.0617404
 31
0.0
  0
LINE
  8
0
 62
     7
 10
51.6246
 20
0.0617404
 30
0.0
 11
26.6256
 21
0.0617404
 31
0.0
  0
LINE
  8
0
 62
     7
 10
26.6256
 20
0.0617404
 30
0.0
 11
26.6256
 21
25.0626
 31
0.0
  0
LINE
  8
0
 62
     0
 10
26.6256
 20
18.8131
 30
0.0
 11
30.794
 21
18.1878
 31
0.0
  0
LINE
  8
0
 62
     0
 10
51.6246
 20
18.8131
 30
0.0
 11
47.4561
 21
18.1878
 31
0.0
  0
LINE
  8
0
 62
     0
 10
26.6256
 20
14.6464
 30
0.0
 11
30.794
 21
14.4378
 31
0.0
  0
LINE
  8
0
 62
     0
 10
51.6246
 20
14.6464
 30
0.0
 11
47.4561
 21
14.4378
 31
0.0
  0
LINE
  8
0
 62
     0
 10
26.6256
 20
22.9781
 30
0.0
 11
51.6246
 21
22.9781
 31
0.0
  0
LINE
  8
0
 62
     0
 10
26.6256
 20
10.4796
 30
0.0
 11
30.794
 21
10.6877
 31
0.0
  0
LINE
  8
0
 62
     0
 10
30.794
 20
10.6877
 30
0.0
 11
47.4561
 21
10.6877
 31
0.0
  0
LINE
  8
0
 62
     0
 10
51.6246
 20
10.4796
 30
0.0
 11
47.4561
 21
6.93772
 31
0.0
  0
LINE
  8
0
 62
     0
 10
26.6256
 20
6.31239
 30
0.0
 11
30.794
 21
6.93772
 31
0.0
  0
LINE
  8
0
 62
     0
 10
30.794
 20
6.93772
 30
0.0
 11
28.7942
 21
9.43713
 31
0.0
  0
LINE
  8
0
 62
     0
 10
28.7942
 20
9.43713
 30
0.0
 11
32.7937
 21
9.43713
 31
0.0
  0
LINE
  8
0
 62
     0
 10
32.7937
 20
9.43713
 30
0.0
 11
30.794
 21
6.93772
 31
0.0
  0
LINE
  8
0
 62
     0
 10
30.794
 20
6.93772
 30
0.0
 11
39.1261
 21
6.31239
 31
0.0
  0
LINE
  8
0
 62
     0
 10
39.1261
 20
6.31239
 30
0.0
 11
47.4561
 21
5.53233
 31
0.0
  0
LINE
  8
0
 62
     0
 10
47.4561
 20
5.53233
 30
0.0
 11
51.6246
 21
6.31239
 31
0.0
  0
LINE
  8
0
 62
     0
 10
26.6256
 20
2.14567
 30
0.0
 11
39.1261
 21
2.14567
 31
0.0
  0
LINE
  8
0
 62
     0
 10
39.1261
 20
2.14567
 30
0.0
 11
44.2039
 21
4.06831
 31
0.0
  0
LINE
  8
0
 62
     0
 10
44.2039
 20
4.06831
 30
0.0
 11
42.2058
 21
1.56885
 31
0.0
  0
LINE
  8
0
 62
     0
 10
42.2058
 20
1.56885
 30
0.0
 11
46.2056
 21
1.56885
 31
0.0
  0
LINE
  8
0
 62
     0
 10
46.2056
 20
1.56885
 30
0.0
 11
44.2039
 21
4.06831
 31
0.0
  0
LINE
  8
0
 62
     0
 10
44.2039
 20
4.06831
 30
0.0
 11
51.6246
 21
2.14567
 31
0.0
  0
LINE
  8
0
 62
     7
 10
51.6246
 20
25.0626
 30
0.0
 11
76.6256
 21
25.0626
 31
0.0
  0
LINE
  8
0
 62
     7
 10
76.6256
 20
25.0626
 30
0.0
 11
76.6256
 21
0.0617404
 31
0.0
  0
LINE
  8
0
 62
     7
 10
76.6256
 20
0.0617404
 30
0.0
 11
51.6246
 21
0.0617404
 31
0.0
  0
LINE
  8
0
 62
     7
 10
51.6246
 20
0.0617404
 30
0.0
 11
51.6246
 21
25.0626
 31
0.0
  0
LINE
  8
0
 62
     0
 10
51.6246
 20
18.8131
 30
0.0
 11
55.7932
 21
18.1878
 31
0.0
  0
LINE
  8
0
 62
     0
 10
76.626
 20
18.8131
 30
0.0
 11
72.4571
 21
18.1878
 31
0.0
  0
LINE
  8
0
 62
     0
 10
51.6246
 20
14.6464
 30
0.0
 11
55.7932
 21
14.4378
 31
0.0
  0
LINE
  8
0
 62
     0
 10
76.626
 20
14.6464
 30
0.0
 11
72.4571
 21
14.4378
 31
0.0
  0
LINE
  8
0
 62
     0
 10
51.6246
 20
22.9781
 30
0.0
 11
76.626
 21
22.9781
 31
0.0
  0
LINE
  8
0
 62
     0
 10
51.6246
 20
10.4796
 30
0.0
 11
55.7932
 21
10.6877
 31
0.0
  0
LINE
  8
0
 62
     0
 10
55.7932
 20
10.6877
 30
0.0
 11
72.4571
 21
10.6877
 31
0.0
  0
LINE
  8
0
 62
     0
 10
76.626
 20
10.4796
 30
0.0
 11
72.4571
 21
6.93772
 31
0.0
  0
LINE
  8
0
 62
     0
 10
51.6246
 20
6.31239
 30
0.0
 11
55.7932
 21
6.93772
 31
0.0
  0
LINE
  8
0
 62
     0
 10
55.7932
 20
6.93772
 30
0.0
 11
53.7933
 21
9.43713
 31
0.0
  0
LINE
  8
0
 62
     0
 10
53.7933
 20
9.43713
 30
0.0
 11
57.7947
 21
9.43713
 31
0.0
  0
LINE
  8
0
 62
     0
 10
57.7947
 20
9.43713
 30
0.0
 11
55.7932
 21
6.93772
 31
0.0
  0
LINE
  8
0
 62
     0
 10
55.7932
 20
6.93772
 30
0.0
 11
64.1253
 21
6.31239
 31
0.0
  0
LINE
  8
0
 62
     0
 10
64.1253
 20
6.31239
 30
0.0
 11
72.4571
 21
5.53233
 31
0.0
  0
LINE
  8
0
 62
     0
 10
72.4571
 20
5.53233
 30
0.0
 11
76.626
 21
6.31239
 31
0.0
  0
LINE
  8
0
 62
     0
 10
51.6246
 20
2.14567
 30
0.0
 11
64.1253
 21
2.14567
 31
0.0
  0
LINE
  8
0
 62
     0
 10
64.1253
 20
2.14567
 30
0.0
 11
69.2053
 21
4.06831
 31
0.0
  0
LINE
  8
0
 62
     0
 10
69.2053
 20
4.06831
 30
0.0
 11
67.205
 21
1.56885
 31
0.0
  0
LINE
  8
0
 62
     0
 10
67.205
 20
1.56885
 30
0.0
 11
71.2051
 21
1.56885
 31
0.0
  0
LINE
  8
0
 62
     0
 10
71.2051
 20
1.56885
 30
0.0
 11
69.2053
 21
4.06831
 31
0.0
  0
LINE
  8
0
 62
     0
 10
69.2053
 20
4.06831
 30
0.0
 11
76.626
 21
2.14567
 31
0.0
  0
LINE
  8
0
 62
     7
 10
76.626
 20
25.0626
 30
0.0
 11
101.625
 21
25.0626
 31
0.0
  0
LINE
  8
0
 62
     7
 10
101.625
 20
25.0626
 30
0.0
 11
101.625
 21
0.0617404
 31
0.0
  0
LINE
  8
0
 62
     7
 10
101.625
 20
0.0617404
 30
0.0
 11
76.626
 21
0.0617404
 31
0.0
  0
LINE
  8
0
 62
     7
 10
76.626
 20
0.0617404
 30
0.0
 11
76.626
 21
25.0626
 31
0.0
  0
LINE
  8
0
 62
     0
 10
76.626
 20
18.8131
 30
0.0
 11
80.7944
 21
18.1878
 31
0.0
  0
LINE
  8
0
 62
     0
 10
101.625
 20
18.8131
 30
0.0
 11
97.4567
 21
18.1878
 31
0.0
  0
LINE
  8
0
 62
     0
 10
76.626
 20
14.6464
 30
0.0
 11
80.7944
 21
14.4378
 31
0.0
  0
LINE
  8
0
 62
     0
 10
101.625
 20
14.6464
 30
0.0
 11
97.4567
 21
14.4378
 31
0.0
  0
LINE
  8
0
 62
     0
 10
76.626
 20
22.9781
 30
0.0
 11
101.625
 21
22.9781
 31
0.0
  0
LINE
  8
0
 62
     0
 10
76.626
 20
10.4796
 30
0.0
 11
80.7944
 21
10.6877
 31
0.0
  0
LINE
  8
0
 62
     0
 10
80.7944
 20
10.6877
 30
0.0
 11
97.4567
 21
10.6877
 31
0.0
  0
LINE
  8
0
 62
     0
 10
101.625
 20
10.4796
 30
0.0
 11
97.4567
 21
6.93772
 31
0.0
  0
LINE
  8
0
 62
     0
 10
76.626
 20
6.31239
 30
0.0
 11
80.7944
 21
6.93772
 31
0.0
  0
LINE
  8
0
 62
     0
 10
80.7944
 20
6.93772
 30
0.0
 11
78.7947
 21
9.43713
 31
0.0
  0
LINE
  8
0
 62
     0
 10
78.7947
 20
9.43713
 30
0.0
 11
82.7943
 21
9.43713
 31
0.0
  0
LINE
  8
0
 62
     0
 10
82.7943
 20
9.43713
 30
0.0
 11
80.7944
 21
6.93772
 31
0.0
  0
LINE
  8
0
 62
     0
 10
80.7944
 20
6.93772
 30
0.0
 11
89.1244
 21
6.31239
 31
0.0
  0
LINE
  8
0
 62
     0
 10
89.1244
 20
6.31239
 30
0.0
 11
97.4567
 21
5.53233
 31
0.0
  0
LINE
  8
0
 62
     0
 10
97.4567
 20
5.53233
 30
0.0
 11
101.625
 21
6.31239
 31
0.0
  0
LINE
  8
0
 62
     0
 10
76.626
 20
2.14567
 30
0.0
 11
89.1244
 21
2.14567
 31
0.0
  0
LINE
  8
0
 62
     0
 10
89.1244
 20
2.14567
 30
0.0
 11
94.2044
 21
4.06831
 31
0.0
  0
LINE
  8
0
 62
     0
 10
94.2044
 20
4.06831
 30
0.0
 11
92.2046
 21
1.56885
 31
0.0
  0
LINE
  8
0
 62
     0
 10
92.2046
 20
1.56885
 30
0.0
 11
96.2061
 21
1.56885
 31
0.0
  0
LINE
  8
0
 62
     0
 10
96.2061
 20
1.56885
 30
0.0
 11
94.2044
 21
4.06831
 31
0.0
  0
LINE
  8
0
 62
     0
 10
94.2044
 20
4.06831
 30
0.0
 11
101.625
 21
2.14567
 31
0.0
  0
LINE
  8
0
 62
     7
 10
101.625
 20
25.0626
 30
0.0
 11
126.626
 21
25.0626
 31
0.0
  0
LINE
  8
0
 62
     7
 10
126.626
 20
25.0626
 30
0.0
 11
126.626
 21
0.0617404
 31
0.0
  0
LINE
  8
0
 62
     7
 10
126.626
 20
0.0617404
 30
0.0
 11
101.625
 21
0.0617404
 31
0.0
  0
LINE
  8
0
 62
     7
 10
101.625
 20
0.0617404
 30
0.0
 11
101.625
 21
25.0626
 31
0.0
  0
LINE
  8
0
 62
     0
 10
101.625
 20
18.8131
 30
0.0
 11
105.794
 21
18.1878
 31
0.0
  0
LINE
  8
0
 62
     0
 10
126.626
 20
18.8131
 30
0.0
 11
122.458
 21
18.1878
 31
0.0
  0
LINE
  8
0
 62
     0
 10
101.625
 20
14.6464
 30
0.0
 11
105.794
 21
14.4378
 31
0.0
  0
LINE
  8
0
 62
     0
 10
126.626
 20
14.6464
 30
0.0
 11
122.458
 21
14.4378
 31
0.0
  0
LINE
  8
0
 62
     0
 10
101.625
 20
22.9781
 30
0.0
 11
126.626
 21
22.9781
 31
0.0
  0
LINE
  8
0
 62
     0
 10
101.625
 20
10.4796
 30
0.0
 11
105.794
 21
10.6877
 31
0.0
  0
LINE
  8
0
 62
     0
 10
105.794
 20
10.6877
 30
0.0
 11
122.458
 21
10.6877
 31
0.0
  0
LINE
  8
0
 62
     0
 10
126.626
 20
10.4796
 30
0.0
 11
122.458
 21
6.93772
 31
0.0
  0
LINE
  8
0
 62
     0
 10
101.625
 20
6.31239
 30
0.0
 11
105.794
 21
6.93772
 31
0.0
  0
LINE
  8
0
 62
     0
 10
105.794
 20
6.93772
 30
0.0
 11
103.794
 21
9.43713
 31
0.0
  0
LINE
  8
0
 62
     0
 10
103.794
 20
9.43713
 30
0.0
 11
107.795
 21
9.43713
 31
0.0
  0
LINE
  8
0
 62
     0
 10
107.795
 20
9.43713
 30
0.0
 11
105.794
 21
6.93772
 31
0.0
  0
LINE
  8
0
 62
     0
 10
105.794
 20
6.93772
 30
0.0
 11
114.126
 21
6.31239
 31
0.0
  0
LINE
  8
0
 62
     0
 10
114.126
 20
6.31239
 30
0.0
 11
122.458
 21
5.53233
 31
0.0
  0
LINE
  8
0
 62
     0
 10
122.458
 20
5.53233
 30
0.0
 11
126.626
 21
6.31239
 31
0.0
  0
LINE
  8
0
 62
     0
 10
101.625
 20
2.14567
 30
0.0
 11
114.126
 21
2.14567
 31
0.0
  0
LINE
  8
0
 62
     0
 10
114.126
 20
2.14567
 30
0.0
 11
119.205
 21
4.06831
 31
0.0
  0
LINE
  8
0
 62
     0
 10
119.205
 20
4.06831
 30
0.0
 11
117.206
 21
1.56885
 31
0.0
  0
LINE
  8
0
 62
     0
 10
117.206
 20
1.56885
 30
0.0
 11
121.205
 21
1.56885
 31
0.0
  0
LINE
  8
0
 62
     0
 10
121.205
 20
1.56885
 30
0.0
 11
119.205
 21
4.06831
 31
0.0
  0
LINE
  8
0
 62
     0
 10
119.205
 20
4.06831
 30
0.0
 11
126.626
 21
2.14567
 31
0.0
  0
LINE
  8
0
 62
     7
 10
126.624
 20
25.0626
 30
0.0
 11
151.625
 21
25.0626
 31
0.0
  0
LINE
  8
0
 62
     7
 10
151.625
 20
25.0626
 30
0.0
 11
151.625
 21
0.0617404
 31
0.0
  0
LINE
  8
0
 62
     7
 10
151.625
 20
0.0617404
 30
0.0
 11
126.624
 21
0.0617404
 31
0.0
  0
LINE
  8
0
 62
     7
 10
126.624
 20
0.0617404
 30
0.0
 11
126.624
 21
25.0626
 31
0.0
  0
LINE
  8
0
 62
     0
 10
126.624
 20
18.8131
 30
0.0
 11
130.793
 21
18.1878
 31
0.0
  0
LINE
  8
0
 62
     0
 10
126.624
 20
14.6464
 30
0.0
 11
130.793
 21
14.4378
 31
0.0
  0
LINE
  8
0
 62
     0
 10
126.624
 20
22.9781
 30
0.0
 11
151.625
 21
22.9781
 31
0.0
  0
LINE
  8
0
 62
     0
 10
151.625
 20
22.9781
 30
0.0
 11
151.625
 21
10.4796
 31
0.0
  0
LINE
  8
0
 62
     0
 10
126.624
 20
10.4796
 30
0.0
 11
130.793
 21
10.6877
 31
0.0
  0
LINE
  8
0
 62
     0
 10
130.793
 20
10.6877
 30
0.0
 11
147.457
 21
10.6877
 31
0.0
  0
LINE
  8
0
 62
     0
 10
151.625
 20
10.4796
 30
0.0
 11
147.457
 21
6.93772
 31
0.0
  0
LINE
  8
0
 62
     0
 10
126.624
 20
6.31239
 30
0.0
 11
130.793
 21
6.93772
 31
0.0
  0
LINE
  8
0
 62
     0
 10
126.624
 20
2.14567
 30
0.0
 11
139.125
 21
2.14567
 31
0.0
  0
LINE
  8
0
 62
     0
 10
139.125
 20
2.14567
 30
0.0
 11
144.206
 21
4.06831
 31
0.0
  0
ENDSEC
  0
EOF
