<?xml version='1.0' encoding='ASCII' standalone='yes'?>
<svg xmlns="http://www.w3.org/2000/svg" version="1.1" width="225mm" height="25mm">
  <g>
    <g transform="translate(0, 0.0) scale(1)"><g id="surface13">
<path style=" stroke:none;fill-rule:nonzero;fill:rgb(100%,100%,100%);fill-opacity:1;" d="M 0 0 L 70.867188 0 L 70.867188 70.867188 L 0 70.867188 Z "/>
<path style="fill:none;stroke-width:0.05;stroke-linecap:round;stroke-linejoin:round;stroke:rgb(0%,0%,0%);stroke-opacity:1;stroke-miterlimit:10;" d="M 0.749984 0 L 0.749984 0.249976 L 1.000015 0.249976 M 0.583351 0 L 0.583351 0.416664 L 1.000015 0.416664 " transform="matrix(70.866142,0,0,70.866142,0,0)"/>
<path style="fill:none;stroke-width:0.02;stroke-linecap:round;stroke-linejoin:round;stroke:rgb(0%,0%,0%);stroke-opacity:1;stroke-miterlimit:10;" d="M 1.000015 0.0833437 L 0.916671 0.0833437 L 0.916671 0 M 0.416664 0 L 0.416664 0.583351 L 1.000015 0.583351 M 0.249976 0 L 0.249976 0.749984 L 1.000015 0.749984 M 0.0833437 0 L 0.0833437 0.916671 L 1.000015 0.916671 " transform="matrix(70.866142,0,0,70.866142,0,0)"/>
</g>
</g>
  </g>
  <g>
    <g transform="translate(70.8661417323, 0.0) scale(1)"><g id="surface1">
<path style=" stroke:none;fill-rule:nonzero;fill:rgb(100%,100%,100%);fill-opacity:1;" d="M 0 0 L 70.867188 0 L 70.867188 70.867188 L 0 70.867188 Z "/>
<path style="fill:none;stroke-width:0.05;stroke-linecap:round;stroke-linejoin:round;stroke:rgb(0%,0%,0%);stroke-opacity:1;stroke-miterlimit:10;" d="M 0 0.249976 L 0.166743 0.275001 M 1.000015 0.249976 L 0.833272 0.275001 M 0 0.416664 L 0.166743 0.424987 M 1.000015 0.416664 L 0.833272 0.424987 " transform="matrix(70.866142,0,0,70.866142,0,0)"/>
<path style="fill:none;stroke-width:0.02;stroke-linecap:round;stroke-linejoin:round;stroke:rgb(0%,0%,0%);stroke-opacity:1;stroke-miterlimit:10;" d="M 0 0.0833437 L 1.000015 0.0833437 M 0 0.583351 L 0.166743 0.574973 L 0.833272 0.574973 M 1.000015 0.583351 L 0.833272 0.725013 M 0 0.749984 L 0.166743 0.725013 L 0.0867613 0.625023 L 0.246779 0.625023 L 0.166743 0.725013 L 0.500007 0.749984 L 0.833272 0.781237 L 1.000015 0.749984 M 0 0.916671 L 0.500007 0.916671 L 0.703185 0.839776 L 0.623204 0.939767 L 0.783222 0.939767 L 0.703185 0.839776 L 1.000015 0.916671 " transform="matrix(70.866142,0,0,70.866142,0,0)"/>
</g>
</g>
  </g>
  <g>
    <g transform="translate(141.732283465, 0.0) scale(1)"><g id="surface1">
<path style=" stroke:none;fill-rule:nonzero;fill:rgb(100%,100%,100%);fill-opacity:1;" d="M 0 0 L 70.867188 0 L 70.867188 70.867188 L 0 70.867188 Z "/>
<path style="fill:none;stroke-width:0.05;stroke-linecap:round;stroke-linejoin:round;stroke:rgb(0%,0%,0%);stroke-opacity:1;stroke-miterlimit:10;" d="M 0 0.249976 L 0.166743 0.275001 M 1.000015 0.249976 L 0.833272 0.275001 M 0 0.416664 L 0.166743 0.424987 M 1.000015 0.416664 L 0.833272 0.424987 " transform="matrix(70.866142,0,0,70.866142,0,0)"/>
<path style="fill:none;stroke-width:0.02;stroke-linecap:round;stroke-linejoin:round;stroke:rgb(0%,0%,0%);stroke-opacity:1;stroke-miterlimit:10;" d="M 0 0.0833437 L 1.000015 0.0833437 M 0 0.583351 L 0.166743 0.574973 L 0.833272 0.574973 M 1.000015 0.583351 L 0.833272 0.725013 M 0 0.749984 L 0.166743 0.725013 L 0.0867613 0.625023 L 0.246779 0.625023 L 0.166743 0.725013 L 0.500007 0.749984 L 0.833272 0.781237 L 1.000015 0.749984 M 0 0.916671 L 0.500007 0.916671 L 0.703185 0.839776 L 0.623204 0.939767 L 0.783222 0.939767 L 0.703185 0.839776 L 1.000015 0.916671 " transform="matrix(70.866142,0,0,70.866142,0,0)"/>
</g>
</g>
  </g>
  <g>
    <g transform="translate(212.598425197, 0.0) scale(1)"><g id="surface1">
<path style=" stroke:none;fill-rule:nonzero;fill:rgb(100%,100%,100%);fill-opacity:1;" d="M 0 0 L 70.867188 0 L 70.867188 70.867188 L 0 70.867188 Z "/>
<path style="fill:none;stroke-width:0.05;stroke-linecap:round;stroke-linejoin:round;stroke:rgb(0%,0%,0%);stroke-opacity:1;stroke-miterlimit:10;" d="M 0 0.249976 L 0.166743 0.275001 M 1.000015 0.249976 L 0.833272 0.275001 M 0 0.416664 L 0.166743 0.424987 M 1.000015 0.416664 L 0.833272 0.424987 " transform="matrix(70.866142,0,0,70.866142,0,0)"/>
<path style="fill:none;stroke-width:0.02;stroke-linecap:round;stroke-linejoin:round;stroke:rgb(0%,0%,0%);stroke-opacity:1;stroke-miterlimit:10;" d="M 0 0.0833437 L 1.000015 0.0833437 M 0 0.583351 L 0.166743 0.574973 L 0.833272 0.574973 M 1.000015 0.583351 L 0.833272 0.725013 M 0 0.749984 L 0.166743 0.725013 L 0.0867613 0.625023 L 0.246779 0.625023 L 0.166743 0.725013 L 0.500007 0.749984 L 0.833272 0.781237 L 1.000015 0.749984 M 0 0.916671 L 0.500007 0.916671 L 0.703185 0.839776 L 0.623204 0.939767 L 0.783222 0.939767 L 0.703185 0.839776 L 1.000015 0.916671 " transform="matrix(70.866142,0,0,70.866142,0,0)"/>
</g>
</g>
  </g>
  <g>
    <g transform="translate(283.464566929, 0.0) scale(1)"><g id="surface1">
<path style=" stroke:none;fill-rule:nonzero;fill:rgb(100%,100%,100%);fill-opacity:1;" d="M 0 0 L 70.867188 0 L 70.867188 70.867188 L 0 70.867188 Z "/>
<path style="fill:none;stroke-width:0.05;stroke-linecap:round;stroke-linejoin:round;stroke:rgb(0%,0%,0%);stroke-opacity:1;stroke-miterlimit:10;" d="M 0 0.249976 L 0.166743 0.275001 M 1.000015 0.249976 L 0.833272 0.275001 M 0 0.416664 L 0.166743 0.424987 M 1.000015 0.416664 L 0.833272 0.424987 " transform="matrix(70.866142,0,0,70.866142,0,0)"/>
<path style="fill:none;stroke-width:0.02;stroke-linecap:round;stroke-linejoin:round;stroke:rgb(0%,0%,0%);stroke-opacity:1;stroke-miterlimit:10;" d="M 0 0.0833437 L 1.000015 0.0833437 M 0 0.583351 L 0.166743 0.574973 L 0.833272 0.574973 M 1.000015 0.583351 L 0.833272 0.725013 M 0 0.749984 L 0.166743 0.725013 L 0.0867613 0.625023 L 0.246779 0.625023 L 0.166743 0.725013 L 0.500007 0.749984 L 0.833272 0.781237 L 1.000015 0.749984 M 0 0.916671 L 0.500007 0.916671 L 0.703185 0.839776 L 0.623204 0.939767 L 0.783222 0.939767 L 0.703185 0.839776 L 1.000015 0.916671 " transform="matrix(70.866142,0,0,70.866142,0,0)"/>
</g>
</g>
  </g>
  <g>
    <g transform="translate(354.330708661, 0.0) scale(1)"><g id="surface1">
<path style=" stroke:none;fill-rule:nonzero;fill:rgb(100%,100%,100%);fill-opacity:1;" d="M 0 0 L 70.867188 0 L 70.867188 70.867188 L 0 70.867188 Z "/>
<path style="fill:none;stroke-width:0.05;stroke-linecap:round;stroke-linejoin:round;stroke:rgb(0%,0%,0%);stroke-opacity:1;stroke-miterlimit:10;" d="M 0 0.249976 L 0.166743 0.275001 M 1.000015 0.249976 L 0.833272 0.275001 M 0 0.416664 L 0.166743 0.424987 M 1.000015 0.416664 L 0.833272 0.424987 " transform="matrix(70.866142,0,0,70.866142,0,0)"/>
<path style="fill:none;stroke-width:0.02;stroke-linecap:round;stroke-linejoin:round;stroke:rgb(0%,0%,0%);stroke-opacity:1;stroke-miterlimit:10;" d="M 0 0.0833437 L 1.000015 0.0833437 M 0 0.583351 L 0.166743 0.574973 L 0.833272 0.574973 M 1.000015 0.583351 L 0.833272 0.725013 M 0 0.749984 L 0.166743 0.725013 L 0.0867613 0.625023 L 0.246779 0.625023 L 0.166743 0.725013 L 0.500007 0.749984 L 0.833272 0.781237 L 1.000015 0.749984 M 0 0.916671 L 0.500007 0.916671 L 0.703185 0.839776 L 0.623204 0.939767 L 0.783222 0.939767 L 0.703185 0.839776 L 1.000015 0.916671 " transform="matrix(70.866142,0,0,70.866142,0,0)"/>
</g>
</g>
  </g>
  <g>
    <g transform="translate(425.196850394, 0.0) scale(1)"><g id="surface1">
<path style=" stroke:none;fill-rule:nonzero;fill:rgb(100%,100%,100%);fill-opacity:1;" d="M 0 0 L 70.867188 0 L 70.867188 70.867188 L 0 70.867188 Z "/>
<path style="fill:none;stroke-width:0.05;stroke-linecap:round;stroke-linejoin:round;stroke:rgb(0%,0%,0%);stroke-opacity:1;stroke-miterlimit:10;" d="M 0 0.249976 L 0.166743 0.275001 M 1.000015 0.249976 L 0.833272 0.275001 M 0 0.416664 L 0.166743 0.424987 M 1.000015 0.416664 L 0.833272 0.424987 " transform="matrix(70.866142,0,0,70.866142,0,0)"/>
<path style="fill:none;stroke-width:0.02;stroke-linecap:round;stroke-linejoin:round;stroke:rgb(0%,0%,0%);stroke-opacity:1;stroke-miterlimit:10;" d="M 0 0.0833437 L 1.000015 0.0833437 M 0 0.583351 L 0.166743 0.574973 L 0.833272 0.574973 M 1.000015 0.583351 L 0.833272 0.725013 M 0 0.749984 L 0.166743 0.725013 L 0.0867613 0.625023 L 0.246779 0.625023 L 0.166743 0.725013 L 0.500007 0.749984 L 0.833272 0.781237 L 1.000015 0.749984 M 0 0.916671 L 0.500007 0.916671 L 0.703185 0.839776 L 0.623204 0.939767 L 0.783222 0.939767 L 0.703185 0.839776 L 1.000015 0.916671 " transform="matrix(70.866142,0,0,70.866142,0,0)"/>
</g>
</g>
  </g>
  <g>
    <g transform="translate(496.062992126, 0.0) scale(1)"><g id="surface5">
<path style=" stroke:none;fill-rule:nonzero;fill:rgb(100%,100%,100%);fill-opacity:1;" d="M 0 0 L 70.867188 0 L 70.867188 70.867188 L 0 70.867188 Z "/>
<path style="fill:none;stroke-width:0.05;stroke-linecap:round;stroke-linejoin:round;stroke:rgb(0%,0%,0%);stroke-opacity:1;stroke-miterlimit:10;" d="M 0 0.249976 L 0.166743 0.275001 M 0 0.416664 L 0.166743 0.424987 " transform="matrix(70.866142,0,0,70.866142,0,0)"/>
<path style="fill:none;stroke-width:0.02;stroke-linecap:round;stroke-linejoin:round;stroke:rgb(0%,0%,0%);stroke-opacity:1;stroke-miterlimit:10;" d="M 0 0.0833437 L 1.000015 0.0833437 L 1.000015 0.583351 M 0 0.583351 L 0.166743 0.574973 L 0.833272 0.574973 M 1.000015 0.583351 L 0.833272 0.725013 M 0 0.749984 L 0.166743 0.725013 M 0 0.916671 L 0.500007 0.916671 L 0.703185 0.839776 " transform="matrix(70.866142,0,0,70.866142,0,0)"/>
</g>
</g>
  </g>
</svg>
