<?xml version='1.0' encoding='ASCII' standalone='yes'?>
<svg xmlns="http://www.w3.org/2000/svg" version="1.1" width="250mm" height="200mm">
  <g>
    <g transform="translate(0, 0.0) scale(1)"><g id="surface37">
<path style=" stroke:none;fill-rule:nonzero;fill:rgb(100%,100%,100%);fill-opacity:1;" d="M 0 0 L 70.867188 0 L 70.867188 70.867188 L 0 70.867188 Z "/>
<path style="fill:none;stroke-width:0.02;stroke-linecap:round;stroke-linejoin:round;stroke:rgb(0%,0%,0%);stroke-opacity:1;stroke-miterlimit:10;" d="M 0.916671 0 L 0.916671 0.500007 L 1.000015 0.500007 M 0.0833437 0 L 0.0833437 0.214312 L 1.000015 0.214312 M 0.0833437 0.214312 L 0.0833437 1.000015 M 0.249976 0 L 0.249976 0.357132 L 1.000015 0.357132 M 0.249976 0.357132 L 0.249976 1.000015 M 0.416664 0 L 0.416664 0.642882 L 1.000015 0.642882 M 0.416664 0.642882 L 0.416664 1.000015 M 0.583351 0 L 0.583351 0.785702 L 1.000015 0.785702 M 0.583351 0.785702 L 0.583351 1.000015 M 0.749984 0 L 0.749984 1.000015 " transform="matrix(70.866142,0,0,70.866142,0,0)"/>
</g>
</g>
  </g>
  <g>
    <g transform="translate(637.795275591, 0.0) scale(1)"><g id="surface21">
<path style=" stroke:none;fill-rule:nonzero;fill:rgb(100%,100%,100%);fill-opacity:1;" d="M 0 0 L 70.867188 0 L 70.867188 70.867188 L 0 70.867188 Z "/>
<path style="fill:none;stroke-width:0.02;stroke-linecap:round;stroke-linejoin:round;stroke:rgb(0%,0%,0%);stroke-opacity:1;stroke-miterlimit:10;" d="M 0 0.500007 L 0.125016 0.500007 L 0.125016 1.000015 " transform="matrix(70.866142,0,0,70.866142,0,0)"/>
</g>
</g>
  </g>
  <g>
    <g transform="translate(70.8661417323, 0.0) scale(1)"><g id="surface5">
<path style=" stroke:none;fill-rule:nonzero;fill:rgb(100%,100%,100%);fill-opacity:1;" d="M 0 0 L 70.867188 0 L 70.867188 70.867188 L 0 70.867188 Z "/>
<path style="fill:none;stroke-width:0.02;stroke-linecap:round;stroke-linejoin:round;stroke:rgb(0%,0%,0%);stroke-opacity:1;stroke-miterlimit:10;" d="M 0 0.214312 L 0.166743 0.275001 M 1.000015 0.214312 L 0.833272 0.275001 M 0 0.357132 L 0.166743 0.424987 M 1.000015 0.357132 L 0.833272 0.424987 M 0 0.500007 L 0.166743 0.574973 L 0.550003 0.574973 L 0.699988 0.725013 L 0.833272 0.725013 M 1.000015 0.500007 L 0.833272 0.574973 M 0 0.642882 L 0.166743 0.725013 L 0.300026 0.725013 L 0.400017 0.642882 L 1.000015 0.642882 M 0 0.785702 L 0.166743 0.839776 L 0.833272 0.839776 L 1.000015 0.785702 " transform="matrix(70.866142,0,0,70.866142,0,0)"/>
</g>
</g>
  </g>
  <g>
    <g transform="translate(141.732283465, 0.0) scale(1)"><g id="surface5">
<path style=" stroke:none;fill-rule:nonzero;fill:rgb(100%,100%,100%);fill-opacity:1;" d="M 0 0 L 70.867188 0 L 70.867188 70.867188 L 0 70.867188 Z "/>
<path style="fill:none;stroke-width:0.02;stroke-linecap:round;stroke-linejoin:round;stroke:rgb(0%,0%,0%);stroke-opacity:1;stroke-miterlimit:10;" d="M 0 0.214312 L 0.166743 0.275001 M 1.000015 0.214312 L 0.833272 0.275001 M 0 0.357132 L 0.166743 0.424987 M 1.000015 0.357132 L 0.833272 0.424987 M 0 0.500007 L 0.166743 0.574973 L 0.550003 0.574973 L 0.699988 0.725013 L 0.833272 0.725013 M 1.000015 0.500007 L 0.833272 0.574973 M 0 0.642882 L 0.166743 0.725013 L 0.300026 0.725013 L 0.400017 0.642882 L 1.000015 0.642882 M 0 0.785702 L 0.166743 0.839776 L 0.833272 0.839776 L 1.000015 0.785702 " transform="matrix(70.866142,0,0,70.866142,0,0)"/>
</g>
</g>
  </g>
  <g>
    <g transform="translate(212.598425197, 0.0) scale(1)"><g id="surface5">
<path style=" stroke:none;fill-rule:nonzero;fill:rgb(100%,100%,100%);fill-opacity:1;" d="M 0 0 L 70.867188 0 L 70.867188 70.867188 L 0 70.867188 Z "/>
<path style="fill:none;stroke-width:0.02;stroke-linecap:round;stroke-linejoin:round;stroke:rgb(0%,0%,0%);stroke-opacity:1;stroke-miterlimit:10;" d="M 0 0.214312 L 0.166743 0.275001 M 1.000015 0.214312 L 0.833272 0.275001 M 0 0.357132 L 0.166743 0.424987 M 1.000015 0.357132 L 0.833272 0.424987 M 0 0.500007 L 0.166743 0.574973 L 0.550003 0.574973 L 0.699988 0.725013 L 0.833272 0.725013 M 1.000015 0.500007 L 0.833272 0.574973 M 0 0.642882 L 0.166743 0.725013 L 0.300026 0.725013 L 0.400017 0.642882 L 1.000015 0.642882 M 0 0.785702 L 0.166743 0.839776 L 0.833272 0.839776 L 1.000015 0.785702 " transform="matrix(70.866142,0,0,70.866142,0,0)"/>
</g>
</g>
  </g>
  <g>
    <g transform="translate(283.464566929, 0.0) scale(1)"><g id="surface5">
<path style=" stroke:none;fill-rule:nonzero;fill:rgb(100%,100%,100%);fill-opacity:1;" d="M 0 0 L 70.867188 0 L 70.867188 70.867188 L 0 70.867188 Z "/>
<path style="fill:none;stroke-width:0.02;stroke-linecap:round;stroke-linejoin:round;stroke:rgb(0%,0%,0%);stroke-opacity:1;stroke-miterlimit:10;" d="M 0 0.214312 L 0.166743 0.275001 M 1.000015 0.214312 L 0.833272 0.275001 M 0 0.357132 L 0.166743 0.424987 M 1.000015 0.357132 L 0.833272 0.424987 M 0 0.500007 L 0.166743 0.574973 L 0.550003 0.574973 L 0.699988 0.725013 L 0.833272 0.725013 M 1.000015 0.500007 L 0.833272 0.574973 M 0 0.642882 L 0.166743 0.725013 L 0.300026 0.725013 L 0.400017 0.642882 L 1.000015 0.642882 M 0 0.785702 L 0.166743 0.839776 L 0.833272 0.839776 L 1.000015 0.785702 " transform="matrix(70.866142,0,0,70.866142,0,0)"/>
</g>
</g>
  </g>
  <g>
    <g transform="translate(354.330708661, 0.0) scale(1)"><g id="surface5">
<path style=" stroke:none;fill-rule:nonzero;fill:rgb(100%,100%,100%);fill-opacity:1;" d="M 0 0 L 70.867188 0 L 70.867188 70.867188 L 0 70.867188 Z "/>
<path style="fill:none;stroke-width:0.02;stroke-linecap:round;stroke-linejoin:round;stroke:rgb(0%,0%,0%);stroke-opacity:1;stroke-miterlimit:10;" d="M 0 0.214312 L 0.166743 0.275001 M 1.000015 0.214312 L 0.833272 0.275001 M 0 0.357132 L 0.166743 0.424987 M 1.000015 0.357132 L 0.833272 0.424987 M 0 0.500007 L 0.166743 0.574973 L 0.550003 0.574973 L 0.699988 0.725013 L 0.833272 0.725013 M 1.000015 0.500007 L 0.833272 0.574973 M 0 0.642882 L 0.166743 0.725013 L 0.300026 0.725013 L 0.400017 0.642882 L 1.000015 0.642882 M 0 0.785702 L 0.166743 0.839776 L 0.833272 0.839776 L 1.000015 0.785702 " transform="matrix(70.866142,0,0,70.866142,0,0)"/>
</g>
</g>
  </g>
  <g>
    <g transform="translate(425.196850394, 0.0) scale(1)"><g id="surface5">
<path style=" stroke:none;fill-rule:nonzero;fill:rgb(100%,100%,100%);fill-opacity:1;" d="M 0 0 L 70.867188 0 L 70.867188 70.867188 L 0 70.867188 Z "/>
<path style="fill:none;stroke-width:0.02;stroke-linecap:round;stroke-linejoin:round;stroke:rgb(0%,0%,0%);stroke-opacity:1;stroke-miterlimit:10;" d="M 0 0.214312 L 0.166743 0.275001 M 1.000015 0.214312 L 0.833272 0.275001 M 0 0.357132 L 0.166743 0.424987 M 1.000015 0.357132 L 0.833272 0.424987 M 0 0.500007 L 0.166743 0.574973 L 0.550003 0.574973 L 0.699988 0.725013 L 0.833272 0.725013 M 1.000015 0.500007 L 0.833272 0.574973 M 0 0.642882 L 0.166743 0.725013 L 0.300026 0.725013 L 0.400017 0.642882 L 1.000015 0.642882 M 0 0.785702 L 0.166743 0.839776 L 0.833272 0.839776 L 1.000015 0.785702 " transform="matrix(70.866142,0,0,70.866142,0,0)"/>
</g>
</g>
  </g>
  <g>
    <g transform="translate(496.062992126, 0.0) scale(1)"><g id="surface5">
<path style=" stroke:none;fill-rule:nonzero;fill:rgb(100%,100%,100%);fill-opacity:1;" d="M 0 0 L 70.867188 0 L 70.867188 70.867188 L 0 70.867188 Z "/>
<path style="fill:none;stroke-width:0.02;stroke-linecap:round;stroke-linejoin:round;stroke:rgb(0%,0%,0%);stroke-opacity:1;stroke-miterlimit:10;" d="M 0 0.214312 L 0.166743 0.275001 M 1.000015 0.214312 L 0.833272 0.275001 M 0 0.357132 L 0.166743 0.424987 M 1.000015 0.357132 L 0.833272 0.424987 M 0 0.500007 L 0.166743 0.574973 L 0.550003 0.574973 L 0.699988 0.725013 L 0.833272 0.725013 M 1.000015 0.500007 L 0.833272 0.574973 M 0 0.642882 L 0.166743 0.725013 L 0.300026 0.725013 L 0.400017 0.642882 L 1.000015 0.642882 M 0 0.785702 L 0.166743 0.839776 L 0.833272 0.839776 L 1.000015 0.785702 " transform="matrix(70.866142,0,0,70.866142,0,0)"/>
</g>
</g>
  </g>
  <g>
    <g transform="translate(566.929133858, 0.0) scale(1)"><g id="surface5">
<path style=" stroke:none;fill-rule:nonzero;fill:rgb(100%,100%,100%);fill-opacity:1;" d="M 0 0 L 70.867188 0 L 70.867188 70.867188 L 0 70.867188 Z "/>
<path style="fill:none;stroke-width:0.02;stroke-linecap:round;stroke-linejoin:round;stroke:rgb(0%,0%,0%);stroke-opacity:1;stroke-miterlimit:10;" d="M 0 0.214312 L 0.166743 0.275001 M 1.000015 0.214312 L 0.833272 0.275001 M 0 0.357132 L 0.166743 0.424987 M 1.000015 0.357132 L 0.833272 0.424987 M 0 0.500007 L 0.166743 0.574973 L 0.550003 0.574973 L 0.699988 0.725013 L 0.833272 0.725013 M 1.000015 0.500007 L 0.833272 0.574973 M 0 0.642882 L 0.166743 0.725013 L 0.300026 0.725013 L 0.400017 0.642882 L 1.000015 0.642882 M 0 0.785702 L 0.166743 0.839776 L 0.833272 0.839776 L 1.000015 0.785702 " transform="matrix(70.866142,0,0,70.866142,0,0)"/>
</g>
</g>
  </g>
  <g>
    <g transform="translate(0, 70.8661417323) scale(1)"><g id="surface33">
<path style=" stroke:none;fill-rule:nonzero;fill:rgb(100%,100%,100%);fill-opacity:1;" d="M 0 0 L 70.867188 0 L 70.867188 70.867188 L 0 70.867188 Z "/>
<path style="fill:none;stroke-width:0.02;stroke-linecap:round;stroke-linejoin:round;stroke:rgb(0%,0%,0%);stroke-opacity:1;stroke-miterlimit:10;" d="M 1.000015 0.0714375 L 0.916671 0.0714375 L 0.916671 0.500007 L 1.000015 0.500007 M 0.0833437 0 L 0.0833437 0.214312 L 1.000015 0.214312 M 0.0833437 0.214312 L 0.0833437 1.000015 M 0.249976 0 L 0.249976 0.357132 L 1.000015 0.357132 M 0.249976 0.357132 L 0.249976 1.000015 M 0.416664 0 L 0.416664 0.642882 L 1.000015 0.642882 M 0.416664 0.642882 L 0.416664 1.000015 M 0.583351 0 L 0.583351 0.785702 L 1.000015 0.785702 M 0.583351 0.785702 L 0.583351 1.000015 M 0.749984 0 L 0.749984 1.000015 " transform="matrix(70.866142,0,0,70.866142,0,0)"/>
</g>
</g>
  </g>
  <g>
    <g transform="translate(637.795275591, 70.8661417323) scale(1)"><g id="surface17">
<path style=" stroke:none;fill-rule:nonzero;fill:rgb(100%,100%,100%);fill-opacity:1;" d="M 0 0 L 70.867188 0 L 70.867188 70.867188 L 0 70.867188 Z "/>
<path style="fill:none;stroke-width:0.02;stroke-linecap:round;stroke-linejoin:round;stroke:rgb(0%,0%,0%);stroke-opacity:1;stroke-miterlimit:10;" d="M 0 0.0714375 L 0.125016 0.0714375 L 0.125016 0 M 0 0.500007 L 0.125016 0.500007 L 0.125016 1.000015 " transform="matrix(70.866142,0,0,70.866142,0,0)"/>
</g>
</g>
  </g>
  <g>
    <g transform="translate(70.8661417323, 70.8661417323) scale(1)"><g id="surface1">
<path style=" stroke:none;fill-rule:nonzero;fill:rgb(100%,100%,100%);fill-opacity:1;" d="M 0 0 L 70.867188 0 L 70.867188 70.867188 L 0 70.867188 Z "/>
<path style="fill:none;stroke-width:0.02;stroke-linecap:round;stroke-linejoin:round;stroke:rgb(0%,0%,0%);stroke-opacity:1;stroke-miterlimit:10;" d="M 0 0.0714375 L 1.000015 0.0714375 M 0 0.214312 L 0.166743 0.275001 M 1.000015 0.214312 L 0.833272 0.275001 M 0 0.357132 L 0.166743 0.424987 M 1.000015 0.357132 L 0.833272 0.424987 M 0 0.500007 L 0.166743 0.574973 L 0.550003 0.574973 L 0.699988 0.725013 L 0.833272 0.725013 M 1.000015 0.500007 L 0.833272 0.574973 M 0 0.642882 L 0.166743 0.725013 L 0.300026 0.725013 L 0.400017 0.642882 L 1.000015 0.642882 M 0 0.785702 L 0.166743 0.839776 L 0.833272 0.839776 L 1.000015 0.785702 " transform="matrix(70.866142,0,0,70.866142,0,0)"/>
</g>
</g>
  </g>
  <g>
    <g transform="translate(141.732283465, 70.8661417323) scale(1)"><g id="surface1">
<path style=" stroke:none;fill-rule:nonzero;fill:rgb(100%,100%,100%);fill-opacity:1;" d="M 0 0 L 70.867188 0 L 70.867188 70.867188 L 0 70.867188 Z "/>
<path style="fill:none;stroke-width:0.02;stroke-linecap:round;stroke-linejoin:round;stroke:rgb(0%,0%,0%);stroke-opacity:1;stroke-miterlimit:10;" d="M 0 0.0714375 L 1.000015 0.0714375 M 0 0.214312 L 0.166743 0.275001 M 1.000015 0.214312 L 0.833272 0.275001 M 0 0.357132 L 0.166743 0.424987 M 1.000015 0.357132 L 0.833272 0.424987 M 0 0.500007 L 0.166743 0.574973 L 0.550003 0.574973 L 0.699988 0.725013 L 0.833272 0.725013 M 1.000015 0.500007 L 0.833272 0.574973 M 0 0.642882 L 0.166743 0.725013 L 0.300026 0.725013 L 0.400017 0.642882 L 1.000015 0.642882 M 0 0.785702 L 0.166743 0.839776 L 0.833272 0.839776 L 1.000015 0.785702 " transform="matrix(70.866142,0,0,70.866142,0,0)"/>
</g>
</g>
  </g>
  <g>
    <g transform="translate(212.598425197, 70.8661417323) scale(1)"><g id="surface1">
<path style=" stroke:none;fill-rule:nonzero;fill:rgb(100%,100%,100%);fill-opacity:1;" d="M 0 0 L 70.867188 0 L 70.867188 70.867188 L 0 70.867188 Z "/>
<path style="fill:none;stroke-width:0.02;stroke-linecap:round;stroke-linejoin:round;stroke:rgb(0%,0%,0%);stroke-opacity:1;stroke-miterlimit:10;" d="M 0 0.0714375 L 1.000015 0.0714375 M 0 0.214312 L 0.166743 0.275001 M 1.000015 0.214312 L 0.833272 0.275001 M 0 0.357132 L 0.166743 0.424987 M 1.000015 0.357132 L 0.833272 0.424987 M 0 0.500007 L 0.166743 0.574973 L 0.550003 0.574973 L 0.699988 0.725013 L 0.833272 0.725013 M 1.000015 0.500007 L 0.833272 0.574973 M 0 0.642882 L 0.166743 0.725013 L 0.300026 0.725013 L 0.400017 0.642882 L 1.000015 0.642882 M 0 0.785702 L 0.166743 0.839776 L 0.833272 0.839776 L 1.000015 0.785702 " transform="matrix(70.866142,0,0,70.866142,0,0)"/>
</g>
</g>
  </g>
  <g>
    <g transform="translate(283.464566929, 70.8661417323) scale(1)"><g id="surface1">
<path style=" stroke:none;fill-rule:nonzero;fill:rgb(100%,100%,100%);fill-opacity:1;" d="M 0 0 L 70.867188 0 L 70.867188 70.867188 L 0 70.867188 Z "/>
<path style="fill:none;stroke-width:0.02;stroke-linecap:round;stroke-linejoin:round;stroke:rgb(0%,0%,0%);stroke-opacity:1;stroke-miterlimit:10;" d="M 0 0.0714375 L 1.000015 0.0714375 M 0 0.214312 L 0.166743 0.275001 M 1.000015 0.214312 L 0.833272 0.275001 M 0 0.357132 L 0.166743 0.424987 M 1.000015 0.357132 L 0.833272 0.424987 M 0 0.500007 L 0.166743 0.574973 L 0.550003 0.574973 L 0.699988 0.725013 L 0.833272 0.725013 M 1.000015 0.500007 L 0.833272 0.574973 M 0 0.642882 L 0.166743 0.725013 L 0.300026 0.725013 L 0.400017 0.642882 L 1.000015 0.642882 M 0 0.785702 L 0.166743 0.839776 L 0.833272 0.839776 L 1.000015 0.785702 " transform="matrix(70.866142,0,0,70.866142,0,0)"/>
</g>
</g>
  </g>
  <g>
    <g transform="translate(354.330708661, 70.8661417323) scale(1)"><g id="surface1">
<path style=" stroke:none;fill-rule:nonzero;fill:rgb(100%,100%,100%);fill-opacity:1;" d="M 0 0 L 70.867188 0 L 70.867188 70.867188 L 0 70.867188 Z "/>
<path style="fill:none;stroke-width:0.02;stroke-linecap:round;stroke-linejoin:round;stroke:rgb(0%,0%,0%);stroke-opacity:1;stroke-miterlimit:10;" d="M 0 0.0714375 L 1.000015 0.0714375 M 0 0.214312 L 0.166743 0.275001 M 1.000015 0.214312 L 0.833272 0.275001 M 0 0.357132 L 0.166743 0.424987 M 1.000015 0.357132 L 0.833272 0.424987 M 0 0.500007 L 0.166743 0.574973 L 0.550003 0.574973 L 0.699988 0.725013 L 0.833272 0.725013 M 1.000015 0.500007 L 0.833272 0.574973 M 0 0.642882 L 0.166743 0.725013 L 0.300026 0.725013 L 0.400017 0.642882 L 1.000015 0.642882 M 0 0.785702 L 0.166743 0.839776 L 0.833272 0.839776 L 1.000015 0.785702 " transform="matrix(70.866142,0,0,70.866142,0,0)"/>
</g>
</g>
  </g>
  <g>
    <g transform="translate(425.196850394, 70.8661417323) scale(1)"><g id="surface1">
<path style=" stroke:none;fill-rule:nonzero;fill:rgb(100%,100%,100%);fill-opacity:1;" d="M 0 0 L 70.867188 0 L 70.867188 70.867188 L 0 70.867188 Z "/>
<path style="fill:none;stroke-width:0.02;stroke-linecap:round;stroke-linejoin:round;stroke:rgb(0%,0%,0%);stroke-opacity:1;stroke-miterlimit:10;" d="M 0 0.0714375 L 1.000015 0.0714375 M 0 0.214312 L 0.166743 0.275001 M 1.000015 0.214312 L 0.833272 0.275001 M 0 0.357132 L 0.166743 0.424987 M 1.000015 0.357132 L 0.833272 0.424987 M 0 0.500007 L 0.166743 0.574973 L 0.550003 0.574973 L 0.699988 0.725013 L 0.833272 0.725013 M 1.000015 0.500007 L 0.833272 0.574973 M 0 0.642882 L 0.166743 0.725013 L 0.300026 0.725013 L 0.400017 0.642882 L 1.000015 0.642882 M 0 0.785702 L 0.166743 0.839776 L 0.833272 0.839776 L 1.000015 0.785702 " transform="matrix(70.866142,0,0,70.866142,0,0)"/>
</g>
</g>
  </g>
  <g>
    <g transform="translate(496.062992126, 70.8661417323) scale(1)"><g id="surface1">
<path style=" stroke:none;fill-rule:nonzero;fill:rgb(100%,100%,100%);fill-opacity:1;" d="M 0 0 L 70.867188 0 L 70.867188 70.867188 L 0 70.867188 Z "/>
<path style="fill:none;stroke-width:0.02;stroke-linecap:round;stroke-linejoin:round;stroke:rgb(0%,0%,0%);stroke-opacity:1;stroke-miterlimit:10;" d="M 0 0.0714375 L 1.000015 0.0714375 M 0 0.214312 L 0.166743 0.275001 M 1.000015 0.214312 L 0.833272 0.275001 M 0 0.357132 L 0.166743 0.424987 M 1.000015 0.357132 L 0.833272 0.424987 M 0 0.500007 L 0.166743 0.574973 L 0.550003 0.574973 L 0.699988 0.725013 L 0.833272 0.725013 M 1.000015 0.500007 L 0.833272 0.574973 M 0 0.642882 L 0.166743 0.725013 L 0.300026 0.725013 L 0.400017 0.642882 L 1.000015 0.642882 M 0 0.785702 L 0.166743 0.839776 L 0.833272 0.839776 L 1.000015 0.785702 " transform="matrix(70.866142,0,0,70.866142,0,0)"/>
</g>
</g>
  </g>
  <g>
    <g transform="translate(566.929133858, 70.8661417323) scale(1)"><g id="surface1">
<path style=" stroke:none;fill-rule:nonzero;fill:rgb(100%,100%,100%);fill-opacity:1;" d="M 0 0 L 70.867188 0 L 70.867188 70.867188 L 0 70.867188 Z "/>
<path style="fill:none;stroke-width:0.02;stroke-linecap:round;stroke-linejoin:round;stroke:rgb(0%,0%,0%);stroke-opacity:1;stroke-miterlimit:10;" d="M 0 0.0714375 L 1.000015 0.0714375 M 0 0.214312 L 0.166743 0.275001 M 1.000015 0.214312 L 0.833272 0.275001 M 0 0.357132 L 0.166743 0.424987 M 1.000015 0.357132 L 0.833272 0.424987 M 0 0.500007 L 0.166743 0.574973 L 0.550003 0.574973 L 0.699988 0.725013 L 0.833272 0.725013 M 1.000015 0.500007 L 0.833272 0.574973 M 0 0.642882 L 0.166743 0.725013 L 0.300026 0.725013 L 0.400017 0.642882 L 1.000015 0.642882 M 0 0.785702 L 0.166743 0.839776 L 0.833272 0.839776 L 1.000015 0.785702 " transform="matrix(70.866142,0,0,70.866142,0,0)"/>
</g>
</g>
  </g>
  <g>
    <g transform="translate(0, 141.732283465) scale(1)"><g id="surface33">
<path style=" stroke:none;fill-rule:nonzero;fill:rgb(100%,100%,100%);fill-opacity:1;" d="M 0 0 L 70.867188 0 L 70.867188 70.867188 L 0 70.867188 Z "/>
<path style="fill:none;stroke-width:0.02;stroke-linecap:round;stroke-linejoin:round;stroke:rgb(0%,0%,0%);stroke-opacity:1;stroke-miterlimit:10;" d="M 1.000015 0.0714375 L 0.916671 0.0714375 L 0.916671 0.500007 L 1.000015 0.500007 M 0.0833437 0 L 0.0833437 0.214312 L 1.000015 0.214312 M 0.0833437 0.214312 L 0.0833437 1.000015 M 0.249976 0 L 0.249976 0.357132 L 1.000015 0.357132 M 0.249976 0.357132 L 0.249976 1.000015 M 0.416664 0 L 0.416664 0.642882 L 1.000015 0.642882 M 0.416664 0.642882 L 0.416664 1.000015 M 0.583351 0 L 0.583351 0.785702 L 1.000015 0.785702 M 0.583351 0.785702 L 0.583351 1.000015 M 0.749984 0 L 0.749984 1.000015 " transform="matrix(70.866142,0,0,70.866142,0,0)"/>
</g>
</g>
  </g>
  <g>
    <g transform="translate(637.795275591, 141.732283465) scale(1)"><g id="surface17">
<path style=" stroke:none;fill-rule:nonzero;fill:rgb(100%,100%,100%);fill-opacity:1;" d="M 0 0 L 70.867188 0 L 70.867188 70.867188 L 0 70.867188 Z "/>
<path style="fill:none;stroke-width:0.02;stroke-linecap:round;stroke-linejoin:round;stroke:rgb(0%,0%,0%);stroke-opacity:1;stroke-miterlimit:10;" d="M 0 0.0714375 L 0.125016 0.0714375 L 0.125016 0 M 0 0.500007 L 0.125016 0.500007 L 0.125016 1.000015 " transform="matrix(70.866142,0,0,70.866142,0,0)"/>
</g>
</g>
  </g>
  <g>
    <g transform="translate(70.8661417323, 141.732283465) scale(1)"><g id="surface1">
<path style=" stroke:none;fill-rule:nonzero;fill:rgb(100%,100%,100%);fill-opacity:1;" d="M 0 0 L 70.867188 0 L 70.867188 70.867188 L 0 70.867188 Z "/>
<path style="fill:none;stroke-width:0.02;stroke-linecap:round;stroke-linejoin:round;stroke:rgb(0%,0%,0%);stroke-opacity:1;stroke-miterlimit:10;" d="M 0 0.0714375 L 1.000015 0.0714375 M 0 0.214312 L 0.166743 0.275001 M 1.000015 0.214312 L 0.833272 0.275001 M 0 0.357132 L 0.166743 0.424987 M 1.000015 0.357132 L 0.833272 0.424987 M 0 0.500007 L 0.166743 0.574973 L 0.550003 0.574973 L 0.699988 0.725013 L 0.833272 0.725013 M 1.000015 0.500007 L 0.833272 0.574973 M 0 0.642882 L 0.166743 0.725013 L 0.300026 0.725013 L 0.400017 0.642882 L 1.000015 0.642882 M 0 0.785702 L 0.166743 0.839776 L 0.833272 0.839776 L 1.000015 0.785702 " transform="matrix(70.866142,0,0,70.866142,0,0)"/>
</g>
</g>
  </g>
  <g>
    <g transform="translate(141.732283465, 141.732283465) scale(1)"><g id="surface1">
<path style=" stroke:none;fill-rule:nonzero;fill:rgb(100%,100%,100%);fill-opacity:1;" d="M 0 0 L 70.867188 0 L 70.867188 70.867188 L 0 70.867188 Z "/>
<path style="fill:none;stroke-width:0.02;stroke-linecap:round;stroke-linejoin:round;stroke:rgb(0%,0%,0%);stroke-opacity:1;stroke-miterlimit:10;" d="M 0 0.0714375 L 1.000015 0.0714375 M 0 0.214312 L 0.166743 0.275001 M 1.000015 0.214312 L 0.833272 0.275001 M 0 0.357132 L 0.166743 0.424987 M 1.000015 0.357132 L 0.833272 0.424987 M 0 0.500007 L 0.166743 0.574973 L 0.550003 0.574973 L 0.699988 0.725013 L 0.833272 0.725013 M 1.000015 0.500007 L 0.833272 0.574973 M 0 0.642882 L 0.166743 0.725013 L 0.300026 0.725013 L 0.400017 0.642882 L 1.000015 0.642882 M 0 0.785702 L 0.166743 0.839776 L 0.833272 0.839776 L 1.000015 0.785702 " transform="matrix(70.866142,0,0,70.866142,0,0)"/>
</g>
</g>
  </g>
  <g>
    <g transform="translate(212.598425197, 141.732283465) scale(1)"><g id="surface1">
<path style=" stroke:none;fill-rule:nonzero;fill:rgb(100%,100%,100%);fill-opacity:1;" d="M 0 0 L 70.867188 0 L 70.867188 70.867188 L 0 70.867188 Z "/>
<path style="fill:none;stroke-width:0.02;stroke-linecap:round;stroke-linejoin:round;stroke:rgb(0%,0%,0%);stroke-opacity:1;stroke-miterlimit:10;" d="M 0 0.0714375 L 1.000015 0.0714375 M 0 0.214312 L 0.166743 0.275001 M 1.000015 0.214312 L 0.833272 0.275001 M 0 0.357132 L 0.166743 0.424987 M 1.000015 0.357132 L 0.833272 0.424987 M 0 0.500007 L 0.166743 0.574973 L 0.550003 0.574973 L 0.699988 0.725013 L 0.833272 0.725013 M 1.000015 0.500007 L 0.833272 0.574973 M 0 0.642882 L 0.166743 0.725013 L 0.300026 0.725013 L 0.400017 0.642882 L 1.000015 0.642882 M 0 0.785702 L 0.166743 0.839776 L 0.833272 0.839776 L 1.000015 0.785702 " transform="matrix(70.866142,0,0,70.866142,0,0)"/>
</g>
</g>
  </g>
  <g>
    <g transform="translate(283.464566929, 141.732283465) scale(1)"><g id="surface1">
<path style=" stroke:none;fill-rule:nonzero;fill:rgb(100%,100%,100%);fill-opacity:1;" d="M 0 0 L 70.867188 0 L 70.867188 70.867188 L 0 70.867188 Z "/>
<path style="fill:none;stroke-width:0.02;stroke-linecap:round;stroke-linejoin:round;stroke:rgb(0%,0%,0%);stroke-opacity:1;stroke-miterlimit:10;" d="M 0 0.0714375 L 1.000015 0.0714375 M 0 0.214312 L 0.166743 0.275001 M 1.000015 0.214312 L 0.833272 0.275001 M 0 0.357132 L 0.166743 0.424987 M 1.000015 0.357132 L 0.833272 0.424987 M 0 0.500007 L 0.166743 0.574973 L 0.550003 0.574973 L 0.699988 0.725013 L 0.833272 0.725013 M 1.000015 0.500007 L 0.833272 0.574973 M 0 0.642882 L 0.166743 0.725013 L 0.300026 0.725013 L 0.400017 0.642882 L 1.000015 0.642882 M 0 0.785702 L 0.166743 0.839776 L 0.833272 0.839776 L 1.000015 0.785702 " transform="matrix(70.866142,0,0,70.866142,0,0)"/>
</g>
</g>
  </g>
  <g>
    <g transform="translate(354.330708661, 141.732283465) scale(1)"><g id="surface1">
<path style=" stroke:none;fill-rule:nonzero;fill:rgb(100%,100%,100%);fill-opacity:1;" d="M 0 0 L 70.867188 0 L 70.867188 70.867188 L 0 70.867188 Z "/>
<path style="fill:none;stroke-width:0.02;stroke-linecap:round;stroke-linejoin:round;stroke:rgb(0%,0%,0%);stroke-opacity:1;stroke-miterlimit:10;" d="M 0 0.0714375 L 1.000015 0.0714375 M 0 0.214312 L 0.166743 0.275001 M 1.000015 0.214312 L 0.833272 0.275001 M 0 0.357132 L 0.166743 0.424987 M 1.000015 0.357132 L 0.833272 0.424987 M 0 0.500007 L 0.166743 0.574973 L 0.550003 0.574973 L 0.699988 0.725013 L 0.833272 0.725013 M 1.000015 0.500007 L 0.833272 0.574973 M 0 0.642882 L 0.166743 0.725013 L 0.300026 0.725013 L 0.400017 0.642882 L 1.000015 0.642882 M 0 0.785702 L 0.166743 0.839776 L 0.833272 0.839776 L 1.000015 0.785702 " transform="matrix(70.866142,0,0,70.866142,0,0)"/>
</g>
</g>
  </g>
  <g>
    <g transform="translate(425.196850394, 141.732283465) scale(1)"><g id="surface1">
<path style=" stroke:none;fill-rule:nonzero;fill:rgb(100%,100%,100%);fill-opacity:1;" d="M 0 0 L 70.867188 0 L 70.867188 70.867188 L 0 70.867188 Z "/>
<path style="fill:none;stroke-width:0.02;stroke-linecap:round;stroke-linejoin:round;stroke:rgb(0%,0%,0%);stroke-opacity:1;stroke-miterlimit:10;" d="M 0 0.0714375 L 1.000015 0.0714375 M 0 0.214312 L 0.166743 0.275001 M 1.000015 0.214312 L 0.833272 0.275001 M 0 0.357132 L 0.166743 0.424987 M 1.000015 0.357132 L 0.833272 0.424987 M 0 0.500007 L 0.166743 0.574973 L 0.550003 0.574973 L 0.699988 0.725013 L 0.833272 0.725013 M 1.000015 0.500007 L 0.833272 0.574973 M 0 0.642882 L 0.166743 0.725013 L 0.300026 0.725013 L 0.400017 0.642882 L 1.000015 0.642882 M 0 0.785702 L 0.166743 0.839776 L 0.833272 0.839776 L 1.000015 0.785702 " transform="matrix(70.866142,0,0,70.866142,0,0)"/>
</g>
</g>
  </g>
  <g>
    <g transform="translate(496.062992126, 141.732283465) scale(1)"><g id="surface1">
<path style=" stroke:none;fill-rule:nonzero;fill:rgb(100%,100%,100%);fill-opacity:1;" d="M 0 0 L 70.867188 0 L 70.867188 70.867188 L 0 70.867188 Z "/>
<path style="fill:none;stroke-width:0.02;stroke-linecap:round;stroke-linejoin:round;stroke:rgb(0%,0%,0%);stroke-opacity:1;stroke-miterlimit:10;" d="M 0 0.0714375 L 1.000015 0.0714375 M 0 0.214312 L 0.166743 0.275001 M 1.000015 0.214312 L 0.833272 0.275001 M 0 0.357132 L 0.166743 0.424987 M 1.000015 0.357132 L 0.833272 0.424987 M 0 0.500007 L 0.166743 0.574973 L 0.550003 0.574973 L 0.699988 0.725013 L 0.833272 0.725013 M 1.000015 0.500007 L 0.833272 0.574973 M 0 0.642882 L 0.166743 0.725013 L 0.300026 0.725013 L 0.400017 0.642882 L 1.000015 0.642882 M 0 0.785702 L 0.166743 0.839776 L 0.833272 0.839776 L 1.000015 0.785702 " transform="matrix(70.866142,0,0,70.866142,0,0)"/>
</g>
</g>
  </g>
  <g>
    <g transform="translate(566.929133858, 141.732283465) scale(1)"><g id="surface1">
<path style=" stroke:none;fill-rule:nonzero;fill:rgb(100%,100%,100%);fill-opacity:1;" d="M 0 0 L 70.867188 0 L 70.867188 70.867188 L 0 70.867188 Z "/>
<path style="fill:none;stroke-width:0.02;stroke-linecap:round;stroke-linejoin:round;stroke:rgb(0%,0%,0%);stroke-opacity:1;stroke-miterlimit:10;" d="M 0 0.0714375 L 1.000015 0.0714375 M 0 0.214312 L 0.166743 0.275001 M 1.000015 0.214312 L 0.833272 0.275001 M 0 0.357132 L 0.166743 0.424987 M 1.000015 0.357132 L 0.833272 0.424987 M 0 0.500007 L 0.166743 0.574973 L 0.550003 0.574973 L 0.699988 0.725013 L 0.833272 0.725013 M 1.000015 0.500007 L 0.833272 0.574973 M 0 0.642882 L 0.166743 0.725013 L 0.300026 0.725013 L 0.400017 0.642882 L 1.000015 0.642882 M 0 0.785702 L 0.166743 0.839776 L 0.833272 0.839776 L 1.000015 0.785702 " transform="matrix(70.866142,0,0,70.866142,0,0)"/>
</g>
</g>
  </g>
  <g>
    <g transform="translate(0, 212.598425197) scale(1)"><g id="surface33">
<path style=" stroke:none;fill-rule:nonzero;fill:rgb(100%,100%,100%);fill-opacity:1;" d="M 0 0 L 70.867188 0 L 70.867188 70.867188 L 0 70.867188 Z "/>
<path style="fill:none;stroke-width:0.02;stroke-linecap:round;stroke-linejoin:round;stroke:rgb(0%,0%,0%);stroke-opacity:1;stroke-miterlimit:10;" d="M 1.000015 0.0714375 L 0.916671 0.0714375 L 0.916671 0.500007 L 1.000015 0.500007 M 0.0833437 0 L 0.0833437 0.214312 L 1.000015 0.214312 M 0.0833437 0.214312 L 0.0833437 1.000015 M 0.249976 0 L 0.249976 0.357132 L 1.000015 0.357132 M 0.249976 0.357132 L 0.249976 1.000015 M 0.416664 0 L 0.416664 0.642882 L 1.000015 0.642882 M 0.416664 0.642882 L 0.416664 1.000015 M 0.583351 0 L 0.583351 0.785702 L 1.000015 0.785702 M 0.583351 0.785702 L 0.583351 1.000015 M 0.749984 0 L 0.749984 1.000015 " transform="matrix(70.866142,0,0,70.866142,0,0)"/>
</g>
</g>
  </g>
  <g>
    <g transform="translate(637.795275591, 212.598425197) scale(1)"><g id="surface17">
<path style=" stroke:none;fill-rule:nonzero;fill:rgb(100%,100%,100%);fill-opacity:1;" d="M 0 0 L 70.867188 0 L 70.867188 70.867188 L 0 70.867188 Z "/>
<path style="fill:none;stroke-width:0.02;stroke-linecap:round;stroke-linejoin:round;stroke:rgb(0%,0%,0%);stroke-opacity:1;stroke-miterlimit:10;" d="M 0 0.0714375 L 0.125016 0.0714375 L 0.125016 0 M 0 0.500007 L 0.125016 0.500007 L 0.125016 1.000015 " transform="matrix(70.866142,0,0,70.866142,0,0)"/>
</g>
</g>
  </g>
  <g>
    <g transform="translate(70.8661417323, 212.598425197) scale(1)"><g id="surface1">
<path style=" stroke:none;fill-rule:nonzero;fill:rgb(100%,100%,100%);fill-opacity:1;" d="M 0 0 L 70.867188 0 L 70.867188 70.867188 L 0 70.867188 Z "/>
<path style="fill:none;stroke-width:0.02;stroke-linecap:round;stroke-linejoin:round;stroke:rgb(0%,0%,0%);stroke-opacity:1;stroke-miterlimit:10;" d="M 0 0.0714375 L 1.000015 0.0714375 M 0 0.214312 L 0.166743 0.275001 M 1.000015 0.214312 L 0.833272 0.275001 M 0 0.357132 L 0.166743 0.424987 M 1.000015 0.357132 L 0.833272 0.424987 M 0 0.500007 L 0.166743 0.574973 L 0.550003 0.574973 L 0.699988 0.725013 L 0.833272 0.725013 M 1.000015 0.500007 L 0.833272 0.574973 M 0 0.642882 L 0.166743 0.725013 L 0.300026 0.725013 L 0.400017 0.642882 L 1.000015 0.642882 M 0 0.785702 L 0.166743 0.839776 L 0.833272 0.839776 L 1.000015 0.785702 " transform="matrix(70.866142,0,0,70.866142,0,0)"/>
</g>
</g>
  </g>
  <g>
    <g transform="translate(141.732283465, 212.598425197) scale(1)"><g id="surface1">
<path style=" stroke:none;fill-rule:nonzero;fill:rgb(100%,100%,100%);fill-opacity:1;" d="M 0 0 L 70.867188 0 L 70.867188 70.867188 L 0 70.867188 Z "/>
<path style="fill:none;stroke-width:0.02;stroke-linecap:round;stroke-linejoin:round;stroke:rgb(0%,0%,0%);stroke-opacity:1;stroke-miterlimit:10;" d="M 0 0.0714375 L 1.000015 0.0714375 M 0 0.214312 L 0.166743 0.275001 M 1.000015 0.214312 L 0.833272 0.275001 M 0 0.357132 L 0.166743 0.424987 M 1.000015 0.357132 L 0.833272 0.424987 M 0 0.500007 L 0.166743 0.574973 L 0.550003 0.574973 L 0.699988 0.725013 L 0.833272 0.725013 M 1.000015 0.500007 L 0.833272 0.574973 M 0 0.642882 L 0.166743 0.725013 L 0.300026 0.725013 L 0.400017 0.642882 L 1.000015 0.642882 M 0 0.785702 L 0.166743 0.839776 L 0.833272 0.839776 L 1.000015 0.785702 " transform="matrix(70.866142,0,0,70.866142,0,0)"/>
</g>
</g>
  </g>
  <g>
    <g transform="translate(212.598425197, 212.598425197) scale(1)"><g id="surface1">
<path style=" stroke:none;fill-rule:nonzero;fill:rgb(100%,100%,100%);fill-opacity:1;" d="M 0 0 L 70.867188 0 L 70.867188 70.867188 L 0 70.867188 Z "/>
<path style="fill:none;stroke-width:0.02;stroke-linecap:round;stroke-linejoin:round;stroke:rgb(0%,0%,0%);stroke-opacity:1;stroke-miterlimit:10;" d="M 0 0.0714375 L 1.000015 0.0714375 M 0 0.214312 L 0.166743 0.275001 M 1.000015 0.214312 L 0.833272 0.275001 M 0 0.357132 L 0.166743 0.424987 M 1.000015 0.357132 L 0.833272 0.424987 M 0 0.500007 L 0.166743 0.574973 L 0.550003 0.574973 L 0.699988 0.725013 L 0.833272 0.725013 M 1.000015 0.500007 L 0.833272 0.574973 M 0 0.642882 L 0.166743 0.725013 L 0.300026 0.725013 L 0.400017 0.642882 L 1.000015 0.642882 M 0 0.785702 L 0.166743 0.839776 L 0.833272 0.839776 L 1.000015 0.785702 " transform="matrix(70.866142,0,0,70.866142,0,0)"/>
</g>
</g>
  </g>
  <g>
    <g transform="translate(283.464566929, 212.598425197) scale(1)"><g id="surface1">
<path style=" stroke:none;fill-rule:nonzero;fill:rgb(100%,100%,100%);fill-opacity:1;" d="M 0 0 L 70.867188 0 L 70.867188 70.867188 L 0 70.867188 Z "/>
<path style="fill:none;stroke-width:0.02;stroke-linecap:round;stroke-linejoin:round;stroke:rgb(0%,0%,0%);stroke-opacity:1;stroke-miterlimit:10;" d="M 0 0.0714375 L 1.000015 0.0714375 M 0 0.214312 L 0.166743 0.275001 M 1.000015 0.214312 L 0.833272 0.275001 M 0 0.357132 L 0.166743 0.424987 M 1.000015 0.357132 L 0.833272 0.424987 M 0 0.500007 L 0.166743 0.574973 L 0.550003 0.574973 L 0.699988 0.725013 L 0.833272 0.725013 M 1.000015 0.500007 L 0.833272 0.574973 M 0 0.642882 L 0.166743 0.725013 L 0.300026 0.725013 L 0.400017 0.642882 L 1.000015 0.642882 M 0 0.785702 L 0.166743 0.839776 L 0.833272 0.839776 L 1.000015 0.785702 " transform="matrix(70.866142,0,0,70.866142,0,0)"/>
</g>
</g>
  </g>
  <g>
    <g transform="translate(354.330708661, 212.598425197) scale(1)"><g id="surface1">
<path style=" stroke:none;fill-rule:nonzero;fill:rgb(100%,100%,100%);fill-opacity:1;" d="M 0 0 L 70.867188 0 L 70.867188 70.867188 L 0 70.867188 Z "/>
<path style="fill:none;stroke-width:0.02;stroke-linecap:round;stroke-linejoin:round;stroke:rgb(0%,0%,0%);stroke-opacity:1;stroke-miterlimit:10;" d="M 0 0.0714375 L 1.000015 0.0714375 M 0 0.214312 L 0.166743 0.275001 M 1.000015 0.214312 L 0.833272 0.275001 M 0 0.357132 L 0.166743 0.424987 M 1.000015 0.357132 L 0.833272 0.424987 M 0 0.500007 L 0.166743 0.574973 L 0.550003 0.574973 L 0.699988 0.725013 L 0.833272 0.725013 M 1.000015 0.500007 L 0.833272 0.574973 M 0 0.642882 L 0.166743 0.725013 L 0.300026 0.725013 L 0.400017 0.642882 L 1.000015 0.642882 M 0 0.785702 L 0.166743 0.839776 L 0.833272 0.839776 L 1.000015 0.785702 " transform="matrix(70.866142,0,0,70.866142,0,0)"/>
</g>
</g>
  </g>
  <g>
    <g transform="translate(425.196850394, 212.598425197) scale(1)"><g id="surface1">
<path style=" stroke:none;fill-rule:nonzero;fill:rgb(100%,100%,100%);fill-opacity:1;" d="M 0 0 L 70.867188 0 L 70.867188 70.867188 L 0 70.867188 Z "/>
<path style="fill:none;stroke-width:0.02;stroke-linecap:round;stroke-linejoin:round;stroke:rgb(0%,0%,0%);stroke-opacity:1;stroke-miterlimit:10;" d="M 0 0.0714375 L 1.000015 0.0714375 M 0 0.214312 L 0.166743 0.275001 M 1.000015 0.214312 L 0.833272 0.275001 M 0 0.357132 L 0.166743 0.424987 M 1.000015 0.357132 L 0.833272 0.424987 M 0 0.500007 L 0.166743 0.574973 L 0.550003 0.574973 L 0.699988 0.725013 L 0.833272 0.725013 M 1.000015 0.500007 L 0.833272 0.574973 M 0 0.642882 L 0.166743 0.725013 L 0.300026 0.725013 L 0.400017 0.642882 L 1.000015 0.642882 M 0 0.785702 L 0.166743 0.839776 L 0.833272 0.839776 L 1.000015 0.785702 " transform="matrix(70.866142,0,0,70.866142,0,0)"/>
</g>
</g>
  </g>
  <g>
    <g transform="translate(496.062992126, 212.598425197) scale(1)"><g id="surface1">
<path style=" stroke:none;fill-rule:nonzero;fill:rgb(100%,100%,100%);fill-opacity:1;" d="M 0 0 L 70.867188 0 L 70.867188 70.867188 L 0 70.867188 Z "/>
<path style="fill:none;stroke-width:0.02;stroke-linecap:round;stroke-linejoin:round;stroke:rgb(0%,0%,0%);stroke-opacity:1;stroke-miterlimit:10;" d="M 0 0.0714375 L 1.000015 0.0714375 M 0 0.214312 L 0.166743 0.275001 M 1.000015 0.214312 L 0.833272 0.275001 M 0 0.357132 L 0.166743 0.424987 M 1.000015 0.357132 L 0.833272 0.424987 M 0 0.500007 L 0.166743 0.574973 L 0.550003 0.574973 L 0.699988 0.725013 L 0.833272 0.725013 M 1.000015 0.500007 L 0.833272 0.574973 M 0 0.642882 L 0.166743 0.725013 L 0.300026 0.725013 L 0.400017 0.642882 L 1.000015 0.642882 M 0 0.785702 L 0.166743 0.839776 L 0.833272 0.839776 L 1.000015 0.785702 " transform="matrix(70.866142,0,0,70.866142,0,0)"/>
</g>
</g>
  </g>
  <g>
    <g transform="translate(566.929133858, 212.598425197) scale(1)"><g id="surface1">
<path style=" stroke:none;fill-rule:nonzero;fill:rgb(100%,100%,100%);fill-opacity:1;" d="M 0 0 L 70.867188 0 L 70.867188 70.867188 L 0 70.867188 Z "/>
<path style="fill:none;stroke-width:0.02;stroke-linecap:round;stroke-linejoin:round;stroke:rgb(0%,0%,0%);stroke-opacity:1;stroke-miterlimit:10;" d="M 0 0.0714375 L 1.000015 0.0714375 M 0 0.214312 L 0.166743 0.275001 M 1.000015 0.214312 L 0.833272 0.275001 M 0 0.357132 L 0.166743 0.424987 M 1.000015 0.357132 L 0.833272 0.424987 M 0 0.500007 L 0.166743 0.574973 L 0.550003 0.574973 L 0.699988 0.725013 L 0.833272 0.725013 M 1.000015 0.500007 L 0.833272 0.574973 M 0 0.642882 L 0.166743 0.725013 L 0.300026 0.725013 L 0.400017 0.642882 L 1.000015 0.642882 M 0 0.785702 L 0.166743 0.839776 L 0.833272 0.839776 L 1.000015 0.785702 " transform="matrix(70.866142,0,0,70.866142,0,0)"/>
</g>
</g>
  </g>
  <g>
    <g transform="translate(0, 283.464566929) scale(1)"><g id="surface33">
<path style=" stroke:none;fill-rule:nonzero;fill:rgb(100%,100%,100%);fill-opacity:1;" d="M 0 0 L 70.867188 0 L 70.867188 70.867188 L 0 70.867188 Z "/>
<path style="fill:none;stroke-width:0.02;stroke-linecap:round;stroke-linejoin:round;stroke:rgb(0%,0%,0%);stroke-opacity:1;stroke-miterlimit:10;" d="M 1.000015 0.0714375 L 0.916671 0.0714375 L 0.916671 0.500007 L 1.000015 0.500007 M 0.0833437 0 L 0.0833437 0.214312 L 1.000015 0.214312 M 0.0833437 0.214312 L 0.0833437 1.000015 M 0.249976 0 L 0.249976 0.357132 L 1.000015 0.357132 M 0.249976 0.357132 L 0.249976 1.000015 M 0.416664 0 L 0.416664 0.642882 L 1.000015 0.642882 M 0.416664 0.642882 L 0.416664 1.000015 M 0.583351 0 L 0.583351 0.785702 L 1.000015 0.785702 M 0.583351 0.785702 L 0.583351 1.000015 M 0.749984 0 L 0.749984 1.000015 " transform="matrix(70.866142,0,0,70.866142,0,0)"/>
</g>
</g>
  </g>
  <g>
    <g transform="translate(637.795275591, 283.464566929) scale(1)"><g id="surface17">
<path style=" stroke:none;fill-rule:nonzero;fill:rgb(100%,100%,100%);fill-opacity:1;" d="M 0 0 L 70.867188 0 L 70.867188 70.867188 L 0 70.867188 Z "/>
<path style="fill:none;stroke-width:0.02;stroke-linecap:round;stroke-linejoin:round;stroke:rgb(0%,0%,0%);stroke-opacity:1;stroke-miterlimit:10;" d="M 0 0.0714375 L 0.125016 0.0714375 L 0.125016 0 M 0 0.500007 L 0.125016 0.500007 L 0.125016 1.000015 " transform="matrix(70.866142,0,0,70.866142,0,0)"/>
</g>
</g>
  </g>
  <g>
    <g transform="translate(70.8661417323, 283.464566929) scale(1)"><g id="surface1">
<path style=" stroke:none;fill-rule:nonzero;fill:rgb(100%,100%,100%);fill-opacity:1;" d="M 0 0 L 70.867188 0 L 70.867188 70.867188 L 0 70.867188 Z "/>
<path style="fill:none;stroke-width:0.02;stroke-linecap:round;stroke-linejoin:round;stroke:rgb(0%,0%,0%);stroke-opacity:1;stroke-miterlimit:10;" d="M 0 0.0714375 L 1.000015 0.0714375 M 0 0.214312 L 0.166743 0.275001 M 1.000015 0.214312 L 0.833272 0.275001 M 0 0.357132 L 0.166743 0.424987 M 1.000015 0.357132 L 0.833272 0.424987 M 0 0.500007 L 0.166743 0.574973 L 0.550003 0.574973 L 0.699988 0.725013 L 0.833272 0.725013 M 1.000015 0.500007 L 0.833272 0.574973 M 0 0.642882 L 0.166743 0.725013 L 0.300026 0.725013 L 0.400017 0.642882 L 1.000015 0.642882 M 0 0.785702 L 0.166743 0.839776 L 0.833272 0.839776 L 1.000015 0.785702 " transform="matrix(70.866142,0,0,70.866142,0,0)"/>
</g>
</g>
  </g>
  <g>
    <g transform="translate(141.732283465, 283.464566929) scale(1)"><g id="surface1">
<path style=" stroke:none;fill-rule:nonzero;fill:rgb(100%,100%,100%);fill-opacity:1;" d="M 0 0 L 70.867188 0 L 70.867188 70.867188 L 0 70.867188 Z "/>
<path style="fill:none;stroke-width:0.02;stroke-linecap:round;stroke-linejoin:round;stroke:rgb(0%,0%,0%);stroke-opacity:1;stroke-miterlimit:10;" d="M 0 0.0714375 L 1.000015 0.0714375 M 0 0.214312 L 0.166743 0.275001 M 1.000015 0.214312 L 0.833272 0.275001 M 0 0.357132 L 0.166743 0.424987 M 1.000015 0.357132 L 0.833272 0.424987 M 0 0.500007 L 0.166743 0.574973 L 0.550003 0.574973 L 0.699988 0.725013 L 0.833272 0.725013 M 1.000015 0.500007 L 0.833272 0.574973 M 0 0.642882 L 0.166743 0.725013 L 0.300026 0.725013 L 0.400017 0.642882 L 1.000015 0.642882 M 0 0.785702 L 0.166743 0.839776 L 0.833272 0.839776 L 1.000015 0.785702 " transform="matrix(70.866142,0,0,70.866142,0,0)"/>
</g>
</g>
  </g>
  <g>
    <g transform="translate(212.598425197, 283.464566929) scale(1)"><g id="surface1">
<path style=" stroke:none;fill-rule:nonzero;fill:rgb(100%,100%,100%);fill-opacity:1;" d="M 0 0 L 70.867188 0 L 70.867188 70.867188 L 0 70.867188 Z "/>
<path style="fill:none;stroke-width:0.02;stroke-linecap:round;stroke-linejoin:round;stroke:rgb(0%,0%,0%);stroke-opacity:1;stroke-miterlimit:10;" d="M 0 0.0714375 L 1.000015 0.0714375 M 0 0.214312 L 0.166743 0.275001 M 1.000015 0.214312 L 0.833272 0.275001 M 0 0.357132 L 0.166743 0.424987 M 1.000015 0.357132 L 0.833272 0.424987 M 0 0.500007 L 0.166743 0.574973 L 0.550003 0.574973 L 0.699988 0.725013 L 0.833272 0.725013 M 1.000015 0.500007 L 0.833272 0.574973 M 0 0.642882 L 0.166743 0.725013 L 0.300026 0.725013 L 0.400017 0.642882 L 1.000015 0.642882 M 0 0.785702 L 0.166743 0.839776 L 0.833272 0.839776 L 1.000015 0.785702 " transform="matrix(70.866142,0,0,70.866142,0,0)"/>
</g>
</g>
  </g>
  <g>
    <g transform="translate(283.464566929, 283.464566929) scale(1)"><g id="surface1">
<path style=" stroke:none;fill-rule:nonzero;fill:rgb(100%,100%,100%);fill-opacity:1;" d="M 0 0 L 70.867188 0 L 70.867188 70.867188 L 0 70.867188 Z "/>
<path style="fill:none;stroke-width:0.02;stroke-linecap:round;stroke-linejoin:round;stroke:rgb(0%,0%,0%);stroke-opacity:1;stroke-miterlimit:10;" d="M 0 0.0714375 L 1.000015 0.0714375 M 0 0.214312 L 0.166743 0.275001 M 1.000015 0.214312 L 0.833272 0.275001 M 0 0.357132 L 0.166743 0.424987 M 1.000015 0.357132 L 0.833272 0.424987 M 0 0.500007 L 0.166743 0.574973 L 0.550003 0.574973 L 0.699988 0.725013 L 0.833272 0.725013 M 1.000015 0.500007 L 0.833272 0.574973 M 0 0.642882 L 0.166743 0.725013 L 0.300026 0.725013 L 0.400017 0.642882 L 1.000015 0.642882 M 0 0.785702 L 0.166743 0.839776 L 0.833272 0.839776 L 1.000015 0.785702 " transform="matrix(70.866142,0,0,70.866142,0,0)"/>
</g>
</g>
  </g>
  <g>
    <g transform="translate(354.330708661, 283.464566929) scale(1)"><g id="surface1">
<path style=" stroke:none;fill-rule:nonzero;fill:rgb(100%,100%,100%);fill-opacity:1;" d="M 0 0 L 70.867188 0 L 70.867188 70.867188 L 0 70.867188 Z "/>
<path style="fill:none;stroke-width:0.02;stroke-linecap:round;stroke-linejoin:round;stroke:rgb(0%,0%,0%);stroke-opacity:1;stroke-miterlimit:10;" d="M 0 0.0714375 L 1.000015 0.0714375 M 0 0.214312 L 0.166743 0.275001 M 1.000015 0.214312 L 0.833272 0.275001 M 0 0.357132 L 0.166743 0.424987 M 1.000015 0.357132 L 0.833272 0.424987 M 0 0.500007 L 0.166743 0.574973 L 0.550003 0.574973 L 0.699988 0.725013 L 0.833272 0.725013 M 1.000015 0.500007 L 0.833272 0.574973 M 0 0.642882 L 0.166743 0.725013 L 0.300026 0.725013 L 0.400017 0.642882 L 1.000015 0.642882 M 0 0.785702 L 0.166743 0.839776 L 0.833272 0.839776 L 1.000015 0.785702 " transform="matrix(70.866142,0,0,70.866142,0,0)"/>
</g>
</g>
  </g>
  <g>
    <g transform="translate(425.196850394, 283.464566929) scale(1)"><g id="surface1">
<path style=" stroke:none;fill-rule:nonzero;fill:rgb(100%,100%,100%);fill-opacity:1;" d="M 0 0 L 70.867188 0 L 70.867188 70.867188 L 0 70.867188 Z "/>
<path style="fill:none;stroke-width:0.02;stroke-linecap:round;stroke-linejoin:round;stroke:rgb(0%,0%,0%);stroke-opacity:1;stroke-miterlimit:10;" d="M 0 0.0714375 L 1.000015 0.0714375 M 0 0.214312 L 0.166743 0.275001 M 1.000015 0.214312 L 0.833272 0.275001 M 0 0.357132 L 0.166743 0.424987 M 1.000015 0.357132 L 0.833272 0.424987 M 0 0.500007 L 0.166743 0.574973 L 0.550003 0.574973 L 0.699988 0.725013 L 0.833272 0.725013 M 1.000015 0.500007 L 0.833272 0.574973 M 0 0.642882 L 0.166743 0.725013 L 0.300026 0.725013 L 0.400017 0.642882 L 1.000015 0.642882 M 0 0.785702 L 0.166743 0.839776 L 0.833272 0.839776 L 1.000015 0.785702 " transform="matrix(70.866142,0,0,70.866142,0,0)"/>
</g>
</g>
  </g>
  <g>
    <g transform="translate(496.062992126, 283.464566929) scale(1)"><g id="surface1">
<path style=" stroke:none;fill-rule:nonzero;fill:rgb(100%,100%,100%);fill-opacity:1;" d="M 0 0 L 70.867188 0 L 70.867188 70.867188 L 0 70.867188 Z "/>
<path style="fill:none;stroke-width:0.02;stroke-linecap:round;stroke-linejoin:round;stroke:rgb(0%,0%,0%);stroke-opacity:1;stroke-miterlimit:10;" d="M 0 0.0714375 L 1.000015 0.0714375 M 0 0.214312 L 0.166743 0.275001 M 1.000015 0.214312 L 0.833272 0.275001 M 0 0.357132 L 0.166743 0.424987 M 1.000015 0.357132 L 0.833272 0.424987 M 0 0.500007 L 0.166743 0.574973 L 0.550003 0.574973 L 0.699988 0.725013 L 0.833272 0.725013 M 1.000015 0.500007 L 0.833272 0.574973 M 0 0.642882 L 0.166743 0.725013 L 0.300026 0.725013 L 0.400017 0.642882 L 1.000015 0.642882 M 0 0.785702 L 0.166743 0.839776 L 0.833272 0.839776 L 1.000015 0.785702 " transform="matrix(70.866142,0,0,70.866142,0,0)"/>
</g>
</g>
  </g>
  <g>
    <g transform="translate(566.929133858, 283.464566929) scale(1)"><g id="surface1">
<path style=" stroke:none;fill-rule:nonzero;fill:rgb(100%,100%,100%);fill-opacity:1;" d="M 0 0 L 70.867188 0 L 70.867188 70.867188 L 0 70.867188 Z "/>
<path style="fill:none;stroke-width:0.02;stroke-linecap:round;stroke-linejoin:round;stroke:rgb(0%,0%,0%);stroke-opacity:1;stroke-miterlimit:10;" d="M 0 0.0714375 L 1.000015 0.0714375 M 0 0.214312 L 0.166743 0.275001 M 1.000015 0.214312 L 0.833272 0.275001 M 0 0.357132 L 0.166743 0.424987 M 1.000015 0.357132 L 0.833272 0.424987 M 0 0.500007 L 0.166743 0.574973 L 0.550003 0.574973 L 0.699988 0.725013 L 0.833272 0.725013 M 1.000015 0.500007 L 0.833272 0.574973 M 0 0.642882 L 0.166743 0.725013 L 0.300026 0.725013 L 0.400017 0.642882 L 1.000015 0.642882 M 0 0.785702 L 0.166743 0.839776 L 0.833272 0.839776 L 1.000015 0.785702 " transform="matrix(70.866142,0,0,70.866142,0,0)"/>
</g>
</g>
  </g>
  <g>
    <g transform="translate(0, 354.330708661) scale(1)"><g id="surface33">
<path style=" stroke:none;fill-rule:nonzero;fill:rgb(100%,100%,100%);fill-opacity:1;" d="M 0 0 L 70.867188 0 L 70.867188 70.867188 L 0 70.867188 Z "/>
<path style="fill:none;stroke-width:0.02;stroke-linecap:round;stroke-linejoin:round;stroke:rgb(0%,0%,0%);stroke-opacity:1;stroke-miterlimit:10;" d="M 1.000015 0.0714375 L 0.916671 0.0714375 L 0.916671 0.500007 L 1.000015 0.500007 M 0.0833437 0 L 0.0833437 0.214312 L 1.000015 0.214312 M 0.0833437 0.214312 L 0.0833437 1.000015 M 0.249976 0 L 0.249976 0.357132 L 1.000015 0.357132 M 0.249976 0.357132 L 0.249976 1.000015 M 0.416664 0 L 0.416664 0.642882 L 1.000015 0.642882 M 0.416664 0.642882 L 0.416664 1.000015 M 0.583351 0 L 0.583351 0.785702 L 1.000015 0.785702 M 0.583351 0.785702 L 0.583351 1.000015 M 0.749984 0 L 0.749984 1.000015 " transform="matrix(70.866142,0,0,70.866142,0,0)"/>
</g>
</g>
  </g>
  <g>
    <g transform="translate(637.795275591, 354.330708661) scale(1)"><g id="surface17">
<path style=" stroke:none;fill-rule:nonzero;fill:rgb(100%,100%,100%);fill-opacity:1;" d="M 0 0 L 70.867188 0 L 70.867188 70.867188 L 0 70.867188 Z "/>
<path style="fill:none;stroke-width:0.02;stroke-linecap:round;stroke-linejoin:round;stroke:rgb(0%,0%,0%);stroke-opacity:1;stroke-miterlimit:10;" d="M 0 0.0714375 L 0.125016 0.0714375 L 0.125016 0 M 0 0.500007 L 0.125016 0.500007 L 0.125016 1.000015 " transform="matrix(70.866142,0,0,70.866142,0,0)"/>
</g>
</g>
  </g>
  <g>
    <g transform="translate(70.8661417323, 354.330708661) scale(1)"><g id="surface1">
<path style=" stroke:none;fill-rule:nonzero;fill:rgb(100%,100%,100%);fill-opacity:1;" d="M 0 0 L 70.867188 0 L 70.867188 70.867188 L 0 70.867188 Z "/>
<path style="fill:none;stroke-width:0.02;stroke-linecap:round;stroke-linejoin:round;stroke:rgb(0%,0%,0%);stroke-opacity:1;stroke-miterlimit:10;" d="M 0 0.0714375 L 1.000015 0.0714375 M 0 0.214312 L 0.166743 0.275001 M 1.000015 0.214312 L 0.833272 0.275001 M 0 0.357132 L 0.166743 0.424987 M 1.000015 0.357132 L 0.833272 0.424987 M 0 0.500007 L 0.166743 0.574973 L 0.550003 0.574973 L 0.699988 0.725013 L 0.833272 0.725013 M 1.000015 0.500007 L 0.833272 0.574973 M 0 0.642882 L 0.166743 0.725013 L 0.300026 0.725013 L 0.400017 0.642882 L 1.000015 0.642882 M 0 0.785702 L 0.166743 0.839776 L 0.833272 0.839776 L 1.000015 0.785702 " transform="matrix(70.866142,0,0,70.866142,0,0)"/>
</g>
</g>
  </g>
  <g>
    <g transform="translate(141.732283465, 354.330708661) scale(1)"><g id="surface1">
<path style=" stroke:none;fill-rule:nonzero;fill:rgb(100%,100%,100%);fill-opacity:1;" d="M 0 0 L 70.867188 0 L 70.867188 70.867188 L 0 70.867188 Z "/>
<path style="fill:none;stroke-width:0.02;stroke-linecap:round;stroke-linejoin:round;stroke:rgb(0%,0%,0%);stroke-opacity:1;stroke-miterlimit:10;" d="M 0 0.0714375 L 1.000015 0.0714375 M 0 0.214312 L 0.166743 0.275001 M 1.000015 0.214312 L 0.833272 0.275001 M 0 0.357132 L 0.166743 0.424987 M 1.000015 0.357132 L 0.833272 0.424987 M 0 0.500007 L 0.166743 0.574973 L 0.550003 0.574973 L 0.699988 0.725013 L 0.833272 0.725013 M 1.000015 0.500007 L 0.833272 0.574973 M 0 0.642882 L 0.166743 0.725013 L 0.300026 0.725013 L 0.400017 0.642882 L 1.000015 0.642882 M 0 0.785702 L 0.166743 0.839776 L 0.833272 0.839776 L 1.000015 0.785702 " transform="matrix(70.866142,0,0,70.866142,0,0)"/>
</g>
</g>
  </g>
  <g>
    <g transform="translate(212.598425197, 354.330708661) scale(1)"><g id="surface1">
<path style=" stroke:none;fill-rule:nonzero;fill:rgb(100%,100%,100%);fill-opacity:1;" d="M 0 0 L 70.867188 0 L 70.867188 70.867188 L 0 70.867188 Z "/>
<path style="fill:none;stroke-width:0.02;stroke-linecap:round;stroke-linejoin:round;stroke:rgb(0%,0%,0%);stroke-opacity:1;stroke-miterlimit:10;" d="M 0 0.0714375 L 1.000015 0.0714375 M 0 0.214312 L 0.166743 0.275001 M 1.000015 0.214312 L 0.833272 0.275001 M 0 0.357132 L 0.166743 0.424987 M 1.000015 0.357132 L 0.833272 0.424987 M 0 0.500007 L 0.166743 0.574973 L 0.550003 0.574973 L 0.699988 0.725013 L 0.833272 0.725013 M 1.000015 0.500007 L 0.833272 0.574973 M 0 0.642882 L 0.166743 0.725013 L 0.300026 0.725013 L 0.400017 0.642882 L 1.000015 0.642882 M 0 0.785702 L 0.166743 0.839776 L 0.833272 0.839776 L 1.000015 0.785702 " transform="matrix(70.866142,0,0,70.866142,0,0)"/>
</g>
</g>
  </g>
  <g>
    <g transform="translate(283.464566929, 354.330708661) scale(1)"><g id="surface1">
<path style=" stroke:none;fill-rule:nonzero;fill:rgb(100%,100%,100%);fill-opacity:1;" d="M 0 0 L 70.867188 0 L 70.867188 70.867188 L 0 70.867188 Z "/>
<path style="fill:none;stroke-width:0.02;stroke-linecap:round;stroke-linejoin:round;stroke:rgb(0%,0%,0%);stroke-opacity:1;stroke-miterlimit:10;" d="M 0 0.0714375 L 1.000015 0.0714375 M 0 0.214312 L 0.166743 0.275001 M 1.000015 0.214312 L 0.833272 0.275001 M 0 0.357132 L 0.166743 0.424987 M 1.000015 0.357132 L 0.833272 0.424987 M 0 0.500007 L 0.166743 0.574973 L 0.550003 0.574973 L 0.699988 0.725013 L 0.833272 0.725013 M 1.000015 0.500007 L 0.833272 0.574973 M 0 0.642882 L 0.166743 0.725013 L 0.300026 0.725013 L 0.400017 0.642882 L 1.000015 0.642882 M 0 0.785702 L 0.166743 0.839776 L 0.833272 0.839776 L 1.000015 0.785702 " transform="matrix(70.866142,0,0,70.866142,0,0)"/>
</g>
</g>
  </g>
  <g>
    <g transform="translate(354.330708661, 354.330708661) scale(1)"><g id="surface1">
<path style=" stroke:none;fill-rule:nonzero;fill:rgb(100%,100%,100%);fill-opacity:1;" d="M 0 0 L 70.867188 0 L 70.867188 70.867188 L 0 70.867188 Z "/>
<path style="fill:none;stroke-width:0.02;stroke-linecap:round;stroke-linejoin:round;stroke:rgb(0%,0%,0%);stroke-opacity:1;stroke-miterlimit:10;" d="M 0 0.0714375 L 1.000015 0.0714375 M 0 0.214312 L 0.166743 0.275001 M 1.000015 0.214312 L 0.833272 0.275001 M 0 0.357132 L 0.166743 0.424987 M 1.000015 0.357132 L 0.833272 0.424987 M 0 0.500007 L 0.166743 0.574973 L 0.550003 0.574973 L 0.699988 0.725013 L 0.833272 0.725013 M 1.000015 0.500007 L 0.833272 0.574973 M 0 0.642882 L 0.166743 0.725013 L 0.300026 0.725013 L 0.400017 0.642882 L 1.000015 0.642882 M 0 0.785702 L 0.166743 0.839776 L 0.833272 0.839776 L 1.000015 0.785702 " transform="matrix(70.866142,0,0,70.866142,0,0)"/>
</g>
</g>
  </g>
  <g>
    <g transform="translate(425.196850394, 354.330708661) scale(1)"><g id="surface1">
<path style=" stroke:none;fill-rule:nonzero;fill:rgb(100%,100%,100%);fill-opacity:1;" d="M 0 0 L 70.867188 0 L 70.867188 70.867188 L 0 70.867188 Z "/>
<path style="fill:none;stroke-width:0.02;stroke-linecap:round;stroke-linejoin:round;stroke:rgb(0%,0%,0%);stroke-opacity:1;stroke-miterlimit:10;" d="M 0 0.0714375 L 1.000015 0.0714375 M 0 0.214312 L 0.166743 0.275001 M 1.000015 0.214312 L 0.833272 0.275001 M 0 0.357132 L 0.166743 0.424987 M 1.000015 0.357132 L 0.833272 0.424987 M 0 0.500007 L 0.166743 0.574973 L 0.550003 0.574973 L 0.699988 0.725013 L 0.833272 0.725013 M 1.000015 0.500007 L 0.833272 0.574973 M 0 0.642882 L 0.166743 0.725013 L 0.300026 0.725013 L 0.400017 0.642882 L 1.000015 0.642882 M 0 0.785702 L 0.166743 0.839776 L 0.833272 0.839776 L 1.000015 0.785702 " transform="matrix(70.866142,0,0,70.866142,0,0)"/>
</g>
</g>
  </g>
  <g>
    <g transform="translate(496.062992126, 354.330708661) scale(1)"><g id="surface1">
<path style=" stroke:none;fill-rule:nonzero;fill:rgb(100%,100%,100%);fill-opacity:1;" d="M 0 0 L 70.867188 0 L 70.867188 70.867188 L 0 70.867188 Z "/>
<path style="fill:none;stroke-width:0.02;stroke-linecap:round;stroke-linejoin:round;stroke:rgb(0%,0%,0%);stroke-opacity:1;stroke-miterlimit:10;" d="M 0 0.0714375 L 1.000015 0.0714375 M 0 0.214312 L 0.166743 0.275001 M 1.000015 0.214312 L 0.833272 0.275001 M 0 0.357132 L 0.166743 0.424987 M 1.000015 0.357132 L 0.833272 0.424987 M 0 0.500007 L 0.166743 0.574973 L 0.550003 0.574973 L 0.699988 0.725013 L 0.833272 0.725013 M 1.000015 0.500007 L 0.833272 0.574973 M 0 0.642882 L 0.166743 0.725013 L 0.300026 0.725013 L 0.400017 0.642882 L 1.000015 0.642882 M 0 0.785702 L 0.166743 0.839776 L 0.833272 0.839776 L 1.000015 0.785702 " transform="matrix(70.866142,0,0,70.866142,0,0)"/>
</g>
</g>
  </g>
  <g>
    <g transform="translate(566.929133858, 354.330708661) scale(1)"><g id="surface1">
<path style=" stroke:none;fill-rule:nonzero;fill:rgb(100%,100%,100%);fill-opacity:1;" d="M 0 0 L 70.867188 0 L 70.867188 70.867188 L 0 70.867188 Z "/>
<path style="fill:none;stroke-width:0.02;stroke-linecap:round;stroke-linejoin:round;stroke:rgb(0%,0%,0%);stroke-opacity:1;stroke-miterlimit:10;" d="M 0 0.0714375 L 1.000015 0.0714375 M 0 0.214312 L 0.166743 0.275001 M 1.000015 0.214312 L 0.833272 0.275001 M 0 0.357132 L 0.166743 0.424987 M 1.000015 0.357132 L 0.833272 0.424987 M 0 0.500007 L 0.166743 0.574973 L 0.550003 0.574973 L 0.699988 0.725013 L 0.833272 0.725013 M 1.000015 0.500007 L 0.833272 0.574973 M 0 0.642882 L 0.166743 0.725013 L 0.300026 0.725013 L 0.400017 0.642882 L 1.000015 0.642882 M 0 0.785702 L 0.166743 0.839776 L 0.833272 0.839776 L 1.000015 0.785702 " transform="matrix(70.866142,0,0,70.866142,0,0)"/>
</g>
</g>
  </g>
  <g>
    <g transform="translate(0, 425.196850394) scale(1)"><g id="surface33">
<path style=" stroke:none;fill-rule:nonzero;fill:rgb(100%,100%,100%);fill-opacity:1;" d="M 0 0 L 70.867188 0 L 70.867188 70.867188 L 0 70.867188 Z "/>
<path style="fill:none;stroke-width:0.02;stroke-linecap:round;stroke-linejoin:round;stroke:rgb(0%,0%,0%);stroke-opacity:1;stroke-miterlimit:10;" d="M 1.000015 0.0714375 L 0.916671 0.0714375 L 0.916671 0.500007 L 1.000015 0.500007 M 0.0833437 0 L 0.0833437 0.214312 L 1.000015 0.214312 M 0.0833437 0.214312 L 0.0833437 1.000015 M 0.249976 0 L 0.249976 0.357132 L 1.000015 0.357132 M 0.249976 0.357132 L 0.249976 1.000015 M 0.416664 0 L 0.416664 0.642882 L 1.000015 0.642882 M 0.416664 0.642882 L 0.416664 1.000015 M 0.583351 0 L 0.583351 0.785702 L 1.000015 0.785702 M 0.583351 0.785702 L 0.583351 1.000015 M 0.749984 0 L 0.749984 1.000015 " transform="matrix(70.866142,0,0,70.866142,0,0)"/>
</g>
</g>
  </g>
  <g>
    <g transform="translate(637.795275591, 425.196850394) scale(1)"><g id="surface17">
<path style=" stroke:none;fill-rule:nonzero;fill:rgb(100%,100%,100%);fill-opacity:1;" d="M 0 0 L 70.867188 0 L 70.867188 70.867188 L 0 70.867188 Z "/>
<path style="fill:none;stroke-width:0.02;stroke-linecap:round;stroke-linejoin:round;stroke:rgb(0%,0%,0%);stroke-opacity:1;stroke-miterlimit:10;" d="M 0 0.0714375 L 0.125016 0.0714375 L 0.125016 0 M 0 0.500007 L 0.125016 0.500007 L 0.125016 1.000015 " transform="matrix(70.866142,0,0,70.866142,0,0)"/>
</g>
</g>
  </g>
  <g>
    <g transform="translate(70.8661417323, 425.196850394) scale(1)"><g id="surface1">
<path style=" stroke:none;fill-rule:nonzero;fill:rgb(100%,100%,100%);fill-opacity:1;" d="M 0 0 L 70.867188 0 L 70.867188 70.867188 L 0 70.867188 Z "/>
<path style="fill:none;stroke-width:0.02;stroke-linecap:round;stroke-linejoin:round;stroke:rgb(0%,0%,0%);stroke-opacity:1;stroke-miterlimit:10;" d="M 0 0.0714375 L 1.000015 0.0714375 M 0 0.214312 L 0.166743 0.275001 M 1.000015 0.214312 L 0.833272 0.275001 M 0 0.357132 L 0.166743 0.424987 M 1.000015 0.357132 L 0.833272 0.424987 M 0 0.500007 L 0.166743 0.574973 L 0.550003 0.574973 L 0.699988 0.725013 L 0.833272 0.725013 M 1.000015 0.500007 L 0.833272 0.574973 M 0 0.642882 L 0.166743 0.725013 L 0.300026 0.725013 L 0.400017 0.642882 L 1.000015 0.642882 M 0 0.785702 L 0.166743 0.839776 L 0.833272 0.839776 L 1.000015 0.785702 " transform="matrix(70.866142,0,0,70.866142,0,0)"/>
</g>
</g>
  </g>
  <g>
    <g transform="translate(141.732283465, 425.196850394) scale(1)"><g id="surface1">
<path style=" stroke:none;fill-rule:nonzero;fill:rgb(100%,100%,100%);fill-opacity:1;" d="M 0 0 L 70.867188 0 L 70.867188 70.867188 L 0 70.867188 Z "/>
<path style="fill:none;stroke-width:0.02;stroke-linecap:round;stroke-linejoin:round;stroke:rgb(0%,0%,0%);stroke-opacity:1;stroke-miterlimit:10;" d="M 0 0.0714375 L 1.000015 0.0714375 M 0 0.214312 L 0.166743 0.275001 M 1.000015 0.214312 L 0.833272 0.275001 M 0 0.357132 L 0.166743 0.424987 M 1.000015 0.357132 L 0.833272 0.424987 M 0 0.500007 L 0.166743 0.574973 L 0.550003 0.574973 L 0.699988 0.725013 L 0.833272 0.725013 M 1.000015 0.500007 L 0.833272 0.574973 M 0 0.642882 L 0.166743 0.725013 L 0.300026 0.725013 L 0.400017 0.642882 L 1.000015 0.642882 M 0 0.785702 L 0.166743 0.839776 L 0.833272 0.839776 L 1.000015 0.785702 " transform="matrix(70.866142,0,0,70.866142,0,0)"/>
</g>
</g>
  </g>
  <g>
    <g transform="translate(212.598425197, 425.196850394) scale(1)"><g id="surface1">
<path style=" stroke:none;fill-rule:nonzero;fill:rgb(100%,100%,100%);fill-opacity:1;" d="M 0 0 L 70.867188 0 L 70.867188 70.867188 L 0 70.867188 Z "/>
<path style="fill:none;stroke-width:0.02;stroke-linecap:round;stroke-linejoin:round;stroke:rgb(0%,0%,0%);stroke-opacity:1;stroke-miterlimit:10;" d="M 0 0.0714375 L 1.000015 0.0714375 M 0 0.214312 L 0.166743 0.275001 M 1.000015 0.214312 L 0.833272 0.275001 M 0 0.357132 L 0.166743 0.424987 M 1.000015 0.357132 L 0.833272 0.424987 M 0 0.500007 L 0.166743 0.574973 L 0.550003 0.574973 L 0.699988 0.725013 L 0.833272 0.725013 M 1.000015 0.500007 L 0.833272 0.574973 M 0 0.642882 L 0.166743 0.725013 L 0.300026 0.725013 L 0.400017 0.642882 L 1.000015 0.642882 M 0 0.785702 L 0.166743 0.839776 L 0.833272 0.839776 L 1.000015 0.785702 " transform="matrix(70.866142,0,0,70.866142,0,0)"/>
</g>
</g>
  </g>
  <g>
    <g transform="translate(283.464566929, 425.196850394) scale(1)"><g id="surface1">
<path style=" stroke:none;fill-rule:nonzero;fill:rgb(100%,100%,100%);fill-opacity:1;" d="M 0 0 L 70.867188 0 L 70.867188 70.867188 L 0 70.867188 Z "/>
<path style="fill:none;stroke-width:0.02;stroke-linecap:round;stroke-linejoin:round;stroke:rgb(0%,0%,0%);stroke-opacity:1;stroke-miterlimit:10;" d="M 0 0.0714375 L 1.000015 0.0714375 M 0 0.214312 L 0.166743 0.275001 M 1.000015 0.214312 L 0.833272 0.275001 M 0 0.357132 L 0.166743 0.424987 M 1.000015 0.357132 L 0.833272 0.424987 M 0 0.500007 L 0.166743 0.574973 L 0.550003 0.574973 L 0.699988 0.725013 L 0.833272 0.725013 M 1.000015 0.500007 L 0.833272 0.574973 M 0 0.642882 L 0.166743 0.725013 L 0.300026 0.725013 L 0.400017 0.642882 L 1.000015 0.642882 M 0 0.785702 L 0.166743 0.839776 L 0.833272 0.839776 L 1.000015 0.785702 " transform="matrix(70.866142,0,0,70.866142,0,0)"/>
</g>
</g>
  </g>
  <g>
    <g transform="translate(354.330708661, 425.196850394) scale(1)"><g id="surface1">
<path style=" stroke:none;fill-rule:nonzero;fill:rgb(100%,100%,100%);fill-opacity:1;" d="M 0 0 L 70.867188 0 L 70.867188 70.867188 L 0 70.867188 Z "/>
<path style="fill:none;stroke-width:0.02;stroke-linecap:round;stroke-linejoin:round;stroke:rgb(0%,0%,0%);stroke-opacity:1;stroke-miterlimit:10;" d="M 0 0.0714375 L 1.000015 0.0714375 M 0 0.214312 L 0.166743 0.275001 M 1.000015 0.214312 L 0.833272 0.275001 M 0 0.357132 L 0.166743 0.424987 M 1.000015 0.357132 L 0.833272 0.424987 M 0 0.500007 L 0.166743 0.574973 L 0.550003 0.574973 L 0.699988 0.725013 L 0.833272 0.725013 M 1.000015 0.500007 L 0.833272 0.574973 M 0 0.642882 L 0.166743 0.725013 L 0.300026 0.725013 L 0.400017 0.642882 L 1.000015 0.642882 M 0 0.785702 L 0.166743 0.839776 L 0.833272 0.839776 L 1.000015 0.785702 " transform="matrix(70.866142,0,0,70.866142,0,0)"/>
</g>
</g>
  </g>
  <g>
    <g transform="translate(425.196850394, 425.196850394) scale(1)"><g id="surface1">
<path style=" stroke:none;fill-rule:nonzero;fill:rgb(100%,100%,100%);fill-opacity:1;" d="M 0 0 L 70.867188 0 L 70.867188 70.867188 L 0 70.867188 Z "/>
<path style="fill:none;stroke-width:0.02;stroke-linecap:round;stroke-linejoin:round;stroke:rgb(0%,0%,0%);stroke-opacity:1;stroke-miterlimit:10;" d="M 0 0.0714375 L 1.000015 0.0714375 M 0 0.214312 L 0.166743 0.275001 M 1.000015 0.214312 L 0.833272 0.275001 M 0 0.357132 L 0.166743 0.424987 M 1.000015 0.357132 L 0.833272 0.424987 M 0 0.500007 L 0.166743 0.574973 L 0.550003 0.574973 L 0.699988 0.725013 L 0.833272 0.725013 M 1.000015 0.500007 L 0.833272 0.574973 M 0 0.642882 L 0.166743 0.725013 L 0.300026 0.725013 L 0.400017 0.642882 L 1.000015 0.642882 M 0 0.785702 L 0.166743 0.839776 L 0.833272 0.839776 L 1.000015 0.785702 " transform="matrix(70.866142,0,0,70.866142,0,0)"/>
</g>
</g>
  </g>
  <g>
    <g transform="translate(496.062992126, 425.196850394) scale(1)"><g id="surface1">
<path style=" stroke:none;fill-rule:nonzero;fill:rgb(100%,100%,100%);fill-opacity:1;" d="M 0 0 L 70.867188 0 L 70.867188 70.867188 L 0 70.867188 Z "/>
<path style="fill:none;stroke-width:0.02;stroke-linecap:round;stroke-linejoin:round;stroke:rgb(0%,0%,0%);stroke-opacity:1;stroke-miterlimit:10;" d="M 0 0.0714375 L 1.000015 0.0714375 M 0 0.214312 L 0.166743 0.275001 M 1.000015 0.214312 L 0.833272 0.275001 M 0 0.357132 L 0.166743 0.424987 M 1.000015 0.357132 L 0.833272 0.424987 M 0 0.500007 L 0.166743 0.574973 L 0.550003 0.574973 L 0.699988 0.725013 L 0.833272 0.725013 M 1.000015 0.500007 L 0.833272 0.574973 M 0 0.642882 L 0.166743 0.725013 L 0.300026 0.725013 L 0.400017 0.642882 L 1.000015 0.642882 M 0 0.785702 L 0.166743 0.839776 L 0.833272 0.839776 L 1.000015 0.785702 " transform="matrix(70.866142,0,0,70.866142,0,0)"/>
</g>
</g>
  </g>
  <g>
    <g transform="translate(566.929133858, 425.196850394) scale(1)"><g id="surface1">
<path style=" stroke:none;fill-rule:nonzero;fill:rgb(100%,100%,100%);fill-opacity:1;" d="M 0 0 L 70.867188 0 L 70.867188 70.867188 L 0 70.867188 Z "/>
<path style="fill:none;stroke-width:0.02;stroke-linecap:round;stroke-linejoin:round;stroke:rgb(0%,0%,0%);stroke-opacity:1;stroke-miterlimit:10;" d="M 0 0.0714375 L 1.000015 0.0714375 M 0 0.214312 L 0.166743 0.275001 M 1.000015 0.214312 L 0.833272 0.275001 M 0 0.357132 L 0.166743 0.424987 M 1.000015 0.357132 L 0.833272 0.424987 M 0 0.500007 L 0.166743 0.574973 L 0.550003 0.574973 L 0.699988 0.725013 L 0.833272 0.725013 M 1.000015 0.500007 L 0.833272 0.574973 M 0 0.642882 L 0.166743 0.725013 L 0.300026 0.725013 L 0.400017 0.642882 L 1.000015 0.642882 M 0 0.785702 L 0.166743 0.839776 L 0.833272 0.839776 L 1.000015 0.785702 " transform="matrix(70.866142,0,0,70.866142,0,0)"/>
</g>
</g>
  </g>
  <g>
    <g transform="translate(0, 496.062992126) scale(1)"><g id="surface41">
<path style=" stroke:none;fill-rule:nonzero;fill:rgb(100%,100%,100%);fill-opacity:1;" d="M 0 0 L 70.867188 0 L 70.867188 70.867188 L 0 70.867188 Z "/>
<path style="fill:none;stroke-width:0.02;stroke-linecap:round;stroke-linejoin:round;stroke:rgb(0%,0%,0%);stroke-opacity:1;stroke-miterlimit:10;" d="M 1.000015 0.0714375 L 0.916671 0.0714375 L 0.916671 0.500007 L 1.000015 0.500007 M 0.0833437 0 L 0.0833437 0.214312 L 1.000015 0.214312 M 0.249976 0 L 0.249976 0.357132 L 1.000015 0.357132 M 0.416664 0 L 0.416664 0.642882 L 1.000015 0.642882 M 0.583351 0 L 0.583351 0.785702 L 1.000015 0.785702 M 0.749984 0 L 0.749984 0.928577 L 1.000015 0.928577 " transform="matrix(70.866142,0,0,70.866142,0,0)"/>
</g>
</g>
  </g>
  <g>
    <g transform="translate(637.795275591, 496.062992126) scale(1)"><g id="surface25">
<path style=" stroke:none;fill-rule:nonzero;fill:rgb(100%,100%,100%);fill-opacity:1;" d="M 0 0 L 70.867188 0 L 70.867188 70.867188 L 0 70.867188 Z "/>
<path style="fill:none;stroke-width:0.02;stroke-linecap:round;stroke-linejoin:round;stroke:rgb(0%,0%,0%);stroke-opacity:1;stroke-miterlimit:10;" d="M 0 0.0714375 L 0.125016 0.0714375 L 0.125016 0 M 0 0.500007 L 0.125016 0.500007 L 0.125016 0.928577 L 0 0.928577 " transform="matrix(70.866142,0,0,70.866142,0,0)"/>
</g>
</g>
  </g>
  <g>
    <g transform="translate(70.8661417323, 496.062992126) scale(1)"><g id="surface9">
<path style=" stroke:none;fill-rule:nonzero;fill:rgb(100%,100%,100%);fill-opacity:1;" d="M 0 0 L 70.867188 0 L 70.867188 70.867188 L 0 70.867188 Z "/>
<path style="fill:none;stroke-width:0.02;stroke-linecap:round;stroke-linejoin:round;stroke:rgb(0%,0%,0%);stroke-opacity:1;stroke-miterlimit:10;" d="M 0 0.0714375 L 1.000015 0.0714375 M 0 0.214312 L 0.166743 0.275001 M 1.000015 0.214312 L 0.833272 0.275001 M 0 0.357132 L 0.166743 0.424987 M 1.000015 0.357132 L 0.833272 0.424987 M 0 0.500007 L 0.166743 0.574973 L 0.550003 0.574973 L 0.699988 0.725013 L 0.833272 0.725013 M 1.000015 0.500007 L 0.833272 0.574973 M 0 0.642882 L 0.166743 0.725013 L 0.300026 0.725013 L 0.400017 0.642882 L 1.000015 0.642882 M 0 0.785702 L 0.166743 0.839776 L 0.833272 0.839776 L 1.000015 0.785702 M 0 0.928577 L 1.000015 0.928577 " transform="matrix(70.866142,0,0,70.866142,0,0)"/>
</g>
</g>
  </g>
  <g>
    <g transform="translate(141.732283465, 496.062992126) scale(1)"><g id="surface9">
<path style=" stroke:none;fill-rule:nonzero;fill:rgb(100%,100%,100%);fill-opacity:1;" d="M 0 0 L 70.867188 0 L 70.867188 70.867188 L 0 70.867188 Z "/>
<path style="fill:none;stroke-width:0.02;stroke-linecap:round;stroke-linejoin:round;stroke:rgb(0%,0%,0%);stroke-opacity:1;stroke-miterlimit:10;" d="M 0 0.0714375 L 1.000015 0.0714375 M 0 0.214312 L 0.166743 0.275001 M 1.000015 0.214312 L 0.833272 0.275001 M 0 0.357132 L 0.166743 0.424987 M 1.000015 0.357132 L 0.833272 0.424987 M 0 0.500007 L 0.166743 0.574973 L 0.550003 0.574973 L 0.699988 0.725013 L 0.833272 0.725013 M 1.000015 0.500007 L 0.833272 0.574973 M 0 0.642882 L 0.166743 0.725013 L 0.300026 0.725013 L 0.400017 0.642882 L 1.000015 0.642882 M 0 0.785702 L 0.166743 0.839776 L 0.833272 0.839776 L 1.000015 0.785702 M 0 0.928577 L 1.000015 0.928577 " transform="matrix(70.866142,0,0,70.866142,0,0)"/>
</g>
</g>
  </g>
  <g>
    <g transform="translate(212.598425197, 496.062992126) scale(1)"><g id="surface9">
<path style=" stroke:none;fill-rule:nonzero;fill:rgb(100%,100%,100%);fill-opacity:1;" d="M 0 0 L 70.867188 0 L 70.867188 70.867188 L 0 70.867188 Z "/>
<path style="fill:none;stroke-width:0.02;stroke-linecap:round;stroke-linejoin:round;stroke:rgb(0%,0%,0%);stroke-opacity:1;stroke-miterlimit:10;" d="M 0 0.0714375 L 1.000015 0.0714375 M 0 0.214312 L 0.166743 0.275001 M 1.000015 0.214312 L 0.833272 0.275001 M 0 0.357132 L 0.166743 0.424987 M 1.000015 0.357132 L 0.833272 0.424987 M 0 0.500007 L 0.166743 0.574973 L 0.550003 0.574973 L 0.699988 0.725013 L 0.833272 0.725013 M 1.000015 0.500007 L 0.833272 0.574973 M 0 0.642882 L 0.166743 0.725013 L 0.300026 0.725013 L 0.400017 0.642882 L 1.000015 0.642882 M 0 0.785702 L 0.166743 0.839776 L 0.833272 0.839776 L 1.000015 0.785702 M 0 0.928577 L 1.000015 0.928577 " transform="matrix(70.866142,0,0,70.866142,0,0)"/>
</g>
</g>
  </g>
  <g>
    <g transform="translate(283.464566929, 496.062992126) scale(1)"><g id="surface9">
<path style=" stroke:none;fill-rule:nonzero;fill:rgb(100%,100%,100%);fill-opacity:1;" d="M 0 0 L 70.867188 0 L 70.867188 70.867188 L 0 70.867188 Z "/>
<path style="fill:none;stroke-width:0.02;stroke-linecap:round;stroke-linejoin:round;stroke:rgb(0%,0%,0%);stroke-opacity:1;stroke-miterlimit:10;" d="M 0 0.0714375 L 1.000015 0.0714375 M 0 0.214312 L 0.166743 0.275001 M 1.000015 0.214312 L 0.833272 0.275001 M 0 0.357132 L 0.166743 0.424987 M 1.000015 0.357132 L 0.833272 0.424987 M 0 0.500007 L 0.166743 0.574973 L 0.550003 0.574973 L 0.699988 0.725013 L 0.833272 0.725013 M 1.000015 0.500007 L 0.833272 0.574973 M 0 0.642882 L 0.166743 0.725013 L 0.300026 0.725013 L 0.400017 0.642882 L 1.000015 0.642882 M 0 0.785702 L 0.166743 0.839776 L 0.833272 0.839776 L 1.000015 0.785702 M 0 0.928577 L 1.000015 0.928577 " transform="matrix(70.866142,0,0,70.866142,0,0)"/>
</g>
</g>
  </g>
  <g>
    <g transform="translate(354.330708661, 496.062992126) scale(1)"><g id="surface9">
<path style=" stroke:none;fill-rule:nonzero;fill:rgb(100%,100%,100%);fill-opacity:1;" d="M 0 0 L 70.867188 0 L 70.867188 70.867188 L 0 70.867188 Z "/>
<path style="fill:none;stroke-width:0.02;stroke-linecap:round;stroke-linejoin:round;stroke:rgb(0%,0%,0%);stroke-opacity:1;stroke-miterlimit:10;" d="M 0 0.0714375 L 1.000015 0.0714375 M 0 0.214312 L 0.166743 0.275001 M 1.000015 0.214312 L 0.833272 0.275001 M 0 0.357132 L 0.166743 0.424987 M 1.000015 0.357132 L 0.833272 0.424987 M 0 0.500007 L 0.166743 0.574973 L 0.550003 0.574973 L 0.699988 0.725013 L 0.833272 0.725013 M 1.000015 0.500007 L 0.833272 0.574973 M 0 0.642882 L 0.166743 0.725013 L 0.300026 0.725013 L 0.400017 0.642882 L 1.000015 0.642882 M 0 0.785702 L 0.166743 0.839776 L 0.833272 0.839776 L 1.000015 0.785702 M 0 0.928577 L 1.000015 0.928577 " transform="matrix(70.866142,0,0,70.866142,0,0)"/>
</g>
</g>
  </g>
  <g>
    <g transform="translate(425.196850394, 496.062992126) scale(1)"><g id="surface9">
<path style=" stroke:none;fill-rule:nonzero;fill:rgb(100%,100%,100%);fill-opacity:1;" d="M 0 0 L 70.867188 0 L 70.867188 70.867188 L 0 70.867188 Z "/>
<path style="fill:none;stroke-width:0.02;stroke-linecap:round;stroke-linejoin:round;stroke:rgb(0%,0%,0%);stroke-opacity:1;stroke-miterlimit:10;" d="M 0 0.0714375 L 1.000015 0.0714375 M 0 0.214312 L 0.166743 0.275001 M 1.000015 0.214312 L 0.833272 0.275001 M 0 0.357132 L 0.166743 0.424987 M 1.000015 0.357132 L 0.833272 0.424987 M 0 0.500007 L 0.166743 0.574973 L 0.550003 0.574973 L 0.699988 0.725013 L 0.833272 0.725013 M 1.000015 0.500007 L 0.833272 0.574973 M 0 0.642882 L 0.166743 0.725013 L 0.300026 0.725013 L 0.400017 0.642882 L 1.000015 0.642882 M 0 0.785702 L 0.166743 0.839776 L 0.833272 0.839776 L 1.000015 0.785702 M 0 0.928577 L 1.000015 0.928577 " transform="matrix(70.866142,0,0,70.866142,0,0)"/>
</g>
</g>
  </g>
  <g>
    <g transform="translate(496.062992126, 496.062992126) scale(1)"><g id="surface9">
<path style=" stroke:none;fill-rule:nonzero;fill:rgb(100%,100%,100%);fill-opacity:1;" d="M 0 0 L 70.867188 0 L 70.867188 70.867188 L 0 70.867188 Z "/>
<path style="fill:none;stroke-width:0.02;stroke-linecap:round;stroke-linejoin:round;stroke:rgb(0%,0%,0%);stroke-opacity:1;stroke-miterlimit:10;" d="M 0 0.0714375 L 1.000015 0.0714375 M 0 0.214312 L 0.166743 0.275001 M 1.000015 0.214312 L 0.833272 0.275001 M 0 0.357132 L 0.166743 0.424987 M 1.000015 0.357132 L 0.833272 0.424987 M 0 0.500007 L 0.166743 0.574973 L 0.550003 0.574973 L 0.699988 0.725013 L 0.833272 0.725013 M 1.000015 0.500007 L 0.833272 0.574973 M 0 0.642882 L 0.166743 0.725013 L 0.300026 0.725013 L 0.400017 0.642882 L 1.000015 0.642882 M 0 0.785702 L 0.166743 0.839776 L 0.833272 0.839776 L 1.000015 0.785702 M 0 0.928577 L 1.000015 0.928577 " transform="matrix(70.866142,0,0,70.866142,0,0)"/>
</g>
</g>
  </g>
  <g>
    <g transform="translate(566.929133858, 496.062992126) scale(1)"><g id="surface9">
<path style=" stroke:none;fill-rule:nonzero;fill:rgb(100%,100%,100%);fill-opacity:1;" d="M 0 0 L 70.867188 0 L 70.867188 70.867188 L 0 70.867188 Z "/>
<path style="fill:none;stroke-width:0.02;stroke-linecap:round;stroke-linejoin:round;stroke:rgb(0%,0%,0%);stroke-opacity:1;stroke-miterlimit:10;" d="M 0 0.0714375 L 1.000015 0.0714375 M 0 0.214312 L 0.166743 0.275001 M 1.000015 0.214312 L 0.833272 0.275001 M 0 0.357132 L 0.166743 0.424987 M 1.000015 0.357132 L 0.833272 0.424987 M 0 0.500007 L 0.166743 0.574973 L 0.550003 0.574973 L 0.699988 0.725013 L 0.833272 0.725013 M 1.000015 0.500007 L 0.833272 0.574973 M 0 0.642882 L 0.166743 0.725013 L 0.300026 0.725013 L 0.400017 0.642882 L 1.000015 0.642882 M 0 0.785702 L 0.166743 0.839776 L 0.833272 0.839776 L 1.000015 0.785702 M 0 0.928577 L 1.000015 0.928577 " transform="matrix(70.866142,0,0,70.866142,0,0)"/>
</g>
</g>
  </g>
</svg>
