  0
SECTION
  2
HEADER
  9
$ACADVER
  1
AC1009
  9
$EXTMIN
 10
0.0
 20
0.0
 30
0.0
  9
$EXTMAX
 10
1000.0
 20
1000.0
 30
0.0
  9
$FILLMODE
 70
 0
  9
$SPLFRAME
 70
 1
  0
ENDSEC
  0
SECTION
  2
TABLES
  0
TABLE
  2
LAYER
 70
1
  0
LAYER
  2
0
 70
     0
 62
     7
  6
CONTINUOUS
  0
ENDTAB
  0
ENDSEC
  0
SECTION
  2
ENTITIES
  0
LINE
  8
0
 62
     7
 10
1.62457
 20
200.064
 30
0.0
 11
26.6256
 21
200.064
 31
0.0
  0
LINE
  8
0
 62
     7
 10
26.6256
 20
200.064
 30
0.0
 11
26.6256
 21
175.063
 31
0.0
  0
LINE
  8
0
 62
     7
 10
26.6256
 20
175.063
 30
0.0
 11
1.62457
 21
175.063
 31
0.0
  0
LINE
  8
0
 62
     7
 10
1.62457
 20
175.063
 30
0.0
 11
1.62457
 21
200.064
 31
0.0
  0
LINE
  8
0
 62
     0
 10
20.3743
 20
200.063
 30
0.0
 11
20.3743
 21
193.814
 31
0.0
  0
LINE
  8
0
 62
     0
 10
18.2915
 20
193.814
 30
0.0
 11
26.6256
 21
193.814
 31
0.0
  0
LINE
  8
0
 62
     0
 10
20.3743
 20
193.814
 30
0.0
 11
20.3743
 21
175.063
 31
0.0
  0
LINE
  8
0
 62
     0
 10
16.2093
 20
200.063
 30
0.0
 11
16.2093
 21
189.646
 31
0.0
  0
LINE
  8
0
 62
     0
 10
14.1247
 20
189.646
 30
0.0
 11
26.6256
 21
189.646
 31
0.0
  0
LINE
  8
0
 62
     0
 10
16.2093
 20
189.646
 30
0.0
 11
16.2093
 21
175.063
 31
0.0
  0
LINE
  8
0
 62
     0
 10
26.6256
 20
197.979
 30
0.0
 11
24.541
 21
197.979
 31
0.0
  0
LINE
  8
0
 62
     0
 10
24.541
 20
197.979
 30
0.0
 11
24.541
 21
200.063
 31
0.0
  0
LINE
  8
0
 62
     0
 10
12.0425
 20
200.063
 30
0.0
 11
12.0425
 21
175.063
 31
0.0
  0
LINE
  8
0
 62
     0
 10
26.6256
 20
185.478
 30
0.0
 11
24.541
 21
185.478
 31
0.0
  0
LINE
  8
0
 62
     0
 10
24.541
 20
185.478
 30
0.0
 11
24.541
 21
175.063
 31
0.0
  0
LINE
  8
0
 62
     0
 10
7.87354
 20
200.063
 30
0.0
 11
7.87354
 21
181.314
 31
0.0
  0
LINE
  8
0
 62
     0
 10
5.79308
 20
181.314
 30
0.0
 11
26.6256
 21
181.314
 31
0.0
  0
LINE
  8
0
 62
     0
 10
7.87354
 20
181.314
 30
0.0
 11
7.87354
 21
175.063
 31
0.0
  0
LINE
  8
0
 62
     0
 10
3.70856
 20
200.063
 30
0.0
 11
3.70856
 21
177.147
 31
0.0
  0
LINE
  8
0
 62
     0
 10
1.62457
 20
177.147
 30
0.0
 11
26.6256
 21
177.147
 31
0.0
  0
LINE
  8
0
 62
     0
 10
3.70856
 20
177.147
 30
0.0
 11
3.70856
 21
175.063
 31
0.0
  0
LINE
  8
0
 62
     7
 10
26.6256
 20
200.064
 30
0.0
 11
51.6246
 21
200.064
 31
0.0
  0
LINE
  8
0
 62
     7
 10
51.6246
 20
200.064
 30
0.0
 11
51.6246
 21
175.063
 31
0.0
  0
LINE
  8
0
 62
     7
 10
51.6246
 20
175.063
 30
0.0
 11
26.6256
 21
175.063
 31
0.0
  0
LINE
  8
0
 62
     7
 10
26.6256
 20
175.063
 30
0.0
 11
26.6256
 21
200.064
 31
0.0
  0
LINE
  8
0
 62
     0
 10
26.6256
 20
193.814
 30
0.0
 11
30.794
 21
193.188
 31
0.0
  0
LINE
  8
0
 62
     0
 10
51.6246
 20
193.814
 30
0.0
 11
47.4561
 21
193.188
 31
0.0
  0
LINE
  8
0
 62
     0
 10
26.6256
 20
189.646
 30
0.0
 11
30.794
 21
189.439
 31
0.0
  0
LINE
  8
0
 62
     0
 10
51.6246
 20
189.646
 30
0.0
 11
47.4561
 21
189.439
 31
0.0
  0
LINE
  8
0
 62
     0
 10
26.6256
 20
197.979
 30
0.0
 11
51.6246
 21
197.979
 31
0.0
  0
LINE
  8
0
 62
     0
 10
26.6256
 20
185.478
 30
0.0
 11
30.794
 21
185.689
 31
0.0
  0
LINE
  8
0
 62
     0
 10
30.794
 20
185.689
 30
0.0
 11
47.4561
 21
185.689
 31
0.0
  0
LINE
  8
0
 62
     0
 10
51.6246
 20
185.478
 30
0.0
 11
47.4561
 21
181.938
 31
0.0
  0
LINE
  8
0
 62
     0
 10
26.6256
 20
181.314
 30
0.0
 11
30.794
 21
181.938
 31
0.0
  0
LINE
  8
0
 62
     0
 10
30.794
 20
181.938
 30
0.0
 11
28.7942
 21
184.436
 31
0.0
  0
LINE
  8
0
 62
     0
 10
28.7942
 20
184.436
 30
0.0
 11
32.7937
 21
184.436
 31
0.0
  0
LINE
  8
0
 62
     0
 10
32.7937
 20
184.436
 30
0.0
 11
30.794
 21
181.938
 31
0.0
  0
LINE
  8
0
 62
     0
 10
30.794
 20
181.938
 30
0.0
 11
39.1261
 21
181.314
 31
0.0
  0
LINE
  8
0
 62
     0
 10
39.1261
 20
181.314
 30
0.0
 11
47.4561
 21
180.531
 31
0.0
  0
LINE
  8
0
 62
     0
 10
47.4561
 20
180.531
 30
0.0
 11
51.6246
 21
181.314
 31
0.0
  0
LINE
  8
0
 62
     0
 10
26.6256
 20
177.147
 30
0.0
 11
39.1261
 21
177.147
 31
0.0
  0
LINE
  8
0
 62
     0
 10
39.1261
 20
177.147
 30
0.0
 11
44.2039
 21
179.069
 31
0.0
  0
LINE
  8
0
 62
     0
 10
44.2039
 20
179.069
 30
0.0
 11
42.2058
 21
176.568
 31
0.0
  0
LINE
  8
0
 62
     0
 10
42.2058
 20
176.568
 30
0.0
 11
46.2056
 21
176.568
 31
0.0
  0
LINE
  8
0
 62
     0
 10
46.2056
 20
176.568
 30
0.0
 11
44.2039
 21
179.069
 31
0.0
  0
LINE
  8
0
 62
     0
 10
44.2039
 20
179.069
 30
0.0
 11
51.6246
 21
177.147
 31
0.0
  0
LINE
  8
0
 62
     7
 10
51.6246
 20
200.064
 30
0.0
 11
76.6256
 21
200.064
 31
0.0
  0
LINE
  8
0
 62
     7
 10
76.6256
 20
200.064
 30
0.0
 11
76.6256
 21
175.063
 31
0.0
  0
LINE
  8
0
 62
     7
 10
76.6256
 20
175.063
 30
0.0
 11
51.6246
 21
175.063
 31
0.0
  0
LINE
  8
0
 62
     7
 10
51.6246
 20
175.063
 30
0.0
 11
51.6246
 21
200.064
 31
0.0
  0
LINE
  8
0
 62
     0
 10
51.6246
 20
193.814
 30
0.0
 11
55.7932
 21
193.188
 31
0.0
  0
LINE
  8
0
 62
     0
 10
76.626
 20
193.814
 30
0.0
 11
72.4571
 21
193.188
 31
0.0
  0
LINE
  8
0
 62
     0
 10
51.6246
 20
189.646
 30
0.0
 11
55.7932
 21
189.439
 31
0.0
  0
LINE
  8
0
 62
     0
 10
76.626
 20
189.646
 30
0.0
 11
72.4571
 21
189.439
 31
0.0
  0
LINE
  8
0
 62
     0
 10
51.6246
 20
197.979
 30
0.0
 11
76.626
 21
197.979
 31
0.0
  0
LINE
  8
0
 62
     0
 10
51.6246
 20
185.478
 30
0.0
 11
55.7932
 21
185.689
 31
0.0
  0
LINE
  8
0
 62
     0
 10
55.7932
 20
185.689
 30
0.0
 11
72.4571
 21
185.689
 31
0.0
  0
LINE
  8
0
 62
     0
 10
76.626
 20
185.478
 30
0.0
 11
72.4571
 21
181.938
 31
0.0
  0
LINE
  8
0
 62
     0
 10
51.6246
 20
181.314
 30
0.0
 11
55.7932
 21
181.938
 31
0.0
  0
LINE
  8
0
 62
     0
 10
55.7932
 20
181.938
 30
0.0
 11
53.7933
 21
184.436
 31
0.0
  0
LINE
  8
0
 62
     0
 10
53.7933
 20
184.436
 30
0.0
 11
57.7947
 21
184.436
 31
0.0
  0
LINE
  8
0
 62
     0
 10
57.7947
 20
184.436
 30
0.0
 11
55.7932
 21
181.938
 31
0.0
  0
LINE
  8
0
 62
     0
 10
55.7932
 20
181.938
 30
0.0
 11
64.1253
 21
181.314
 31
0.0
  0
LINE
  8
0
 62
     0
 10
64.1253
 20
181.314
 30
0.0
 11
72.4571
 21
180.531
 31
0.0
  0
LINE
  8
0
 62
     0
 10
72.4571
 20
180.531
 30
0.0
 11
76.626
 21
181.314
 31
0.0
  0
LINE
  8
0
 62
     0
 10
51.6246
 20
177.147
 30
0.0
 11
64.1253
 21
177.147
 31
0.0
  0
LINE
  8
0
 62
     0
 10
64.1253
 20
177.147
 30
0.0
 11
69.2053
 21
179.069
 31
0.0
  0
LINE
  8
0
 62
     0
 10
69.2053
 20
179.069
 30
0.0
 11
67.205
 21
176.568
 31
0.0
  0
LINE
  8
0
 62
     0
 10
67.205
 20
176.568
 30
0.0
 11
71.2051
 21
176.568
 31
0.0
  0
LINE
  8
0
 62
     0
 10
71.2051
 20
176.568
 30
0.0
 11
69.2053
 21
179.069
 31
0.0
  0
LINE
  8
0
 62
     0
 10
69.2053
 20
179.069
 30
0.0
 11
76.626
 21
177.147
 31
0.0
  0
LINE
  8
0
 62
     7
 10
76.626
 20
200.064
 30
0.0
 11
101.625
 21
200.064
 31
0.0
  0
LINE
  8
0
 62
     7
 10
101.625
 20
200.064
 30
0.0
 11
101.625
 21
175.063
 31
0.0
  0
LINE
  8
0
 62
     7
 10
101.625
 20
175.063
 30
0.0
 11
76.626
 21
175.063
 31
0.0
  0
LINE
  8
0
 62
     7
 10
76.626
 20
175.063
 30
0.0
 11
76.626
 21
200.064
 31
0.0
  0
LINE
  8
0
 62
     0
 10
76.626
 20
193.814
 30
0.0
 11
80.7944
 21
193.188
 31
0.0
  0
LINE
  8
0
 62
     0
 10
101.625
 20
193.814
 30
0.0
 11
97.4567
 21
193.188
 31
0.0
  0
LINE
  8
0
 62
     0
 10
76.626
 20
189.646
 30
0.0
 11
80.7944
 21
189.439
 31
0.0
  0
LINE
  8
0
 62
     0
 10
101.625
 20
189.646
 30
0.0
 11
97.4567
 21
189.439
 31
0.0
  0
LINE
  8
0
 62
     0
 10
76.626
 20
197.979
 30
0.0
 11
101.625
 21
197.979
 31
0.0
  0
LINE
  8
0
 62
     0
 10
76.626
 20
185.478
 30
0.0
 11
80.7944
 21
185.689
 31
0.0
  0
LINE
  8
0
 62
     0
 10
80.7944
 20
185.689
 30
0.0
 11
97.4567
 21
185.689
 31
0.0
  0
LINE
  8
0
 62
     0
 10
101.625
 20
185.478
 30
0.0
 11
97.4567
 21
181.938
 31
0.0
  0
LINE
  8
0
 62
     0
 10
76.626
 20
181.314
 30
0.0
 11
80.7944
 21
181.938
 31
0.0
  0
LINE
  8
0
 62
     0
 10
80.7944
 20
181.938
 30
0.0
 11
78.7947
 21
184.436
 31
0.0
  0
LINE
  8
0
 62
     0
 10
78.7947
 20
184.436
 30
0.0
 11
82.7943
 21
184.436
 31
0.0
  0
LINE
  8
0
 62
     0
 10
82.7943
 20
184.436
 30
0.0
 11
80.7944
 21
181.938
 31
0.0
  0
LINE
  8
0
 62
     0
 10
80.7944
 20
181.938
 30
0.0
 11
89.1244
 21
181.314
 31
0.0
  0
LINE
  8
0
 62
     0
 10
89.1244
 20
181.314
 30
0.0
 11
97.4567
 21
180.531
 31
0.0
  0
LINE
  8
0
 62
     0
 10
97.4567
 20
180.531
 30
0.0
 11
101.625
 21
181.314
 31
0.0
  0
LINE
  8
0
 62
     0
 10
76.626
 20
177.147
 30
0.0
 11
89.1244
 21
177.147
 31
0.0
  0
LINE
  8
0
 62
     0
 10
89.1244
 20
177.147
 30
0.0
 11
94.2044
 21
179.069
 31
0.0
  0
LINE
  8
0
 62
     0
 10
94.2044
 20
179.069
 30
0.0
 11
92.2046
 21
176.568
 31
0.0
  0
LINE
  8
0
 62
     0
 10
92.2046
 20
176.568
 30
0.0
 11
96.2061
 21
176.568
 31
0.0
  0
LINE
  8
0
 62
     0
 10
96.2061
 20
176.568
 30
0.0
 11
94.2044
 21
179.069
 31
0.0
  0
LINE
  8
0
 62
     0
 10
94.2044
 20
179.069
 30
0.0
 11
101.625
 21
177.147
 31
0.0
  0
LINE
  8
0
 62
     7
 10
101.625
 20
200.064
 30
0.0
 11
126.626
 21
200.064
 31
0.0
  0
LINE
  8
0
 62
     7
 10
126.626
 20
200.064
 30
0.0
 11
126.626
 21
175.063
 31
0.0
  0
LINE
  8
0
 62
     7
 10
126.626
 20
175.063
 30
0.0
 11
101.625
 21
175.063
 31
0.0
  0
LINE
  8
0
 62
     7
 10
101.625
 20
175.063
 30
0.0
 11
101.625
 21
200.064
 31
0.0
  0
LINE
  8
0
 62
     0
 10
101.625
 20
193.814
 30
0.0
 11
105.794
 21
193.188
 31
0.0
  0
LINE
  8
0
 62
     0
 10
126.626
 20
193.814
 30
0.0
 11
122.458
 21
193.188
 31
0.0
  0
LINE
  8
0
 62
     0
 10
101.625
 20
189.646
 30
0.0
 11
105.794
 21
189.439
 31
0.0
  0
LINE
  8
0
 62
     0
 10
126.626
 20
189.646
 30
0.0
 11
122.458
 21
189.439
 31
0.0
  0
LINE
  8
0
 62
     0
 10
101.625
 20
197.979
 30
0.0
 11
126.626
 21
197.979
 31
0.0
  0
LINE
  8
0
 62
     0
 10
101.625
 20
185.478
 30
0.0
 11
105.794
 21
185.689
 31
0.0
  0
LINE
  8
0
 62
     0
 10
105.794
 20
185.689
 30
0.0
 11
122.458
 21
185.689
 31
0.0
  0
LINE
  8
0
 62
     0
 10
126.626
 20
185.478
 30
0.0
 11
122.458
 21
181.938
 31
0.0
  0
LINE
  8
0
 62
     0
 10
101.625
 20
181.314
 30
0.0
 11
105.794
 21
181.938
 31
0.0
  0
LINE
  8
0
 62
     0
 10
105.794
 20
181.938
 30
0.0
 11
103.794
 21
184.436
 31
0.0
  0
LINE
  8
0
 62
     0
 10
103.794
 20
184.436
 30
0.0
 11
107.795
 21
184.436
 31
0.0
  0
LINE
  8
0
 62
     0
 10
107.795
 20
184.436
 30
0.0
 11
105.794
 21
181.938
 31
0.0
  0
LINE
  8
0
 62
     0
 10
105.794
 20
181.938
 30
0.0
 11
114.126
 21
181.314
 31
0.0
  0
LINE
  8
0
 62
     0
 10
114.126
 20
181.314
 30
0.0
 11
122.458
 21
180.531
 31
0.0
  0
LINE
  8
0
 62
     0
 10
122.458
 20
180.531
 30
0.0
 11
126.626
 21
181.314
 31
0.0
  0
LINE
  8
0
 62
     0
 10
101.625
 20
177.147
 30
0.0
 11
114.126
 21
177.147
 31
0.0
  0
LINE
  8
0
 62
     0
 10
114.126
 20
177.147
 30
0.0
 11
119.205
 21
179.069
 31
0.0
  0
LINE
  8
0
 62
     0
 10
119.205
 20
179.069
 30
0.0
 11
117.206
 21
176.568
 31
0.0
  0
LINE
  8
0
 62
     0
 10
117.206
 20
176.568
 30
0.0
 11
121.205
 21
176.568
 31
0.0
  0
LINE
  8
0
 62
     0
 10
121.205
 20
176.568
 30
0.0
 11
119.205
 21
179.069
 31
0.0
  0
LINE
  8
0
 62
     0
 10
119.205
 20
179.069
 30
0.0
 11
126.626
 21
177.147
 31
0.0
  0
LINE
  8
0
 62
     7
 10
126.624
 20
200.064
 30
0.0
 11
151.625
 21
200.064
 31
0.0
  0
LINE
  8
0
 62
     7
 10
151.625
 20
200.064
 30
0.0
 11
151.625
 21
175.063
 31
0.0
  0
LINE
  8
0
 62
     7
 10
151.625
 20
175.063
 30
0.0
 11
126.624
 21
175.063
 31
0.0
  0
LINE
  8
0
 62
     7
 10
126.624
 20
175.063
 30
0.0
 11
126.624
 21
200.064
 31
0.0
  0
LINE
  8
0
 62
     0
 10
126.624
 20
193.814
 30
0.0
 11
130.793
 21
193.188
 31
0.0
  0
LINE
  8
0
 62
     0
 10
151.625
 20
193.814
 30
0.0
 11
147.457
 21
193.188
 31
0.0
  0
LINE
  8
0
 62
     0
 10
126.624
 20
189.646
 30
0.0
 11
130.793
 21
189.439
 31
0.0
  0
LINE
  8
0
 62
     0
 10
151.625
 20
189.646
 30
0.0
 11
147.457
 21
189.439
 31
0.0
  0
LINE
  8
0
 62
     0
 10
126.624
 20
197.979
 30
0.0
 11
151.625
 21
197.979
 31
0.0
  0
LINE
  8
0
 62
     0
 10
126.624
 20
185.478
 30
0.0
 11
130.793
 21
185.689
 31
0.0
  0
LINE
  8
0
 62
     0
 10
130.793
 20
185.689
 30
0.0
 11
147.457
 21
185.689
 31
0.0
  0
LINE
  8
0
 62
     0
 10
151.625
 20
185.478
 30
0.0
 11
147.457
 21
181.938
 31
0.0
  0
LINE
  8
0
 62
     0
 10
126.624
 20
181.314
 30
0.0
 11
130.793
 21
181.938
 31
0.0
  0
LINE
  8
0
 62
     0
 10
130.793
 20
181.938
 30
0.0
 11
128.795
 21
184.436
 31
0.0
  0
LINE
  8
0
 62
     0
 10
128.795
 20
184.436
 30
0.0
 11
132.795
 21
184.436
 31
0.0
  0
LINE
  8
0
 62
     0
 10
132.795
 20
184.436
 30
0.0
 11
130.793
 21
181.938
 31
0.0
  0
LINE
  8
0
 62
     0
 10
130.793
 20
181.938
 30
0.0
 11
139.125
 21
181.314
 31
0.0
  0
LINE
  8
0
 62
     0
 10
139.125
 20
181.314
 30
0.0
 11
147.457
 21
180.531
 31
0.0
  0
LINE
  8
0
 62
     0
 10
147.457
 20
180.531
 30
0.0
 11
151.625
 21
181.314
 31
0.0
  0
LINE
  8
0
 62
     0
 10
126.624
 20
177.147
 30
0.0
 11
139.125
 21
177.147
 31
0.0
  0
LINE
  8
0
 62
     0
 10
139.125
 20
177.147
 30
0.0
 11
144.206
 21
179.069
 31
0.0
  0
LINE
  8
0
 62
     0
 10
144.206
 20
179.069
 30
0.0
 11
142.204
 21
176.568
 31
0.0
  0
LINE
  8
0
 62
     0
 10
142.204
 20
176.568
 30
0.0
 11
146.207
 21
176.568
 31
0.0
  0
LINE
  8
0
 62
     0
 10
146.207
 20
176.568
 30
0.0
 11
144.206
 21
179.069
 31
0.0
  0
LINE
  8
0
 62
     0
 10
144.206
 20
179.069
 30
0.0
 11
151.625
 21
177.147
 31
0.0
  0
LINE
  8
0
 62
     7
 10
151.625
 20
200.064
 30
0.0
 11
176.625
 21
200.064
 31
0.0
  0
LINE
  8
0
 62
     7
 10
176.625
 20
200.064
 30
0.0
 11
176.625
 21
175.063
 31
0.0
  0
LINE
  8
0
 62
     7
 10
176.625
 20
175.063
 30
0.0
 11
151.625
 21
175.063
 31
0.0
  0
LINE
  8
0
 62
     7
 10
151.625
 20
175.063
 30
0.0
 11
151.625
 21
200.064
 31
0.0
  0
LINE
  8
0
 62
     0
 10
151.625
 20
193.814
 30
0.0
 11
155.794
 21
193.188
 31
0.0
  0
LINE
  8
0
 62
     0
 10
176.625
 20
193.814
 30
0.0
 11
172.457
 21
193.188
 31
0.0
  0
LINE
  8
0
 62
     0
 10
151.625
 20
189.646
 30
0.0
 11
155.794
 21
189.439
 31
0.0
  0
LINE
  8
0
 62
     0
 10
176.625
 20
189.646
 30
0.0
 11
172.457
 21
189.439
 31
0.0
  0
LINE
  8
0
 62
     0
 10
151.625
 20
197.979
 30
0.0
 11
176.625
 21
197.979
 31
0.0
  0
LINE
  8
0
 62
     0
 10
151.625
 20
185.478
 30
0.0
 11
155.794
 21
185.689
 31
0.0
  0
LINE
  8
0
 62
     0
 10
155.794
 20
185.689
 30
0.0
 11
172.457
 21
185.689
 31
0.0
  0
LINE
  8
0
 62
     0
 10
176.625
 20
185.478
 30
0.0
 11
172.457
 21
181.938
 31
0.0
  0
LINE
  8
0
 62
     0
 10
151.625
 20
181.314
 30
0.0
 11
155.794
 21
181.938
 31
0.0
  0
LINE
  8
0
 62
     0
 10
155.794
 20
181.938
 30
0.0
 11
153.794
 21
184.436
 31
0.0
  0
LINE
  8
0
 62
     0
 10
153.794
 20
184.436
 30
0.0
 11
157.794
 21
184.436
 31
0.0
  0
LINE
  8
0
 62
     0
 10
157.794
 20
184.436
 30
0.0
 11
155.794
 21
181.938
 31
0.0
  0
LINE
  8
0
 62
     0
 10
155.794
 20
181.938
 30
0.0
 11
164.126
 21
181.314
 31
0.0
  0
LINE
  8
0
 62
     0
 10
164.126
 20
181.314
 30
0.0
 11
172.457
 21
180.531
 31
0.0
  0
LINE
  8
0
 62
     0
 10
172.457
 20
180.531
 30
0.0
 11
176.625
 21
181.314
 31
0.0
  0
LINE
  8
0
 62
     0
 10
151.625
 20
177.147
 30
0.0
 11
164.126
 21
177.147
 31
0.0
  0
LINE
  8
0
 62
     0
 10
164.126
 20
177.147
 30
0.0
 11
169.204
 21
179.069
 31
0.0
  0
LINE
  8
0
 62
     0
 10
169.204
 20
179.069
 30
0.0
 11
167.206
 21
176.568
 31
0.0
  0
LINE
  8
0
 62
     0
 10
167.206
 20
176.568
 30
0.0
 11
171.206
 21
176.568
 31
0.0
  0
LINE
  8
0
 62
     0
 10
171.206
 20
176.568
 30
0.0
 11
169.204
 21
179.069
 31
0.0
  0
LINE
  8
0
 62
     0
 10
169.204
 20
179.069
 30
0.0
 11
176.625
 21
177.147
 31
0.0
  0
LINE
  8
0
 62
     7
 10
176.625
 20
200.064
 30
0.0
 11
201.626
 21
200.064
 31
0.0
  0
LINE
  8
0
 62
     7
 10
201.626
 20
200.064
 30
0.0
 11
201.626
 21
175.063
 31
0.0
  0
LINE
  8
0
 62
     7
 10
201.626
 20
175.063
 30
0.0
 11
176.625
 21
175.063
 31
0.0
  0
LINE
  8
0
 62
     7
 10
176.625
 20
175.063
 30
0.0
 11
176.625
 21
200.064
 31
0.0
  0
LINE
  8
0
 62
     0
 10
176.625
 20
193.814
 30
0.0
 11
180.793
 21
193.188
 31
0.0
  0
LINE
  8
0
 62
     0
 10
201.626
 20
193.814
 30
0.0
 11
197.457
 21
193.188
 31
0.0
  0
LINE
  8
0
 62
     0
 10
176.625
 20
189.646
 30
0.0
 11
180.793
 21
189.439
 31
0.0
  0
LINE
  8
0
 62
     0
 10
201.626
 20
189.646
 30
0.0
 11
197.457
 21
189.439
 31
0.0
  0
LINE
  8
0
 62
     0
 10
176.625
 20
197.979
 30
0.0
 11
201.626
 21
197.979
 31
0.0
  0
LINE
  8
0
 62
     0
 10
176.625
 20
185.478
 30
0.0
 11
180.793
 21
185.689
 31
0.0
  0
LINE
  8
0
 62
     0
 10
180.793
 20
185.689
 30
0.0
 11
197.457
 21
185.689
 31
0.0
  0
LINE
  8
0
 62
     0
 10
201.626
 20
185.478
 30
0.0
 11
197.457
 21
181.938
 31
0.0
  0
LINE
  8
0
 62
     0
 10
176.625
 20
181.314
 30
0.0
 11
180.793
 21
181.938
 31
0.0
  0
LINE
  8
0
 62
     0
 10
180.793
 20
181.938
 30
0.0
 11
178.793
 21
184.436
 31
0.0
  0
LINE
  8
0
 62
     0
 10
178.793
 20
184.436
 30
0.0
 11
182.794
 21
184.436
 31
0.0
  0
LINE
  8
0
 62
     0
 10
182.794
 20
184.436
 30
0.0
 11
180.793
 21
181.938
 31
0.0
  0
LINE
  8
0
 62
     0
 10
180.793
 20
181.938
 30
0.0
 11
189.125
 21
181.314
 31
0.0
  0
LINE
  8
0
 62
     0
 10
189.125
 20
181.314
 30
0.0
 11
197.457
 21
180.531
 31
0.0
  0
LINE
  8
0
 62
     0
 10
197.457
 20
180.531
 30
0.0
 11
201.626
 21
181.314
 31
0.0
  0
LINE
  8
0
 62
     0
 10
176.625
 20
177.147
 30
0.0
 11
189.125
 21
177.147
 31
0.0
  0
LINE
  8
0
 62
     0
 10
189.125
 20
177.147
 30
0.0
 11
194.206
 21
179.069
 31
0.0
  0
LINE
  8
0
 62
     0
 10
194.206
 20
179.069
 30
0.0
 11
192.206
 21
176.568
 31
0.0
  0
LINE
  8
0
 62
     0
 10
192.206
 20
176.568
 30
0.0
 11
196.206
 21
176.568
 31
0.0
  0
LINE
  8
0
 62
     0
 10
196.206
 20
176.568
 30
0.0
 11
194.206
 21
179.069
 31
0.0
  0
LINE
  8
0
 62
     0
 10
194.206
 20
179.069
 30
0.0
 11
201.626
 21
177.147
 31
0.0
  0
LINE
  8
0
 62
     7
 10
201.626
 20
200.064
 30
0.0
 11
226.625
 21
200.064
 31
0.0
  0
LINE
  8
0
 62
     7
 10
226.625
 20
200.064
 30
0.0
 11
226.625
 21
175.063
 31
0.0
  0
LINE
  8
0
 62
     7
 10
226.625
 20
175.063
 30
0.0
 11
201.626
 21
175.063
 31
0.0
  0
LINE
  8
0
 62
     7
 10
201.626
 20
175.063
 30
0.0
 11
201.626
 21
200.064
 31
0.0
  0
LINE
  8
0
 62
     0
 10
201.626
 20
193.814
 30
0.0
 11
205.794
 21
193.188
 31
0.0
  0
LINE
  8
0
 62
     0
 10
201.626
 20
189.646
 30
0.0
 11
205.794
 21
189.439
 31
0.0
  0
LINE
  8
0
 62
     0
 10
201.626
 20
197.979
 30
0.0
 11
226.625
 21
197.979
 31
0.0
  0
LINE
  8
0
 62
     0
 10
226.625
 20
197.979
 30
0.0
 11
226.625
 21
185.478
 31
0.0
  0
LINE
  8
0
 62
     0
 10
201.626
 20
185.478
 30
0.0
 11
205.794
 21
185.689
 31
0.0
  0
LINE
  8
0
 62
     0
 10
205.794
 20
185.689
 30
0.0
 11
222.457
 21
185.689
 31
0.0
  0
LINE
  8
0
 62
     0
 10
226.625
 20
185.478
 30
0.0
 11
222.457
 21
181.938
 31
0.0
  0
LINE
  8
0
 62
     0
 10
201.626
 20
181.314
 30
0.0
 11
205.794
 21
181.938
 31
0.0
  0
LINE
  8
0
 62
     0
 10
201.626
 20
177.147
 30
0.0
 11
214.125
 21
177.147
 31
0.0
  0
LINE
  8
0
 62
     0
 10
214.125
 20
177.147
 30
0.0
 11
219.204
 21
179.069
 31
0.0
  0
LINE
  8
0
 62
     7
 10
1.62457
 20
175.063
 30
0.0
 11
26.6256
 21
175.063
 31
0.0
  0
LINE
  8
0
 62
     7
 10
26.6256
 20
175.063
 30
0.0
 11
26.6256
 21
150.064
 31
0.0
  0
LINE
  8
0
 62
     7
 10
26.6256
 20
150.064
 30
0.0
 11
1.62457
 21
150.064
 31
0.0
  0
LINE
  8
0
 62
     7
 10
1.62457
 20
150.064
 30
0.0
 11
1.62457
 21
175.063
 31
0.0
  0
LINE
  8
0
 62
     0
 10
20.3743
 20
175.063
 30
0.0
 11
20.3743
 21
168.813
 31
0.0
  0
LINE
  8
0
 62
     0
 10
18.2915
 20
168.813
 30
0.0
 11
26.6256
 21
168.813
 31
0.0
  0
LINE
  8
0
 62
     0
 10
20.3743
 20
168.813
 30
0.0
 11
20.3743
 21
150.063
 31
0.0
  0
LINE
  8
0
 62
     0
 10
16.2093
 20
175.063
 30
0.0
 11
16.2093
 21
164.646
 31
0.0
  0
LINE
  8
0
 62
     0
 10
14.1247
 20
164.646
 30
0.0
 11
26.6256
 21
164.646
 31
0.0
  0
LINE
  8
0
 62
     0
 10
16.2093
 20
164.646
 30
0.0
 11
16.2093
 21
150.063
 31
0.0
  0
LINE
  8
0
 62
     0
 10
26.6256
 20
172.979
 30
0.0
 11
24.541
 21
172.979
 31
0.0
  0
LINE
  8
0
 62
     0
 10
24.541
 20
172.979
 30
0.0
 11
24.541
 21
175.063
 31
0.0
  0
LINE
  8
0
 62
     0
 10
12.0425
 20
175.063
 30
0.0
 11
12.0425
 21
150.063
 31
0.0
  0
LINE
  8
0
 62
     0
 10
26.6256
 20
160.479
 30
0.0
 11
24.541
 21
160.479
 31
0.0
  0
LINE
  8
0
 62
     0
 10
24.541
 20
160.479
 30
0.0
 11
24.541
 21
150.063
 31
0.0
  0
LINE
  8
0
 62
     0
 10
7.87354
 20
175.063
 30
0.0
 11
7.87354
 21
156.313
 31
0.0
  0
LINE
  8
0
 62
     0
 10
5.79308
 20
156.313
 30
0.0
 11
26.6256
 21
156.313
 31
0.0
  0
LINE
  8
0
 62
     0
 10
7.87354
 20
156.313
 30
0.0
 11
7.87354
 21
150.063
 31
0.0
  0
LINE
  8
0
 62
     0
 10
3.70856
 20
175.063
 30
0.0
 11
3.70856
 21
152.146
 31
0.0
  0
LINE
  8
0
 62
     0
 10
1.62457
 20
152.146
 30
0.0
 11
26.6256
 21
152.146
 31
0.0
  0
LINE
  8
0
 62
     0
 10
3.70856
 20
152.146
 30
0.0
 11
3.70856
 21
150.063
 31
0.0
  0
LINE
  8
0
 62
     7
 10
26.6256
 20
175.063
 30
0.0
 11
51.6246
 21
175.063
 31
0.0
  0
LINE
  8
0
 62
     7
 10
51.6246
 20
175.063
 30
0.0
 11
51.6246
 21
150.064
 31
0.0
  0
LINE
  8
0
 62
     7
 10
51.6246
 20
150.064
 30
0.0
 11
26.6256
 21
150.064
 31
0.0
  0
LINE
  8
0
 62
     7
 10
26.6256
 20
150.064
 30
0.0
 11
26.6256
 21
175.063
 31
0.0
  0
LINE
  8
0
 62
     0
 10
26.6256
 20
168.813
 30
0.0
 11
30.794
 21
168.188
 31
0.0
  0
LINE
  8
0
 62
     0
 10
51.6246
 20
168.813
 30
0.0
 11
47.4561
 21
168.188
 31
0.0
  0
LINE
  8
0
 62
     0
 10
26.6256
 20
164.646
 30
0.0
 11
30.794
 21
164.438
 31
0.0
  0
LINE
  8
0
 62
     0
 10
51.6246
 20
164.646
 30
0.0
 11
47.4561
 21
164.438
 31
0.0
  0
LINE
  8
0
 62
     0
 10
26.6256
 20
172.979
 30
0.0
 11
51.6246
 21
172.979
 31
0.0
  0
LINE
  8
0
 62
     0
 10
26.6256
 20
160.479
 30
0.0
 11
30.794
 21
160.688
 31
0.0
  0
LINE
  8
0
 62
     0
 10
30.794
 20
160.688
 30
0.0
 11
47.4561
 21
160.688
 31
0.0
  0
LINE
  8
0
 62
     0
 10
51.6246
 20
160.479
 30
0.0
 11
47.4561
 21
156.938
 31
0.0
  0
LINE
  8
0
 62
     0
 10
26.6256
 20
156.313
 30
0.0
 11
30.794
 21
156.938
 31
0.0
  0
LINE
  8
0
 62
     0
 10
30.794
 20
156.938
 30
0.0
 11
28.7942
 21
159.438
 31
0.0
  0
LINE
  8
0
 62
     0
 10
28.7942
 20
159.438
 30
0.0
 11
32.7937
 21
159.438
 31
0.0
  0
LINE
  8
0
 62
     0
 10
32.7937
 20
159.438
 30
0.0
 11
30.794
 21
156.938
 31
0.0
  0
LINE
  8
0
 62
     0
 10
30.794
 20
156.938
 30
0.0
 11
39.1261
 21
156.313
 31
0.0
  0
LINE
  8
0
 62
     0
 10
39.1261
 20
156.313
 30
0.0
 11
47.4561
 21
155.532
 31
0.0
  0
LINE
  8
0
 62
     0
 10
47.4561
 20
155.532
 30
0.0
 11
51.6246
 21
156.313
 31
0.0
  0
LINE
  8
0
 62
     0
 10
26.6256
 20
152.146
 30
0.0
 11
39.1261
 21
152.146
 31
0.0
  0
LINE
  8
0
 62
     0
 10
39.1261
 20
152.146
 30
0.0
 11
44.2039
 21
154.068
 31
0.0
  0
LINE
  8
0
 62
     0
 10
44.2039
 20
154.068
 30
0.0
 11
42.2058
 21
151.568
 31
0.0
  0
LINE
  8
0
 62
     0
 10
42.2058
 20
151.568
 30
0.0
 11
46.2056
 21
151.568
 31
0.0
  0
LINE
  8
0
 62
     0
 10
46.2056
 20
151.568
 30
0.0
 11
44.2039
 21
154.068
 31
0.0
  0
LINE
  8
0
 62
     0
 10
44.2039
 20
154.068
 30
0.0
 11
51.6246
 21
152.146
 31
0.0
  0
LINE
  8
0
 62
     7
 10
51.6246
 20
175.063
 30
0.0
 11
76.6256
 21
175.063
 31
0.0
  0
LINE
  8
0
 62
     7
 10
76.6256
 20
175.063
 30
0.0
 11
76.6256
 21
150.064
 31
0.0
  0
LINE
  8
0
 62
     7
 10
76.6256
 20
150.064
 30
0.0
 11
51.6246
 21
150.064
 31
0.0
  0
LINE
  8
0
 62
     7
 10
51.6246
 20
150.064
 30
0.0
 11
51.6246
 21
175.063
 31
0.0
  0
LINE
  8
0
 62
     0
 10
51.6246
 20
168.813
 30
0.0
 11
55.7932
 21
168.188
 31
0.0
  0
LINE
  8
0
 62
     0
 10
76.626
 20
168.813
 30
0.0
 11
72.4571
 21
168.188
 31
0.0
  0
LINE
  8
0
 62
     0
 10
51.6246
 20
164.646
 30
0.0
 11
55.7932
 21
164.438
 31
0.0
  0
LINE
  8
0
 62
     0
 10
76.626
 20
164.646
 30
0.0
 11
72.4571
 21
164.438
 31
0.0
  0
LINE
  8
0
 62
     0
 10
51.6246
 20
172.979
 30
0.0
 11
76.626
 21
172.979
 31
0.0
  0
LINE
  8
0
 62
     0
 10
51.6246
 20
160.479
 30
0.0
 11
55.7932
 21
160.688
 31
0.0
  0
LINE
  8
0
 62
     0
 10
55.7932
 20
160.688
 30
0.0
 11
72.4571
 21
160.688
 31
0.0
  0
LINE
  8
0
 62
     0
 10
76.626
 20
160.479
 30
0.0
 11
72.4571
 21
156.938
 31
0.0
  0
LINE
  8
0
 62
     0
 10
51.6246
 20
156.313
 30
0.0
 11
55.7932
 21
156.938
 31
0.0
  0
LINE
  8
0
 62
     0
 10
55.7932
 20
156.938
 30
0.0
 11
53.7933
 21
159.438
 31
0.0
  0
LINE
  8
0
 62
     0
 10
53.7933
 20
159.438
 30
0.0
 11
57.7947
 21
159.438
 31
0.0
  0
LINE
  8
0
 62
     0
 10
57.7947
 20
159.438
 30
0.0
 11
55.7932
 21
156.938
 31
0.0
  0
LINE
  8
0
 62
     0
 10
55.7932
 20
156.938
 30
0.0
 11
64.1253
 21
156.313
 31
0.0
  0
LINE
  8
0
 62
     0
 10
64.1253
 20
156.313
 30
0.0
 11
72.4571
 21
155.532
 31
0.0
  0
LINE
  8
0
 62
     0
 10
72.4571
 20
155.532
 30
0.0
 11
76.626
 21
156.313
 31
0.0
  0
LINE
  8
0
 62
     0
 10
51.6246
 20
152.146
 30
0.0
 11
64.1253
 21
152.146
 31
0.0
  0
LINE
  8
0
 62
     0
 10
64.1253
 20
152.146
 30
0.0
 11
69.2053
 21
154.068
 31
0.0
  0
LINE
  8
0
 62
     0
 10
69.2053
 20
154.068
 30
0.0
 11
67.205
 21
151.568
 31
0.0
  0
LINE
  8
0
 62
     0
 10
67.205
 20
151.568
 30
0.0
 11
71.2051
 21
151.568
 31
0.0
  0
LINE
  8
0
 62
     0
 10
71.2051
 20
151.568
 30
0.0
 11
69.2053
 21
154.068
 31
0.0
  0
LINE
  8
0
 62
     0
 10
69.2053
 20
154.068
 30
0.0
 11
76.626
 21
152.146
 31
0.0
  0
LINE
  8
0
 62
     7
 10
76.626
 20
175.063
 30
0.0
 11
101.625
 21
175.063
 31
0.0
  0
LINE
  8
0
 62
     7
 10
101.625
 20
175.063
 30
0.0
 11
101.625
 21
150.064
 31
0.0
  0
LINE
  8
0
 62
     7
 10
101.625
 20
150.064
 30
0.0
 11
76.626
 21
150.064
 31
0.0
  0
LINE
  8
0
 62
     7
 10
76.626
 20
150.064
 30
0.0
 11
76.626
 21
175.063
 31
0.0
  0
LINE
  8
0
 62
     0
 10
76.626
 20
168.813
 30
0.0
 11
80.7944
 21
168.188
 31
0.0
  0
LINE
  8
0
 62
     0
 10
101.625
 20
168.813
 30
0.0
 11
97.4567
 21
168.188
 31
0.0
  0
LINE
  8
0
 62
     0
 10
76.626
 20
164.646
 30
0.0
 11
80.7944
 21
164.438
 31
0.0
  0
LINE
  8
0
 62
     0
 10
101.625
 20
164.646
 30
0.0
 11
97.4567
 21
164.438
 31
0.0
  0
LINE
  8
0
 62
     0
 10
76.626
 20
172.979
 30
0.0
 11
101.625
 21
172.979
 31
0.0
  0
LINE
  8
0
 62
     0
 10
76.626
 20
160.479
 30
0.0
 11
80.7944
 21
160.688
 31
0.0
  0
LINE
  8
0
 62
     0
 10
80.7944
 20
160.688
 30
0.0
 11
97.4567
 21
160.688
 31
0.0
  0
LINE
  8
0
 62
     0
 10
101.625
 20
160.479
 30
0.0
 11
97.4567
 21
156.938
 31
0.0
  0
LINE
  8
0
 62
     0
 10
76.626
 20
156.313
 30
0.0
 11
80.7944
 21
156.938
 31
0.0
  0
LINE
  8
0
 62
     0
 10
80.7944
 20
156.938
 30
0.0
 11
78.7947
 21
159.438
 31
0.0
  0
LINE
  8
0
 62
     0
 10
78.7947
 20
159.438
 30
0.0
 11
82.7943
 21
159.438
 31
0.0
  0
LINE
  8
0
 62
     0
 10
82.7943
 20
159.438
 30
0.0
 11
80.7944
 21
156.938
 31
0.0
  0
LINE
  8
0
 62
     0
 10
80.7944
 20
156.938
 30
0.0
 11
89.1244
 21
156.313
 31
0.0
  0
LINE
  8
0
 62
     0
 10
89.1244
 20
156.313
 30
0.0
 11
97.4567
 21
155.532
 31
0.0
  0
LINE
  8
0
 62
     0
 10
97.4567
 20
155.532
 30
0.0
 11
101.625
 21
156.313
 31
0.0
  0
LINE
  8
0
 62
     0
 10
76.626
 20
152.146
 30
0.0
 11
89.1244
 21
152.146
 31
0.0
  0
LINE
  8
0
 62
     0
 10
89.1244
 20
152.146
 30
0.0
 11
94.2044
 21
154.068
 31
0.0
  0
LINE
  8
0
 62
     0
 10
94.2044
 20
154.068
 30
0.0
 11
92.2046
 21
151.568
 31
0.0
  0
LINE
  8
0
 62
     0
 10
92.2046
 20
151.568
 30
0.0
 11
96.2061
 21
151.568
 31
0.0
  0
LINE
  8
0
 62
     0
 10
96.2061
 20
151.568
 30
0.0
 11
94.2044
 21
154.068
 31
0.0
  0
LINE
  8
0
 62
     0
 10
94.2044
 20
154.068
 30
0.0
 11
101.625
 21
152.146
 31
0.0
  0
LINE
  8
0
 62
     7
 10
101.625
 20
175.063
 30
0.0
 11
126.626
 21
175.063
 31
0.0
  0
LINE
  8
0
 62
     7
 10
126.626
 20
175.063
 30
0.0
 11
126.626
 21
150.064
 31
0.0
  0
LINE
  8
0
 62
     7
 10
126.626
 20
150.064
 30
0.0
 11
101.625
 21
150.064
 31
0.0
  0
LINE
  8
0
 62
     7
 10
101.625
 20
150.064
 30
0.0
 11
101.625
 21
175.063
 31
0.0
  0
LINE
  8
0
 62
     0
 10
101.625
 20
168.813
 30
0.0
 11
105.794
 21
168.188
 31
0.0
  0
LINE
  8
0
 62
     0
 10
126.626
 20
168.813
 30
0.0
 11
122.458
 21
168.188
 31
0.0
  0
LINE
  8
0
 62
     0
 10
101.625
 20
164.646
 30
0.0
 11
105.794
 21
164.438
 31
0.0
  0
LINE
  8
0
 62
     0
 10
126.626
 20
164.646
 30
0.0
 11
122.458
 21
164.438
 31
0.0
  0
LINE
  8
0
 62
     0
 10
101.625
 20
172.979
 30
0.0
 11
126.626
 21
172.979
 31
0.0
  0
LINE
  8
0
 62
     0
 10
101.625
 20
160.479
 30
0.0
 11
105.794
 21
160.688
 31
0.0
  0
LINE
  8
0
 62
     0
 10
105.794
 20
160.688
 30
0.0
 11
122.458
 21
160.688
 31
0.0
  0
LINE
  8
0
 62
     0
 10
126.626
 20
160.479
 30
0.0
 11
122.458
 21
156.938
 31
0.0
  0
LINE
  8
0
 62
     0
 10
101.625
 20
156.313
 30
0.0
 11
105.794
 21
156.938
 31
0.0
  0
LINE
  8
0
 62
     0
 10
105.794
 20
156.938
 30
0.0
 11
103.794
 21
159.438
 31
0.0
  0
LINE
  8
0
 62
     0
 10
103.794
 20
159.438
 30
0.0
 11
107.795
 21
159.438
 31
0.0
  0
LINE
  8
0
 62
     0
 10
107.795
 20
159.438
 30
0.0
 11
105.794
 21
156.938
 31
0.0
  0
LINE
  8
0
 62
     0
 10
105.794
 20
156.938
 30
0.0
 11
114.126
 21
156.313
 31
0.0
  0
LINE
  8
0
 62
     0
 10
114.126
 20
156.313
 30
0.0
 11
122.458
 21
155.532
 31
0.0
  0
LINE
  8
0
 62
     0
 10
122.458
 20
155.532
 30
0.0
 11
126.626
 21
156.313
 31
0.0
  0
LINE
  8
0
 62
     0
 10
101.625
 20
152.146
 30
0.0
 11
114.126
 21
152.146
 31
0.0
  0
LINE
  8
0
 62
     0
 10
114.126
 20
152.146
 30
0.0
 11
119.205
 21
154.068
 31
0.0
  0
LINE
  8
0
 62
     0
 10
119.205
 20
154.068
 30
0.0
 11
117.206
 21
151.568
 31
0.0
  0
LINE
  8
0
 62
     0
 10
117.206
 20
151.568
 30
0.0
 11
121.205
 21
151.568
 31
0.0
  0
LINE
  8
0
 62
     0
 10
121.205
 20
151.568
 30
0.0
 11
119.205
 21
154.068
 31
0.0
  0
LINE
  8
0
 62
     0
 10
119.205
 20
154.068
 30
0.0
 11
126.626
 21
152.146
 31
0.0
  0
LINE
  8
0
 62
     7
 10
126.624
 20
175.063
 30
0.0
 11
151.625
 21
175.063
 31
0.0
  0
LINE
  8
0
 62
     7
 10
151.625
 20
175.063
 30
0.0
 11
151.625
 21
150.064
 31
0.0
  0
LINE
  8
0
 62
     7
 10
151.625
 20
150.064
 30
0.0
 11
126.624
 21
150.064
 31
0.0
  0
LINE
  8
0
 62
     7
 10
126.624
 20
150.064
 30
0.0
 11
126.624
 21
175.063
 31
0.0
  0
LINE
  8
0
 62
     0
 10
126.624
 20
168.813
 30
0.0
 11
130.793
 21
168.188
 31
0.0
  0
LINE
  8
0
 62
     0
 10
151.625
 20
168.813
 30
0.0
 11
147.457
 21
168.188
 31
0.0
  0
LINE
  8
0
 62
     0
 10
126.624
 20
164.646
 30
0.0
 11
130.793
 21
164.438
 31
0.0
  0
LINE
  8
0
 62
     0
 10
151.625
 20
164.646
 30
0.0
 11
147.457
 21
164.438
 31
0.0
  0
LINE
  8
0
 62
     0
 10
126.624
 20
172.979
 30
0.0
 11
151.625
 21
172.979
 31
0.0
  0
LINE
  8
0
 62
     0
 10
126.624
 20
160.479
 30
0.0
 11
130.793
 21
160.688
 31
0.0
  0
LINE
  8
0
 62
     0
 10
130.793
 20
160.688
 30
0.0
 11
147.457
 21
160.688
 31
0.0
  0
LINE
  8
0
 62
     0
 10
151.625
 20
160.479
 30
0.0
 11
147.457
 21
156.938
 31
0.0
  0
LINE
  8
0
 62
     0
 10
126.624
 20
156.313
 30
0.0
 11
130.793
 21
156.938
 31
0.0
  0
LINE
  8
0
 62
     0
 10
130.793
 20
156.938
 30
0.0
 11
128.795
 21
159.438
 31
0.0
  0
LINE
  8
0
 62
     0
 10
128.795
 20
159.438
 30
0.0
 11
132.795
 21
159.438
 31
0.0
  0
LINE
  8
0
 62
     0
 10
132.795
 20
159.438
 30
0.0
 11
130.793
 21
156.938
 31
0.0
  0
LINE
  8
0
 62
     0
 10
130.793
 20
156.938
 30
0.0
 11
139.125
 21
156.313
 31
0.0
  0
LINE
  8
0
 62
     0
 10
139.125
 20
156.313
 30
0.0
 11
147.457
 21
155.532
 31
0.0
  0
LINE
  8
0
 62
     0
 10
147.457
 20
155.532
 30
0.0
 11
151.625
 21
156.313
 31
0.0
  0
LINE
  8
0
 62
     0
 10
126.624
 20
152.146
 30
0.0
 11
139.125
 21
152.146
 31
0.0
  0
LINE
  8
0
 62
     0
 10
139.125
 20
152.146
 30
0.0
 11
144.206
 21
154.068
 31
0.0
  0
LINE
  8
0
 62
     0
 10
144.206
 20
154.068
 30
0.0
 11
142.204
 21
151.568
 31
0.0
  0
LINE
  8
0
 62
     0
 10
142.204
 20
151.568
 30
0.0
 11
146.207
 21
151.568
 31
0.0
  0
LINE
  8
0
 62
     0
 10
146.207
 20
151.568
 30
0.0
 11
144.206
 21
154.068
 31
0.0
  0
LINE
  8
0
 62
     0
 10
144.206
 20
154.068
 30
0.0
 11
151.625
 21
152.146
 31
0.0
  0
LINE
  8
0
 62
     7
 10
151.625
 20
175.063
 30
0.0
 11
176.625
 21
175.063
 31
0.0
  0
LINE
  8
0
 62
     7
 10
176.625
 20
175.063
 30
0.0
 11
176.625
 21
150.064
 31
0.0
  0
LINE
  8
0
 62
     7
 10
176.625
 20
150.064
 30
0.0
 11
151.625
 21
150.064
 31
0.0
  0
LINE
  8
0
 62
     7
 10
151.625
 20
150.064
 30
0.0
 11
151.625
 21
175.063
 31
0.0
  0
LINE
  8
0
 62
     0
 10
151.625
 20
168.813
 30
0.0
 11
155.794
 21
168.188
 31
0.0
  0
LINE
  8
0
 62
     0
 10
176.625
 20
168.813
 30
0.0
 11
172.457
 21
168.188
 31
0.0
  0
LINE
  8
0
 62
     0
 10
151.625
 20
164.646
 30
0.0
 11
155.794
 21
164.438
 31
0.0
  0
LINE
  8
0
 62
     0
 10
176.625
 20
164.646
 30
0.0
 11
172.457
 21
164.438
 31
0.0
  0
LINE
  8
0
 62
     0
 10
151.625
 20
172.979
 30
0.0
 11
176.625
 21
172.979
 31
0.0
  0
LINE
  8
0
 62
     0
 10
151.625
 20
160.479
 30
0.0
 11
155.794
 21
160.688
 31
0.0
  0
LINE
  8
0
 62
     0
 10
155.794
 20
160.688
 30
0.0
 11
172.457
 21
160.688
 31
0.0
  0
LINE
  8
0
 62
     0
 10
176.625
 20
160.479
 30
0.0
 11
172.457
 21
156.938
 31
0.0
  0
LINE
  8
0
 62
     0
 10
151.625
 20
156.313
 30
0.0
 11
155.794
 21
156.938
 31
0.0
  0
LINE
  8
0
 62
     0
 10
155.794
 20
156.938
 30
0.0
 11
153.794
 21
159.438
 31
0.0
  0
LINE
  8
0
 62
     0
 10
153.794
 20
159.438
 30
0.0
 11
157.794
 21
159.438
 31
0.0
  0
LINE
  8
0
 62
     0
 10
157.794
 20
159.438
 30
0.0
 11
155.794
 21
156.938
 31
0.0
  0
LINE
  8
0
 62
     0
 10
155.794
 20
156.938
 30
0.0
 11
164.126
 21
156.313
 31
0.0
  0
LINE
  8
0
 62
     0
 10
164.126
 20
156.313
 30
0.0
 11
172.457
 21
155.532
 31
0.0
  0
LINE
  8
0
 62
     0
 10
172.457
 20
155.532
 30
0.0
 11
176.625
 21
156.313
 31
0.0
  0
LINE
  8
0
 62
     0
 10
151.625
 20
152.146
 30
0.0
 11
164.126
 21
152.146
 31
0.0
  0
LINE
  8
0
 62
     0
 10
164.126
 20
152.146
 30
0.0
 11
169.204
 21
154.068
 31
0.0
  0
LINE
  8
0
 62
     0
 10
169.204
 20
154.068
 30
0.0
 11
167.206
 21
151.568
 31
0.0
  0
LINE
  8
0
 62
     0
 10
167.206
 20
151.568
 30
0.0
 11
171.206
 21
151.568
 31
0.0
  0
LINE
  8
0
 62
     0
 10
171.206
 20
151.568
 30
0.0
 11
169.204
 21
154.068
 31
0.0
  0
LINE
  8
0
 62
     0
 10
169.204
 20
154.068
 30
0.0
 11
176.625
 21
152.146
 31
0.0
  0
LINE
  8
0
 62
     7
 10
176.625
 20
175.063
 30
0.0
 11
201.626
 21
175.063
 31
0.0
  0
LINE
  8
0
 62
     7
 10
201.626
 20
175.063
 30
0.0
 11
201.626
 21
150.064
 31
0.0
  0
LINE
  8
0
 62
     7
 10
201.626
 20
150.064
 30
0.0
 11
176.625
 21
150.064
 31
0.0
  0
LINE
  8
0
 62
     7
 10
176.625
 20
150.064
 30
0.0
 11
176.625
 21
175.063
 31
0.0
  0
LINE
  8
0
 62
     0
 10
176.625
 20
168.813
 30
0.0
 11
180.793
 21
168.188
 31
0.0
  0
LINE
  8
0
 62
     0
 10
201.626
 20
168.813
 30
0.0
 11
197.457
 21
168.188
 31
0.0
  0
LINE
  8
0
 62
     0
 10
176.625
 20
164.646
 30
0.0
 11
180.793
 21
164.438
 31
0.0
  0
LINE
  8
0
 62
     0
 10
201.626
 20
164.646
 30
0.0
 11
197.457
 21
164.438
 31
0.0
  0
LINE
  8
0
 62
     0
 10
176.625
 20
172.979
 30
0.0
 11
201.626
 21
172.979
 31
0.0
  0
LINE
  8
0
 62
     0
 10
176.625
 20
160.479
 30
0.0
 11
180.793
 21
160.688
 31
0.0
  0
LINE
  8
0
 62
     0
 10
180.793
 20
160.688
 30
0.0
 11
197.457
 21
160.688
 31
0.0
  0
LINE
  8
0
 62
     0
 10
201.626
 20
160.479
 30
0.0
 11
197.457
 21
156.938
 31
0.0
  0
LINE
  8
0
 62
     0
 10
176.625
 20
156.313
 30
0.0
 11
180.793
 21
156.938
 31
0.0
  0
LINE
  8
0
 62
     0
 10
180.793
 20
156.938
 30
0.0
 11
178.793
 21
159.438
 31
0.0
  0
LINE
  8
0
 62
     0
 10
178.793
 20
159.438
 30
0.0
 11
182.794
 21
159.438
 31
0.0
  0
LINE
  8
0
 62
     0
 10
182.794
 20
159.438
 30
0.0
 11
180.793
 21
156.938
 31
0.0
  0
LINE
  8
0
 62
     0
 10
180.793
 20
156.938
 30
0.0
 11
189.125
 21
156.313
 31
0.0
  0
LINE
  8
0
 62
     0
 10
189.125
 20
156.313
 30
0.0
 11
197.457
 21
155.532
 31
0.0
  0
LINE
  8
0
 62
     0
 10
197.457
 20
155.532
 30
0.0
 11
201.626
 21
156.313
 31
0.0
  0
LINE
  8
0
 62
     0
 10
176.625
 20
152.146
 30
0.0
 11
189.125
 21
152.146
 31
0.0
  0
LINE
  8
0
 62
     0
 10
189.125
 20
152.146
 30
0.0
 11
194.206
 21
154.068
 31
0.0
  0
LINE
  8
0
 62
     0
 10
194.206
 20
154.068
 30
0.0
 11
192.206
 21
151.568
 31
0.0
  0
LINE
  8
0
 62
     0
 10
192.206
 20
151.568
 30
0.0
 11
196.206
 21
151.568
 31
0.0
  0
LINE
  8
0
 62
     0
 10
196.206
 20
151.568
 30
0.0
 11
194.206
 21
154.068
 31
0.0
  0
LINE
  8
0
 62
     0
 10
194.206
 20
154.068
 30
0.0
 11
201.626
 21
152.146
 31
0.0
  0
LINE
  8
0
 62
     7
 10
201.626
 20
175.063
 30
0.0
 11
226.625
 21
175.063
 31
0.0
  0
LINE
  8
0
 62
     7
 10
226.625
 20
175.063
 30
0.0
 11
226.625
 21
150.064
 31
0.0
  0
LINE
  8
0
 62
     7
 10
226.625
 20
150.064
 30
0.0
 11
201.626
 21
150.064
 31
0.0
  0
LINE
  8
0
 62
     7
 10
201.626
 20
150.064
 30
0.0
 11
201.626
 21
175.063
 31
0.0
  0
LINE
  8
0
 62
     0
 10
201.626
 20
168.813
 30
0.0
 11
205.794
 21
168.188
 31
0.0
  0
LINE
  8
0
 62
     0
 10
201.626
 20
164.646
 30
0.0
 11
205.794
 21
164.438
 31
0.0
  0
LINE
  8
0
 62
     0
 10
201.626
 20
172.979
 30
0.0
 11
226.625
 21
172.979
 31
0.0
  0
LINE
  8
0
 62
     0
 10
226.625
 20
172.979
 30
0.0
 11
226.625
 21
160.479
 31
0.0
  0
LINE
  8
0
 62
     0
 10
201.626
 20
160.479
 30
0.0
 11
205.794
 21
160.688
 31
0.0
  0
LINE
  8
0
 62
     0
 10
205.794
 20
160.688
 30
0.0
 11
222.457
 21
160.688
 31
0.0
  0
LINE
  8
0
 62
     0
 10
226.625
 20
160.479
 30
0.0
 11
222.457
 21
156.938
 31
0.0
  0
LINE
  8
0
 62
     0
 10
201.626
 20
156.313
 30
0.0
 11
205.794
 21
156.938
 31
0.0
  0
LINE
  8
0
 62
     0
 10
201.626
 20
152.146
 30
0.0
 11
214.125
 21
152.146
 31
0.0
  0
LINE
  8
0
 62
     0
 10
214.125
 20
152.146
 30
0.0
 11
219.204
 21
154.068
 31
0.0
  0
LINE
  8
0
 62
     7
 10
1.62457
 20
150.063
 30
0.0
 11
26.6256
 21
150.063
 31
0.0
  0
LINE
  8
0
 62
     7
 10
26.6256
 20
150.063
 30
0.0
 11
26.6256
 21
125.062
 31
0.0
  0
LINE
  8
0
 62
     7
 10
26.6256
 20
125.062
 30
0.0
 11
1.62457
 21
125.062
 31
0.0
  0
LINE
  8
0
 62
     7
 10
1.62457
 20
125.062
 30
0.0
 11
1.62457
 21
150.063
 31
0.0
  0
LINE
  8
0
 62
     0
 10
20.3743
 20
150.063
 30
0.0
 11
20.3743
 21
143.814
 31
0.0
  0
LINE
  8
0
 62
     0
 10
18.2915
 20
143.814
 30
0.0
 11
26.6256
 21
143.814
 31
0.0
  0
LINE
  8
0
 62
     0
 10
20.3743
 20
143.814
 30
0.0
 11
20.3743
 21
125.062
 31
0.0
  0
LINE
  8
0
 62
     0
 10
16.2093
 20
150.063
 30
0.0
 11
16.2093
 21
139.647
 31
0.0
  0
LINE
  8
0
 62
     0
 10
14.1247
 20
139.647
 30
0.0
 11
26.6256
 21
139.647
 31
0.0
  0
LINE
  8
0
 62
     0
 10
16.2093
 20
139.647
 30
0.0
 11
16.2093
 21
125.062
 31
0.0
  0
LINE
  8
0
 62
     0
 10
26.6256
 20
147.979
 30
0.0
 11
24.541
 21
147.979
 31
0.0
  0
LINE
  8
0
 62
     0
 10
24.541
 20
147.979
 30
0.0
 11
24.541
 21
150.063
 31
0.0
  0
LINE
  8
0
 62
     0
 10
12.0425
 20
150.063
 30
0.0
 11
12.0425
 21
125.062
 31
0.0
  0
LINE
  8
0
 62
     0
 10
26.6256
 20
135.478
 30
0.0
 11
24.541
 21
135.478
 31
0.0
  0
LINE
  8
0
 62
     0
 10
24.541
 20
135.478
 30
0.0
 11
24.541
 21
125.062
 31
0.0
  0
LINE
  8
0
 62
     0
 10
7.87354
 20
150.063
 30
0.0
 11
7.87354
 21
131.313
 31
0.0
  0
LINE
  8
0
 62
     0
 10
5.79308
 20
131.313
 30
0.0
 11
26.6256
 21
131.313
 31
0.0
  0
LINE
  8
0
 62
     0
 10
7.87354
 20
131.313
 30
0.0
 11
7.87354
 21
125.062
 31
0.0
  0
LINE
  8
0
 62
     0
 10
3.70856
 20
150.063
 30
0.0
 11
3.70856
 21
127.146
 31
0.0
  0
LINE
  8
0
 62
     0
 10
1.62457
 20
127.146
 30
0.0
 11
26.6256
 21
127.146
 31
0.0
  0
LINE
  8
0
 62
     0
 10
3.70856
 20
127.146
 30
0.0
 11
3.70856
 21
125.062
 31
0.0
  0
LINE
  8
0
 62
     7
 10
26.6256
 20
150.063
 30
0.0
 11
51.6246
 21
150.063
 31
0.0
  0
LINE
  8
0
 62
     7
 10
51.6246
 20
150.063
 30
0.0
 11
51.6246
 21
125.062
 31
0.0
  0
LINE
  8
0
 62
     7
 10
51.6246
 20
125.062
 30
0.0
 11
26.6256
 21
125.062
 31
0.0
  0
LINE
  8
0
 62
     7
 10
26.6256
 20
125.062
 30
0.0
 11
26.6256
 21
150.063
 31
0.0
  0
LINE
  8
0
 62
     0
 10
26.6256
 20
143.814
 30
0.0
 11
30.794
 21
143.189
 31
0.0
  0
LINE
  8
0
 62
     0
 10
51.6246
 20
143.814
 30
0.0
 11
47.4561
 21
143.189
 31
0.0
  0
LINE
  8
0
 62
     0
 10
26.6256
 20
139.647
 30
0.0
 11
30.794
 21
139.439
 31
0.0
  0
LINE
  8
0
 62
     0
 10
51.6246
 20
139.647
 30
0.0
 11
47.4561
 21
139.439
 31
0.0
  0
LINE
  8
0
 62
     0
 10
26.6256
 20
147.979
 30
0.0
 11
51.6246
 21
147.979
 31
0.0
  0
LINE
  8
0
 62
     0
 10
26.6256
 20
135.478
 30
0.0
 11
30.794
 21
135.688
 31
0.0
  0
LINE
  8
0
 62
     0
 10
30.794
 20
135.688
 30
0.0
 11
47.4561
 21
135.688
 31
0.0
  0
LINE
  8
0
 62
     0
 10
51.6246
 20
135.478
 30
0.0
 11
47.4561
 21
131.937
 31
0.0
  0
LINE
  8
0
 62
     0
 10
26.6256
 20
131.313
 30
0.0
 11
30.794
 21
131.937
 31
0.0
  0
LINE
  8
0
 62
     0
 10
30.794
 20
131.937
 30
0.0
 11
28.7942
 21
134.438
 31
0.0
  0
LINE
  8
0
 62
     0
 10
28.7942
 20
134.438
 30
0.0
 11
32.7937
 21
134.438
 31
0.0
  0
LINE
  8
0
 62
     0
 10
32.7937
 20
134.438
 30
0.0
 11
30.794
 21
131.937
 31
0.0
  0
LINE
  8
0
 62
     0
 10
30.794
 20
131.937
 30
0.0
 11
39.1261
 21
131.313
 31
0.0
  0
LINE
  8
0
 62
     0
 10
39.1261
 20
131.313
 30
0.0
 11
47.4561
 21
130.531
 31
0.0
  0
LINE
  8
0
 62
     0
 10
47.4561
 20
130.531
 30
0.0
 11
51.6246
 21
131.313
 31
0.0
  0
LINE
  8
0
 62
     0
 10
26.6256
 20
127.146
 30
0.0
 11
39.1261
 21
127.146
 31
0.0
  0
LINE
  8
0
 62
     0
 10
39.1261
 20
127.146
 30
0.0
 11
44.2039
 21
129.068
 31
0.0
  0
LINE
  8
0
 62
     0
 10
44.2039
 20
129.068
 30
0.0
 11
42.2058
 21
126.569
 31
0.0
  0
LINE
  8
0
 62
     0
 10
42.2058
 20
126.569
 30
0.0
 11
46.2056
 21
126.569
 31
0.0
  0
LINE
  8
0
 62
     0
 10
46.2056
 20
126.569
 30
0.0
 11
44.2039
 21
129.068
 31
0.0
  0
LINE
  8
0
 62
     0
 10
44.2039
 20
129.068
 30
0.0
 11
51.6246
 21
127.146
 31
0.0
  0
LINE
  8
0
 62
     7
 10
51.6246
 20
150.063
 30
0.0
 11
76.6256
 21
150.063
 31
0.0
  0
LINE
  8
0
 62
     7
 10
76.6256
 20
150.063
 30
0.0
 11
76.6256
 21
125.062
 31
0.0
  0
LINE
  8
0
 62
     7
 10
76.6256
 20
125.062
 30
0.0
 11
51.6246
 21
125.062
 31
0.0
  0
LINE
  8
0
 62
     7
 10
51.6246
 20
125.062
 30
0.0
 11
51.6246
 21
150.063
 31
0.0
  0
LINE
  8
0
 62
     0
 10
51.6246
 20
143.814
 30
0.0
 11
55.7932
 21
143.189
 31
0.0
  0
LINE
  8
0
 62
     0
 10
76.626
 20
143.814
 30
0.0
 11
72.4571
 21
143.189
 31
0.0
  0
LINE
  8
0
 62
     0
 10
51.6246
 20
139.647
 30
0.0
 11
55.7932
 21
139.439
 31
0.0
  0
LINE
  8
0
 62
     0
 10
76.626
 20
139.647
 30
0.0
 11
72.4571
 21
139.439
 31
0.0
  0
LINE
  8
0
 62
     0
 10
51.6246
 20
147.979
 30
0.0
 11
76.626
 21
147.979
 31
0.0
  0
LINE
  8
0
 62
     0
 10
51.6246
 20
135.478
 30
0.0
 11
55.7932
 21
135.688
 31
0.0
  0
LINE
  8
0
 62
     0
 10
55.7932
 20
135.688
 30
0.0
 11
72.4571
 21
135.688
 31
0.0
  0
LINE
  8
0
 62
     0
 10
76.626
 20
135.478
 30
0.0
 11
72.4571
 21
131.937
 31
0.0
  0
LINE
  8
0
 62
     0
 10
51.6246
 20
131.313
 30
0.0
 11
55.7932
 21
131.937
 31
0.0
  0
LINE
  8
0
 62
     0
 10
55.7932
 20
131.937
 30
0.0
 11
53.7933
 21
134.438
 31
0.0
  0
LINE
  8
0
 62
     0
 10
53.7933
 20
134.438
 30
0.0
 11
57.7947
 21
134.438
 31
0.0
  0
LINE
  8
0
 62
     0
 10
57.7947
 20
134.438
 30
0.0
 11
55.7932
 21
131.937
 31
0.0
  0
LINE
  8
0
 62
     0
 10
55.7932
 20
131.937
 30
0.0
 11
64.1253
 21
131.313
 31
0.0
  0
LINE
  8
0
 62
     0
 10
64.1253
 20
131.313
 30
0.0
 11
72.4571
 21
130.531
 31
0.0
  0
LINE
  8
0
 62
     0
 10
72.4571
 20
130.531
 30
0.0
 11
76.626
 21
131.313
 31
0.0
  0
LINE
  8
0
 62
     0
 10
51.6246
 20
127.146
 30
0.0
 11
64.1253
 21
127.146
 31
0.0
  0
LINE
  8
0
 62
     0
 10
64.1253
 20
127.146
 30
0.0
 11
69.2053
 21
129.068
 31
0.0
  0
LINE
  8
0
 62
     0
 10
69.2053
 20
129.068
 30
0.0
 11
67.205
 21
126.569
 31
0.0
  0
LINE
  8
0
 62
     0
 10
67.205
 20
126.569
 30
0.0
 11
71.2051
 21
126.569
 31
0.0
  0
LINE
  8
0
 62
     0
 10
71.2051
 20
126.569
 30
0.0
 11
69.2053
 21
129.068
 31
0.0
  0
LINE
  8
0
 62
     0
 10
69.2053
 20
129.068
 30
0.0
 11
76.626
 21
127.146
 31
0.0
  0
LINE
  8
0
 62
     7
 10
76.626
 20
150.063
 30
0.0
 11
101.625
 21
150.063
 31
0.0
  0
LINE
  8
0
 62
     7
 10
101.625
 20
150.063
 30
0.0
 11
101.625
 21
125.062
 31
0.0
  0
LINE
  8
0
 62
     7
 10
101.625
 20
125.062
 30
0.0
 11
76.626
 21
125.062
 31
0.0
  0
LINE
  8
0
 62
     7
 10
76.626
 20
125.062
 30
0.0
 11
76.626
 21
150.063
 31
0.0
  0
LINE
  8
0
 62
     0
 10
76.626
 20
143.814
 30
0.0
 11
80.7944
 21
143.189
 31
0.0
  0
LINE
  8
0
 62
     0
 10
101.625
 20
143.814
 30
0.0
 11
97.4567
 21
143.189
 31
0.0
  0
LINE
  8
0
 62
     0
 10
76.626
 20
139.647
 30
0.0
 11
80.7944
 21
139.439
 31
0.0
  0
LINE
  8
0
 62
     0
 10
101.625
 20
139.647
 30
0.0
 11
97.4567
 21
139.439
 31
0.0
  0
LINE
  8
0
 62
     0
 10
76.626
 20
147.979
 30
0.0
 11
101.625
 21
147.979
 31
0.0
  0
LINE
  8
0
 62
     0
 10
76.626
 20
135.478
 30
0.0
 11
80.7944
 21
135.688
 31
0.0
  0
LINE
  8
0
 62
     0
 10
80.7944
 20
135.688
 30
0.0
 11
97.4567
 21
135.688
 31
0.0
  0
LINE
  8
0
 62
     0
 10
101.625
 20
135.478
 30
0.0
 11
97.4567
 21
131.937
 31
0.0
  0
LINE
  8
0
 62
     0
 10
76.626
 20
131.313
 30
0.0
 11
80.7944
 21
131.937
 31
0.0
  0
LINE
  8
0
 62
     0
 10
80.7944
 20
131.937
 30
0.0
 11
78.7947
 21
134.438
 31
0.0
  0
LINE
  8
0
 62
     0
 10
78.7947
 20
134.438
 30
0.0
 11
82.7943
 21
134.438
 31
0.0
  0
LINE
  8
0
 62
     0
 10
82.7943
 20
134.438
 30
0.0
 11
80.7944
 21
131.937
 31
0.0
  0
LINE
  8
0
 62
     0
 10
80.7944
 20
131.937
 30
0.0
 11
89.1244
 21
131.313
 31
0.0
  0
LINE
  8
0
 62
     0
 10
89.1244
 20
131.313
 30
0.0
 11
97.4567
 21
130.531
 31
0.0
  0
LINE
  8
0
 62
     0
 10
97.4567
 20
130.531
 30
0.0
 11
101.625
 21
131.313
 31
0.0
  0
LINE
  8
0
 62
     0
 10
76.626
 20
127.146
 30
0.0
 11
89.1244
 21
127.146
 31
0.0
  0
LINE
  8
0
 62
     0
 10
89.1244
 20
127.146
 30
0.0
 11
94.2044
 21
129.068
 31
0.0
  0
LINE
  8
0
 62
     0
 10
94.2044
 20
129.068
 30
0.0
 11
92.2046
 21
126.569
 31
0.0
  0
LINE
  8
0
 62
     0
 10
92.2046
 20
126.569
 30
0.0
 11
96.2061
 21
126.569
 31
0.0
  0
LINE
  8
0
 62
     0
 10
96.2061
 20
126.569
 30
0.0
 11
94.2044
 21
129.068
 31
0.0
  0
LINE
  8
0
 62
     0
 10
94.2044
 20
129.068
 30
0.0
 11
101.625
 21
127.146
 31
0.0
  0
LINE
  8
0
 62
     7
 10
101.625
 20
150.063
 30
0.0
 11
126.626
 21
150.063
 31
0.0
  0
LINE
  8
0
 62
     7
 10
126.626
 20
150.063
 30
0.0
 11
126.626
 21
125.062
 31
0.0
  0
LINE
  8
0
 62
     7
 10
126.626
 20
125.062
 30
0.0
 11
101.625
 21
125.062
 31
0.0
  0
LINE
  8
0
 62
     7
 10
101.625
 20
125.062
 30
0.0
 11
101.625
 21
150.063
 31
0.0
  0
LINE
  8
0
 62
     0
 10
101.625
 20
143.814
 30
0.0
 11
105.794
 21
143.189
 31
0.0
  0
LINE
  8
0
 62
     0
 10
126.626
 20
143.814
 30
0.0
 11
122.458
 21
143.189
 31
0.0
  0
LINE
  8
0
 62
     0
 10
101.625
 20
139.647
 30
0.0
 11
105.794
 21
139.439
 31
0.0
  0
LINE
  8
0
 62
     0
 10
126.626
 20
139.647
 30
0.0
 11
122.458
 21
139.439
 31
0.0
  0
LINE
  8
0
 62
     0
 10
101.625
 20
147.979
 30
0.0
 11
126.626
 21
147.979
 31
0.0
  0
LINE
  8
0
 62
     0
 10
101.625
 20
135.478
 30
0.0
 11
105.794
 21
135.688
 31
0.0
  0
LINE
  8
0
 62
     0
 10
105.794
 20
135.688
 30
0.0
 11
122.458
 21
135.688
 31
0.0
  0
LINE
  8
0
 62
     0
 10
126.626
 20
135.478
 30
0.0
 11
122.458
 21
131.937
 31
0.0
  0
LINE
  8
0
 62
     0
 10
101.625
 20
131.313
 30
0.0
 11
105.794
 21
131.937
 31
0.0
  0
LINE
  8
0
 62
     0
 10
105.794
 20
131.937
 30
0.0
 11
103.794
 21
134.438
 31
0.0
  0
LINE
  8
0
 62
     0
 10
103.794
 20
134.438
 30
0.0
 11
107.795
 21
134.438
 31
0.0
  0
LINE
  8
0
 62
     0
 10
107.795
 20
134.438
 30
0.0
 11
105.794
 21
131.937
 31
0.0
  0
LINE
  8
0
 62
     0
 10
105.794
 20
131.937
 30
0.0
 11
114.126
 21
131.313
 31
0.0
  0
LINE
  8
0
 62
     0
 10
114.126
 20
131.313
 30
0.0
 11
122.458
 21
130.531
 31
0.0
  0
LINE
  8
0
 62
     0
 10
122.458
 20
130.531
 30
0.0
 11
126.626
 21
131.313
 31
0.0
  0
LINE
  8
0
 62
     0
 10
101.625
 20
127.146
 30
0.0
 11
114.126
 21
127.146
 31
0.0
  0
LINE
  8
0
 62
     0
 10
114.126
 20
127.146
 30
0.0
 11
119.205
 21
129.068
 31
0.0
  0
LINE
  8
0
 62
     0
 10
119.205
 20
129.068
 30
0.0
 11
117.206
 21
126.569
 31
0.0
  0
LINE
  8
0
 62
     0
 10
117.206
 20
126.569
 30
0.0
 11
121.205
 21
126.569
 31
0.0
  0
LINE
  8
0
 62
     0
 10
121.205
 20
126.569
 30
0.0
 11
119.205
 21
129.068
 31
0.0
  0
LINE
  8
0
 62
     0
 10
119.205
 20
129.068
 30
0.0
 11
126.626
 21
127.146
 31
0.0
  0
LINE
  8
0
 62
     7
 10
126.624
 20
150.063
 30
0.0
 11
151.625
 21
150.063
 31
0.0
  0
LINE
  8
0
 62
     7
 10
151.625
 20
150.063
 30
0.0
 11
151.625
 21
125.062
 31
0.0
  0
LINE
  8
0
 62
     7
 10
151.625
 20
125.062
 30
0.0
 11
126.624
 21
125.062
 31
0.0
  0
LINE
  8
0
 62
     7
 10
126.624
 20
125.062
 30
0.0
 11
126.624
 21
150.063
 31
0.0
  0
LINE
  8
0
 62
     0
 10
126.624
 20
143.814
 30
0.0
 11
130.793
 21
143.189
 31
0.0
  0
LINE
  8
0
 62
     0
 10
151.625
 20
143.814
 30
0.0
 11
147.457
 21
143.189
 31
0.0
  0
LINE
  8
0
 62
     0
 10
126.624
 20
139.647
 30
0.0
 11
130.793
 21
139.439
 31
0.0
  0
LINE
  8
0
 62
     0
 10
151.625
 20
139.647
 30
0.0
 11
147.457
 21
139.439
 31
0.0
  0
LINE
  8
0
 62
     0
 10
126.624
 20
147.979
 30
0.0
 11
151.625
 21
147.979
 31
0.0
  0
LINE
  8
0
 62
     0
 10
126.624
 20
135.478
 30
0.0
 11
130.793
 21
135.688
 31
0.0
  0
LINE
  8
0
 62
     0
 10
130.793
 20
135.688
 30
0.0
 11
147.457
 21
135.688
 31
0.0
  0
LINE
  8
0
 62
     0
 10
151.625
 20
135.478
 30
0.0
 11
147.457
 21
131.937
 31
0.0
  0
LINE
  8
0
 62
     0
 10
126.624
 20
131.313
 30
0.0
 11
130.793
 21
131.937
 31
0.0
  0
LINE
  8
0
 62
     0
 10
130.793
 20
131.937
 30
0.0
 11
128.795
 21
134.438
 31
0.0
  0
LINE
  8
0
 62
     0
 10
128.795
 20
134.438
 30
0.0
 11
132.795
 21
134.438
 31
0.0
  0
LINE
  8
0
 62
     0
 10
132.795
 20
134.438
 30
0.0
 11
130.793
 21
131.937
 31
0.0
  0
LINE
  8
0
 62
     0
 10
130.793
 20
131.937
 30
0.0
 11
139.125
 21
131.313
 31
0.0
  0
LINE
  8
0
 62
     0
 10
139.125
 20
131.313
 30
0.0
 11
147.457
 21
130.531
 31
0.0
  0
LINE
  8
0
 62
     0
 10
147.457
 20
130.531
 30
0.0
 11
151.625
 21
131.313
 31
0.0
  0
LINE
  8
0
 62
     0
 10
126.624
 20
127.146
 30
0.0
 11
139.125
 21
127.146
 31
0.0
  0
LINE
  8
0
 62
     0
 10
139.125
 20
127.146
 30
0.0
 11
144.206
 21
129.068
 31
0.0
  0
LINE
  8
0
 62
     0
 10
144.206
 20
129.068
 30
0.0
 11
142.204
 21
126.569
 31
0.0
  0
LINE
  8
0
 62
     0
 10
142.204
 20
126.569
 30
0.0
 11
146.207
 21
126.569
 31
0.0
  0
LINE
  8
0
 62
     0
 10
146.207
 20
126.569
 30
0.0
 11
144.206
 21
129.068
 31
0.0
  0
LINE
  8
0
 62
     0
 10
144.206
 20
129.068
 30
0.0
 11
151.625
 21
127.146
 31
0.0
  0
LINE
  8
0
 62
     7
 10
151.625
 20
150.063
 30
0.0
 11
176.625
 21
150.063
 31
0.0
  0
LINE
  8
0
 62
     7
 10
176.625
 20
150.063
 30
0.0
 11
176.625
 21
125.062
 31
0.0
  0
LINE
  8
0
 62
     7
 10
176.625
 20
125.062
 30
0.0
 11
151.625
 21
125.062
 31
0.0
  0
LINE
  8
0
 62
     7
 10
151.625
 20
125.062
 30
0.0
 11
151.625
 21
150.063
 31
0.0
  0
LINE
  8
0
 62
     0
 10
151.625
 20
143.814
 30
0.0
 11
155.794
 21
143.189
 31
0.0
  0
LINE
  8
0
 62
     0
 10
176.625
 20
143.814
 30
0.0
 11
172.457
 21
143.189
 31
0.0
  0
LINE
  8
0
 62
     0
 10
151.625
 20
139.647
 30
0.0
 11
155.794
 21
139.439
 31
0.0
  0
LINE
  8
0
 62
     0
 10
176.625
 20
139.647
 30
0.0
 11
172.457
 21
139.439
 31
0.0
  0
LINE
  8
0
 62
     0
 10
151.625
 20
147.979
 30
0.0
 11
176.625
 21
147.979
 31
0.0
  0
LINE
  8
0
 62
     0
 10
151.625
 20
135.478
 30
0.0
 11
155.794
 21
135.688
 31
0.0
  0
LINE
  8
0
 62
     0
 10
155.794
 20
135.688
 30
0.0
 11
172.457
 21
135.688
 31
0.0
  0
LINE
  8
0
 62
     0
 10
176.625
 20
135.478
 30
0.0
 11
172.457
 21
131.937
 31
0.0
  0
LINE
  8
0
 62
     0
 10
151.625
 20
131.313
 30
0.0
 11
155.794
 21
131.937
 31
0.0
  0
LINE
  8
0
 62
     0
 10
155.794
 20
131.937
 30
0.0
 11
153.794
 21
134.438
 31
0.0
  0
LINE
  8
0
 62
     0
 10
153.794
 20
134.438
 30
0.0
 11
157.794
 21
134.438
 31
0.0
  0
LINE
  8
0
 62
     0
 10
157.794
 20
134.438
 30
0.0
 11
155.794
 21
131.937
 31
0.0
  0
LINE
  8
0
 62
     0
 10
155.794
 20
131.937
 30
0.0
 11
164.126
 21
131.313
 31
0.0
  0
LINE
  8
0
 62
     0
 10
164.126
 20
131.313
 30
0.0
 11
172.457
 21
130.531
 31
0.0
  0
LINE
  8
0
 62
     0
 10
172.457
 20
130.531
 30
0.0
 11
176.625
 21
131.313
 31
0.0
  0
LINE
  8
0
 62
     0
 10
151.625
 20
127.146
 30
0.0
 11
164.126
 21
127.146
 31
0.0
  0
LINE
  8
0
 62
     0
 10
164.126
 20
127.146
 30
0.0
 11
169.204
 21
129.068
 31
0.0
  0
LINE
  8
0
 62
     0
 10
169.204
 20
129.068
 30
0.0
 11
167.206
 21
126.569
 31
0.0
  0
LINE
  8
0
 62
     0
 10
167.206
 20
126.569
 30
0.0
 11
171.206
 21
126.569
 31
0.0
  0
LINE
  8
0
 62
     0
 10
171.206
 20
126.569
 30
0.0
 11
169.204
 21
129.068
 31
0.0
  0
LINE
  8
0
 62
     0
 10
169.204
 20
129.068
 30
0.0
 11
176.625
 21
127.146
 31
0.0
  0
LINE
  8
0
 62
     7
 10
176.625
 20
150.063
 30
0.0
 11
201.626
 21
150.063
 31
0.0
  0
LINE
  8
0
 62
     7
 10
201.626
 20
150.063
 30
0.0
 11
201.626
 21
125.062
 31
0.0
  0
LINE
  8
0
 62
     7
 10
201.626
 20
125.062
 30
0.0
 11
176.625
 21
125.062
 31
0.0
  0
LINE
  8
0
 62
     7
 10
176.625
 20
125.062
 30
0.0
 11
176.625
 21
150.063
 31
0.0
  0
LINE
  8
0
 62
     0
 10
176.625
 20
143.814
 30
0.0
 11
180.793
 21
143.189
 31
0.0
  0
LINE
  8
0
 62
     0
 10
201.626
 20
143.814
 30
0.0
 11
197.457
 21
143.189
 31
0.0
  0
LINE
  8
0
 62
     0
 10
176.625
 20
139.647
 30
0.0
 11
180.793
 21
139.439
 31
0.0
  0
LINE
  8
0
 62
     0
 10
201.626
 20
139.647
 30
0.0
 11
197.457
 21
139.439
 31
0.0
  0
LINE
  8
0
 62
     0
 10
176.625
 20
147.979
 30
0.0
 11
201.626
 21
147.979
 31
0.0
  0
LINE
  8
0
 62
     0
 10
176.625
 20
135.478
 30
0.0
 11
180.793
 21
135.688
 31
0.0
  0
LINE
  8
0
 62
     0
 10
180.793
 20
135.688
 30
0.0
 11
197.457
 21
135.688
 31
0.0
  0
LINE
  8
0
 62
     0
 10
201.626
 20
135.478
 30
0.0
 11
197.457
 21
131.937
 31
0.0
  0
LINE
  8
0
 62
     0
 10
176.625
 20
131.313
 30
0.0
 11
180.793
 21
131.937
 31
0.0
  0
LINE
  8
0
 62
     0
 10
180.793
 20
131.937
 30
0.0
 11
178.793
 21
134.438
 31
0.0
  0
LINE
  8
0
 62
     0
 10
178.793
 20
134.438
 30
0.0
 11
182.794
 21
134.438
 31
0.0
  0
LINE
  8
0
 62
     0
 10
182.794
 20
134.438
 30
0.0
 11
180.793
 21
131.937
 31
0.0
  0
LINE
  8
0
 62
     0
 10
180.793
 20
131.937
 30
0.0
 11
189.125
 21
131.313
 31
0.0
  0
LINE
  8
0
 62
     0
 10
189.125
 20
131.313
 30
0.0
 11
197.457
 21
130.531
 31
0.0
  0
LINE
  8
0
 62
     0
 10
197.457
 20
130.531
 30
0.0
 11
201.626
 21
131.313
 31
0.0
  0
LINE
  8
0
 62
     0
 10
176.625
 20
127.146
 30
0.0
 11
189.125
 21
127.146
 31
0.0
  0
LINE
  8
0
 62
     0
 10
189.125
 20
127.146
 30
0.0
 11
194.206
 21
129.068
 31
0.0
  0
LINE
  8
0
 62
     0
 10
194.206
 20
129.068
 30
0.0
 11
192.206
 21
126.569
 31
0.0
  0
LINE
  8
0
 62
     0
 10
192.206
 20
126.569
 30
0.0
 11
196.206
 21
126.569
 31
0.0
  0
LINE
  8
0
 62
     0
 10
196.206
 20
126.569
 30
0.0
 11
194.206
 21
129.068
 31
0.0
  0
LINE
  8
0
 62
     0
 10
194.206
 20
129.068
 30
0.0
 11
201.626
 21
127.146
 31
0.0
  0
LINE
  8
0
 62
     7
 10
201.626
 20
150.063
 30
0.0
 11
226.625
 21
150.063
 31
0.0
  0
LINE
  8
0
 62
     7
 10
226.625
 20
150.063
 30
0.0
 11
226.625
 21
125.062
 31
0.0
  0
LINE
  8
0
 62
     7
 10
226.625
 20
125.062
 30
0.0
 11
201.626
 21
125.062
 31
0.0
  0
LINE
  8
0
 62
     7
 10
201.626
 20
125.062
 30
0.0
 11
201.626
 21
150.063
 31
0.0
  0
LINE
  8
0
 62
     0
 10
201.626
 20
143.814
 30
0.0
 11
205.794
 21
143.189
 31
0.0
  0
LINE
  8
0
 62
     0
 10
201.626
 20
139.647
 30
0.0
 11
205.794
 21
139.439
 31
0.0
  0
LINE
  8
0
 62
     0
 10
201.626
 20
147.979
 30
0.0
 11
226.625
 21
147.979
 31
0.0
  0
LINE
  8
0
 62
     0
 10
226.625
 20
147.979
 30
0.0
 11
226.625
 21
135.478
 31
0.0
  0
LINE
  8
0
 62
     0
 10
201.626
 20
135.478
 30
0.0
 11
205.794
 21
135.688
 31
0.0
  0
LINE
  8
0
 62
     0
 10
205.794
 20
135.688
 30
0.0
 11
222.457
 21
135.688
 31
0.0
  0
LINE
  8
0
 62
     0
 10
226.625
 20
135.478
 30
0.0
 11
222.457
 21
131.937
 31
0.0
  0
LINE
  8
0
 62
     0
 10
201.626
 20
131.313
 30
0.0
 11
205.794
 21
131.937
 31
0.0
  0
LINE
  8
0
 62
     0
 10
201.626
 20
127.146
 30
0.0
 11
214.125
 21
127.146
 31
0.0
  0
LINE
  8
0
 62
     0
 10
214.125
 20
127.146
 30
0.0
 11
219.204
 21
129.068
 31
0.0
  0
LINE
  8
0
 62
     7
 10
1.62457
 20
125.062
 30
0.0
 11
26.6256
 21
125.062
 31
0.0
  0
LINE
  8
0
 62
     7
 10
26.6256
 20
125.062
 30
0.0
 11
26.6256
 21
100.063
 31
0.0
  0
LINE
  8
0
 62
     7
 10
26.6256
 20
100.063
 30
0.0
 11
1.62457
 21
100.063
 31
0.0
  0
LINE
  8
0
 62
     7
 10
1.62457
 20
100.063
 30
0.0
 11
1.62457
 21
125.062
 31
0.0
  0
LINE
  8
0
 62
     0
 10
20.3743
 20
125.062
 30
0.0
 11
20.3743
 21
118.812
 31
0.0
  0
LINE
  8
0
 62
     0
 10
18.2915
 20
118.812
 30
0.0
 11
26.6256
 21
118.812
 31
0.0
  0
LINE
  8
0
 62
     0
 10
20.3743
 20
118.812
 30
0.0
 11
20.3743
 21
100.063
 31
0.0
  0
LINE
  8
0
 62
     0
 10
16.2093
 20
125.062
 30
0.0
 11
16.2093
 21
114.646
 31
0.0
  0
LINE
  8
0
 62
     0
 10
14.1247
 20
114.646
 30
0.0
 11
26.6256
 21
114.646
 31
0.0
  0
LINE
  8
0
 62
     0
 10
16.2093
 20
114.646
 30
0.0
 11
16.2093
 21
100.063
 31
0.0
  0
LINE
  8
0
 62
     0
 10
26.6256
 20
122.979
 30
0.0
 11
24.541
 21
122.979
 31
0.0
  0
LINE
  8
0
 62
     0
 10
24.541
 20
122.979
 30
0.0
 11
24.541
 21
125.062
 31
0.0
  0
LINE
  8
0
 62
     0
 10
12.0425
 20
125.062
 30
0.0
 11
12.0425
 21
100.063
 31
0.0
  0
LINE
  8
0
 62
     0
 10
26.6256
 20
110.479
 30
0.0
 11
24.541
 21
110.479
 31
0.0
  0
LINE
  8
0
 62
     0
 10
24.541
 20
110.479
 30
0.0
 11
24.541
 21
100.063
 31
0.0
  0
LINE
  8
0
 62
     0
 10
7.87354
 20
125.062
 30
0.0
 11
7.87354
 21
106.314
 31
0.0
  0
LINE
  8
0
 62
     0
 10
5.79308
 20
106.314
 30
0.0
 11
26.6256
 21
106.314
 31
0.0
  0
LINE
  8
0
 62
     0
 10
7.87354
 20
106.314
 30
0.0
 11
7.87354
 21
100.063
 31
0.0
  0
LINE
  8
0
 62
     0
 10
3.70856
 20
125.062
 30
0.0
 11
3.70856
 21
102.145
 31
0.0
  0
LINE
  8
0
 62
     0
 10
1.62457
 20
102.145
 30
0.0
 11
26.6256
 21
102.145
 31
0.0
  0
LINE
  8
0
 62
     0
 10
3.70856
 20
102.145
 30
0.0
 11
3.70856
 21
100.063
 31
0.0
  0
LINE
  8
0
 62
     7
 10
26.6256
 20
125.062
 30
0.0
 11
51.6246
 21
125.062
 31
0.0
  0
LINE
  8
0
 62
     7
 10
51.6246
 20
125.062
 30
0.0
 11
51.6246
 21
100.063
 31
0.0
  0
LINE
  8
0
 62
     7
 10
51.6246
 20
100.063
 30
0.0
 11
26.6256
 21
100.063
 31
0.0
  0
LINE
  8
0
 62
     7
 10
26.6256
 20
100.063
 30
0.0
 11
26.6256
 21
125.062
 31
0.0
  0
LINE
  8
0
 62
     0
 10
26.6256
 20
118.812
 30
0.0
 11
30.794
 21
118.187
 31
0.0
  0
LINE
  8
0
 62
     0
 10
51.6246
 20
118.812
 30
0.0
 11
47.4561
 21
118.187
 31
0.0
  0
LINE
  8
0
 62
     0
 10
26.6256
 20
114.646
 30
0.0
 11
30.794
 21
114.437
 31
0.0
  0
LINE
  8
0
 62
     0
 10
51.6246
 20
114.646
 30
0.0
 11
47.4561
 21
114.437
 31
0.0
  0
LINE
  8
0
 62
     0
 10
26.6256
 20
122.979
 30
0.0
 11
51.6246
 21
122.979
 31
0.0
  0
LINE
  8
0
 62
     0
 10
26.6256
 20
110.479
 30
0.0
 11
30.794
 21
110.689
 31
0.0
  0
LINE
  8
0
 62
     0
 10
30.794
 20
110.689
 30
0.0
 11
47.4561
 21
110.689
 31
0.0
  0
LINE
  8
0
 62
     0
 10
51.6246
 20
110.479
 30
0.0
 11
47.4561
 21
106.937
 31
0.0
  0
LINE
  8
0
 62
     0
 10
26.6256
 20
106.314
 30
0.0
 11
30.794
 21
106.937
 31
0.0
  0
LINE
  8
0
 62
     0
 10
30.794
 20
106.937
 30
0.0
 11
28.7942
 21
109.437
 31
0.0
  0
LINE
  8
0
 62
     0
 10
28.7942
 20
109.437
 30
0.0
 11
32.7937
 21
109.437
 31
0.0
  0
LINE
  8
0
 62
     0
 10
32.7937
 20
109.437
 30
0.0
 11
30.794
 21
106.937
 31
0.0
  0
LINE
  8
0
 62
     0
 10
30.794
 20
106.937
 30
0.0
 11
39.1261
 21
106.314
 31
0.0
  0
LINE
  8
0
 62
     0
 10
39.1261
 20
106.314
 30
0.0
 11
47.4561
 21
105.532
 31
0.0
  0
LINE
  8
0
 62
     0
 10
47.4561
 20
105.532
 30
0.0
 11
51.6246
 21
106.314
 31
0.0
  0
LINE
  8
0
 62
     0
 10
26.6256
 20
102.145
 30
0.0
 11
39.1261
 21
102.145
 31
0.0
  0
LINE
  8
0
 62
     0
 10
39.1261
 20
102.145
 30
0.0
 11
44.2039
 21
104.067
 31
0.0
  0
LINE
  8
0
 62
     0
 10
44.2039
 20
104.067
 30
0.0
 11
42.2058
 21
101.568
 31
0.0
  0
LINE
  8
0
 62
     0
 10
42.2058
 20
101.568
 30
0.0
 11
46.2056
 21
101.568
 31
0.0
  0
LINE
  8
0
 62
     0
 10
46.2056
 20
101.568
 30
0.0
 11
44.2039
 21
104.067
 31
0.0
  0
LINE
  8
0
 62
     0
 10
44.2039
 20
104.067
 30
0.0
 11
51.6246
 21
102.145
 31
0.0
  0
LINE
  8
0
 62
     7
 10
51.6246
 20
125.062
 30
0.0
 11
76.6256
 21
125.062
 31
0.0
  0
LINE
  8
0
 62
     7
 10
76.6256
 20
125.062
 30
0.0
 11
76.6256
 21
100.063
 31
0.0
  0
LINE
  8
0
 62
     7
 10
76.6256
 20
100.063
 30
0.0
 11
51.6246
 21
100.063
 31
0.0
  0
LINE
  8
0
 62
     7
 10
51.6246
 20
100.063
 30
0.0
 11
51.6246
 21
125.062
 31
0.0
  0
LINE
  8
0
 62
     0
 10
51.6246
 20
118.812
 30
0.0
 11
55.7932
 21
118.187
 31
0.0
  0
LINE
  8
0
 62
     0
 10
76.626
 20
118.812
 30
0.0
 11
72.4571
 21
118.187
 31
0.0
  0
LINE
  8
0
 62
     0
 10
51.6246
 20
114.646
 30
0.0
 11
55.7932
 21
114.437
 31
0.0
  0
LINE
  8
0
 62
     0
 10
76.626
 20
114.646
 30
0.0
 11
72.4571
 21
114.437
 31
0.0
  0
LINE
  8
0
 62
     0
 10
51.6246
 20
122.979
 30
0.0
 11
76.626
 21
122.979
 31
0.0
  0
LINE
  8
0
 62
     0
 10
51.6246
 20
110.479
 30
0.0
 11
55.7932
 21
110.689
 31
0.0
  0
LINE
  8
0
 62
     0
 10
55.7932
 20
110.689
 30
0.0
 11
72.4571
 21
110.689
 31
0.0
  0
LINE
  8
0
 62
     0
 10
76.626
 20
110.479
 30
0.0
 11
72.4571
 21
106.937
 31
0.0
  0
LINE
  8
0
 62
     0
 10
51.6246
 20
106.314
 30
0.0
 11
55.7932
 21
106.937
 31
0.0
  0
LINE
  8
0
 62
     0
 10
55.7932
 20
106.937
 30
0.0
 11
53.7933
 21
109.437
 31
0.0
  0
LINE
  8
0
 62
     0
 10
53.7933
 20
109.437
 30
0.0
 11
57.7947
 21
109.437
 31
0.0
  0
LINE
  8
0
 62
     0
 10
57.7947
 20
109.437
 30
0.0
 11
55.7932
 21
106.937
 31
0.0
  0
LINE
  8
0
 62
     0
 10
55.7932
 20
106.937
 30
0.0
 11
64.1253
 21
106.314
 31
0.0
  0
LINE
  8
0
 62
     0
 10
64.1253
 20
106.314
 30
0.0
 11
72.4571
 21
105.532
 31
0.0
  0
LINE
  8
0
 62
     0
 10
72.4571
 20
105.532
 30
0.0
 11
76.626
 21
106.314
 31
0.0
  0
LINE
  8
0
 62
     0
 10
51.6246
 20
102.145
 30
0.0
 11
64.1253
 21
102.145
 31
0.0
  0
LINE
  8
0
 62
     0
 10
64.1253
 20
102.145
 30
0.0
 11
69.2053
 21
104.067
 31
0.0
  0
LINE
  8
0
 62
     0
 10
69.2053
 20
104.067
 30
0.0
 11
67.205
 21
101.568
 31
0.0
  0
LINE
  8
0
 62
     0
 10
67.205
 20
101.568
 30
0.0
 11
71.2051
 21
101.568
 31
0.0
  0
LINE
  8
0
 62
     0
 10
71.2051
 20
101.568
 30
0.0
 11
69.2053
 21
104.067
 31
0.0
  0
LINE
  8
0
 62
     0
 10
69.2053
 20
104.067
 30
0.0
 11
76.626
 21
102.145
 31
0.0
  0
LINE
  8
0
 62
     7
 10
76.626
 20
125.062
 30
0.0
 11
101.625
 21
125.062
 31
0.0
  0
LINE
  8
0
 62
     7
 10
101.625
 20
125.062
 30
0.0
 11
101.625
 21
100.063
 31
0.0
  0
LINE
  8
0
 62
     7
 10
101.625
 20
100.063
 30
0.0
 11
76.626
 21
100.063
 31
0.0
  0
LINE
  8
0
 62
     7
 10
76.626
 20
100.063
 30
0.0
 11
76.626
 21
125.062
 31
0.0
  0
LINE
  8
0
 62
     0
 10
76.626
 20
118.812
 30
0.0
 11
80.7944
 21
118.187
 31
0.0
  0
LINE
  8
0
 62
     0
 10
101.625
 20
118.812
 30
0.0
 11
97.4567
 21
118.187
 31
0.0
  0
LINE
  8
0
 62
     0
 10
76.626
 20
114.646
 30
0.0
 11
80.7944
 21
114.437
 31
0.0
  0
LINE
  8
0
 62
     0
 10
101.625
 20
114.646
 30
0.0
 11
97.4567
 21
114.437
 31
0.0
  0
LINE
  8
0
 62
     0
 10
76.626
 20
122.979
 30
0.0
 11
101.625
 21
122.979
 31
0.0
  0
LINE
  8
0
 62
     0
 10
76.626
 20
110.479
 30
0.0
 11
80.7944
 21
110.689
 31
0.0
  0
LINE
  8
0
 62
     0
 10
80.7944
 20
110.689
 30
0.0
 11
97.4567
 21
110.689
 31
0.0
  0
LINE
  8
0
 62
     0
 10
101.625
 20
110.479
 30
0.0
 11
97.4567
 21
106.937
 31
0.0
  0
LINE
  8
0
 62
     0
 10
76.626
 20
106.314
 30
0.0
 11
80.7944
 21
106.937
 31
0.0
  0
LINE
  8
0
 62
     0
 10
80.7944
 20
106.937
 30
0.0
 11
78.7947
 21
109.437
 31
0.0
  0
LINE
  8
0
 62
     0
 10
78.7947
 20
109.437
 30
0.0
 11
82.7943
 21
109.437
 31
0.0
  0
LINE
  8
0
 62
     0
 10
82.7943
 20
109.437
 30
0.0
 11
80.7944
 21
106.937
 31
0.0
  0
LINE
  8
0
 62
     0
 10
80.7944
 20
106.937
 30
0.0
 11
89.1244
 21
106.314
 31
0.0
  0
LINE
  8
0
 62
     0
 10
89.1244
 20
106.314
 30
0.0
 11
97.4567
 21
105.532
 31
0.0
  0
LINE
  8
0
 62
     0
 10
97.4567
 20
105.532
 30
0.0
 11
101.625
 21
106.314
 31
0.0
  0
LINE
  8
0
 62
     0
 10
76.626
 20
102.145
 30
0.0
 11
89.1244
 21
102.145
 31
0.0
  0
LINE
  8
0
 62
     0
 10
89.1244
 20
102.145
 30
0.0
 11
94.2044
 21
104.067
 31
0.0
  0
LINE
  8
0
 62
     0
 10
94.2044
 20
104.067
 30
0.0
 11
92.2046
 21
101.568
 31
0.0
  0
LINE
  8
0
 62
     0
 10
92.2046
 20
101.568
 30
0.0
 11
96.2061
 21
101.568
 31
0.0
  0
LINE
  8
0
 62
     0
 10
96.2061
 20
101.568
 30
0.0
 11
94.2044
 21
104.067
 31
0.0
  0
LINE
  8
0
 62
     0
 10
94.2044
 20
104.067
 30
0.0
 11
101.625
 21
102.145
 31
0.0
  0
LINE
  8
0
 62
     7
 10
101.625
 20
125.062
 30
0.0
 11
126.626
 21
125.062
 31
0.0
  0
LINE
  8
0
 62
     7
 10
126.626
 20
125.062
 30
0.0
 11
126.626
 21
100.063
 31
0.0
  0
LINE
  8
0
 62
     7
 10
126.626
 20
100.063
 30
0.0
 11
101.625
 21
100.063
 31
0.0
  0
LINE
  8
0
 62
     7
 10
101.625
 20
100.063
 30
0.0
 11
101.625
 21
125.062
 31
0.0
  0
LINE
  8
0
 62
     0
 10
101.625
 20
118.812
 30
0.0
 11
105.794
 21
118.187
 31
0.0
  0
LINE
  8
0
 62
     0
 10
126.626
 20
118.812
 30
0.0
 11
122.458
 21
118.187
 31
0.0
  0
LINE
  8
0
 62
     0
 10
101.625
 20
114.646
 30
0.0
 11
105.794
 21
114.437
 31
0.0
  0
LINE
  8
0
 62
     0
 10
126.626
 20
114.646
 30
0.0
 11
122.458
 21
114.437
 31
0.0
  0
LINE
  8
0
 62
     0
 10
101.625
 20
122.979
 30
0.0
 11
126.626
 21
122.979
 31
0.0
  0
LINE
  8
0
 62
     0
 10
101.625
 20
110.479
 30
0.0
 11
105.794
 21
110.689
 31
0.0
  0
LINE
  8
0
 62
     0
 10
105.794
 20
110.689
 30
0.0
 11
122.458
 21
110.689
 31
0.0
  0
LINE
  8
0
 62
     0
 10
126.626
 20
110.479
 30
0.0
 11
122.458
 21
106.937
 31
0.0
  0
LINE
  8
0
 62
     0
 10
101.625
 20
106.314
 30
0.0
 11
105.794
 21
106.937
 31
0.0
  0
LINE
  8
0
 62
     0
 10
105.794
 20
106.937
 30
0.0
 11
103.794
 21
109.437
 31
0.0
  0
LINE
  8
0
 62
     0
 10
103.794
 20
109.437
 30
0.0
 11
107.795
 21
109.437
 31
0.0
  0
LINE
  8
0
 62
     0
 10
107.795
 20
109.437
 30
0.0
 11
105.794
 21
106.937
 31
0.0
  0
LINE
  8
0
 62
     0
 10
105.794
 20
106.937
 30
0.0
 11
114.126
 21
106.314
 31
0.0
  0
LINE
  8
0
 62
     0
 10
114.126
 20
106.314
 30
0.0
 11
122.458
 21
105.532
 31
0.0
  0
LINE
  8
0
 62
     0
 10
122.458
 20
105.532
 30
0.0
 11
126.626
 21
106.314
 31
0.0
  0
LINE
  8
0
 62
     0
 10
101.625
 20
102.145
 30
0.0
 11
114.126
 21
102.145
 31
0.0
  0
LINE
  8
0
 62
     0
 10
114.126
 20
102.145
 30
0.0
 11
119.205
 21
104.067
 31
0.0
  0
LINE
  8
0
 62
     0
 10
119.205
 20
104.067
 30
0.0
 11
117.206
 21
101.568
 31
0.0
  0
LINE
  8
0
 62
     0
 10
117.206
 20
101.568
 30
0.0
 11
121.205
 21
101.568
 31
0.0
  0
LINE
  8
0
 62
     0
 10
121.205
 20
101.568
 30
0.0
 11
119.205
 21
104.067
 31
0.0
  0
LINE
  8
0
 62
     0
 10
119.205
 20
104.067
 30
0.0
 11
126.626
 21
102.145
 31
0.0
  0
LINE
  8
0
 62
     7
 10
126.624
 20
125.062
 30
0.0
 11
151.625
 21
125.062
 31
0.0
  0
LINE
  8
0
 62
     7
 10
151.625
 20
125.062
 30
0.0
 11
151.625
 21
100.063
 31
0.0
  0
LINE
  8
0
 62
     7
 10
151.625
 20
100.063
 30
0.0
 11
126.624
 21
100.063
 31
0.0
  0
LINE
  8
0
 62
     7
 10
126.624
 20
100.063
 30
0.0
 11
126.624
 21
125.062
 31
0.0
  0
LINE
  8
0
 62
     0
 10
126.624
 20
118.812
 30
0.0
 11
130.793
 21
118.187
 31
0.0
  0
LINE
  8
0
 62
     0
 10
151.625
 20
118.812
 30
0.0
 11
147.457
 21
118.187
 31
0.0
  0
LINE
  8
0
 62
     0
 10
126.624
 20
114.646
 30
0.0
 11
130.793
 21
114.437
 31
0.0
  0
LINE
  8
0
 62
     0
 10
151.625
 20
114.646
 30
0.0
 11
147.457
 21
114.437
 31
0.0
  0
LINE
  8
0
 62
     0
 10
126.624
 20
122.979
 30
0.0
 11
151.625
 21
122.979
 31
0.0
  0
LINE
  8
0
 62
     0
 10
126.624
 20
110.479
 30
0.0
 11
130.793
 21
110.689
 31
0.0
  0
LINE
  8
0
 62
     0
 10
130.793
 20
110.689
 30
0.0
 11
147.457
 21
110.689
 31
0.0
  0
LINE
  8
0
 62
     0
 10
151.625
 20
110.479
 30
0.0
 11
147.457
 21
106.937
 31
0.0
  0
LINE
  8
0
 62
     0
 10
126.624
 20
106.314
 30
0.0
 11
130.793
 21
106.937
 31
0.0
  0
LINE
  8
0
 62
     0
 10
130.793
 20
106.937
 30
0.0
 11
128.795
 21
109.437
 31
0.0
  0
LINE
  8
0
 62
     0
 10
128.795
 20
109.437
 30
0.0
 11
132.795
 21
109.437
 31
0.0
  0
LINE
  8
0
 62
     0
 10
132.795
 20
109.437
 30
0.0
 11
130.793
 21
106.937
 31
0.0
  0
LINE
  8
0
 62
     0
 10
130.793
 20
106.937
 30
0.0
 11
139.125
 21
106.314
 31
0.0
  0
LINE
  8
0
 62
     0
 10
139.125
 20
106.314
 30
0.0
 11
147.457
 21
105.532
 31
0.0
  0
LINE
  8
0
 62
     0
 10
147.457
 20
105.532
 30
0.0
 11
151.625
 21
106.314
 31
0.0
  0
LINE
  8
0
 62
     0
 10
126.624
 20
102.145
 30
0.0
 11
139.125
 21
102.145
 31
0.0
  0
LINE
  8
0
 62
     0
 10
139.125
 20
102.145
 30
0.0
 11
144.206
 21
104.067
 31
0.0
  0
LINE
  8
0
 62
     0
 10
144.206
 20
104.067
 30
0.0
 11
142.204
 21
101.568
 31
0.0
  0
LINE
  8
0
 62
     0
 10
142.204
 20
101.568
 30
0.0
 11
146.207
 21
101.568
 31
0.0
  0
LINE
  8
0
 62
     0
 10
146.207
 20
101.568
 30
0.0
 11
144.206
 21
104.067
 31
0.0
  0
LINE
  8
0
 62
     0
 10
144.206
 20
104.067
 30
0.0
 11
151.625
 21
102.145
 31
0.0
  0
LINE
  8
0
 62
     7
 10
151.625
 20
125.062
 30
0.0
 11
176.625
 21
125.062
 31
0.0
  0
LINE
  8
0
 62
     7
 10
176.625
 20
125.062
 30
0.0
 11
176.625
 21
100.063
 31
0.0
  0
LINE
  8
0
 62
     7
 10
176.625
 20
100.063
 30
0.0
 11
151.625
 21
100.063
 31
0.0
  0
LINE
  8
0
 62
     7
 10
151.625
 20
100.063
 30
0.0
 11
151.625
 21
125.062
 31
0.0
  0
LINE
  8
0
 62
     0
 10
151.625
 20
118.812
 30
0.0
 11
155.794
 21
118.187
 31
0.0
  0
LINE
  8
0
 62
     0
 10
176.625
 20
118.812
 30
0.0
 11
172.457
 21
118.187
 31
0.0
  0
LINE
  8
0
 62
     0
 10
151.625
 20
114.646
 30
0.0
 11
155.794
 21
114.437
 31
0.0
  0
LINE
  8
0
 62
     0
 10
176.625
 20
114.646
 30
0.0
 11
172.457
 21
114.437
 31
0.0
  0
LINE
  8
0
 62
     0
 10
151.625
 20
122.979
 30
0.0
 11
176.625
 21
122.979
 31
0.0
  0
LINE
  8
0
 62
     0
 10
151.625
 20
110.479
 30
0.0
 11
155.794
 21
110.689
 31
0.0
  0
LINE
  8
0
 62
     0
 10
155.794
 20
110.689
 30
0.0
 11
172.457
 21
110.689
 31
0.0
  0
LINE
  8
0
 62
     0
 10
176.625
 20
110.479
 30
0.0
 11
172.457
 21
106.937
 31
0.0
  0
LINE
  8
0
 62
     0
 10
151.625
 20
106.314
 30
0.0
 11
155.794
 21
106.937
 31
0.0
  0
LINE
  8
0
 62
     0
 10
155.794
 20
106.937
 30
0.0
 11
153.794
 21
109.437
 31
0.0
  0
LINE
  8
0
 62
     0
 10
153.794
 20
109.437
 30
0.0
 11
157.794
 21
109.437
 31
0.0
  0
LINE
  8
0
 62
     0
 10
157.794
 20
109.437
 30
0.0
 11
155.794
 21
106.937
 31
0.0
  0
LINE
  8
0
 62
     0
 10
155.794
 20
106.937
 30
0.0
 11
164.126
 21
106.314
 31
0.0
  0
LINE
  8
0
 62
     0
 10
164.126
 20
106.314
 30
0.0
 11
172.457
 21
105.532
 31
0.0
  0
LINE
  8
0
 62
     0
 10
172.457
 20
105.532
 30
0.0
 11
176.625
 21
106.314
 31
0.0
  0
LINE
  8
0
 62
     0
 10
151.625
 20
102.145
 30
0.0
 11
164.126
 21
102.145
 31
0.0
  0
LINE
  8
0
 62
     0
 10
164.126
 20
102.145
 30
0.0
 11
169.204
 21
104.067
 31
0.0
  0
LINE
  8
0
 62
     0
 10
169.204
 20
104.067
 30
0.0
 11
167.206
 21
101.568
 31
0.0
  0
LINE
  8
0
 62
     0
 10
167.206
 20
101.568
 30
0.0
 11
171.206
 21
101.568
 31
0.0
  0
LINE
  8
0
 62
     0
 10
171.206
 20
101.568
 30
0.0
 11
169.204
 21
104.067
 31
0.0
  0
LINE
  8
0
 62
     0
 10
169.204
 20
104.067
 30
0.0
 11
176.625
 21
102.145
 31
0.0
  0
LINE
  8
0
 62
     7
 10
176.625
 20
125.062
 30
0.0
 11
201.626
 21
125.062
 31
0.0
  0
LINE
  8
0
 62
     7
 10
201.626
 20
125.062
 30
0.0
 11
201.626
 21
100.063
 31
0.0
  0
LINE
  8
0
 62
     7
 10
201.626
 20
100.063
 30
0.0
 11
176.625
 21
100.063
 31
0.0
  0
LINE
  8
0
 62
     7
 10
176.625
 20
100.063
 30
0.0
 11
176.625
 21
125.062
 31
0.0
  0
LINE
  8
0
 62
     0
 10
176.625
 20
118.812
 30
0.0
 11
180.793
 21
118.187
 31
0.0
  0
LINE
  8
0
 62
     0
 10
201.626
 20
118.812
 30
0.0
 11
197.457
 21
118.187
 31
0.0
  0
LINE
  8
0
 62
     0
 10
176.625
 20
114.646
 30
0.0
 11
180.793
 21
114.437
 31
0.0
  0
LINE
  8
0
 62
     0
 10
201.626
 20
114.646
 30
0.0
 11
197.457
 21
114.437
 31
0.0
  0
LINE
  8
0
 62
     0
 10
176.625
 20
122.979
 30
0.0
 11
201.626
 21
122.979
 31
0.0
  0
LINE
  8
0
 62
     0
 10
176.625
 20
110.479
 30
0.0
 11
180.793
 21
110.689
 31
0.0
  0
LINE
  8
0
 62
     0
 10
180.793
 20
110.689
 30
0.0
 11
197.457
 21
110.689
 31
0.0
  0
LINE
  8
0
 62
     0
 10
201.626
 20
110.479
 30
0.0
 11
197.457
 21
106.937
 31
0.0
  0
LINE
  8
0
 62
     0
 10
176.625
 20
106.314
 30
0.0
 11
180.793
 21
106.937
 31
0.0
  0
LINE
  8
0
 62
     0
 10
180.793
 20
106.937
 30
0.0
 11
178.793
 21
109.437
 31
0.0
  0
LINE
  8
0
 62
     0
 10
178.793
 20
109.437
 30
0.0
 11
182.794
 21
109.437
 31
0.0
  0
LINE
  8
0
 62
     0
 10
182.794
 20
109.437
 30
0.0
 11
180.793
 21
106.937
 31
0.0
  0
LINE
  8
0
 62
     0
 10
180.793
 20
106.937
 30
0.0
 11
189.125
 21
106.314
 31
0.0
  0
LINE
  8
0
 62
     0
 10
189.125
 20
106.314
 30
0.0
 11
197.457
 21
105.532
 31
0.0
  0
LINE
  8
0
 62
     0
 10
197.457
 20
105.532
 30
0.0
 11
201.626
 21
106.314
 31
0.0
  0
LINE
  8
0
 62
     0
 10
176.625
 20
102.145
 30
0.0
 11
189.125
 21
102.145
 31
0.0
  0
LINE
  8
0
 62
     0
 10
189.125
 20
102.145
 30
0.0
 11
194.206
 21
104.067
 31
0.0
  0
LINE
  8
0
 62
     0
 10
194.206
 20
104.067
 30
0.0
 11
192.206
 21
101.568
 31
0.0
  0
LINE
  8
0
 62
     0
 10
192.206
 20
101.568
 30
0.0
 11
196.206
 21
101.568
 31
0.0
  0
LINE
  8
0
 62
     0
 10
196.206
 20
101.568
 30
0.0
 11
194.206
 21
104.067
 31
0.0
  0
LINE
  8
0
 62
     0
 10
194.206
 20
104.067
 30
0.0
 11
201.626
 21
102.145
 31
0.0
  0
LINE
  8
0
 62
     7
 10
201.626
 20
125.062
 30
0.0
 11
226.625
 21
125.062
 31
0.0
  0
LINE
  8
0
 62
     7
 10
226.625
 20
125.062
 30
0.0
 11
226.625
 21
100.063
 31
0.0
  0
LINE
  8
0
 62
     7
 10
226.625
 20
100.063
 30
0.0
 11
201.626
 21
100.063
 31
0.0
  0
LINE
  8
0
 62
     7
 10
201.626
 20
100.063
 30
0.0
 11
201.626
 21
125.062
 31
0.0
  0
LINE
  8
0
 62
     0
 10
201.626
 20
118.812
 30
0.0
 11
205.794
 21
118.187
 31
0.0
  0
LINE
  8
0
 62
     0
 10
201.626
 20
114.646
 30
0.0
 11
205.794
 21
114.437
 31
0.0
  0
LINE
  8
0
 62
     0
 10
201.626
 20
122.979
 30
0.0
 11
226.625
 21
122.979
 31
0.0
  0
LINE
  8
0
 62
     0
 10
226.625
 20
122.979
 30
0.0
 11
226.625
 21
110.479
 31
0.0
  0
LINE
  8
0
 62
     0
 10
201.626
 20
110.479
 30
0.0
 11
205.794
 21
110.689
 31
0.0
  0
LINE
  8
0
 62
     0
 10
205.794
 20
110.689
 30
0.0
 11
222.457
 21
110.689
 31
0.0
  0
LINE
  8
0
 62
     0
 10
226.625
 20
110.479
 30
0.0
 11
222.457
 21
106.937
 31
0.0
  0
LINE
  8
0
 62
     0
 10
201.626
 20
106.314
 30
0.0
 11
205.794
 21
106.937
 31
0.0
  0
LINE
  8
0
 62
     0
 10
201.626
 20
102.145
 30
0.0
 11
214.125
 21
102.145
 31
0.0
  0
LINE
  8
0
 62
     0
 10
214.125
 20
102.145
 30
0.0
 11
219.204
 21
104.067
 31
0.0
  0
LINE
  8
0
 62
     7
 10
1.62457
 20
100.062
 30
0.0
 11
26.6256
 21
100.062
 31
0.0
  0
LINE
  8
0
 62
     7
 10
26.6256
 20
100.062
 30
0.0
 11
26.6256
 21
75.0614
 31
0.0
  0
LINE
  8
0
 62
     7
 10
26.6256
 20
75.0614
 30
0.0
 11
1.62457
 21
75.0614
 31
0.0
  0
LINE
  8
0
 62
     7
 10
1.62457
 20
75.0614
 30
0.0
 11
1.62457
 21
100.062
 31
0.0
  0
LINE
  8
0
 62
     0
 10
20.3743
 20
100.063
 30
0.0
 11
20.3743
 21
93.8131
 31
0.0
  0
LINE
  8
0
 62
     0
 10
18.2915
 20
93.8131
 30
0.0
 11
26.6256
 21
93.8131
 31
0.0
  0
LINE
  8
0
 62
     0
 10
20.3743
 20
93.8131
 30
0.0
 11
20.3743
 21
75.0617
 31
0.0
  0
LINE
  8
0
 62
     0
 10
16.2093
 20
100.063
 30
0.0
 11
16.2093
 21
89.6464
 31
0.0
  0
LINE
  8
0
 62
     0
 10
14.1247
 20
89.6464
 30
0.0
 11
26.6256
 21
89.6464
 31
0.0
  0
LINE
  8
0
 62
     0
 10
16.2093
 20
89.6464
 30
0.0
 11
16.2093
 21
75.0617
 31
0.0
  0
LINE
  8
0
 62
     0
 10
26.6256
 20
97.9781
 30
0.0
 11
24.541
 21
97.9781
 31
0.0
  0
LINE
  8
0
 62
     0
 10
24.541
 20
97.9781
 30
0.0
 11
24.541
 21
100.063
 31
0.0
  0
LINE
  8
0
 62
     0
 10
12.0425
 20
100.063
 30
0.0
 11
12.0425
 21
75.0617
 31
0.0
  0
LINE
  8
0
 62
     0
 10
26.6256
 20
85.4796
 30
0.0
 11
24.541
 21
85.4796
 31
0.0
  0
LINE
  8
0
 62
     0
 10
24.541
 20
85.4796
 30
0.0
 11
24.541
 21
75.0617
 31
0.0
  0
LINE
  8
0
 62
     0
 10
7.87354
 20
100.063
 30
0.0
 11
7.87354
 21
81.3124
 31
0.0
  0
LINE
  8
0
 62
     0
 10
5.79308
 20
81.3124
 30
0.0
 11
26.6256
 21
81.3124
 31
0.0
  0
LINE
  8
0
 62
     0
 10
7.87354
 20
81.3124
 30
0.0
 11
7.87354
 21
75.0617
 31
0.0
  0
LINE
  8
0
 62
     0
 10
3.70856
 20
100.063
 30
0.0
 11
3.70856
 21
77.1457
 31
0.0
  0
LINE
  8
0
 62
     0
 10
1.62457
 20
77.1457
 30
0.0
 11
26.6256
 21
77.1457
 31
0.0
  0
LINE
  8
0
 62
     0
 10
3.70856
 20
77.1457
 30
0.0
 11
3.70856
 21
75.0617
 31
0.0
  0
LINE
  8
0
 62
     7
 10
26.6256
 20
100.062
 30
0.0
 11
51.6246
 21
100.062
 31
0.0
  0
LINE
  8
0
 62
     7
 10
51.6246
 20
100.062
 30
0.0
 11
51.6246
 21
75.0614
 31
0.0
  0
LINE
  8
0
 62
     7
 10
51.6246
 20
75.0614
 30
0.0
 11
26.6256
 21
75.0614
 31
0.0
  0
LINE
  8
0
 62
     7
 10
26.6256
 20
75.0614
 30
0.0
 11
26.6256
 21
100.062
 31
0.0
  0
LINE
  8
0
 62
     0
 10
26.6256
 20
93.8131
 30
0.0
 11
30.794
 21
93.1878
 31
0.0
  0
LINE
  8
0
 62
     0
 10
51.6246
 20
93.8131
 30
0.0
 11
47.4561
 21
93.1878
 31
0.0
  0
LINE
  8
0
 62
     0
 10
26.6256
 20
89.6464
 30
0.0
 11
30.794
 21
89.4378
 31
0.0
  0
LINE
  8
0
 62
     0
 10
51.6246
 20
89.6464
 30
0.0
 11
47.4561
 21
89.4378
 31
0.0
  0
LINE
  8
0
 62
     0
 10
26.6256
 20
97.9781
 30
0.0
 11
51.6246
 21
97.9781
 31
0.0
  0
LINE
  8
0
 62
     0
 10
26.6256
 20
85.4796
 30
0.0
 11
30.794
 21
85.6878
 31
0.0
  0
LINE
  8
0
 62
     0
 10
30.794
 20
85.6878
 30
0.0
 11
47.4561
 21
85.6878
 31
0.0
  0
LINE
  8
0
 62
     0
 10
51.6246
 20
85.4796
 30
0.0
 11
47.4561
 21
81.9378
 31
0.0
  0
LINE
  8
0
 62
     0
 10
26.6256
 20
81.3124
 30
0.0
 11
30.794
 21
81.9378
 31
0.0
  0
LINE
  8
0
 62
     0
 10
30.794
 20
81.9378
 30
0.0
 11
28.7942
 21
84.4371
 31
0.0
  0
LINE
  8
0
 62
     0
 10
28.7942
 20
84.4371
 30
0.0
 11
32.7937
 21
84.4371
 31
0.0
  0
LINE
  8
0
 62
     0
 10
32.7937
 20
84.4371
 30
0.0
 11
30.794
 21
81.9378
 31
0.0
  0
LINE
  8
0
 62
     0
 10
30.794
 20
81.9378
 30
0.0
 11
39.1261
 21
81.3124
 31
0.0
  0
LINE
  8
0
 62
     0
 10
39.1261
 20
81.3124
 30
0.0
 11
47.4561
 21
80.5324
 31
0.0
  0
LINE
  8
0
 62
     0
 10
47.4561
 20
80.5324
 30
0.0
 11
51.6246
 21
81.3124
 31
0.0
  0
LINE
  8
0
 62
     0
 10
26.6256
 20
77.1457
 30
0.0
 11
39.1261
 21
77.1457
 31
0.0
  0
LINE
  8
0
 62
     0
 10
39.1261
 20
77.1457
 30
0.0
 11
44.2039
 21
79.0683
 31
0.0
  0
LINE
  8
0
 62
     0
 10
44.2039
 20
79.0683
 30
0.0
 11
42.2058
 21
76.5689
 31
0.0
  0
LINE
  8
0
 62
     0
 10
42.2058
 20
76.5689
 30
0.0
 11
46.2056
 21
76.5689
 31
0.0
  0
LINE
  8
0
 62
     0
 10
46.2056
 20
76.5689
 30
0.0
 11
44.2039
 21
79.0683
 31
0.0
  0
LINE
  8
0
 62
     0
 10
44.2039
 20
79.0683
 30
0.0
 11
51.6246
 21
77.1457
 31
0.0
  0
LINE
  8
0
 62
     7
 10
51.6246
 20
100.062
 30
0.0
 11
76.6256
 21
100.062
 31
0.0
  0
LINE
  8
0
 62
     7
 10
76.6256
 20
100.062
 30
0.0
 11
76.6256
 21
75.0614
 31
0.0
  0
LINE
  8
0
 62
     7
 10
76.6256
 20
75.0614
 30
0.0
 11
51.6246
 21
75.0614
 31
0.0
  0
LINE
  8
0
 62
     7
 10
51.6246
 20
75.0614
 30
0.0
 11
51.6246
 21
100.062
 31
0.0
  0
LINE
  8
0
 62
     0
 10
51.6246
 20
93.8131
 30
0.0
 11
55.7932
 21
93.1878
 31
0.0
  0
LINE
  8
0
 62
     0
 10
76.626
 20
93.8131
 30
0.0
 11
72.4571
 21
93.1878
 31
0.0
  0
LINE
  8
0
 62
     0
 10
51.6246
 20
89.6464
 30
0.0
 11
55.7932
 21
89.4378
 31
0.0
  0
LINE
  8
0
 62
     0
 10
76.626
 20
89.6464
 30
0.0
 11
72.4571
 21
89.4378
 31
0.0
  0
LINE
  8
0
 62
     0
 10
51.6246
 20
97.9781
 30
0.0
 11
76.626
 21
97.9781
 31
0.0
  0
LINE
  8
0
 62
     0
 10
51.6246
 20
85.4796
 30
0.0
 11
55.7932
 21
85.6878
 31
0.0
  0
LINE
  8
0
 62
     0
 10
55.7932
 20
85.6878
 30
0.0
 11
72.4571
 21
85.6878
 31
0.0
  0
LINE
  8
0
 62
     0
 10
76.626
 20
85.4796
 30
0.0
 11
72.4571
 21
81.9378
 31
0.0
  0
LINE
  8
0
 62
     0
 10
51.6246
 20
81.3124
 30
0.0
 11
55.7932
 21
81.9378
 31
0.0
  0
LINE
  8
0
 62
     0
 10
55.7932
 20
81.9378
 30
0.0
 11
53.7933
 21
84.4371
 31
0.0
  0
LINE
  8
0
 62
     0
 10
53.7933
 20
84.4371
 30
0.0
 11
57.7947
 21
84.4371
 31
0.0
  0
LINE
  8
0
 62
     0
 10
57.7947
 20
84.4371
 30
0.0
 11
55.7932
 21
81.9378
 31
0.0
  0
LINE
  8
0
 62
     0
 10
55.7932
 20
81.9378
 30
0.0
 11
64.1253
 21
81.3124
 31
0.0
  0
LINE
  8
0
 62
     0
 10
64.1253
 20
81.3124
 30
0.0
 11
72.4571
 21
80.5324
 31
0.0
  0
LINE
  8
0
 62
     0
 10
72.4571
 20
80.5324
 30
0.0
 11
76.626
 21
81.3124
 31
0.0
  0
LINE
  8
0
 62
     0
 10
51.6246
 20
77.1457
 30
0.0
 11
64.1253
 21
77.1457
 31
0.0
  0
LINE
  8
0
 62
     0
 10
64.1253
 20
77.1457
 30
0.0
 11
69.2053
 21
79.0683
 31
0.0
  0
LINE
  8
0
 62
     0
 10
69.2053
 20
79.0683
 30
0.0
 11
67.205
 21
76.5689
 31
0.0
  0
LINE
  8
0
 62
     0
 10
67.205
 20
76.5689
 30
0.0
 11
71.2051
 21
76.5689
 31
0.0
  0
LINE
  8
0
 62
     0
 10
71.2051
 20
76.5689
 30
0.0
 11
69.2053
 21
79.0683
 31
0.0
  0
LINE
  8
0
 62
     0
 10
69.2053
 20
79.0683
 30
0.0
 11
76.626
 21
77.1457
 31
0.0
  0
LINE
  8
0
 62
     7
 10
76.626
 20
100.062
 30
0.0
 11
101.625
 21
100.062
 31
0.0
  0
LINE
  8
0
 62
     7
 10
101.625
 20
100.062
 30
0.0
 11
101.625
 21
75.0614
 31
0.0
  0
LINE
  8
0
 62
     7
 10
101.625
 20
75.0614
 30
0.0
 11
76.626
 21
75.0614
 31
0.0
  0
LINE
  8
0
 62
     7
 10
76.626
 20
75.0614
 30
0.0
 11
76.626
 21
100.062
 31
0.0
  0
LINE
  8
0
 62
     0
 10
76.626
 20
93.8131
 30
0.0
 11
80.7944
 21
93.1878
 31
0.0
  0
LINE
  8
0
 62
     0
 10
101.625
 20
93.8131
 30
0.0
 11
97.4567
 21
93.1878
 31
0.0
  0
LINE
  8
0
 62
     0
 10
76.626
 20
89.6464
 30
0.0
 11
80.7944
 21
89.4378
 31
0.0
  0
LINE
  8
0
 62
     0
 10
101.625
 20
89.6464
 30
0.0
 11
97.4567
 21
89.4378
 31
0.0
  0
LINE
  8
0
 62
     0
 10
76.626
 20
97.9781
 30
0.0
 11
101.625
 21
97.9781
 31
0.0
  0
LINE
  8
0
 62
     0
 10
76.626
 20
85.4796
 30
0.0
 11
80.7944
 21
85.6878
 31
0.0
  0
LINE
  8
0
 62
     0
 10
80.7944
 20
85.6878
 30
0.0
 11
97.4567
 21
85.6878
 31
0.0
  0
LINE
  8
0
 62
     0
 10
101.625
 20
85.4796
 30
0.0
 11
97.4567
 21
81.9378
 31
0.0
  0
LINE
  8
0
 62
     0
 10
76.626
 20
81.3124
 30
0.0
 11
80.7944
 21
81.9378
 31
0.0
  0
LINE
  8
0
 62
     0
 10
80.7944
 20
81.9378
 30
0.0
 11
78.7947
 21
84.4371
 31
0.0
  0
LINE
  8
0
 62
     0
 10
78.7947
 20
84.4371
 30
0.0
 11
82.7943
 21
84.4371
 31
0.0
  0
LINE
  8
0
 62
     0
 10
82.7943
 20
84.4371
 30
0.0
 11
80.7944
 21
81.9378
 31
0.0
  0
LINE
  8
0
 62
     0
 10
80.7944
 20
81.9378
 30
0.0
 11
89.1244
 21
81.3124
 31
0.0
  0
LINE
  8
0
 62
     0
 10
89.1244
 20
81.3124
 30
0.0
 11
97.4567
 21
80.5324
 31
0.0
  0
LINE
  8
0
 62
     0
 10
97.4567
 20
80.5324
 30
0.0
 11
101.625
 21
81.3124
 31
0.0
  0
LINE
  8
0
 62
     0
 10
76.626
 20
77.1457
 30
0.0
 11
89.1244
 21
77.1457
 31
0.0
  0
LINE
  8
0
 62
     0
 10
89.1244
 20
77.1457
 30
0.0
 11
94.2044
 21
79.0683
 31
0.0
  0
LINE
  8
0
 62
     0
 10
94.2044
 20
79.0683
 30
0.0
 11
92.2046
 21
76.5689
 31
0.0
  0
LINE
  8
0
 62
     0
 10
92.2046
 20
76.5689
 30
0.0
 11
96.2061
 21
76.5689
 31
0.0
  0
LINE
  8
0
 62
     0
 10
96.2061
 20
76.5689
 30
0.0
 11
94.2044
 21
79.0683
 31
0.0
  0
LINE
  8
0
 62
     0
 10
94.2044
 20
79.0683
 30
0.0
 11
101.625
 21
77.1457
 31
0.0
  0
LINE
  8
0
 62
     7
 10
101.625
 20
100.062
 30
0.0
 11
126.626
 21
100.062
 31
0.0
  0
LINE
  8
0
 62
     7
 10
126.626
 20
100.062
 30
0.0
 11
126.626
 21
75.0614
 31
0.0
  0
LINE
  8
0
 62
     7
 10
126.626
 20
75.0614
 30
0.0
 11
101.625
 21
75.0614
 31
0.0
  0
LINE
  8
0
 62
     7
 10
101.625
 20
75.0614
 30
0.0
 11
101.625
 21
100.062
 31
0.0
  0
LINE
  8
0
 62
     0
 10
101.625
 20
93.8131
 30
0.0
 11
105.794
 21
93.1878
 31
0.0
  0
LINE
  8
0
 62
     0
 10
126.626
 20
93.8131
 30
0.0
 11
122.458
 21
93.1878
 31
0.0
  0
LINE
  8
0
 62
     0
 10
101.625
 20
89.6464
 30
0.0
 11
105.794
 21
89.4378
 31
0.0
  0
LINE
  8
0
 62
     0
 10
126.626
 20
89.6464
 30
0.0
 11
122.458
 21
89.4378
 31
0.0
  0
LINE
  8
0
 62
     0
 10
101.625
 20
97.9781
 30
0.0
 11
126.626
 21
97.9781
 31
0.0
  0
LINE
  8
0
 62
     0
 10
101.625
 20
85.4796
 30
0.0
 11
105.794
 21
85.6878
 31
0.0
  0
LINE
  8
0
 62
     0
 10
105.794
 20
85.6878
 30
0.0
 11
122.458
 21
85.6878
 31
0.0
  0
LINE
  8
0
 62
     0
 10
126.626
 20
85.4796
 30
0.0
 11
122.458
 21
81.9378
 31
0.0
  0
LINE
  8
0
 62
     0
 10
101.625
 20
81.3124
 30
0.0
 11
105.794
 21
81.9378
 31
0.0
  0
LINE
  8
0
 62
     0
 10
105.794
 20
81.9378
 30
0.0
 11
103.794
 21
84.4371
 31
0.0
  0
LINE
  8
0
 62
     0
 10
103.794
 20
84.4371
 30
0.0
 11
107.795
 21
84.4371
 31
0.0
  0
LINE
  8
0
 62
     0
 10
107.795
 20
84.4371
 30
0.0
 11
105.794
 21
81.9378
 31
0.0
  0
LINE
  8
0
 62
     0
 10
105.794
 20
81.9378
 30
0.0
 11
114.126
 21
81.3124
 31
0.0
  0
LINE
  8
0
 62
     0
 10
114.126
 20
81.3124
 30
0.0
 11
122.458
 21
80.5324
 31
0.0
  0
LINE
  8
0
 62
     0
 10
122.458
 20
80.5324
 30
0.0
 11
126.626
 21
81.3124
 31
0.0
  0
LINE
  8
0
 62
     0
 10
101.625
 20
77.1457
 30
0.0
 11
114.126
 21
77.1457
 31
0.0
  0
LINE
  8
0
 62
     0
 10
114.126
 20
77.1457
 30
0.0
 11
119.205
 21
79.0683
 31
0.0
  0
LINE
  8
0
 62
     0
 10
119.205
 20
79.0683
 30
0.0
 11
117.206
 21
76.5689
 31
0.0
  0
LINE
  8
0
 62
     0
 10
117.206
 20
76.5689
 30
0.0
 11
121.205
 21
76.5689
 31
0.0
  0
LINE
  8
0
 62
     0
 10
121.205
 20
76.5689
 30
0.0
 11
119.205
 21
79.0683
 31
0.0
  0
LINE
  8
0
 62
     0
 10
119.205
 20
79.0683
 30
0.0
 11
126.626
 21
77.1457
 31
0.0
  0
LINE
  8
0
 62
     7
 10
126.624
 20
100.062
 30
0.0
 11
151.625
 21
100.062
 31
0.0
  0
LINE
  8
0
 62
     7
 10
151.625
 20
100.062
 30
0.0
 11
151.625
 21
75.0614
 31
0.0
  0
LINE
  8
0
 62
     7
 10
151.625
 20
75.0614
 30
0.0
 11
126.624
 21
75.0614
 31
0.0
  0
LINE
  8
0
 62
     7
 10
126.624
 20
75.0614
 30
0.0
 11
126.624
 21
100.062
 31
0.0
  0
LINE
  8
0
 62
     0
 10
126.624
 20
93.8131
 30
0.0
 11
130.793
 21
93.1878
 31
0.0
  0
LINE
  8
0
 62
     0
 10
151.625
 20
93.8131
 30
0.0
 11
147.457
 21
93.1878
 31
0.0
  0
LINE
  8
0
 62
     0
 10
126.624
 20
89.6464
 30
0.0
 11
130.793
 21
89.4378
 31
0.0
  0
LINE
  8
0
 62
     0
 10
151.625
 20
89.6464
 30
0.0
 11
147.457
 21
89.4378
 31
0.0
  0
LINE
  8
0
 62
     0
 10
126.624
 20
97.9781
 30
0.0
 11
151.625
 21
97.9781
 31
0.0
  0
LINE
  8
0
 62
     0
 10
126.624
 20
85.4796
 30
0.0
 11
130.793
 21
85.6878
 31
0.0
  0
LINE
  8
0
 62
     0
 10
130.793
 20
85.6878
 30
0.0
 11
147.457
 21
85.6878
 31
0.0
  0
LINE
  8
0
 62
     0
 10
151.625
 20
85.4796
 30
0.0
 11
147.457
 21
81.9378
 31
0.0
  0
LINE
  8
0
 62
     0
 10
126.624
 20
81.3124
 30
0.0
 11
130.793
 21
81.9378
 31
0.0
  0
LINE
  8
0
 62
     0
 10
130.793
 20
81.9378
 30
0.0
 11
128.795
 21
84.4371
 31
0.0
  0
LINE
  8
0
 62
     0
 10
128.795
 20
84.4371
 30
0.0
 11
132.795
 21
84.4371
 31
0.0
  0
LINE
  8
0
 62
     0
 10
132.795
 20
84.4371
 30
0.0
 11
130.793
 21
81.9378
 31
0.0
  0
LINE
  8
0
 62
     0
 10
130.793
 20
81.9378
 30
0.0
 11
139.125
 21
81.3124
 31
0.0
  0
LINE
  8
0
 62
     0
 10
139.125
 20
81.3124
 30
0.0
 11
147.457
 21
80.5324
 31
0.0
  0
LINE
  8
0
 62
     0
 10
147.457
 20
80.5324
 30
0.0
 11
151.625
 21
81.3124
 31
0.0
  0
LINE
  8
0
 62
     0
 10
126.624
 20
77.1457
 30
0.0
 11
139.125
 21
77.1457
 31
0.0
  0
LINE
  8
0
 62
     0
 10
139.125
 20
77.1457
 30
0.0
 11
144.206
 21
79.0683
 31
0.0
  0
LINE
  8
0
 62
     0
 10
144.206
 20
79.0683
 30
0.0
 11
142.204
 21
76.5689
 31
0.0
  0
LINE
  8
0
 62
     0
 10
142.204
 20
76.5689
 30
0.0
 11
146.207
 21
76.5689
 31
0.0
  0
LINE
  8
0
 62
     0
 10
146.207
 20
76.5689
 30
0.0
 11
144.206
 21
79.0683
 31
0.0
  0
LINE
  8
0
 62
     0
 10
144.206
 20
79.0683
 30
0.0
 11
151.625
 21
77.1457
 31
0.0
  0
LINE
  8
0
 62
     7
 10
151.625
 20
100.062
 30
0.0
 11
176.625
 21
100.062
 31
0.0
  0
LINE
  8
0
 62
     7
 10
176.625
 20
100.062
 30
0.0
 11
176.625
 21
75.0614
 31
0.0
  0
LINE
  8
0
 62
     7
 10
176.625
 20
75.0614
 30
0.0
 11
151.625
 21
75.0614
 31
0.0
  0
LINE
  8
0
 62
     7
 10
151.625
 20
75.0614
 30
0.0
 11
151.625
 21
100.062
 31
0.0
  0
LINE
  8
0
 62
     0
 10
151.625
 20
93.8131
 30
0.0
 11
155.794
 21
93.1878
 31
0.0
  0
LINE
  8
0
 62
     0
 10
176.625
 20
93.8131
 30
0.0
 11
172.457
 21
93.1878
 31
0.0
  0
LINE
  8
0
 62
     0
 10
151.625
 20
89.6464
 30
0.0
 11
155.794
 21
89.4378
 31
0.0
  0
LINE
  8
0
 62
     0
 10
176.625
 20
89.6464
 30
0.0
 11
172.457
 21
89.4378
 31
0.0
  0
LINE
  8
0
 62
     0
 10
151.625
 20
97.9781
 30
0.0
 11
176.625
 21
97.9781
 31
0.0
  0
LINE
  8
0
 62
     0
 10
151.625
 20
85.4796
 30
0.0
 11
155.794
 21
85.6878
 31
0.0
  0
LINE
  8
0
 62
     0
 10
155.794
 20
85.6878
 30
0.0
 11
172.457
 21
85.6878
 31
0.0
  0
LINE
  8
0
 62
     0
 10
176.625
 20
85.4796
 30
0.0
 11
172.457
 21
81.9378
 31
0.0
  0
LINE
  8
0
 62
     0
 10
151.625
 20
81.3124
 30
0.0
 11
155.794
 21
81.9378
 31
0.0
  0
LINE
  8
0
 62
     0
 10
155.794
 20
81.9378
 30
0.0
 11
153.794
 21
84.4371
 31
0.0
  0
LINE
  8
0
 62
     0
 10
153.794
 20
84.4371
 30
0.0
 11
157.794
 21
84.4371
 31
0.0
  0
LINE
  8
0
 62
     0
 10
157.794
 20
84.4371
 30
0.0
 11
155.794
 21
81.9378
 31
0.0
  0
LINE
  8
0
 62
     0
 10
155.794
 20
81.9378
 30
0.0
 11
164.126
 21
81.3124
 31
0.0
  0
LINE
  8
0
 62
     0
 10
164.126
 20
81.3124
 30
0.0
 11
172.457
 21
80.5324
 31
0.0
  0
LINE
  8
0
 62
     0
 10
172.457
 20
80.5324
 30
0.0
 11
176.625
 21
81.3124
 31
0.0
  0
LINE
  8
0
 62
     0
 10
151.625
 20
77.1457
 30
0.0
 11
164.126
 21
77.1457
 31
0.0
  0
LINE
  8
0
 62
     0
 10
164.126
 20
77.1457
 30
0.0
 11
169.204
 21
79.0683
 31
0.0
  0
LINE
  8
0
 62
     0
 10
169.204
 20
79.0683
 30
0.0
 11
167.206
 21
76.5689
 31
0.0
  0
LINE
  8
0
 62
     0
 10
167.206
 20
76.5689
 30
0.0
 11
171.206
 21
76.5689
 31
0.0
  0
LINE
  8
0
 62
     0
 10
171.206
 20
76.5689
 30
0.0
 11
169.204
 21
79.0683
 31
0.0
  0
LINE
  8
0
 62
     0
 10
169.204
 20
79.0683
 30
0.0
 11
176.625
 21
77.1457
 31
0.0
  0
LINE
  8
0
 62
     7
 10
176.625
 20
100.062
 30
0.0
 11
201.626
 21
100.062
 31
0.0
  0
LINE
  8
0
 62
     7
 10
201.626
 20
100.062
 30
0.0
 11
201.626
 21
75.0614
 31
0.0
  0
LINE
  8
0
 62
     7
 10
201.626
 20
75.0614
 30
0.0
 11
176.625
 21
75.0614
 31
0.0
  0
LINE
  8
0
 62
     7
 10
176.625
 20
75.0614
 30
0.0
 11
176.625
 21
100.062
 31
0.0
  0
LINE
  8
0
 62
     0
 10
176.625
 20
93.8131
 30
0.0
 11
180.793
 21
93.1878
 31
0.0
  0
LINE
  8
0
 62
     0
 10
201.626
 20
93.8131
 30
0.0
 11
197.457
 21
93.1878
 31
0.0
  0
LINE
  8
0
 62
     0
 10
176.625
 20
89.6464
 30
0.0
 11
180.793
 21
89.4378
 31
0.0
  0
LINE
  8
0
 62
     0
 10
201.626
 20
89.6464
 30
0.0
 11
197.457
 21
89.4378
 31
0.0
  0
LINE
  8
0
 62
     0
 10
176.625
 20
97.9781
 30
0.0
 11
201.626
 21
97.9781
 31
0.0
  0
LINE
  8
0
 62
     0
 10
176.625
 20
85.4796
 30
0.0
 11
180.793
 21
85.6878
 31
0.0
  0
LINE
  8
0
 62
     0
 10
180.793
 20
85.6878
 30
0.0
 11
197.457
 21
85.6878
 31
0.0
  0
LINE
  8
0
 62
     0
 10
201.626
 20
85.4796
 30
0.0
 11
197.457
 21
81.9378
 31
0.0
  0
LINE
  8
0
 62
     0
 10
176.625
 20
81.3124
 30
0.0
 11
180.793
 21
81.9378
 31
0.0
  0
LINE
  8
0
 62
     0
 10
180.793
 20
81.9378
 30
0.0
 11
178.793
 21
84.4371
 31
0.0
  0
LINE
  8
0
 62
     0
 10
178.793
 20
84.4371
 30
0.0
 11
182.794
 21
84.4371
 31
0.0
  0
LINE
  8
0
 62
     0
 10
182.794
 20
84.4371
 30
0.0
 11
180.793
 21
81.9378
 31
0.0
  0
LINE
  8
0
 62
     0
 10
180.793
 20
81.9378
 30
0.0
 11
189.125
 21
81.3124
 31
0.0
  0
LINE
  8
0
 62
     0
 10
189.125
 20
81.3124
 30
0.0
 11
197.457
 21
80.5324
 31
0.0
  0
LINE
  8
0
 62
     0
 10
197.457
 20
80.5324
 30
0.0
 11
201.626
 21
81.3124
 31
0.0
  0
LINE
  8
0
 62
     0
 10
176.625
 20
77.1457
 30
0.0
 11
189.125
 21
77.1457
 31
0.0
  0
LINE
  8
0
 62
     0
 10
189.125
 20
77.1457
 30
0.0
 11
194.206
 21
79.0683
 31
0.0
  0
LINE
  8
0
 62
     0
 10
194.206
 20
79.0683
 30
0.0
 11
192.206
 21
76.5689
 31
0.0
  0
LINE
  8
0
 62
     0
 10
192.206
 20
76.5689
 30
0.0
 11
196.206
 21
76.5689
 31
0.0
  0
LINE
  8
0
 62
     0
 10
196.206
 20
76.5689
 30
0.0
 11
194.206
 21
79.0683
 31
0.0
  0
LINE
  8
0
 62
     0
 10
194.206
 20
79.0683
 30
0.0
 11
201.626
 21
77.1457
 31
0.0
  0
LINE
  8
0
 62
     7
 10
201.626
 20
100.062
 30
0.0
 11
226.625
 21
100.062
 31
0.0
  0
LINE
  8
0
 62
     7
 10
226.625
 20
100.062
 30
0.0
 11
226.625
 21
75.0614
 31
0.0
  0
LINE
  8
0
 62
     7
 10
226.625
 20
75.0614
 30
0.0
 11
201.626
 21
75.0614
 31
0.0
  0
LINE
  8
0
 62
     7
 10
201.626
 20
75.0614
 30
0.0
 11
201.626
 21
100.062
 31
0.0
  0
LINE
  8
0
 62
     0
 10
201.626
 20
93.8131
 30
0.0
 11
205.794
 21
93.1878
 31
0.0
  0
LINE
  8
0
 62
     0
 10
201.626
 20
89.6464
 30
0.0
 11
205.794
 21
89.4378
 31
0.0
  0
LINE
  8
0
 62
     0
 10
201.626
 20
97.9781
 30
0.0
 11
226.625
 21
97.9781
 31
0.0
  0
LINE
  8
0
 62
     0
 10
226.625
 20
97.9781
 30
0.0
 11
226.625
 21
85.4796
 31
0.0
  0
LINE
  8
0
 62
     0
 10
201.626
 20
85.4796
 30
0.0
 11
205.794
 21
85.6878
 31
0.0
  0
LINE
  8
0
 62
     0
 10
205.794
 20
85.6878
 30
0.0
 11
222.457
 21
85.6878
 31
0.0
  0
LINE
  8
0
 62
     0
 10
226.625
 20
85.4796
 30
0.0
 11
222.457
 21
81.9378
 31
0.0
  0
LINE
  8
0
 62
     0
 10
201.626
 20
81.3124
 30
0.0
 11
205.794
 21
81.9378
 31
0.0
  0
LINE
  8
0
 62
     0
 10
201.626
 20
77.1457
 30
0.0
 11
214.125
 21
77.1457
 31
0.0
  0
LINE
  8
0
 62
     0
 10
214.125
 20
77.1457
 30
0.0
 11
219.204
 21
79.0683
 31
0.0
  0
LINE
  8
0
 62
     7
 10
1.62457
 20
75.0632
 30
0.0
 11
26.6256
 21
75.0632
 31
0.0
  0
LINE
  8
0
 62
     7
 10
26.6256
 20
75.0632
 30
0.0
 11
26.6256
 21
50.0622
 31
0.0
  0
LINE
  8
0
 62
     7
 10
26.6256
 20
50.0622
 30
0.0
 11
1.62457
 21
50.0622
 31
0.0
  0
LINE
  8
0
 62
     7
 10
1.62457
 20
50.0622
 30
0.0
 11
1.62457
 21
75.0632
 31
0.0
  0
LINE
  8
0
 62
     0
 10
20.3743
 20
75.0633
 30
0.0
 11
20.3743
 21
68.8139
 31
0.0
  0
LINE
  8
0
 62
     0
 10
18.2915
 20
68.8139
 30
0.0
 11
26.6256
 21
68.8139
 31
0.0
  0
LINE
  8
0
 62
     0
 10
20.3743
 20
68.8139
 30
0.0
 11
20.3743
 21
50.0619
 31
0.0
  0
LINE
  8
0
 62
     0
 10
16.2093
 20
75.0633
 30
0.0
 11
16.2093
 21
64.6454
 31
0.0
  0
LINE
  8
0
 62
     0
 10
14.1247
 20
64.6454
 30
0.0
 11
26.6256
 21
64.6454
 31
0.0
  0
LINE
  8
0
 62
     0
 10
16.2093
 20
64.6454
 30
0.0
 11
16.2093
 21
50.0619
 31
0.0
  0
LINE
  8
0
 62
     0
 10
26.6256
 20
72.9789
 30
0.0
 11
24.541
 21
72.9789
 31
0.0
  0
LINE
  8
0
 62
     0
 10
24.541
 20
72.9789
 30
0.0
 11
24.541
 21
75.0633
 31
0.0
  0
LINE
  8
0
 62
     0
 10
12.0425
 20
75.0633
 30
0.0
 11
12.0425
 21
50.0619
 31
0.0
  0
LINE
  8
0
 62
     0
 10
26.6256
 20
60.4782
 30
0.0
 11
24.541
 21
60.4782
 31
0.0
  0
LINE
  8
0
 62
     0
 10
24.541
 20
60.4782
 30
0.0
 11
24.541
 21
50.0619
 31
0.0
  0
LINE
  8
0
 62
     0
 10
7.87354
 20
75.0633
 30
0.0
 11
7.87354
 21
56.3132
 31
0.0
  0
LINE
  8
0
 62
     0
 10
5.79308
 20
56.3132
 30
0.0
 11
26.6256
 21
56.3132
 31
0.0
  0
LINE
  8
0
 62
     0
 10
7.87354
 20
56.3132
 30
0.0
 11
7.87354
 21
50.0619
 31
0.0
  0
LINE
  8
0
 62
     0
 10
3.70856
 20
75.0633
 30
0.0
 11
3.70856
 21
52.1465
 31
0.0
  0
LINE
  8
0
 62
     0
 10
1.62457
 20
52.1465
 30
0.0
 11
26.6256
 21
52.1465
 31
0.0
  0
LINE
  8
0
 62
     0
 10
3.70856
 20
52.1465
 30
0.0
 11
3.70856
 21
50.0619
 31
0.0
  0
LINE
  8
0
 62
     7
 10
26.6256
 20
75.0632
 30
0.0
 11
51.6246
 21
75.0632
 31
0.0
  0
LINE
  8
0
 62
     7
 10
51.6246
 20
75.0632
 30
0.0
 11
51.6246
 21
50.0622
 31
0.0
  0
LINE
  8
0
 62
     7
 10
51.6246
 20
50.0622
 30
0.0
 11
26.6256
 21
50.0622
 31
0.0
  0
LINE
  8
0
 62
     7
 10
26.6256
 20
50.0622
 30
0.0
 11
26.6256
 21
75.0632
 31
0.0
  0
LINE
  8
0
 62
     0
 10
26.6256
 20
68.8139
 30
0.0
 11
30.794
 21
68.1868
 31
0.0
  0
LINE
  8
0
 62
     0
 10
51.6246
 20
68.8139
 30
0.0
 11
47.4561
 21
68.1868
 31
0.0
  0
LINE
  8
0
 62
     0
 10
26.6256
 20
64.6454
 30
0.0
 11
30.794
 21
64.4386
 31
0.0
  0
LINE
  8
0
 62
     0
 10
51.6246
 20
64.6454
 30
0.0
 11
47.4561
 21
64.4386
 31
0.0
  0
LINE
  8
0
 62
     0
 10
26.6256
 20
72.9789
 30
0.0
 11
51.6246
 21
72.9789
 31
0.0
  0
LINE
  8
0
 62
     0
 10
26.6256
 20
60.4782
 30
0.0
 11
30.794
 21
60.6886
 31
0.0
  0
LINE
  8
0
 62
     0
 10
30.794
 20
60.6886
 30
0.0
 11
47.4561
 21
60.6886
 31
0.0
  0
LINE
  8
0
 62
     0
 10
51.6246
 20
60.4782
 30
0.0
 11
47.4561
 21
56.9368
 31
0.0
  0
LINE
  8
0
 62
     0
 10
26.6256
 20
56.3132
 30
0.0
 11
30.794
 21
56.9368
 31
0.0
  0
LINE
  8
0
 62
     0
 10
30.794
 20
56.9368
 30
0.0
 11
28.7942
 21
59.4363
 31
0.0
  0
LINE
  8
0
 62
     0
 10
28.7942
 20
59.4363
 30
0.0
 11
32.7937
 21
59.4363
 31
0.0
  0
LINE
  8
0
 62
     0
 10
32.7937
 20
59.4363
 30
0.0
 11
30.794
 21
56.9368
 31
0.0
  0
LINE
  8
0
 62
     0
 10
30.794
 20
56.9368
 30
0.0
 11
39.1261
 21
56.3132
 31
0.0
  0
LINE
  8
0
 62
     0
 10
39.1261
 20
56.3132
 30
0.0
 11
47.4561
 21
55.5314
 31
0.0
  0
LINE
  8
0
 62
     0
 10
47.4561
 20
55.5314
 30
0.0
 11
51.6246
 21
56.3132
 31
0.0
  0
LINE
  8
0
 62
     0
 10
26.6256
 20
52.1465
 30
0.0
 11
39.1261
 21
52.1465
 31
0.0
  0
LINE
  8
0
 62
     0
 10
39.1261
 20
52.1465
 30
0.0
 11
44.2039
 21
54.0687
 31
0.0
  0
LINE
  8
0
 62
     0
 10
44.2039
 20
54.0687
 30
0.0
 11
42.2058
 21
51.5675
 31
0.0
  0
LINE
  8
0
 62
     0
 10
42.2058
 20
51.5675
 30
0.0
 11
46.2056
 21
51.5675
 31
0.0
  0
LINE
  8
0
 62
     0
 10
46.2056
 20
51.5675
 30
0.0
 11
44.2039
 21
54.0687
 31
0.0
  0
LINE
  8
0
 62
     0
 10
44.2039
 20
54.0687
 30
0.0
 11
51.6246
 21
52.1465
 31
0.0
  0
LINE
  8
0
 62
     7
 10
51.6246
 20
75.0632
 30
0.0
 11
76.6256
 21
75.0632
 31
0.0
  0
LINE
  8
0
 62
     7
 10
76.6256
 20
75.0632
 30
0.0
 11
76.6256
 21
50.0622
 31
0.0
  0
LINE
  8
0
 62
     7
 10
76.6256
 20
50.0622
 30
0.0
 11
51.6246
 21
50.0622
 31
0.0
  0
LINE
  8
0
 62
     7
 10
51.6246
 20
50.0622
 30
0.0
 11
51.6246
 21
75.0632
 31
0.0
  0
LINE
  8
0
 62
     0
 10
51.6246
 20
68.8139
 30
0.0
 11
55.7932
 21
68.1868
 31
0.0
  0
LINE
  8
0
 62
     0
 10
76.626
 20
68.8139
 30
0.0
 11
72.4571
 21
68.1868
 31
0.0
  0
LINE
  8
0
 62
     0
 10
51.6246
 20
64.6454
 30
0.0
 11
55.7932
 21
64.4386
 31
0.0
  0
LINE
  8
0
 62
     0
 10
76.626
 20
64.6454
 30
0.0
 11
72.4571
 21
64.4386
 31
0.0
  0
LINE
  8
0
 62
     0
 10
51.6246
 20
72.9789
 30
0.0
 11
76.626
 21
72.9789
 31
0.0
  0
LINE
  8
0
 62
     0
 10
51.6246
 20
60.4782
 30
0.0
 11
55.7932
 21
60.6886
 31
0.0
  0
LINE
  8
0
 62
     0
 10
55.7932
 20
60.6886
 30
0.0
 11
72.4571
 21
60.6886
 31
0.0
  0
LINE
  8
0
 62
     0
 10
76.626
 20
60.4782
 30
0.0
 11
72.4571
 21
56.9368
 31
0.0
  0
LINE
  8
0
 62
     0
 10
51.6246
 20
56.3132
 30
0.0
 11
55.7932
 21
56.9368
 31
0.0
  0
LINE
  8
0
 62
     0
 10
55.7932
 20
56.9368
 30
0.0
 11
53.7933
 21
59.4363
 31
0.0
  0
LINE
  8
0
 62
     0
 10
53.7933
 20
59.4363
 30
0.0
 11
57.7947
 21
59.4363
 31
0.0
  0
LINE
  8
0
 62
     0
 10
57.7947
 20
59.4363
 30
0.0
 11
55.7932
 21
56.9368
 31
0.0
  0
LINE
  8
0
 62
     0
 10
55.7932
 20
56.9368
 30
0.0
 11
64.1253
 21
56.3132
 31
0.0
  0
LINE
  8
0
 62
     0
 10
64.1253
 20
56.3132
 30
0.0
 11
72.4571
 21
55.5314
 31
0.0
  0
LINE
  8
0
 62
     0
 10
72.4571
 20
55.5314
 30
0.0
 11
76.626
 21
56.3132
 31
0.0
  0
LINE
  8
0
 62
     0
 10
51.6246
 20
52.1465
 30
0.0
 11
64.1253
 21
52.1465
 31
0.0
  0
LINE
  8
0
 62
     0
 10
64.1253
 20
52.1465
 30
0.0
 11
69.2053
 21
54.0687
 31
0.0
  0
LINE
  8
0
 62
     0
 10
69.2053
 20
54.0687
 30
0.0
 11
67.205
 21
51.5675
 31
0.0
  0
LINE
  8
0
 62
     0
 10
67.205
 20
51.5675
 30
0.0
 11
71.2051
 21
51.5675
 31
0.0
  0
LINE
  8
0
 62
     0
 10
71.2051
 20
51.5675
 30
0.0
 11
69.2053
 21
54.0687
 31
0.0
  0
LINE
  8
0
 62
     0
 10
69.2053
 20
54.0687
 30
0.0
 11
76.626
 21
52.1465
 31
0.0
  0
LINE
  8
0
 62
     7
 10
76.626
 20
75.0632
 30
0.0
 11
101.625
 21
75.0632
 31
0.0
  0
LINE
  8
0
 62
     7
 10
101.625
 20
75.0632
 30
0.0
 11
101.625
 21
50.0622
 31
0.0
  0
LINE
  8
0
 62
     7
 10
101.625
 20
50.0622
 30
0.0
 11
76.626
 21
50.0622
 31
0.0
  0
LINE
  8
0
 62
     7
 10
76.626
 20
50.0622
 30
0.0
 11
76.626
 21
75.0632
 31
0.0
  0
LINE
  8
0
 62
     0
 10
76.626
 20
68.8139
 30
0.0
 11
80.7944
 21
68.1868
 31
0.0
  0
LINE
  8
0
 62
     0
 10
101.625
 20
68.8139
 30
0.0
 11
97.4567
 21
68.1868
 31
0.0
  0
LINE
  8
0
 62
     0
 10
76.626
 20
64.6454
 30
0.0
 11
80.7944
 21
64.4386
 31
0.0
  0
LINE
  8
0
 62
     0
 10
101.625
 20
64.6454
 30
0.0
 11
97.4567
 21
64.4386
 31
0.0
  0
LINE
  8
0
 62
     0
 10
76.626
 20
72.9789
 30
0.0
 11
101.625
 21
72.9789
 31
0.0
  0
LINE
  8
0
 62
     0
 10
76.626
 20
60.4782
 30
0.0
 11
80.7944
 21
60.6886
 31
0.0
  0
LINE
  8
0
 62
     0
 10
80.7944
 20
60.6886
 30
0.0
 11
97.4567
 21
60.6886
 31
0.0
  0
LINE
  8
0
 62
     0
 10
101.625
 20
60.4782
 30
0.0
 11
97.4567
 21
56.9368
 31
0.0
  0
LINE
  8
0
 62
     0
 10
76.626
 20
56.3132
 30
0.0
 11
80.7944
 21
56.9368
 31
0.0
  0
LINE
  8
0
 62
     0
 10
80.7944
 20
56.9368
 30
0.0
 11
78.7947
 21
59.4363
 31
0.0
  0
LINE
  8
0
 62
     0
 10
78.7947
 20
59.4363
 30
0.0
 11
82.7943
 21
59.4363
 31
0.0
  0
LINE
  8
0
 62
     0
 10
82.7943
 20
59.4363
 30
0.0
 11
80.7944
 21
56.9368
 31
0.0
  0
LINE
  8
0
 62
     0
 10
80.7944
 20
56.9368
 30
0.0
 11
89.1244
 21
56.3132
 31
0.0
  0
LINE
  8
0
 62
     0
 10
89.1244
 20
56.3132
 30
0.0
 11
97.4567
 21
55.5314
 31
0.0
  0
LINE
  8
0
 62
     0
 10
97.4567
 20
55.5314
 30
0.0
 11
101.625
 21
56.3132
 31
0.0
  0
LINE
  8
0
 62
     0
 10
76.626
 20
52.1465
 30
0.0
 11
89.1244
 21
52.1465
 31
0.0
  0
LINE
  8
0
 62
     0
 10
89.1244
 20
52.1465
 30
0.0
 11
94.2044
 21
54.0687
 31
0.0
  0
LINE
  8
0
 62
     0
 10
94.2044
 20
54.0687
 30
0.0
 11
92.2046
 21
51.5675
 31
0.0
  0
LINE
  8
0
 62
     0
 10
92.2046
 20
51.5675
 30
0.0
 11
96.2061
 21
51.5675
 31
0.0
  0
LINE
  8
0
 62
     0
 10
96.2061
 20
51.5675
 30
0.0
 11
94.2044
 21
54.0687
 31
0.0
  0
LINE
  8
0
 62
     0
 10
94.2044
 20
54.0687
 30
0.0
 11
101.625
 21
52.1465
 31
0.0
  0
LINE
  8
0
 62
     7
 10
101.625
 20
75.0632
 30
0.0
 11
126.626
 21
75.0632
 31
0.0
  0
LINE
  8
0
 62
     7
 10
126.626
 20
75.0632
 30
0.0
 11
126.626
 21
50.0622
 31
0.0
  0
LINE
  8
0
 62
     7
 10
126.626
 20
50.0622
 30
0.0
 11
101.625
 21
50.0622
 31
0.0
  0
LINE
  8
0
 62
     7
 10
101.625
 20
50.0622
 30
0.0
 11
101.625
 21
75.0632
 31
0.0
  0
LINE
  8
0
 62
     0
 10
101.625
 20
68.8139
 30
0.0
 11
105.794
 21
68.1868
 31
0.0
  0
LINE
  8
0
 62
     0
 10
126.626
 20
68.8139
 30
0.0
 11
122.458
 21
68.1868
 31
0.0
  0
LINE
  8
0
 62
     0
 10
101.625
 20
64.6454
 30
0.0
 11
105.794
 21
64.4386
 31
0.0
  0
LINE
  8
0
 62
     0
 10
126.626
 20
64.6454
 30
0.0
 11
122.458
 21
64.4386
 31
0.0
  0
LINE
  8
0
 62
     0
 10
101.625
 20
72.9789
 30
0.0
 11
126.626
 21
72.9789
 31
0.0
  0
LINE
  8
0
 62
     0
 10
101.625
 20
60.4782
 30
0.0
 11
105.794
 21
60.6886
 31
0.0
  0
LINE
  8
0
 62
     0
 10
105.794
 20
60.6886
 30
0.0
 11
122.458
 21
60.6886
 31
0.0
  0
LINE
  8
0
 62
     0
 10
126.626
 20
60.4782
 30
0.0
 11
122.458
 21
56.9368
 31
0.0
  0
LINE
  8
0
 62
     0
 10
101.625
 20
56.3132
 30
0.0
 11
105.794
 21
56.9368
 31
0.0
  0
LINE
  8
0
 62
     0
 10
105.794
 20
56.9368
 30
0.0
 11
103.794
 21
59.4363
 31
0.0
  0
LINE
  8
0
 62
     0
 10
103.794
 20
59.4363
 30
0.0
 11
107.795
 21
59.4363
 31
0.0
  0
LINE
  8
0
 62
     0
 10
107.795
 20
59.4363
 30
0.0
 11
105.794
 21
56.9368
 31
0.0
  0
LINE
  8
0
 62
     0
 10
105.794
 20
56.9368
 30
0.0
 11
114.126
 21
56.3132
 31
0.0
  0
LINE
  8
0
 62
     0
 10
114.126
 20
56.3132
 30
0.0
 11
122.458
 21
55.5314
 31
0.0
  0
LINE
  8
0
 62
     0
 10
122.458
 20
55.5314
 30
0.0
 11
126.626
 21
56.3132
 31
0.0
  0
LINE
  8
0
 62
     0
 10
101.625
 20
52.1465
 30
0.0
 11
114.126
 21
52.1465
 31
0.0
  0
LINE
  8
0
 62
     0
 10
114.126
 20
52.1465
 30
0.0
 11
119.205
 21
54.0687
 31
0.0
  0
LINE
  8
0
 62
     0
 10
119.205
 20
54.0687
 30
0.0
 11
117.206
 21
51.5675
 31
0.0
  0
LINE
  8
0
 62
     0
 10
117.206
 20
51.5675
 30
0.0
 11
121.205
 21
51.5675
 31
0.0
  0
LINE
  8
0
 62
     0
 10
121.205
 20
51.5675
 30
0.0
 11
119.205
 21
54.0687
 31
0.0
  0
LINE
  8
0
 62
     0
 10
119.205
 20
54.0687
 30
0.0
 11
126.626
 21
52.1465
 31
0.0
  0
LINE
  8
0
 62
     7
 10
126.624
 20
75.0632
 30
0.0
 11
151.625
 21
75.0632
 31
0.0
  0
LINE
  8
0
 62
     7
 10
151.625
 20
75.0632
 30
0.0
 11
151.625
 21
50.0622
 31
0.0
  0
LINE
  8
0
 62
     7
 10
151.625
 20
50.0622
 30
0.0
 11
126.624
 21
50.0622
 31
0.0
  0
LINE
  8
0
 62
     7
 10
126.624
 20
50.0622
 30
0.0
 11
126.624
 21
75.0632
 31
0.0
  0
LINE
  8
0
 62
     0
 10
126.624
 20
68.8139
 30
0.0
 11
130.793
 21
68.1868
 31
0.0
  0
LINE
  8
0
 62
     0
 10
151.625
 20
68.8139
 30
0.0
 11
147.457
 21
68.1868
 31
0.0
  0
LINE
  8
0
 62
     0
 10
126.624
 20
64.6454
 30
0.0
 11
130.793
 21
64.4386
 31
0.0
  0
LINE
  8
0
 62
     0
 10
151.625
 20
64.6454
 30
0.0
 11
147.457
 21
64.4386
 31
0.0
  0
LINE
  8
0
 62
     0
 10
126.624
 20
72.9789
 30
0.0
 11
151.625
 21
72.9789
 31
0.0
  0
LINE
  8
0
 62
     0
 10
126.624
 20
60.4782
 30
0.0
 11
130.793
 21
60.6886
 31
0.0
  0
LINE
  8
0
 62
     0
 10
130.793
 20
60.6886
 30
0.0
 11
147.457
 21
60.6886
 31
0.0
  0
LINE
  8
0
 62
     0
 10
151.625
 20
60.4782
 30
0.0
 11
147.457
 21
56.9368
 31
0.0
  0
LINE
  8
0
 62
     0
 10
126.624
 20
56.3132
 30
0.0
 11
130.793
 21
56.9368
 31
0.0
  0
LINE
  8
0
 62
     0
 10
130.793
 20
56.9368
 30
0.0
 11
128.795
 21
59.4363
 31
0.0
  0
LINE
  8
0
 62
     0
 10
128.795
 20
59.4363
 30
0.0
 11
132.795
 21
59.4363
 31
0.0
  0
LINE
  8
0
 62
     0
 10
132.795
 20
59.4363
 30
0.0
 11
130.793
 21
56.9368
 31
0.0
  0
LINE
  8
0
 62
     0
 10
130.793
 20
56.9368
 30
0.0
 11
139.125
 21
56.3132
 31
0.0
  0
LINE
  8
0
 62
     0
 10
139.125
 20
56.3132
 30
0.0
 11
147.457
 21
55.5314
 31
0.0
  0
LINE
  8
0
 62
     0
 10
147.457
 20
55.5314
 30
0.0
 11
151.625
 21
56.3132
 31
0.0
  0
LINE
  8
0
 62
     0
 10
126.624
 20
52.1465
 30
0.0
 11
139.125
 21
52.1465
 31
0.0
  0
LINE
  8
0
 62
     0
 10
139.125
 20
52.1465
 30
0.0
 11
144.206
 21
54.0687
 31
0.0
  0
LINE
  8
0
 62
     0
 10
144.206
 20
54.0687
 30
0.0
 11
142.204
 21
51.5675
 31
0.0
  0
LINE
  8
0
 62
     0
 10
142.204
 20
51.5675
 30
0.0
 11
146.207
 21
51.5675
 31
0.0
  0
LINE
  8
0
 62
     0
 10
146.207
 20
51.5675
 30
0.0
 11
144.206
 21
54.0687
 31
0.0
  0
LINE
  8
0
 62
     0
 10
144.206
 20
54.0687
 30
0.0
 11
151.625
 21
52.1465
 31
0.0
  0
LINE
  8
0
 62
     7
 10
151.625
 20
75.0632
 30
0.0
 11
176.625
 21
75.0632
 31
0.0
  0
LINE
  8
0
 62
     7
 10
176.625
 20
75.0632
 30
0.0
 11
176.625
 21
50.0622
 31
0.0
  0
LINE
  8
0
 62
     7
 10
176.625
 20
50.0622
 30
0.0
 11
151.625
 21
50.0622
 31
0.0
  0
LINE
  8
0
 62
     7
 10
151.625
 20
50.0622
 30
0.0
 11
151.625
 21
75.0632
 31
0.0
  0
LINE
  8
0
 62
     0
 10
151.625
 20
68.8139
 30
0.0
 11
155.794
 21
68.1868
 31
0.0
  0
LINE
  8
0
 62
     0
 10
176.625
 20
68.8139
 30
0.0
 11
172.457
 21
68.1868
 31
0.0
  0
LINE
  8
0
 62
     0
 10
151.625
 20
64.6454
 30
0.0
 11
155.794
 21
64.4386
 31
0.0
  0
LINE
  8
0
 62
     0
 10
176.625
 20
64.6454
 30
0.0
 11
172.457
 21
64.4386
 31
0.0
  0
LINE
  8
0
 62
     0
 10
151.625
 20
72.9789
 30
0.0
 11
176.625
 21
72.9789
 31
0.0
  0
LINE
  8
0
 62
     0
 10
151.625
 20
60.4782
 30
0.0
 11
155.794
 21
60.6886
 31
0.0
  0
LINE
  8
0
 62
     0
 10
155.794
 20
60.6886
 30
0.0
 11
172.457
 21
60.6886
 31
0.0
  0
LINE
  8
0
 62
     0
 10
176.625
 20
60.4782
 30
0.0
 11
172.457
 21
56.9368
 31
0.0
  0
LINE
  8
0
 62
     0
 10
151.625
 20
56.3132
 30
0.0
 11
155.794
 21
56.9368
 31
0.0
  0
LINE
  8
0
 62
     0
 10
155.794
 20
56.9368
 30
0.0
 11
153.794
 21
59.4363
 31
0.0
  0
LINE
  8
0
 62
     0
 10
153.794
 20
59.4363
 30
0.0
 11
157.794
 21
59.4363
 31
0.0
  0
LINE
  8
0
 62
     0
 10
157.794
 20
59.4363
 30
0.0
 11
155.794
 21
56.9368
 31
0.0
  0
LINE
  8
0
 62
     0
 10
155.794
 20
56.9368
 30
0.0
 11
164.126
 21
56.3132
 31
0.0
  0
LINE
  8
0
 62
     0
 10
164.126
 20
56.3132
 30
0.0
 11
172.457
 21
55.5314
 31
0.0
  0
LINE
  8
0
 62
     0
 10
172.457
 20
55.5314
 30
0.0
 11
176.625
 21
56.3132
 31
0.0
  0
LINE
  8
0
 62
     0
 10
151.625
 20
52.1465
 30
0.0
 11
164.126
 21
52.1465
 31
0.0
  0
LINE
  8
0
 62
     0
 10
164.126
 20
52.1465
 30
0.0
 11
169.204
 21
54.0687
 31
0.0
  0
LINE
  8
0
 62
     0
 10
169.204
 20
54.0687
 30
0.0
 11
167.206
 21
51.5675
 31
0.0
  0
LINE
  8
0
 62
     0
 10
167.206
 20
51.5675
 30
0.0
 11
171.206
 21
51.5675
 31
0.0
  0
LINE
  8
0
 62
     0
 10
171.206
 20
51.5675
 30
0.0
 11
169.204
 21
54.0687
 31
0.0
  0
LINE
  8
0
 62
     0
 10
169.204
 20
54.0687
 30
0.0
 11
176.625
 21
52.1465
 31
0.0
  0
LINE
  8
0
 62
     7
 10
176.625
 20
75.0632
 30
0.0
 11
201.626
 21
75.0632
 31
0.0
  0
LINE
  8
0
 62
     7
 10
201.626
 20
75.0632
 30
0.0
 11
201.626
 21
50.0622
 31
0.0
  0
LINE
  8
0
 62
     7
 10
201.626
 20
50.0622
 30
0.0
 11
176.625
 21
50.0622
 31
0.0
  0
LINE
  8
0
 62
     7
 10
176.625
 20
50.0622
 30
0.0
 11
176.625
 21
75.0632
 31
0.0
  0
LINE
  8
0
 62
     0
 10
176.625
 20
68.8139
 30
0.0
 11
180.793
 21
68.1868
 31
0.0
  0
LINE
  8
0
 62
     0
 10
201.626
 20
68.8139
 30
0.0
 11
197.457
 21
68.1868
 31
0.0
  0
LINE
  8
0
 62
     0
 10
176.625
 20
64.6454
 30
0.0
 11
180.793
 21
64.4386
 31
0.0
  0
LINE
  8
0
 62
     0
 10
201.626
 20
64.6454
 30
0.0
 11
197.457
 21
64.4386
 31
0.0
  0
LINE
  8
0
 62
     0
 10
176.625
 20
72.9789
 30
0.0
 11
201.626
 21
72.9789
 31
0.0
  0
LINE
  8
0
 62
     0
 10
176.625
 20
60.4782
 30
0.0
 11
180.793
 21
60.6886
 31
0.0
  0
LINE
  8
0
 62
     0
 10
180.793
 20
60.6886
 30
0.0
 11
197.457
 21
60.6886
 31
0.0
  0
LINE
  8
0
 62
     0
 10
201.626
 20
60.4782
 30
0.0
 11
197.457
 21
56.9368
 31
0.0
  0
LINE
  8
0
 62
     0
 10
176.625
 20
56.3132
 30
0.0
 11
180.793
 21
56.9368
 31
0.0
  0
LINE
  8
0
 62
     0
 10
180.793
 20
56.9368
 30
0.0
 11
178.793
 21
59.4363
 31
0.0
  0
LINE
  8
0
 62
     0
 10
178.793
 20
59.4363
 30
0.0
 11
182.794
 21
59.4363
 31
0.0
  0
LINE
  8
0
 62
     0
 10
182.794
 20
59.4363
 30
0.0
 11
180.793
 21
56.9368
 31
0.0
  0
LINE
  8
0
 62
     0
 10
180.793
 20
56.9368
 30
0.0
 11
189.125
 21
56.3132
 31
0.0
  0
LINE
  8
0
 62
     0
 10
189.125
 20
56.3132
 30
0.0
 11
197.457
 21
55.5314
 31
0.0
  0
LINE
  8
0
 62
     0
 10
197.457
 20
55.5314
 30
0.0
 11
201.626
 21
56.3132
 31
0.0
  0
LINE
  8
0
 62
     0
 10
176.625
 20
52.1465
 30
0.0
 11
189.125
 21
52.1465
 31
0.0
  0
LINE
  8
0
 62
     0
 10
189.125
 20
52.1465
 30
0.0
 11
194.206
 21
54.0687
 31
0.0
  0
LINE
  8
0
 62
     0
 10
194.206
 20
54.0687
 30
0.0
 11
192.206
 21
51.5675
 31
0.0
  0
LINE
  8
0
 62
     0
 10
192.206
 20
51.5675
 30
0.0
 11
196.206
 21
51.5675
 31
0.0
  0
LINE
  8
0
 62
     0
 10
196.206
 20
51.5675
 30
0.0
 11
194.206
 21
54.0687
 31
0.0
  0
LINE
  8
0
 62
     0
 10
194.206
 20
54.0687
 30
0.0
 11
201.626
 21
52.1465
 31
0.0
  0
LINE
  8
0
 62
     7
 10
201.626
 20
75.0632
 30
0.0
 11
226.625
 21
75.0632
 31
0.0
  0
LINE
  8
0
 62
     7
 10
226.625
 20
75.0632
 30
0.0
 11
226.625
 21
50.0622
 31
0.0
  0
LINE
  8
0
 62
     7
 10
226.625
 20
50.0622
 30
0.0
 11
201.626
 21
50.0622
 31
0.0
  0
LINE
  8
0
 62
     7
 10
201.626
 20
50.0622
 30
0.0
 11
201.626
 21
75.0632
 31
0.0
  0
LINE
  8
0
 62
     0
 10
201.626
 20
68.8139
 30
0.0
 11
205.794
 21
68.1868
 31
0.0
  0
LINE
  8
0
 62
     0
 10
201.626
 20
64.6454
 30
0.0
 11
205.794
 21
64.4386
 31
0.0
  0
LINE
  8
0
 62
     0
 10
201.626
 20
72.9789
 30
0.0
 11
226.625
 21
72.9789
 31
0.0
  0
LINE
  8
0
 62
     0
 10
226.625
 20
72.9789
 30
0.0
 11
226.625
 21
60.4782
 31
0.0
  0
LINE
  8
0
 62
     0
 10
201.626
 20
60.4782
 30
0.0
 11
205.794
 21
60.6886
 31
0.0
  0
LINE
  8
0
 62
     0
 10
205.794
 20
60.6886
 30
0.0
 11
222.457
 21
60.6886
 31
0.0
  0
LINE
  8
0
 62
     0
 10
226.625
 20
60.4782
 30
0.0
 11
222.457
 21
56.9368
 31
0.0
  0
LINE
  8
0
 62
     0
 10
201.626
 20
56.3132
 30
0.0
 11
205.794
 21
56.9368
 31
0.0
  0
LINE
  8
0
 62
     0
 10
201.626
 20
52.1465
 30
0.0
 11
214.125
 21
52.1465
 31
0.0
  0
LINE
  8
0
 62
     0
 10
214.125
 20
52.1465
 30
0.0
 11
219.204
 21
54.0687
 31
0.0
  0
LINE
  8
0
 62
     7
 10
1.62457
 20
50.0622
 30
0.0
 11
26.6256
 21
50.0622
 31
0.0
  0
LINE
  8
0
 62
     7
 10
26.6256
 20
50.0622
 30
0.0
 11
26.6256
 21
25.0631
 31
0.0
  0
LINE
  8
0
 62
     7
 10
26.6256
 20
25.0631
 30
0.0
 11
1.62457
 21
25.0631
 31
0.0
  0
LINE
  8
0
 62
     7
 10
1.62457
 20
25.0631
 30
0.0
 11
1.62457
 21
50.0622
 31
0.0
  0
LINE
  8
0
 62
     0
 10
20.3743
 20
50.0619
 30
0.0
 11
20.3743
 21
43.8125
 31
0.0
  0
LINE
  8
0
 62
     0
 10
18.2915
 20
43.8125
 30
0.0
 11
26.6256
 21
43.8125
 31
0.0
  0
LINE
  8
0
 62
     0
 10
20.3743
 20
43.8125
 30
0.0
 11
20.3743
 21
25.0629
 31
0.0
  0
LINE
  8
0
 62
     0
 10
16.2093
 20
50.0619
 30
0.0
 11
16.2093
 21
39.6458
 31
0.0
  0
LINE
  8
0
 62
     0
 10
14.1247
 20
39.6458
 30
0.0
 11
26.6256
 21
39.6458
 31
0.0
  0
LINE
  8
0
 62
     0
 10
16.2093
 20
39.6458
 30
0.0
 11
16.2093
 21
25.0629
 31
0.0
  0
LINE
  8
0
 62
     0
 10
26.6256
 20
47.9797
 30
0.0
 11
24.541
 21
47.9797
 31
0.0
  0
LINE
  8
0
 62
     0
 10
24.541
 20
47.9797
 30
0.0
 11
24.541
 21
50.0619
 31
0.0
  0
LINE
  8
0
 62
     0
 10
12.0425
 20
50.0619
 30
0.0
 11
12.0425
 21
25.0629
 31
0.0
  0
LINE
  8
0
 62
     0
 10
26.6256
 20
35.479
 30
0.0
 11
24.541
 21
35.479
 31
0.0
  0
LINE
  8
0
 62
     0
 10
24.541
 20
35.479
 30
0.0
 11
24.541
 21
25.0629
 31
0.0
  0
LINE
  8
0
 62
     0
 10
7.87354
 20
50.0619
 30
0.0
 11
7.87354
 21
31.3124
 31
0.0
  0
LINE
  8
0
 62
     0
 10
5.79308
 20
31.3124
 30
0.0
 11
26.6256
 21
31.3124
 31
0.0
  0
LINE
  8
0
 62
     0
 10
7.87354
 20
31.3124
 30
0.0
 11
7.87354
 21
25.0629
 31
0.0
  0
LINE
  8
0
 62
     0
 10
3.70856
 20
50.0619
 30
0.0
 11
3.70856
 21
27.1456
 31
0.0
  0
LINE
  8
0
 62
     0
 10
1.62457
 20
27.1456
 30
0.0
 11
26.6256
 21
27.1456
 31
0.0
  0
LINE
  8
0
 62
     0
 10
3.70856
 20
27.1456
 30
0.0
 11
3.70856
 21
25.0629
 31
0.0
  0
LINE
  8
0
 62
     7
 10
26.6256
 20
50.0622
 30
0.0
 11
51.6246
 21
50.0622
 31
0.0
  0
LINE
  8
0
 62
     7
 10
51.6246
 20
50.0622
 30
0.0
 11
51.6246
 21
25.0631
 31
0.0
  0
LINE
  8
0
 62
     7
 10
51.6246
 20
25.0631
 30
0.0
 11
26.6256
 21
25.0631
 31
0.0
  0
LINE
  8
0
 62
     7
 10
26.6256
 20
25.0631
 30
0.0
 11
26.6256
 21
50.0622
 31
0.0
  0
LINE
  8
0
 62
     0
 10
26.6256
 20
43.8125
 30
0.0
 11
30.794
 21
43.1872
 31
0.0
  0
LINE
  8
0
 62
     0
 10
51.6246
 20
43.8125
 30
0.0
 11
47.4561
 21
43.1872
 31
0.0
  0
LINE
  8
0
 62
     0
 10
26.6256
 20
39.6458
 30
0.0
 11
30.794
 21
39.4372
 31
0.0
  0
LINE
  8
0
 62
     0
 10
51.6246
 20
39.6458
 30
0.0
 11
47.4561
 21
39.4372
 31
0.0
  0
LINE
  8
0
 62
     0
 10
26.6256
 20
47.9797
 30
0.0
 11
51.6246
 21
47.9797
 31
0.0
  0
LINE
  8
0
 62
     0
 10
26.6256
 20
35.479
 30
0.0
 11
30.794
 21
35.6876
 31
0.0
  0
LINE
  8
0
 62
     0
 10
30.794
 20
35.6876
 30
0.0
 11
47.4561
 21
35.6876
 31
0.0
  0
LINE
  8
0
 62
     0
 10
51.6246
 20
35.479
 30
0.0
 11
47.4561
 21
31.9376
 31
0.0
  0
LINE
  8
0
 62
     0
 10
26.6256
 20
31.3124
 30
0.0
 11
30.794
 21
31.9376
 31
0.0
  0
LINE
  8
0
 62
     0
 10
30.794
 20
31.9376
 30
0.0
 11
28.7942
 21
34.4371
 31
0.0
  0
LINE
  8
0
 62
     0
 10
28.7942
 20
34.4371
 30
0.0
 11
32.7937
 21
34.4371
 31
0.0
  0
LINE
  8
0
 62
     0
 10
32.7937
 20
34.4371
 30
0.0
 11
30.794
 21
31.9376
 31
0.0
  0
LINE
  8
0
 62
     0
 10
30.794
 20
31.9376
 30
0.0
 11
39.1261
 21
31.3124
 31
0.0
  0
LINE
  8
0
 62
     0
 10
39.1261
 20
31.3124
 30
0.0
 11
47.4561
 21
30.5318
 31
0.0
  0
LINE
  8
0
 62
     0
 10
47.4561
 20
30.5318
 30
0.0
 11
51.6246
 21
31.3124
 31
0.0
  0
LINE
  8
0
 62
     0
 10
26.6256
 20
27.1456
 30
0.0
 11
39.1261
 21
27.1456
 31
0.0
  0
LINE
  8
0
 62
     0
 10
39.1261
 20
27.1456
 30
0.0
 11
44.2039
 21
29.0678
 31
0.0
  0
LINE
  8
0
 62
     0
 10
44.2039
 20
29.0678
 30
0.0
 11
42.2058
 21
26.5683
 31
0.0
  0
LINE
  8
0
 62
     0
 10
42.2058
 20
26.5683
 30
0.0
 11
46.2056
 21
26.5683
 31
0.0
  0
LINE
  8
0
 62
     0
 10
46.2056
 20
26.5683
 30
0.0
 11
44.2039
 21
29.0678
 31
0.0
  0
LINE
  8
0
 62
     0
 10
44.2039
 20
29.0678
 30
0.0
 11
51.6246
 21
27.1456
 31
0.0
  0
LINE
  8
0
 62
     7
 10
51.6246
 20
50.0622
 30
0.0
 11
76.6256
 21
50.0622
 31
0.0
  0
LINE
  8
0
 62
     7
 10
76.6256
 20
50.0622
 30
0.0
 11
76.6256
 21
25.0631
 31
0.0
  0
LINE
  8
0
 62
     7
 10
76.6256
 20
25.0631
 30
0.0
 11
51.6246
 21
25.0631
 31
0.0
  0
LINE
  8
0
 62
     7
 10
51.6246
 20
25.0631
 30
0.0
 11
51.6246
 21
50.0622
 31
0.0
  0
LINE
  8
0
 62
     0
 10
51.6246
 20
43.8125
 30
0.0
 11
55.7932
 21
43.1872
 31
0.0
  0
LINE
  8
0
 62
     0
 10
76.626
 20
43.8125
 30
0.0
 11
72.4571
 21
43.1872
 31
0.0
  0
LINE
  8
0
 62
     0
 10
51.6246
 20
39.6458
 30
0.0
 11
55.7932
 21
39.4372
 31
0.0
  0
LINE
  8
0
 62
     0
 10
76.626
 20
39.6458
 30
0.0
 11
72.4571
 21
39.4372
 31
0.0
  0
LINE
  8
0
 62
     0
 10
51.6246
 20
47.9797
 30
0.0
 11
76.626
 21
47.9797
 31
0.0
  0
LINE
  8
0
 62
     0
 10
51.6246
 20
35.479
 30
0.0
 11
55.7932
 21
35.6876
 31
0.0
  0
LINE
  8
0
 62
     0
 10
55.7932
 20
35.6876
 30
0.0
 11
72.4571
 21
35.6876
 31
0.0
  0
LINE
  8
0
 62
     0
 10
76.626
 20
35.479
 30
0.0
 11
72.4571
 21
31.9376
 31
0.0
  0
LINE
  8
0
 62
     0
 10
51.6246
 20
31.3124
 30
0.0
 11
55.7932
 21
31.9376
 31
0.0
  0
LINE
  8
0
 62
     0
 10
55.7932
 20
31.9376
 30
0.0
 11
53.7933
 21
34.4371
 31
0.0
  0
LINE
  8
0
 62
     0
 10
53.7933
 20
34.4371
 30
0.0
 11
57.7947
 21
34.4371
 31
0.0
  0
LINE
  8
0
 62
     0
 10
57.7947
 20
34.4371
 30
0.0
 11
55.7932
 21
31.9376
 31
0.0
  0
LINE
  8
0
 62
     0
 10
55.7932
 20
31.9376
 30
0.0
 11
64.1253
 21
31.3124
 31
0.0
  0
LINE
  8
0
 62
     0
 10
64.1253
 20
31.3124
 30
0.0
 11
72.4571
 21
30.5318
 31
0.0
  0
LINE
  8
0
 62
     0
 10
72.4571
 20
30.5318
 30
0.0
 11
76.626
 21
31.3124
 31
0.0
  0
LINE
  8
0
 62
     0
 10
51.6246
 20
27.1456
 30
0.0
 11
64.1253
 21
27.1456
 31
0.0
  0
LINE
  8
0
 62
     0
 10
64.1253
 20
27.1456
 30
0.0
 11
69.2053
 21
29.0678
 31
0.0
  0
LINE
  8
0
 62
     0
 10
69.2053
 20
29.0678
 30
0.0
 11
67.205
 21
26.5683
 31
0.0
  0
LINE
  8
0
 62
     0
 10
67.205
 20
26.5683
 30
0.0
 11
71.2051
 21
26.5683
 31
0.0
  0
LINE
  8
0
 62
     0
 10
71.2051
 20
26.5683
 30
0.0
 11
69.2053
 21
29.0678
 31
0.0
  0
LINE
  8
0
 62
     0
 10
69.2053
 20
29.0678
 30
0.0
 11
76.626
 21
27.1456
 31
0.0
  0
LINE
  8
0
 62
     7
 10
76.626
 20
50.0622
 30
0.0
 11
101.625
 21
50.0622
 31
0.0
  0
LINE
  8
0
 62
     7
 10
101.625
 20
50.0622
 30
0.0
 11
101.625
 21
25.0631
 31
0.0
  0
LINE
  8
0
 62
     7
 10
101.625
 20
25.0631
 30
0.0
 11
76.626
 21
25.0631
 31
0.0
  0
LINE
  8
0
 62
     7
 10
76.626
 20
25.0631
 30
0.0
 11
76.626
 21
50.0622
 31
0.0
  0
LINE
  8
0
 62
     0
 10
76.626
 20
43.8125
 30
0.0
 11
80.7944
 21
43.1872
 31
0.0
  0
LINE
  8
0
 62
     0
 10
101.625
 20
43.8125
 30
0.0
 11
97.4567
 21
43.1872
 31
0.0
  0
LINE
  8
0
 62
     0
 10
76.626
 20
39.6458
 30
0.0
 11
80.7944
 21
39.4372
 31
0.0
  0
LINE
  8
0
 62
     0
 10
101.625
 20
39.6458
 30
0.0
 11
97.4567
 21
39.4372
 31
0.0
  0
LINE
  8
0
 62
     0
 10
76.626
 20
47.9797
 30
0.0
 11
101.625
 21
47.9797
 31
0.0
  0
LINE
  8
0
 62
     0
 10
76.626
 20
35.479
 30
0.0
 11
80.7944
 21
35.6876
 31
0.0
  0
LINE
  8
0
 62
     0
 10
80.7944
 20
35.6876
 30
0.0
 11
97.4567
 21
35.6876
 31
0.0
  0
LINE
  8
0
 62
     0
 10
101.625
 20
35.479
 30
0.0
 11
97.4567
 21
31.9376
 31
0.0
  0
LINE
  8
0
 62
     0
 10
76.626
 20
31.3124
 30
0.0
 11
80.7944
 21
31.9376
 31
0.0
  0
LINE
  8
0
 62
     0
 10
80.7944
 20
31.9376
 30
0.0
 11
78.7947
 21
34.4371
 31
0.0
  0
LINE
  8
0
 62
     0
 10
78.7947
 20
34.4371
 30
0.0
 11
82.7943
 21
34.4371
 31
0.0
  0
LINE
  8
0
 62
     0
 10
82.7943
 20
34.4371
 30
0.0
 11
80.7944
 21
31.9376
 31
0.0
  0
LINE
  8
0
 62
     0
 10
80.7944
 20
31.9376
 30
0.0
 11
89.1244
 21
31.3124
 31
0.0
  0
LINE
  8
0
 62
     0
 10
89.1244
 20
31.3124
 30
0.0
 11
97.4567
 21
30.5318
 31
0.0
  0
LINE
  8
0
 62
     0
 10
97.4567
 20
30.5318
 30
0.0
 11
101.625
 21
31.3124
 31
0.0
  0
LINE
  8
0
 62
     0
 10
76.626
 20
27.1456
 30
0.0
 11
89.1244
 21
27.1456
 31
0.0
  0
LINE
  8
0
 62
     0
 10
89.1244
 20
27.1456
 30
0.0
 11
94.2044
 21
29.0678
 31
0.0
  0
LINE
  8
0
 62
     0
 10
94.2044
 20
29.0678
 30
0.0
 11
92.2046
 21
26.5683
 31
0.0
  0
LINE
  8
0
 62
     0
 10
92.2046
 20
26.5683
 30
0.0
 11
96.2061
 21
26.5683
 31
0.0
  0
LINE
  8
0
 62
     0
 10
96.2061
 20
26.5683
 30
0.0
 11
94.2044
 21
29.0678
 31
0.0
  0
LINE
  8
0
 62
     0
 10
94.2044
 20
29.0678
 30
0.0
 11
101.625
 21
27.1456
 31
0.0
  0
LINE
  8
0
 62
     7
 10
101.625
 20
50.0622
 30
0.0
 11
126.626
 21
50.0622
 31
0.0
  0
LINE
  8
0
 62
     7
 10
126.626
 20
50.0622
 30
0.0
 11
126.626
 21
25.0631
 31
0.0
  0
LINE
  8
0
 62
     7
 10
126.626
 20
25.0631
 30
0.0
 11
101.625
 21
25.0631
 31
0.0
  0
LINE
  8
0
 62
     7
 10
101.625
 20
25.0631
 30
0.0
 11
101.625
 21
50.0622
 31
0.0
  0
LINE
  8
0
 62
     0
 10
101.625
 20
43.8125
 30
0.0
 11
105.794
 21
43.1872
 31
0.0
  0
LINE
  8
0
 62
     0
 10
126.626
 20
43.8125
 30
0.0
 11
122.458
 21
43.1872
 31
0.0
  0
LINE
  8
0
 62
     0
 10
101.625
 20
39.6458
 30
0.0
 11
105.794
 21
39.4372
 31
0.0
  0
LINE
  8
0
 62
     0
 10
126.626
 20
39.6458
 30
0.0
 11
122.458
 21
39.4372
 31
0.0
  0
LINE
  8
0
 62
     0
 10
101.625
 20
47.9797
 30
0.0
 11
126.626
 21
47.9797
 31
0.0
  0
LINE
  8
0
 62
     0
 10
101.625
 20
35.479
 30
0.0
 11
105.794
 21
35.6876
 31
0.0
  0
LINE
  8
0
 62
     0
 10
105.794
 20
35.6876
 30
0.0
 11
122.458
 21
35.6876
 31
0.0
  0
LINE
  8
0
 62
     0
 10
126.626
 20
35.479
 30
0.0
 11
122.458
 21
31.9376
 31
0.0
  0
LINE
  8
0
 62
     0
 10
101.625
 20
31.3124
 30
0.0
 11
105.794
 21
31.9376
 31
0.0
  0
LINE
  8
0
 62
     0
 10
105.794
 20
31.9376
 30
0.0
 11
103.794
 21
34.4371
 31
0.0
  0
LINE
  8
0
 62
     0
 10
103.794
 20
34.4371
 30
0.0
 11
107.795
 21
34.4371
 31
0.0
  0
LINE
  8
0
 62
     0
 10
107.795
 20
34.4371
 30
0.0
 11
105.794
 21
31.9376
 31
0.0
  0
LINE
  8
0
 62
     0
 10
105.794
 20
31.9376
 30
0.0
 11
114.126
 21
31.3124
 31
0.0
  0
LINE
  8
0
 62
     0
 10
114.126
 20
31.3124
 30
0.0
 11
122.458
 21
30.5318
 31
0.0
  0
LINE
  8
0
 62
     0
 10
122.458
 20
30.5318
 30
0.0
 11
126.626
 21
31.3124
 31
0.0
  0
LINE
  8
0
 62
     0
 10
101.625
 20
27.1456
 30
0.0
 11
114.126
 21
27.1456
 31
0.0
  0
LINE
  8
0
 62
     0
 10
114.126
 20
27.1456
 30
0.0
 11
119.205
 21
29.0678
 31
0.0
  0
LINE
  8
0
 62
     0
 10
119.205
 20
29.0678
 30
0.0
 11
117.206
 21
26.5683
 31
0.0
  0
LINE
  8
0
 62
     0
 10
117.206
 20
26.5683
 30
0.0
 11
121.205
 21
26.5683
 31
0.0
  0
LINE
  8
0
 62
     0
 10
121.205
 20
26.5683
 30
0.0
 11
119.205
 21
29.0678
 31
0.0
  0
LINE
  8
0
 62
     0
 10
119.205
 20
29.0678
 30
0.0
 11
126.626
 21
27.1456
 31
0.0
  0
LINE
  8
0
 62
     7
 10
126.624
 20
50.0622
 30
0.0
 11
151.625
 21
50.0622
 31
0.0
  0
LINE
  8
0
 62
     7
 10
151.625
 20
50.0622
 30
0.0
 11
151.625
 21
25.0631
 31
0.0
  0
LINE
  8
0
 62
     7
 10
151.625
 20
25.0631
 30
0.0
 11
126.624
 21
25.0631
 31
0.0
  0
LINE
  8
0
 62
     7
 10
126.624
 20
25.0631
 30
0.0
 11
126.624
 21
50.0622
 31
0.0
  0
LINE
  8
0
 62
     0
 10
126.624
 20
43.8125
 30
0.0
 11
130.793
 21
43.1872
 31
0.0
  0
LINE
  8
0
 62
     0
 10
151.625
 20
43.8125
 30
0.0
 11
147.457
 21
43.1872
 31
0.0
  0
LINE
  8
0
 62
     0
 10
126.624
 20
39.6458
 30
0.0
 11
130.793
 21
39.4372
 31
0.0
  0
LINE
  8
0
 62
     0
 10
151.625
 20
39.6458
 30
0.0
 11
147.457
 21
39.4372
 31
0.0
  0
LINE
  8
0
 62
     0
 10
126.624
 20
47.9797
 30
0.0
 11
151.625
 21
47.9797
 31
0.0
  0
LINE
  8
0
 62
     0
 10
126.624
 20
35.479
 30
0.0
 11
130.793
 21
35.6876
 31
0.0
  0
LINE
  8
0
 62
     0
 10
130.793
 20
35.6876
 30
0.0
 11
147.457
 21
35.6876
 31
0.0
  0
LINE
  8
0
 62
     0
 10
151.625
 20
35.479
 30
0.0
 11
147.457
 21
31.9376
 31
0.0
  0
LINE
  8
0
 62
     0
 10
126.624
 20
31.3124
 30
0.0
 11
130.793
 21
31.9376
 31
0.0
  0
LINE
  8
0
 62
     0
 10
130.793
 20
31.9376
 30
0.0
 11
128.795
 21
34.4371
 31
0.0
  0
LINE
  8
0
 62
     0
 10
128.795
 20
34.4371
 30
0.0
 11
132.795
 21
34.4371
 31
0.0
  0
LINE
  8
0
 62
     0
 10
132.795
 20
34.4371
 30
0.0
 11
130.793
 21
31.9376
 31
0.0
  0
LINE
  8
0
 62
     0
 10
130.793
 20
31.9376
 30
0.0
 11
139.125
 21
31.3124
 31
0.0
  0
LINE
  8
0
 62
     0
 10
139.125
 20
31.3124
 30
0.0
 11
147.457
 21
30.5318
 31
0.0
  0
LINE
  8
0
 62
     0
 10
147.457
 20
30.5318
 30
0.0
 11
151.625
 21
31.3124
 31
0.0
  0
LINE
  8
0
 62
     0
 10
126.624
 20
27.1456
 30
0.0
 11
139.125
 21
27.1456
 31
0.0
  0
LINE
  8
0
 62
     0
 10
139.125
 20
27.1456
 30
0.0
 11
144.206
 21
29.0678
 31
0.0
  0
LINE
  8
0
 62
     0
 10
144.206
 20
29.0678
 30
0.0
 11
142.204
 21
26.5683
 31
0.0
  0
LINE
  8
0
 62
     0
 10
142.204
 20
26.5683
 30
0.0
 11
146.207
 21
26.5683
 31
0.0
  0
LINE
  8
0
 62
     0
 10
146.207
 20
26.5683
 30
0.0
 11
144.206
 21
29.0678
 31
0.0
  0
LINE
  8
0
 62
     0
 10
144.206
 20
29.0678
 30
0.0
 11
151.625
 21
27.1456
 31
0.0
  0
LINE
  8
0
 62
     7
 10
151.625
 20
50.0622
 30
0.0
 11
176.625
 21
50.0622
 31
0.0
  0
LINE
  8
0
 62
     7
 10
176.625
 20
50.0622
 30
0.0
 11
176.625
 21
25.0631
 31
0.0
  0
LINE
  8
0
 62
     7
 10
176.625
 20
25.0631
 30
0.0
 11
151.625
 21
25.0631
 31
0.0
  0
LINE
  8
0
 62
     7
 10
151.625
 20
25.0631
 30
0.0
 11
151.625
 21
50.0622
 31
0.0
  0
LINE
  8
0
 62
     0
 10
151.625
 20
43.8125
 30
0.0
 11
155.794
 21
43.1872
 31
0.0
  0
LINE
  8
0
 62
     0
 10
176.625
 20
43.8125
 30
0.0
 11
172.457
 21
43.1872
 31
0.0
  0
LINE
  8
0
 62
     0
 10
151.625
 20
39.6458
 30
0.0
 11
155.794
 21
39.4372
 31
0.0
  0
LINE
  8
0
 62
     0
 10
176.625
 20
39.6458
 30
0.0
 11
172.457
 21
39.4372
 31
0.0
  0
LINE
  8
0
 62
     0
 10
151.625
 20
47.9797
 30
0.0
 11
176.625
 21
47.9797
 31
0.0
  0
LINE
  8
0
 62
     0
 10
151.625
 20
35.479
 30
0.0
 11
155.794
 21
35.6876
 31
0.0
  0
LINE
  8
0
 62
     0
 10
155.794
 20
35.6876
 30
0.0
 11
172.457
 21
35.6876
 31
0.0
  0
LINE
  8
0
 62
     0
 10
176.625
 20
35.479
 30
0.0
 11
172.457
 21
31.9376
 31
0.0
  0
LINE
  8
0
 62
     0
 10
151.625
 20
31.3124
 30
0.0
 11
155.794
 21
31.9376
 31
0.0
  0
LINE
  8
0
 62
     0
 10
155.794
 20
31.9376
 30
0.0
 11
153.794
 21
34.4371
 31
0.0
  0
LINE
  8
0
 62
     0
 10
153.794
 20
34.4371
 30
0.0
 11
157.794
 21
34.4371
 31
0.0
  0
LINE
  8
0
 62
     0
 10
157.794
 20
34.4371
 30
0.0
 11
155.794
 21
31.9376
 31
0.0
  0
LINE
  8
0
 62
     0
 10
155.794
 20
31.9376
 30
0.0
 11
164.126
 21
31.3124
 31
0.0
  0
LINE
  8
0
 62
     0
 10
164.126
 20
31.3124
 30
0.0
 11
172.457
 21
30.5318
 31
0.0
  0
LINE
  8
0
 62
     0
 10
172.457
 20
30.5318
 30
0.0
 11
176.625
 21
31.3124
 31
0.0
  0
LINE
  8
0
 62
     0
 10
151.625
 20
27.1456
 30
0.0
 11
164.126
 21
27.1456
 31
0.0
  0
LINE
  8
0
 62
     0
 10
164.126
 20
27.1456
 30
0.0
 11
169.204
 21
29.0678
 31
0.0
  0
LINE
  8
0
 62
     0
 10
169.204
 20
29.0678
 30
0.0
 11
167.206
 21
26.5683
 31
0.0
  0
LINE
  8
0
 62
     0
 10
167.206
 20
26.5683
 30
0.0
 11
171.206
 21
26.5683
 31
0.0
  0
LINE
  8
0
 62
     0
 10
171.206
 20
26.5683
 30
0.0
 11
169.204
 21
29.0678
 31
0.0
  0
LINE
  8
0
 62
     0
 10
169.204
 20
29.0678
 30
0.0
 11
176.625
 21
27.1456
 31
0.0
  0
LINE
  8
0
 62
     7
 10
176.625
 20
50.0622
 30
0.0
 11
201.626
 21
50.0622
 31
0.0
  0
LINE
  8
0
 62
     7
 10
201.626
 20
50.0622
 30
0.0
 11
201.626
 21
25.0631
 31
0.0
  0
LINE
  8
0
 62
     7
 10
201.626
 20
25.0631
 30
0.0
 11
176.625
 21
25.0631
 31
0.0
  0
LINE
  8
0
 62
     7
 10
176.625
 20
25.0631
 30
0.0
 11
176.625
 21
50.0622
 31
0.0
  0
LINE
  8
0
 62
     0
 10
176.625
 20
43.8125
 30
0.0
 11
180.793
 21
43.1872
 31
0.0
  0
LINE
  8
0
 62
     0
 10
201.626
 20
43.8125
 30
0.0
 11
197.457
 21
43.1872
 31
0.0
  0
LINE
  8
0
 62
     0
 10
176.625
 20
39.6458
 30
0.0
 11
180.793
 21
39.4372
 31
0.0
  0
LINE
  8
0
 62
     0
 10
201.626
 20
39.6458
 30
0.0
 11
197.457
 21
39.4372
 31
0.0
  0
LINE
  8
0
 62
     0
 10
176.625
 20
47.9797
 30
0.0
 11
201.626
 21
47.9797
 31
0.0
  0
LINE
  8
0
 62
     0
 10
176.625
 20
35.479
 30
0.0
 11
180.793
 21
35.6876
 31
0.0
  0
LINE
  8
0
 62
     0
 10
180.793
 20
35.6876
 30
0.0
 11
197.457
 21
35.6876
 31
0.0
  0
LINE
  8
0
 62
     0
 10
201.626
 20
35.479
 30
0.0
 11
197.457
 21
31.9376
 31
0.0
  0
LINE
  8
0
 62
     0
 10
176.625
 20
31.3124
 30
0.0
 11
180.793
 21
31.9376
 31
0.0
  0
LINE
  8
0
 62
     0
 10
180.793
 20
31.9376
 30
0.0
 11
178.793
 21
34.4371
 31
0.0
  0
LINE
  8
0
 62
     0
 10
178.793
 20
34.4371
 30
0.0
 11
182.794
 21
34.4371
 31
0.0
  0
LINE
  8
0
 62
     0
 10
182.794
 20
34.4371
 30
0.0
 11
180.793
 21
31.9376
 31
0.0
  0
LINE
  8
0
 62
     0
 10
180.793
 20
31.9376
 30
0.0
 11
189.125
 21
31.3124
 31
0.0
  0
LINE
  8
0
 62
     0
 10
189.125
 20
31.3124
 30
0.0
 11
197.457
 21
30.5318
 31
0.0
  0
LINE
  8
0
 62
     0
 10
197.457
 20
30.5318
 30
0.0
 11
201.626
 21
31.3124
 31
0.0
  0
LINE
  8
0
 62
     0
 10
176.625
 20
27.1456
 30
0.0
 11
189.125
 21
27.1456
 31
0.0
  0
LINE
  8
0
 62
     0
 10
189.125
 20
27.1456
 30
0.0
 11
194.206
 21
29.0678
 31
0.0
  0
LINE
  8
0
 62
     0
 10
194.206
 20
29.0678
 30
0.0
 11
192.206
 21
26.5683
 31
0.0
  0
LINE
  8
0
 62
     0
 10
192.206
 20
26.5683
 30
0.0
 11
196.206
 21
26.5683
 31
0.0
  0
LINE
  8
0
 62
     0
 10
196.206
 20
26.5683
 30
0.0
 11
194.206
 21
29.0678
 31
0.0
  0
LINE
  8
0
 62
     0
 10
194.206
 20
29.0678
 30
0.0
 11
201.626
 21
27.1456
 31
0.0
  0
LINE
  8
0
 62
     7
 10
201.626
 20
50.0622
 30
0.0
 11
226.625
 21
50.0622
 31
0.0
  0
LINE
  8
0
 62
     7
 10
226.625
 20
50.0622
 30
0.0
 11
226.625
 21
25.0631
 31
0.0
  0
LINE
  8
0
 62
     7
 10
226.625
 20
25.0631
 30
0.0
 11
201.626
 21
25.0631
 31
0.0
  0
LINE
  8
0
 62
     7
 10
201.626
 20
25.0631
 30
0.0
 11
201.626
 21
50.0622
 31
0.0
  0
LINE
  8
0
 62
     0
 10
201.626
 20
43.8125
 30
0.0
 11
205.794
 21
43.1872
 31
0.0
  0
LINE
  8
0
 62
     0
 10
201.626
 20
39.6458
 30
0.0
 11
205.794
 21
39.4372
 31
0.0
  0
LINE
  8
0
 62
     0
 10
201.626
 20
47.9797
 30
0.0
 11
226.625
 21
47.9797
 31
0.0
  0
LINE
  8
0
 62
     0
 10
226.625
 20
47.9797
 30
0.0
 11
226.625
 21
35.479
 31
0.0
  0
LINE
  8
0
 62
     0
 10
201.626
 20
35.479
 30
0.0
 11
205.794
 21
35.6876
 31
0.0
  0
LINE
  8
0
 62
     0
 10
205.794
 20
35.6876
 30
0.0
 11
222.457
 21
35.6876
 31
0.0
  0
LINE
  8
0
 62
     0
 10
226.625
 20
35.479
 30
0.0
 11
222.457
 21
31.9376
 31
0.0
  0
LINE
  8
0
 62
     0
 10
201.626
 20
31.3124
 30
0.0
 11
205.794
 21
31.9376
 31
0.0
  0
LINE
  8
0
 62
     0
 10
201.626
 20
27.1456
 30
0.0
 11
214.125
 21
27.1456
 31
0.0
  0
LINE
  8
0
 62
     0
 10
214.125
 20
27.1456
 30
0.0
 11
219.204
 21
29.0678
 31
0.0
  0
LINE
  8
0
 62
     7
 10
1.62457
 20
25.0626
 30
0.0
 11
26.6256
 21
25.0626
 31
0.0
  0
LINE
  8
0
 62
     7
 10
26.6256
 20
25.0626
 30
0.0
 11
26.6256
 21
0.0617404
 31
0.0
  0
LINE
  8
0
 62
     7
 10
26.6256
 20
0.0617404
 30
0.0
 11
1.62457
 21
0.0617404
 31
0.0
  0
LINE
  8
0
 62
     7
 10
1.62457
 20
0.0617404
 30
0.0
 11
1.62457
 21
25.0626
 31
0.0
  0
LINE
  8
0
 62
     0
 10
20.3743
 20
25.0629
 30
0.0
 11
20.3743
 21
18.8135
 31
0.0
  0
LINE
  8
0
 62
     0
 10
20.3743
 20
18.8135
 30
0.0
 11
26.6256
 21
18.8135
 31
0.0
  0
LINE
  8
0
 62
     0
 10
16.2093
 20
25.0629
 30
0.0
 11
16.2093
 21
14.6467
 31
0.0
  0
LINE
  8
0
 62
     0
 10
16.2093
 20
14.6467
 30
0.0
 11
26.6256
 21
14.6467
 31
0.0
  0
LINE
  8
0
 62
     0
 10
26.6256
 20
22.9785
 30
0.0
 11
24.541
 21
22.9785
 31
0.0
  0
LINE
  8
0
 62
     0
 10
24.541
 20
22.9785
 30
0.0
 11
24.541
 21
25.0629
 31
0.0
  0
LINE
  8
0
 62
     0
 10
12.0425
 20
25.0629
 30
0.0
 11
12.0425
 21
10.4781
 31
0.0
  0
LINE
  8
0
 62
     0
 10
12.0425
 20
10.4781
 30
0.0
 11
26.6256
 21
10.4781
 31
0.0
  0
LINE
  8
0
 62
     0
 10
7.87354
 20
25.0629
 30
0.0
 11
7.87354
 21
6.31272
 31
0.0
  0
LINE
  8
0
 62
     0
 10
7.87354
 20
6.31272
 30
0.0
 11
26.6256
 21
6.31272
 31
0.0
  0
LINE
  8
0
 62
     0
 10
3.70856
 20
25.0629
 30
0.0
 11
3.70856
 21
2.146
 31
0.0
  0
LINE
  8
0
 62
     0
 10
3.70856
 20
2.146
 30
0.0
 11
26.6256
 21
2.146
 31
0.0
  0
LINE
  8
0
 62
     7
 10
26.6256
 20
25.0626
 30
0.0
 11
51.6246
 21
25.0626
 31
0.0
  0
LINE
  8
0
 62
     7
 10
51.6246
 20
25.0626
 30
0.0
 11
51.6246
 21
0.0617404
 31
0.0
  0
LINE
  8
0
 62
     7
 10
51.6246
 20
0.0617404
 30
0.0
 11
26.6256
 21
0.0617404
 31
0.0
  0
LINE
  8
0
 62
     7
 10
26.6256
 20
0.0617404
 30
0.0
 11
26.6256
 21
25.0626
 31
0.0
  0
LINE
  8
0
 62
     0
 10
26.6256
 20
18.8135
 30
0.0
 11
30.794
 21
18.1881
 31
0.0
  0
LINE
  8
0
 62
     0
 10
51.6246
 20
18.8135
 30
0.0
 11
47.4561
 21
18.1881
 31
0.0
  0
LINE
  8
0
 62
     0
 10
26.6256
 20
14.6467
 30
0.0
 11
30.794
 21
14.4381
 31
0.0
  0
LINE
  8
0
 62
     0
 10
51.6246
 20
14.6467
 30
0.0
 11
47.4561
 21
14.4381
 31
0.0
  0
LINE
  8
0
 62
     0
 10
26.6256
 20
22.9785
 30
0.0
 11
51.6246
 21
22.9785
 31
0.0
  0
LINE
  8
0
 62
     0
 10
26.6256
 20
10.4781
 30
0.0
 11
30.794
 21
10.688
 31
0.0
  0
LINE
  8
0
 62
     0
 10
30.794
 20
10.688
 30
0.0
 11
47.4561
 21
10.688
 31
0.0
  0
LINE
  8
0
 62
     0
 10
51.6246
 20
10.4781
 30
0.0
 11
47.4561
 21
6.93625
 31
0.0
  0
LINE
  8
0
 62
     0
 10
26.6256
 20
6.31272
 30
0.0
 11
30.794
 21
6.93625
 31
0.0
  0
LINE
  8
0
 62
     0
 10
30.794
 20
6.93625
 30
0.0
 11
28.7942
 21
9.43744
 31
0.0
  0
LINE
  8
0
 62
     0
 10
28.7942
 20
9.43744
 30
0.0
 11
32.7937
 21
9.43744
 31
0.0
  0
LINE
  8
0
 62
     0
 10
32.7937
 20
9.43744
 30
0.0
 11
30.794
 21
6.93625
 31
0.0
  0
LINE
  8
0
 62
     0
 10
30.794
 20
6.93625
 30
0.0
 11
39.1261
 21
6.31272
 31
0.0
  0
LINE
  8
0
 62
     0
 10
39.1261
 20
6.31272
 30
0.0
 11
47.4561
 21
5.53087
 31
0.0
  0
LINE
  8
0
 62
     0
 10
47.4561
 20
5.53087
 30
0.0
 11
51.6246
 21
6.31272
 31
0.0
  0
LINE
  8
0
 62
     0
 10
26.6256
 20
2.146
 30
0.0
 11
39.1261
 21
2.146
 31
0.0
  0
LINE
  8
0
 62
     0
 10
39.1261
 20
2.146
 30
0.0
 11
44.2039
 21
4.06819
 31
0.0
  0
LINE
  8
0
 62
     0
 10
44.2039
 20
4.06819
 30
0.0
 11
42.2058
 21
1.56917
 31
0.0
  0
LINE
  8
0
 62
     0
 10
42.2058
 20
1.56917
 30
0.0
 11
46.2056
 21
1.56917
 31
0.0
  0
LINE
  8
0
 62
     0
 10
46.2056
 20
1.56917
 30
0.0
 11
44.2039
 21
4.06819
 31
0.0
  0
LINE
  8
0
 62
     0
 10
44.2039
 20
4.06819
 30
0.0
 11
51.6246
 21
2.146
 31
0.0
  0
LINE
  8
0
 62
     7
 10
51.6246
 20
25.0626
 30
0.0
 11
76.6256
 21
25.0626
 31
0.0
  0
LINE
  8
0
 62
     7
 10
76.6256
 20
25.0626
 30
0.0
 11
76.6256
 21
0.0617404
 31
0.0
  0
LINE
  8
0
 62
     7
 10
76.6256
 20
0.0617404
 30
0.0
 11
51.6246
 21
0.0617404
 31
0.0
  0
LINE
  8
0
 62
     7
 10
51.6246
 20
0.0617404
 30
0.0
 11
51.6246
 21
25.0626
 31
0.0
  0
LINE
  8
0
 62
     0
 10
51.6246
 20
18.8135
 30
0.0
 11
55.7932
 21
18.1881
 31
0.0
  0
LINE
  8
0
 62
     0
 10
76.626
 20
18.8135
 30
0.0
 11
72.4571
 21
18.1881
 31
0.0
  0
LINE
  8
0
 62
     0
 10
51.6246
 20
14.6467
 30
0.0
 11
55.7932
 21
14.4381
 31
0.0
  0
LINE
  8
0
 62
     0
 10
76.626
 20
14.6467
 30
0.0
 11
72.4571
 21
14.4381
 31
0.0
  0
LINE
  8
0
 62
     0
 10
51.6246
 20
22.9785
 30
0.0
 11
76.626
 21
22.9785
 31
0.0
  0
LINE
  8
0
 62
     0
 10
51.6246
 20
10.4781
 30
0.0
 11
55.7932
 21
10.688
 31
0.0
  0
LINE
  8
0
 62
     0
 10
55.7932
 20
10.688
 30
0.0
 11
72.4571
 21
10.688
 31
0.0
  0
LINE
  8
0
 62
     0
 10
76.626
 20
10.4781
 30
0.0
 11
72.4571
 21
6.93625
 31
0.0
  0
LINE
  8
0
 62
     0
 10
51.6246
 20
6.31272
 30
0.0
 11
55.7932
 21
6.93625
 31
0.0
  0
LINE
  8
0
 62
     0
 10
55.7932
 20
6.93625
 30
0.0
 11
53.7933
 21
9.43744
 31
0.0
  0
LINE
  8
0
 62
     0
 10
53.7933
 20
9.43744
 30
0.0
 11
57.7947
 21
9.43744
 31
0.0
  0
LINE
  8
0
 62
     0
 10
57.7947
 20
9.43744
 30
0.0
 11
55.7932
 21
6.93625
 31
0.0
  0
LINE
  8
0
 62
     0
 10
55.7932
 20
6.93625
 30
0.0
 11
64.1253
 21
6.31272
 31
0.0
  0
LINE
  8
0
 62
     0
 10
64.1253
 20
6.31272
 30
0.0
 11
72.4571
 21
5.53087
 31
0.0
  0
LINE
  8
0
 62
     0
 10
72.4571
 20
5.53087
 30
0.0
 11
76.626
 21
6.31272
 31
0.0
  0
LINE
  8
0
 62
     0
 10
51.6246
 20
2.146
 30
0.0
 11
64.1253
 21
2.146
 31
0.0
  0
LINE
  8
0
 62
     0
 10
64.1253
 20
2.146
 30
0.0
 11
69.2053
 21
4.06819
 31
0.0
  0
LINE
  8
0
 62
     0
 10
69.2053
 20
4.06819
 30
0.0
 11
67.205
 21
1.56917
 31
0.0
  0
LINE
  8
0
 62
     0
 10
67.205
 20
1.56917
 30
0.0
 11
71.2051
 21
1.56917
 31
0.0
  0
LINE
  8
0
 62
     0
 10
71.2051
 20
1.56917
 30
0.0
 11
69.2053
 21
4.06819
 31
0.0
  0
LINE
  8
0
 62
     0
 10
69.2053
 20
4.06819
 30
0.0
 11
76.626
 21
2.146
 31
0.0
  0
LINE
  8
0
 62
     7
 10
76.626
 20
25.0626
 30
0.0
 11
101.625
 21
25.0626
 31
0.0
  0
LINE
  8
0
 62
     7
 10
101.625
 20
25.0626
 30
0.0
 11
101.625
 21
0.0617404
 31
0.0
  0
LINE
  8
0
 62
     7
 10
101.625
 20
0.0617404
 30
0.0
 11
76.626
 21
0.0617404
 31
0.0
  0
LINE
  8
0
 62
     7
 10
76.626
 20
0.0617404
 30
0.0
 11
76.626
 21
25.0626
 31
0.0
  0
LINE
  8
0
 62
     0
 10
76.626
 20
18.8135
 30
0.0
 11
80.7944
 21
18.1881
 31
0.0
  0
LINE
  8
0
 62
     0
 10
101.625
 20
18.8135
 30
0.0
 11
97.4567
 21
18.1881
 31
0.0
  0
LINE
  8
0
 62
     0
 10
76.626
 20
14.6467
 30
0.0
 11
80.7944
 21
14.4381
 31
0.0
  0
LINE
  8
0
 62
     0
 10
101.625
 20
14.6467
 30
0.0
 11
97.4567
 21
14.4381
 31
0.0
  0
LINE
  8
0
 62
     0
 10
76.626
 20
22.9785
 30
0.0
 11
101.625
 21
22.9785
 31
0.0
  0
LINE
  8
0
 62
     0
 10
76.626
 20
10.4781
 30
0.0
 11
80.7944
 21
10.688
 31
0.0
  0
LINE
  8
0
 62
     0
 10
80.7944
 20
10.688
 30
0.0
 11
97.4567
 21
10.688
 31
0.0
  0
LINE
  8
0
 62
     0
 10
101.625
 20
10.4781
 30
0.0
 11
97.4567
 21
6.93625
 31
0.0
  0
LINE
  8
0
 62
     0
 10
76.626
 20
6.31272
 30
0.0
 11
80.7944
 21
6.93625
 31
0.0
  0
LINE
  8
0
 62
     0
 10
80.7944
 20
6.93625
 30
0.0
 11
78.7947
 21
9.43744
 31
0.0
  0
LINE
  8
0
 62
     0
 10
78.7947
 20
9.43744
 30
0.0
 11
82.7943
 21
9.43744
 31
0.0
  0
LINE
  8
0
 62
     0
 10
82.7943
 20
9.43744
 30
0.0
 11
80.7944
 21
6.93625
 31
0.0
  0
LINE
  8
0
 62
     0
 10
80.7944
 20
6.93625
 30
0.0
 11
89.1244
 21
6.31272
 31
0.0
  0
LINE
  8
0
 62
     0
 10
89.1244
 20
6.31272
 30
0.0
 11
97.4567
 21
5.53087
 31
0.0
  0
LINE
  8
0
 62
     0
 10
97.4567
 20
5.53087
 30
0.0
 11
101.625
 21
6.31272
 31
0.0
  0
LINE
  8
0
 62
     0
 10
76.626
 20
2.146
 30
0.0
 11
89.1244
 21
2.146
 31
0.0
  0
LINE
  8
0
 62
     0
 10
89.1244
 20
2.146
 30
0.0
 11
94.2044
 21
4.06819
 31
0.0
  0
LINE
  8
0
 62
     0
 10
94.2044
 20
4.06819
 30
0.0
 11
92.2046
 21
1.56917
 31
0.0
  0
LINE
  8
0
 62
     0
 10
92.2046
 20
1.56917
 30
0.0
 11
96.2061
 21
1.56917
 31
0.0
  0
LINE
  8
0
 62
     0
 10
96.2061
 20
1.56917
 30
0.0
 11
94.2044
 21
4.06819
 31
0.0
  0
LINE
  8
0
 62
     0
 10
94.2044
 20
4.06819
 30
0.0
 11
101.625
 21
2.146
 31
0.0
  0
LINE
  8
0
 62
     7
 10
101.625
 20
25.0626
 30
0.0
 11
126.626
 21
25.0626
 31
0.0
  0
LINE
  8
0
 62
     7
 10
126.626
 20
25.0626
 30
0.0
 11
126.626
 21
0.0617404
 31
0.0
  0
LINE
  8
0
 62
     7
 10
126.626
 20
0.0617404
 30
0.0
 11
101.625
 21
0.0617404
 31
0.0
  0
LINE
  8
0
 62
     7
 10
101.625
 20
0.0617404
 30
0.0
 11
101.625
 21
25.0626
 31
0.0
  0
LINE
  8
0
 62
     0
 10
101.625
 20
18.8135
 30
0.0
 11
105.794
 21
18.1881
 31
0.0
  0
LINE
  8
0
 62
     0
 10
126.626
 20
18.8135
 30
0.0
 11
122.458
 21
18.1881
 31
0.0
  0
LINE
  8
0
 62
     0
 10
101.625
 20
14.6467
 30
0.0
 11
105.794
 21
14.4381
 31
0.0
  0
LINE
  8
0
 62
     0
 10
126.626
 20
14.6467
 30
0.0
 11
122.458
 21
14.4381
 31
0.0
  0
LINE
  8
0
 62
     0
 10
101.625
 20
22.9785
 30
0.0
 11
126.626
 21
22.9785
 31
0.0
  0
LINE
  8
0
 62
     0
 10
101.625
 20
10.4781
 30
0.0
 11
105.794
 21
10.688
 31
0.0
  0
LINE
  8
0
 62
     0
 10
105.794
 20
10.688
 30
0.0
 11
122.458
 21
10.688
 31
0.0
  0
LINE
  8
0
 62
     0
 10
126.626
 20
10.4781
 30
0.0
 11
122.458
 21
6.93625
 31
0.0
  0
LINE
  8
0
 62
     0
 10
101.625
 20
6.31272
 30
0.0
 11
105.794
 21
6.93625
 31
0.0
  0
LINE
  8
0
 62
     0
 10
105.794
 20
6.93625
 30
0.0
 11
103.794
 21
9.43744
 31
0.0
  0
LINE
  8
0
 62
     0
 10
103.794
 20
9.43744
 30
0.0
 11
107.795
 21
9.43744
 31
0.0
  0
LINE
  8
0
 62
     0
 10
107.795
 20
9.43744
 30
0.0
 11
105.794
 21
6.93625
 31
0.0
  0
LINE
  8
0
 62
     0
 10
105.794
 20
6.93625
 30
0.0
 11
114.126
 21
6.31272
 31
0.0
  0
LINE
  8
0
 62
     0
 10
114.126
 20
6.31272
 30
0.0
 11
122.458
 21
5.53087
 31
0.0
  0
LINE
  8
0
 62
     0
 10
122.458
 20
5.53087
 30
0.0
 11
126.626
 21
6.31272
 31
0.0
  0
LINE
  8
0
 62
     0
 10
101.625
 20
2.146
 30
0.0
 11
114.126
 21
2.146
 31
0.0
  0
LINE
  8
0
 62
     0
 10
114.126
 20
2.146
 30
0.0
 11
119.205
 21
4.06819
 31
0.0
  0
LINE
  8
0
 62
     0
 10
119.205
 20
4.06819
 30
0.0
 11
117.206
 21
1.56917
 31
0.0
  0
LINE
  8
0
 62
     0
 10
117.206
 20
1.56917
 30
0.0
 11
121.205
 21
1.56917
 31
0.0
  0
LINE
  8
0
 62
     0
 10
121.205
 20
1.56917
 30
0.0
 11
119.205
 21
4.06819
 31
0.0
  0
LINE
  8
0
 62
     0
 10
119.205
 20
4.06819
 30
0.0
 11
126.626
 21
2.146
 31
0.0
  0
LINE
  8
0
 62
     7
 10
126.624
 20
25.0626
 30
0.0
 11
151.625
 21
25.0626
 31
0.0
  0
LINE
  8
0
 62
     7
 10
151.625
 20
25.0626
 30
0.0
 11
151.625
 21
0.0617404
 31
0.0
  0
LINE
  8
0
 62
     7
 10
151.625
 20
0.0617404
 30
0.0
 11
126.624
 21
0.0617404
 31
0.0
  0
LINE
  8
0
 62
     7
 10
126.624
 20
0.0617404
 30
0.0
 11
126.624
 21
25.0626
 31
0.0
  0
LINE
  8
0
 62
     0
 10
126.624
 20
18.8135
 30
0.0
 11
130.793
 21
18.1881
 31
0.0
  0
LINE
  8
0
 62
     0
 10
151.625
 20
18.8135
 30
0.0
 11
147.457
 21
18.1881
 31
0.0
  0
LINE
  8
0
 62
     0
 10
126.624
 20
14.6467
 30
0.0
 11
130.793
 21
14.4381
 31
0.0
  0
LINE
  8
0
 62
     0
 10
151.625
 20
14.6467
 30
0.0
 11
147.457
 21
14.4381
 31
0.0
  0
LINE
  8
0
 62
     0
 10
126.624
 20
22.9785
 30
0.0
 11
151.625
 21
22.9785
 31
0.0
  0
LINE
  8
0
 62
     0
 10
126.624
 20
10.4781
 30
0.0
 11
130.793
 21
10.688
 31
0.0
  0
LINE
  8
0
 62
     0
 10
130.793
 20
10.688
 30
0.0
 11
147.457
 21
10.688
 31
0.0
  0
LINE
  8
0
 62
     0
 10
151.625
 20
10.4781
 30
0.0
 11
147.457
 21
6.93625
 31
0.0
  0
LINE
  8
0
 62
     0
 10
126.624
 20
6.31272
 30
0.0
 11
130.793
 21
6.93625
 31
0.0
  0
LINE
  8
0
 62
     0
 10
130.793
 20
6.93625
 30
0.0
 11
128.795
 21
9.43744
 31
0.0
  0
LINE
  8
0
 62
     0
 10
128.795
 20
9.43744
 30
0.0
 11
132.795
 21
9.43744
 31
0.0
  0
LINE
  8
0
 62
     0
 10
132.795
 20
9.43744
 30
0.0
 11
130.793
 21
6.93625
 31
0.0
  0
LINE
  8
0
 62
     0
 10
130.793
 20
6.93625
 30
0.0
 11
139.125
 21
6.31272
 31
0.0
  0
LINE
  8
0
 62
     0
 10
139.125
 20
6.31272
 30
0.0
 11
147.457
 21
5.53087
 31
0.0
  0
LINE
  8
0
 62
     0
 10
147.457
 20
5.53087
 30
0.0
 11
151.625
 21
6.31272
 31
0.0
  0
LINE
  8
0
 62
     0
 10
126.624
 20
2.146
 30
0.0
 11
139.125
 21
2.146
 31
0.0
  0
LINE
  8
0
 62
     0
 10
139.125
 20
2.146
 30
0.0
 11
144.206
 21
4.06819
 31
0.0
  0
LINE
  8
0
 62
     0
 10
144.206
 20
4.06819
 30
0.0
 11
142.204
 21
1.56917
 31
0.0
  0
LINE
  8
0
 62
     0
 10
142.204
 20
1.56917
 30
0.0
 11
146.207
 21
1.56917
 31
0.0
  0
LINE
  8
0
 62
     0
 10
146.207
 20
1.56917
 30
0.0
 11
144.206
 21
4.06819
 31
0.0
  0
LINE
  8
0
 62
     0
 10
144.206
 20
4.06819
 30
0.0
 11
151.625
 21
2.146
 31
0.0
  0
LINE
  8
0
 62
     7
 10
151.625
 20
25.0626
 30
0.0
 11
176.625
 21
25.0626
 31
0.0
  0
LINE
  8
0
 62
     7
 10
176.625
 20
25.0626
 30
0.0
 11
176.625
 21
0.0617404
 31
0.0
  0
LINE
  8
0
 62
     7
 10
176.625
 20
0.0617404
 30
0.0
 11
151.625
 21
0.0617404
 31
0.0
  0
LINE
  8
0
 62
     7
 10
151.625
 20
0.0617404
 30
0.0
 11
151.625
 21
25.0626
 31
0.0
  0
LINE
  8
0
 62
     0
 10
151.625
 20
18.8135
 30
0.0
 11
155.794
 21
18.1881
 31
0.0
  0
LINE
  8
0
 62
     0
 10
176.625
 20
18.8135
 30
0.0
 11
172.457
 21
18.1881
 31
0.0
  0
LINE
  8
0
 62
     0
 10
151.625
 20
14.6467
 30
0.0
 11
155.794
 21
14.4381
 31
0.0
  0
LINE
  8
0
 62
     0
 10
176.625
 20
14.6467
 30
0.0
 11
172.457
 21
14.4381
 31
0.0
  0
LINE
  8
0
 62
     0
 10
151.625
 20
22.9785
 30
0.0
 11
176.625
 21
22.9785
 31
0.0
  0
LINE
  8
0
 62
     0
 10
151.625
 20
10.4781
 30
0.0
 11
155.794
 21
10.688
 31
0.0
  0
LINE
  8
0
 62
     0
 10
155.794
 20
10.688
 30
0.0
 11
172.457
 21
10.688
 31
0.0
  0
LINE
  8
0
 62
     0
 10
176.625
 20
10.4781
 30
0.0
 11
172.457
 21
6.93625
 31
0.0
  0
LINE
  8
0
 62
     0
 10
151.625
 20
6.31272
 30
0.0
 11
155.794
 21
6.93625
 31
0.0
  0
LINE
  8
0
 62
     0
 10
155.794
 20
6.93625
 30
0.0
 11
153.794
 21
9.43744
 31
0.0
  0
LINE
  8
0
 62
     0
 10
153.794
 20
9.43744
 30
0.0
 11
157.794
 21
9.43744
 31
0.0
  0
LINE
  8
0
 62
     0
 10
157.794
 20
9.43744
 30
0.0
 11
155.794
 21
6.93625
 31
0.0
  0
LINE
  8
0
 62
     0
 10
155.794
 20
6.93625
 30
0.0
 11
164.126
 21
6.31272
 31
0.0
  0
LINE
  8
0
 62
     0
 10
164.126
 20
6.31272
 30
0.0
 11
172.457
 21
5.53087
 31
0.0
  0
LINE
  8
0
 62
     0
 10
172.457
 20
5.53087
 30
0.0
 11
176.625
 21
6.31272
 31
0.0
  0
LINE
  8
0
 62
     0
 10
151.625
 20
2.146
 30
0.0
 11
164.126
 21
2.146
 31
0.0
  0
LINE
  8
0
 62
     0
 10
164.126
 20
2.146
 30
0.0
 11
169.204
 21
4.06819
 31
0.0
  0
LINE
  8
0
 62
     0
 10
169.204
 20
4.06819
 30
0.0
 11
167.206
 21
1.56917
 31
0.0
  0
LINE
  8
0
 62
     0
 10
167.206
 20
1.56917
 30
0.0
 11
171.206
 21
1.56917
 31
0.0
  0
LINE
  8
0
 62
     0
 10
171.206
 20
1.56917
 30
0.0
 11
169.204
 21
4.06819
 31
0.0
  0
LINE
  8
0
 62
     0
 10
169.204
 20
4.06819
 30
0.0
 11
176.625
 21
2.146
 31
0.0
  0
LINE
  8
0
 62
     7
 10
176.625
 20
25.0626
 30
0.0
 11
201.626
 21
25.0626
 31
0.0
  0
LINE
  8
0
 62
     7
 10
201.626
 20
25.0626
 30
0.0
 11
201.626
 21
0.0617404
 31
0.0
  0
LINE
  8
0
 62
     7
 10
201.626
 20
0.0617404
 30
0.0
 11
176.625
 21
0.0617404
 31
0.0
  0
LINE
  8
0
 62
     7
 10
176.625
 20
0.0617404
 30
0.0
 11
176.625
 21
25.0626
 31
0.0
  0
LINE
  8
0
 62
     0
 10
176.625
 20
18.8135
 30
0.0
 11
180.793
 21
18.1881
 31
0.0
  0
LINE
  8
0
 62
     0
 10
201.626
 20
18.8135
 30
0.0
 11
197.457
 21
18.1881
 31
0.0
  0
LINE
  8
0
 62
     0
 10
176.625
 20
14.6467
 30
0.0
 11
180.793
 21
14.4381
 31
0.0
  0
LINE
  8
0
 62
     0
 10
201.626
 20
14.6467
 30
0.0
 11
197.457
 21
14.4381
 31
0.0
  0
LINE
  8
0
 62
     0
 10
176.625
 20
22.9785
 30
0.0
 11
201.626
 21
22.9785
 31
0.0
  0
LINE
  8
0
 62
     0
 10
176.625
 20
10.4781
 30
0.0
 11
180.793
 21
10.688
 31
0.0
  0
LINE
  8
0
 62
     0
 10
180.793
 20
10.688
 30
0.0
 11
197.457
 21
10.688
 31
0.0
  0
LINE
  8
0
 62
     0
 10
201.626
 20
10.4781
 30
0.0
 11
197.457
 21
6.93625
 31
0.0
  0
LINE
  8
0
 62
     0
 10
176.625
 20
6.31272
 30
0.0
 11
180.793
 21
6.93625
 31
0.0
  0
LINE
  8
0
 62
     0
 10
180.793
 20
6.93625
 30
0.0
 11
178.793
 21
9.43744
 31
0.0
  0
LINE
  8
0
 62
     0
 10
178.793
 20
9.43744
 30
0.0
 11
182.794
 21
9.43744
 31
0.0
  0
LINE
  8
0
 62
     0
 10
182.794
 20
9.43744
 30
0.0
 11
180.793
 21
6.93625
 31
0.0
  0
LINE
  8
0
 62
     0
 10
180.793
 20
6.93625
 30
0.0
 11
189.125
 21
6.31272
 31
0.0
  0
LINE
  8
0
 62
     0
 10
189.125
 20
6.31272
 30
0.0
 11
197.457
 21
5.53087
 31
0.0
  0
LINE
  8
0
 62
     0
 10
197.457
 20
5.53087
 30
0.0
 11
201.626
 21
6.31272
 31
0.0
  0
LINE
  8
0
 62
     0
 10
176.625
 20
2.146
 30
0.0
 11
189.125
 21
2.146
 31
0.0
  0
LINE
  8
0
 62
     0
 10
189.125
 20
2.146
 30
0.0
 11
194.206
 21
4.06819
 31
0.0
  0
LINE
  8
0
 62
     0
 10
194.206
 20
4.06819
 30
0.0
 11
192.206
 21
1.56917
 31
0.0
  0
LINE
  8
0
 62
     0
 10
192.206
 20
1.56917
 30
0.0
 11
196.206
 21
1.56917
 31
0.0
  0
LINE
  8
0
 62
     0
 10
196.206
 20
1.56917
 30
0.0
 11
194.206
 21
4.06819
 31
0.0
  0
LINE
  8
0
 62
     0
 10
194.206
 20
4.06819
 30
0.0
 11
201.626
 21
2.146
 31
0.0
  0
LINE
  8
0
 62
     7
 10
201.626
 20
25.0626
 30
0.0
 11
226.625
 21
25.0626
 31
0.0
  0
LINE
  8
0
 62
     7
 10
226.625
 20
25.0626
 30
0.0
 11
226.625
 21
0.0617404
 31
0.0
  0
LINE
  8
0
 62
     7
 10
226.625
 20
0.0617404
 30
0.0
 11
201.626
 21
0.0617404
 31
0.0
  0
LINE
  8
0
 62
     7
 10
201.626
 20
0.0617404
 30
0.0
 11
201.626
 21
25.0626
 31
0.0
  0
LINE
  8
0
 62
     0
 10
201.626
 20
18.8135
 30
0.0
 11
205.794
 21
18.1881
 31
0.0
  0
LINE
  8
0
 62
     0
 10
201.626
 20
14.6467
 30
0.0
 11
205.794
 21
14.4381
 31
0.0
  0
LINE
  8
0
 62
     0
 10
201.626
 20
22.9785
 30
0.0
 11
226.625
 21
22.9785
 31
0.0
  0
LINE
  8
0
 62
     0
 10
226.625
 20
22.9785
 30
0.0
 11
226.625
 21
10.4781
 31
0.0
  0
LINE
  8
0
 62
     0
 10
201.626
 20
10.4781
 30
0.0
 11
205.794
 21
10.688
 31
0.0
  0
LINE
  8
0
 62
     0
 10
205.794
 20
10.688
 30
0.0
 11
222.457
 21
10.688
 31
0.0
  0
LINE
  8
0
 62
     0
 10
226.625
 20
10.4781
 30
0.0
 11
222.457
 21
6.93625
 31
0.0
  0
LINE
  8
0
 62
     0
 10
201.626
 20
6.31272
 30
0.0
 11
205.794
 21
6.93625
 31
0.0
  0
LINE
  8
0
 62
     0
 10
201.626
 20
2.146
 30
0.0
 11
214.125
 21
2.146
 31
0.0
  0
LINE
  8
0
 62
     0
 10
214.125
 20
2.146
 30
0.0
 11
219.204
 21
4.06819
 31
0.0
  0
ENDSEC
  0
EOF
